<svg width="638" height="396" viewBox="0 0 638 396" fill="none" xmlns="http://www.w3.org/2000/svg">
<path d="M621.385 388.759C621.385 392.503 482.256 395.539 310.693 395.539C139.13 395.539 0 392.503 0 388.759C0 385.014 139.13 381.978 310.693 381.978C482.306 382.029 621.385 385.014 621.385 388.759Z" fill="#E1E1E1"/>
<path d="M119.073 373.527L125.136 381.926C125.136 381.926 563.996 368.466 570.411 367.505C576.827 366.544 590.114 356.019 590.114 356.019L546.314 295.752L162.773 310.123L119.073 373.527Z" fill="#2C3352"/>
<path d="M632.045 340.99C630.63 345.747 629.165 349.795 627.953 351.768C626.639 353.995 620.527 355.816 612.241 357.284C599.713 359.561 582.183 361.129 569.098 362.293C566.572 362.546 564.198 362.749 562.076 362.951C561.318 363.002 560.51 363.103 559.651 363.153C561.015 359.004 561.722 354.551 561.722 349.946C561.722 349.44 561.722 348.934 561.722 348.428C560.914 325 541.262 306.682 517.872 307.543C494.481 308.352 476.193 328.036 477.002 351.464C477.052 352.679 477.153 353.893 477.305 355.108C477.81 359.156 478.82 363.002 480.386 366.594C477.052 366.695 473.92 366.797 471.04 366.898L235.419 375.348C236.531 372.059 237.288 368.568 237.592 364.975C237.743 363.356 237.743 361.686 237.693 360.016C236.884 336.588 217.232 318.27 193.842 319.13C170.452 319.94 152.164 339.624 152.972 363.052C153.023 364.317 153.124 365.582 153.275 366.797C153.78 370.794 154.791 374.589 156.306 378.182L151.76 378.334C150.143 378.384 148.526 378.435 146.96 378.486C137.058 378.789 128.319 378.789 121.499 378.081C118.72 376.36 115.891 374.336 115.184 372.818C114.78 371.958 114.224 369.58 113.618 366.493C111.9 357.891 109.627 343.723 107.959 340.332C105.636 335.728 103.059 327.328 103.059 327.328C103.059 327.328 103.312 327.176 103.665 326.872C105.029 325.81 108.364 322.875 108.97 319.08C109.475 315.993 105.383 311.489 106.141 309.617C106.191 309.567 106.191 309.465 106.242 309.415C106.393 309.061 106.545 308.757 106.696 308.504C107.454 307.239 118.872 304.051 129.531 301.116C137.412 298.94 144.939 296.967 147.314 296.157C152.972 294.133 189.598 284.064 225.821 280.521C228.296 278.497 230.923 276.473 233.55 274.449C234.156 273.994 234.712 273.589 235.318 273.134C267.044 249.705 308.268 230.78 339.741 221.116C344.49 219.648 349.037 218.383 353.28 217.371C382.682 210.338 434.515 210.236 473.768 214.79C524.894 221.065 568.34 255.98 569.654 257.093L569.704 257.144C569.704 257.144 569.704 257.144 569.755 257.144C569.856 257.144 570.007 257.144 570.26 257.144C570.917 257.144 572.129 257.245 573.746 257.346C573.948 257.346 574.15 257.397 574.403 257.397C575.716 257.498 577.232 257.599 578.899 257.7C579.758 257.751 580.667 257.852 581.576 257.903C582.486 257.953 583.395 258.055 584.355 258.156C584.708 258.206 585.113 258.206 585.517 258.257C586.477 258.358 587.386 258.409 588.346 258.51C588.396 258.51 588.497 258.51 588.598 258.51C589.861 258.662 591.175 258.763 592.488 258.915C592.589 258.915 592.741 258.915 592.842 258.965C595.014 259.218 597.136 259.471 599.258 259.724C601.531 260.028 603.704 260.382 605.724 260.736C606.23 260.838 606.735 260.939 607.24 260.989C607.644 261.091 608.048 261.141 608.452 261.242C609.311 261.445 610.17 261.597 610.978 261.799C611.736 262.001 612.494 262.204 613.201 262.406C613.454 262.457 613.656 262.558 613.909 262.609C614.313 262.76 614.717 262.862 615.07 263.013C615.121 263.013 615.121 263.064 615.172 263.064C615.374 263.165 615.525 263.216 615.727 263.266C616.333 263.519 616.889 263.772 617.344 264.076C617.697 264.278 617.95 264.481 618.152 264.683C618.304 264.835 618.455 264.987 618.556 265.189C619.718 266.606 620.88 269.237 621.992 272.476C624.164 278.75 626.134 287.302 627.549 294.083C628.812 300.256 629.62 304.962 629.62 304.962C629.62 304.962 635.884 309.769 637.147 314.424C637.905 317.612 635.076 330.87 632.045 340.99Z" fill="#D93D3D"/>
<path d="M617.243 264.176C594.357 271.767 448.963 285.834 381.419 288.212C310.794 290.742 256.283 291.248 246.937 291.552C237.642 291.906 203.542 302.431 196.772 304.506C190.002 306.53 173.382 302.127 167.622 302.684C161.914 303.241 156.761 309.566 151.709 310.072C146.657 310.578 130.844 308.655 130.844 308.655L129.48 301.166C137.361 298.99 144.889 297.017 147.263 296.207C152.921 294.183 189.548 284.113 225.77 280.571C228.245 278.547 230.872 276.523 233.499 274.499C234.106 274.044 234.661 273.639 235.268 273.184C266.994 249.755 308.217 230.83 339.691 221.165C344.439 219.698 348.986 218.433 353.23 217.421C382.632 210.387 434.464 210.286 473.718 214.84C524.843 221.115 568.29 256.03 569.603 257.143L569.654 257.194C569.654 257.194 569.654 257.194 569.704 257.194C569.805 257.194 569.957 257.194 570.209 257.194C570.866 257.194 572.079 257.295 573.695 257.396C573.897 257.396 574.099 257.447 574.352 257.447C575.665 257.548 577.181 257.649 578.848 257.75C579.707 257.801 580.616 257.902 581.526 257.953C582.435 258.003 583.344 258.104 584.304 258.206C584.658 258.256 585.062 258.256 585.466 258.307C586.426 258.408 587.335 258.459 588.295 258.56C588.346 258.56 588.447 258.56 588.548 258.56C589.811 258.712 591.124 258.813 592.438 258.965C592.539 258.965 592.69 258.965 592.791 259.015C594.964 259.268 597.086 259.521 599.207 259.774C601.481 260.078 603.653 260.432 605.674 260.786C606.179 260.887 606.684 260.989 607.189 261.039C607.594 261.14 607.998 261.191 608.402 261.292C609.261 261.495 610.119 261.646 610.928 261.849C611.686 262.051 612.443 262.254 613.151 262.456C613.403 262.507 613.605 262.608 613.858 262.658C614.262 262.81 614.666 262.911 615.02 263.063C615.07 263.063 615.07 263.114 615.121 263.114C615.323 263.215 615.475 263.266 615.677 263.316C616.232 263.62 616.788 263.873 617.243 264.176Z" fill="#F95B6C"/>
<path d="M153.629 378.283L151.76 378.334C150.143 378.384 148.526 378.435 146.96 378.485C144.081 378.587 141.353 378.637 138.675 378.637C132.158 378.688 126.348 378.587 121.499 378.03C118.72 376.309 115.891 374.285 115.184 372.767C114.78 371.907 114.224 369.529 113.618 366.442C111.9 357.84 109.627 343.672 107.959 340.281C106.696 337.802 105.383 334.209 104.423 331.426C103.615 329.048 103.059 327.277 103.059 327.277C103.059 327.277 103.16 327.226 103.261 327.125C103.362 327.074 103.514 326.973 103.665 326.821L123.923 324.949C124.732 325.405 125.54 325.86 126.348 326.366C135.442 331.983 142.767 341.293 146.708 350.402C149.587 357.081 152.214 370.237 153.629 378.283Z" fill="#705858"/>
<path d="M239.865 280.573C238.349 284.823 197.277 298.03 192.933 297.069C188.588 296.158 163.834 296.664 158.529 298.637C151.305 301.319 128.723 308.707 128.723 308.707L105.737 310.832C105.888 310.377 105.989 310.023 106.141 309.668C106.191 309.618 106.191 309.517 106.242 309.466C106.393 309.112 106.545 308.808 106.696 308.555C108.06 306.379 141.656 298.232 147.314 296.208C152.972 294.184 189.598 284.115 225.821 280.573C228.296 278.549 230.923 276.525 233.55 274.5C237.389 276.525 240.471 278.751 239.865 280.573Z" fill="#2C3352"/>
<g opacity="0.4">
<path opacity="0.4" d="M127.056 310.427L125.944 309.516C135.745 297.878 166.915 293.982 194.398 290.541C214.656 288.011 233.752 285.582 239.865 280.572L240.774 281.685C234.308 286.999 215.868 289.276 194.549 291.958C167.319 295.398 136.452 299.244 127.056 310.427Z" fill="#2C3352"/>
</g>
<path d="M339.741 221.167C295.688 239.738 252.697 281.079 248.605 281.585C244.31 282.091 225.82 280.573 225.82 280.573C258.456 253.805 305.034 231.793 339.741 221.167Z" fill="#8FE5FF"/>
<path d="M477.305 355.159C477.81 359.207 478.82 363.052 480.387 366.645C477.052 366.746 473.92 366.848 471.04 366.949L235.419 375.349C236.531 372.06 237.288 368.568 237.592 364.975C240.522 364.874 243.452 364.773 246.432 364.722C322.009 362.395 411.681 358.549 477.305 355.159Z" fill="#BD3535"/>
<path d="M632.045 340.989C630.63 345.746 629.165 349.794 627.953 351.767C624.619 357.384 590.821 360.37 569.098 362.343C566.572 362.596 564.198 362.798 562.076 363.001C561.318 363.051 560.51 363.153 559.651 363.203C561.015 359.054 561.722 354.601 561.722 349.996C562.834 349.895 563.844 349.794 564.703 349.693C566.673 349.49 568.643 349.288 570.563 349.085C600.571 345.847 621.891 342.608 632.045 340.989Z" fill="#BD3535"/>
<path d="M246.483 359.763C246.533 361.433 246.533 363.103 246.432 364.722C246.23 368.264 245.624 371.705 244.765 375.045L235.419 375.399C236.531 372.11 237.288 368.618 237.592 365.025C237.743 363.406 237.743 361.736 237.693 360.067C236.884 336.638 217.232 318.32 193.842 319.181C170.452 319.99 152.164 339.674 152.972 363.103C153.022 364.368 153.124 365.633 153.275 366.847C153.78 370.845 154.791 374.64 156.306 378.232L151.76 378.384C150.143 378.435 148.526 378.485 146.96 378.536C145.697 374.842 144.788 370.946 144.384 366.898C144.283 365.734 144.182 364.57 144.131 363.406C143.121 335.12 165.198 311.338 193.488 310.376C221.729 309.313 245.473 331.426 246.483 359.763Z" fill="#F95B6C"/>
<path d="M570.513 348.175C570.513 348.478 570.513 348.782 570.513 349.085C570.614 353.64 570.108 358.092 569.048 362.343C566.522 362.596 564.147 362.798 562.025 363.001C561.268 363.051 560.459 363.153 559.6 363.203C560.964 359.054 561.672 354.601 561.672 349.996C561.672 349.49 561.672 348.984 561.672 348.478C560.863 325.05 541.212 306.732 517.821 307.592C494.431 308.402 476.143 328.086 476.951 351.514C477.002 352.729 477.103 353.943 477.254 355.158C477.759 359.206 478.77 363.051 480.336 366.644C477.002 366.745 473.87 366.846 470.99 366.948C469.323 362.191 468.363 357.131 468.161 351.818C467.15 323.532 489.227 299.749 517.518 298.788C545.809 297.776 569.502 319.889 570.513 348.175Z" fill="#F95B6C"/>
<path d="M569.654 257.144C569.654 257.144 556.418 258.359 554.599 258.055C552.881 257.752 524.338 228.049 473.718 214.842C524.894 221.116 568.29 256.031 569.654 257.144Z" fill="#8FE5FF"/>
<path d="M526.46 262.66C523.479 263.47 514.841 264.735 502.463 266.152C497.26 266.759 491.45 267.417 485.085 268.125C469.777 269.795 451.49 271.617 432.04 273.337C424.159 274.045 416.076 274.754 407.942 275.462C403.648 275.817 399.354 276.171 395.06 276.525C385.865 277.284 376.671 277.992 367.628 278.65C356.564 279.46 345.702 280.168 335.498 280.775C329.284 281.13 323.272 281.484 317.563 281.737C297.76 282.698 281.543 283.052 272.046 282.496C287.959 269.087 312.865 247.986 342.267 234.678C350.401 230.984 358.888 227.948 367.678 225.772C371.922 224.76 376.216 223.9 380.561 223.343C383.844 222.888 387.179 222.635 390.513 222.533C392.029 222.483 393.544 222.432 395.06 222.382C405.972 222.129 416.53 222.432 426.533 223.141C438.152 223.95 449.115 225.418 459.219 227.341C460.633 227.594 462.048 227.897 463.412 228.201C469.727 229.567 475.739 231.085 481.296 232.805C505.191 240.244 521.509 250.921 526.46 262.66Z" fill="#8FE5FF"/>
<path opacity="0.3" d="M367.577 225.822C357.726 242.47 344.187 265.544 335.397 280.775C329.183 281.129 323.171 281.483 317.462 281.736C323.171 270.756 333.325 251.224 342.166 234.677C350.35 231.034 358.837 227.947 367.577 225.822Z" fill="white"/>
<path opacity="0.3" d="M459.118 227.389L431.989 273.386C424.108 274.094 416.025 274.802 407.891 275.511C412.185 262.962 420.016 241.102 426.482 223.24C438.102 223.999 449.014 225.416 459.118 227.389Z" fill="white"/>
<path d="M394.958 222.432V276.524C385.764 277.283 376.569 277.992 367.527 278.65L380.459 223.393C383.743 222.938 387.077 222.685 390.412 222.583C391.927 222.533 393.443 222.482 394.958 222.432Z" fill="#BD3535"/>
<path d="M502.413 266.15C497.209 266.757 491.4 267.415 485.034 268.124L463.311 228.199C469.626 229.565 475.638 231.083 481.195 232.804L502.413 266.15Z" fill="#BD3535"/>
<path d="M362.576 297.625L343.227 298.333C341.661 298.384 340.297 297.17 340.246 295.55C340.196 293.982 341.408 292.616 343.025 292.565L362.374 291.857C363.94 291.806 365.304 293.02 365.354 294.64C365.405 296.208 364.142 297.574 362.576 297.625Z" fill="#BD3535"/>
<path d="M479.427 293.425L460.078 294.134C458.512 294.184 457.148 292.97 457.097 291.351C457.047 289.782 458.259 288.416 459.876 288.365L479.225 287.657C480.791 287.606 482.155 288.821 482.205 290.44C482.256 292.059 481.043 293.375 479.427 293.425Z" fill="#BD3535"/>
<path d="M637.046 314.425C598.45 318.675 580.313 313.565 580.313 313.565C580.313 313.565 615.475 313.008 629.519 304.962C629.519 305.013 635.783 309.82 637.046 314.425Z" fill="#F95B6C"/>
<path d="M627.447 294.134C620.122 294.994 598.5 297.473 597.237 295.702C595.721 293.577 593.145 281.129 595.57 278.498C597.49 276.423 614.666 273.64 621.941 272.527C624.063 278.801 626.033 287.404 627.447 294.134Z" fill="#A3204E"/>
<path d="M288.666 267.011C292.253 267.669 294.375 280.825 291.596 286.088C288.868 291.401 276.996 287.251 275.38 286.644C273.713 286.037 268.307 288.213 268.307 288.213C268.307 288.213 264.316 285.43 267.448 282.394C270.58 279.358 278.512 265.088 288.666 267.011Z" fill="#BD3535"/>
<path d="M142.009 322.368C141.605 323.026 139.433 323.785 136.351 324.544C133.623 325.202 130.087 325.91 126.348 326.467C117.558 327.783 107.454 328.542 103.059 327.378C103.059 327.378 103.16 327.327 103.261 327.226C103.362 327.175 103.514 327.074 103.665 326.922C104.069 326.568 104.676 326.113 105.282 325.505C106.798 324.038 108.566 321.812 108.97 319.13C109.323 316.802 107.151 313.715 106.343 311.54C106.09 310.781 105.939 310.173 106.141 309.667C112.708 308.756 127.258 306.935 135.694 306.884C138.877 306.834 141.151 307.087 141.807 307.694C144.838 310.426 143.727 319.788 142.009 322.368Z" fill="#705858"/>
<path opacity="0.4" d="M136.2 356.626C137.614 359.409 138.372 371.908 138.726 378.689C132.209 378.739 126.399 378.638 121.549 378.081C118.771 376.361 115.941 374.337 115.234 372.819C114.83 371.959 114.274 369.58 113.668 366.494C111.95 357.891 109.677 343.723 108.01 340.333C106.747 337.853 105.433 334.261 104.474 331.478C109.02 331.275 126.298 330.617 128.571 332.439C131.148 334.514 131.249 337.752 131.249 337.752C131.249 337.752 120.488 337.752 118.013 339.321C115.537 340.839 119.528 351.111 119.528 351.111C119.528 351.111 134.229 352.73 136.2 356.626Z" fill="#705858"/>
<path opacity="0.4" d="M140.292 320.496C138.726 322.875 111.597 325.556 105.332 325.455C106.848 323.988 108.616 321.761 109.02 319.08C109.374 316.752 107.202 313.665 106.393 311.489C116.093 310.832 138.523 309.364 139.938 310.477C141.757 311.844 141.959 317.966 140.292 320.496Z" fill="#705858"/>
<path opacity="0.2" d="M498.017 284.62C491.147 266.555 472.505 225.568 469.929 222.836C466.645 219.395 425.421 214.992 390.109 216.409C389.603 216.409 389.098 216.46 388.644 216.46C387.633 216.51 386.572 216.561 385.562 216.612C348.026 218.686 323.07 228.958 257.546 282.444L257.344 282.646C252.444 291.4 255.475 354.551 256.738 359.408C256.991 360.319 257.597 362.647 332.971 359.965L339.792 359.712C352.775 359.206 365.96 358.649 378.641 358.042C379.146 358.042 379.601 357.992 380.055 357.992C410.821 356.524 438.253 354.804 452.298 353.488C455.935 353.134 458.764 350.199 458.966 346.505C460.229 324.342 473.516 304.658 493.622 295.195C497.714 293.323 499.584 288.769 498.017 284.62ZM258.102 358.852C256.688 352.577 254.162 291.856 258.557 283.456C323.676 230.274 348.481 220.103 385.612 218.028C386.522 217.978 387.431 217.927 388.34 217.877C385.915 230.831 377.883 273.538 376.519 285.075C375.104 296.815 377.731 342.457 378.59 356.524C324.03 359.155 262.346 360.977 258.102 358.852ZM493.067 293.93C472.455 303.646 458.865 323.734 457.602 346.454C457.451 349.44 455.177 351.768 452.197 352.071C437.748 353.437 410.064 355.107 380.005 356.524C379.146 342.558 376.519 296.764 377.933 285.278C379.348 273.69 387.482 230.375 389.856 217.826C426.684 216.308 466.443 221.216 468.918 223.797C471.141 226.125 489.48 266.15 496.704 285.126C497.967 288.567 496.401 292.362 493.067 293.93Z" fill="#2C3352"/>
<path opacity="0.3" d="M632.045 340.99C630.63 345.746 629.165 349.794 627.953 351.768C626.639 353.994 620.527 355.816 612.241 357.283C613.757 347.062 616.586 319.484 615.222 316.954C613.706 314.121 609.261 311.439 609.261 311.439C609.261 311.439 602.794 271.413 596.227 267.314C589.811 263.368 570.917 257.498 569.704 257.144C571.472 257.245 612.544 259.319 618.001 264.734C618.152 264.886 618.304 265.037 618.405 265.24C619.567 266.657 620.729 269.288 621.84 272.526C624.012 278.801 625.983 287.353 627.397 294.133C628.66 300.306 629.468 305.012 629.468 305.012C629.468 305.012 635.733 309.819 636.996 314.475C637.855 317.612 635.076 330.87 632.045 340.99Z" fill="#BD3535"/>
<path d="M240.774 281.685C240.774 281.685 178.333 260.585 166.511 260.635C154.69 260.686 127.51 294.741 127.51 294.741C127.51 294.741 131.451 294.235 133.876 292.362C136.301 290.49 163.328 272.274 168.987 269.895C174.645 267.517 234.106 284.671 235.924 284.57C237.693 284.519 240.774 281.685 240.774 281.685Z" fill="#D93D3D"/>
<path d="M215.818 249.907C195.004 243.076 184.597 235.536 204.704 211.096C224.81 186.656 208.291 166.921 197.884 153.967C187.477 141.013 221.931 113.031 221.931 113.031C221.931 113.031 205.411 132.816 209.351 148.249C213.292 163.683 231.226 184.885 232.691 201.431C234.106 217.978 209.756 219.395 205.765 228.402C201.824 237.358 211.17 245.252 215.818 249.907Z" fill="#6F8694"/>
<path d="M229.003 377.575C227.488 381.067 225.467 384.305 222.941 387.139H167.622C165.046 384.204 162.975 380.814 161.459 377.17C159.792 373.224 158.782 368.872 158.63 364.318C157.923 344.027 173.735 326.974 193.993 326.266C214.252 325.557 231.276 341.395 231.984 361.686C232.186 367.354 231.125 372.718 229.003 377.575Z" fill="#444B69"/>
<path d="M231.933 382.129C231.933 383.495 231.378 384.76 230.468 385.671C229.559 386.582 228.296 387.139 226.932 387.139H162.368C159.59 387.139 157.367 384.862 157.367 382.129C157.367 380.763 157.923 379.498 158.832 378.587C159.539 377.879 160.449 377.373 161.459 377.17C161.762 377.12 162.065 377.069 162.368 377.069H226.932C227.69 377.069 228.397 377.221 229.003 377.525C230.771 378.385 231.933 380.105 231.933 382.129Z" fill="#444B69"/>
<path d="M218.243 362.192C218.697 374.893 208.796 385.519 196.166 385.975C183.536 386.43 172.876 376.512 172.422 363.862C171.967 351.212 181.869 340.535 194.499 340.08C207.179 339.624 217.788 349.542 218.243 362.192Z" fill="#A9ABB6"/>
<path d="M215.413 362.293C215.818 373.425 207.128 382.787 196.014 383.141C184.9 383.546 175.554 374.842 175.2 363.71C174.796 352.578 183.485 343.216 194.6 342.862C205.714 342.457 215.06 351.161 215.413 362.293Z" fill="#7B7D85"/>
<path d="M201.218 362.799C201.319 366.088 198.793 368.821 195.509 368.922C192.225 369.023 189.497 366.493 189.396 363.204C189.295 359.915 191.821 357.183 195.105 357.081C198.389 356.98 201.117 359.51 201.218 362.799Z" fill="#A9ABB6"/>
<path d="M196.065 355.968L194.094 356.069L192.629 344.127L196.62 343.976L196.065 355.968Z" fill="#3B3C40"/>
<path d="M192.427 356.576L190.76 357.588L183.586 347.973L186.971 345.848L192.427 356.576Z" fill="#3B3C40"/>
<path d="M189.598 358.852L188.689 360.572L177.625 355.866L179.545 352.324L189.598 358.852Z" fill="#3B3C40"/>
<path d="M188.285 362.293L188.335 364.267L176.463 365.683L176.312 361.686L188.285 362.293Z" fill="#3B3C40"/>
<path d="M188.891 365.886L189.901 367.556L180.303 374.792L178.181 371.402L188.891 365.886Z" fill="#3B3C40"/>
<path d="M191.164 368.77L192.882 369.681L188.184 380.712L184.647 378.84L191.164 368.77Z" fill="#3B3C40"/>
<path d="M194.6 370.036L196.57 369.985L197.984 381.927L193.993 382.028L194.6 370.036Z" fill="#3B3C40"/>
<path d="M198.187 369.479L199.854 368.416L207.078 378.031L203.693 380.156L198.187 369.479Z" fill="#3B3C40"/>
<path d="M201.016 367.152L201.975 365.431L212.989 370.137L211.119 373.679L201.016 367.152Z" fill="#3B3C40"/>
<path d="M202.329 363.76L202.279 361.787L214.201 360.32L214.302 364.368L202.329 363.76Z" fill="#3B3C40"/>
<path d="M201.773 360.117L200.712 358.448L210.311 351.262L212.433 354.652L201.773 360.117Z" fill="#3B3C40"/>
<path d="M199.449 357.284L197.732 356.373L202.43 345.342L205.966 347.214L199.449 357.284Z" fill="#3B3C40"/>
<path d="M556.064 348.733C556.771 369.024 540.959 386.077 520.701 386.785C500.442 387.494 483.417 371.656 482.71 351.364C482.003 331.073 497.815 314.021 518.074 313.312C538.332 312.553 555.357 328.442 556.064 348.733Z" fill="#444B69"/>
<path d="M542.272 349.188C542.727 361.839 532.825 372.516 520.195 372.971C507.515 373.426 496.906 363.509 496.451 350.858C495.997 338.208 505.898 327.531 518.528 327.076C531.208 326.62 541.817 336.538 542.272 349.188Z" fill="#A9ABB6"/>
<path d="M539.494 349.289C539.898 360.421 531.209 369.783 520.094 370.137C508.98 370.542 499.634 361.838 499.281 350.706C498.876 339.574 507.566 330.212 518.68 329.858C529.744 329.504 539.09 338.207 539.494 349.289Z" fill="#7B7D85"/>
<path d="M525.298 349.795C525.399 353.084 522.873 355.817 519.589 355.918C516.305 356.019 513.577 353.489 513.476 350.2C513.375 346.911 515.901 344.178 519.185 344.077C522.418 343.976 525.197 346.557 525.298 349.795Z" fill="#A9ABB6"/>
<path d="M520.094 342.964L518.124 343.065L516.709 331.123L520.7 330.971L520.094 342.964Z" fill="#3B3C40"/>
<path d="M516.507 343.57L514.84 344.582L507.616 335.019L511.001 332.894L516.507 343.57Z" fill="#3B3C40"/>
<path d="M513.628 345.899L512.719 347.62L501.705 342.914L503.575 339.372L513.628 345.899Z" fill="#3B3C40"/>
<path d="M512.365 349.289L512.415 351.262L500.493 352.679L500.392 348.682L512.365 349.289Z" fill="#3B3C40"/>
<path d="M512.921 352.932L513.981 354.551L504.383 361.787L502.261 358.397L512.921 352.932Z" fill="#3B3C40"/>
<path d="M515.244 355.766L516.962 356.676L512.264 367.708L508.727 365.835L515.244 355.766Z" fill="#3B3C40"/>
<path d="M518.629 357.082L520.599 356.981L522.065 368.923L518.023 369.074L518.629 357.082Z" fill="#3B3C40"/>
<path d="M522.267 356.474L523.934 355.462L531.107 365.025L527.723 367.151L522.267 356.474Z" fill="#3B3C40"/>
<path d="M525.096 354.198L526.005 352.427L537.018 357.133L535.149 360.675L525.096 354.198Z" fill="#3B3C40"/>
<path d="M526.409 350.757L526.308 348.784L538.231 347.367L538.382 351.364L526.409 350.757Z" fill="#3B3C40"/>
<path d="M525.803 347.164L524.793 345.494L534.391 338.258L536.513 341.648L525.803 347.164Z" fill="#3B3C40"/>
<path d="M523.53 344.279L521.812 343.369L526.51 332.337L530.046 334.21L523.53 344.279Z" fill="#3B3C40"/>
<path d="M137.968 384.303C137.968 384.303 108.566 390.426 102.453 390.78C99.5733 390.932 96.5926 389.11 94.2688 387.137C91.6923 384.91 89.8736 382.532 89.8736 382.532L89.722 382.279L84.1144 372.108C84.1144 372.108 79.4666 374.284 78.7089 373.171C78.0016 372.108 70.8279 360.571 70.8279 358.092C70.8279 355.612 74.7684 349.085 77.2943 346.605C77.2943 346.605 118.568 335.827 123.923 338.003C124.58 350.299 127.46 360.875 130.491 368.87C134.179 378.535 137.968 384.303 137.968 384.303Z" fill="#D93D3D"/>
<path d="M123.973 337.955C123.973 337.955 89.5192 348.024 70.8777 358.094C70.8777 355.564 74.8182 349.087 77.3441 346.607C77.3441 346.557 118.618 335.779 123.973 337.955Z" fill="#F95B6C"/>
<path d="M94.3194 387.089C91.7429 384.862 89.9242 382.484 89.9242 382.484L84.165 372.06C95.6329 367.051 100.685 378.537 101.746 382.13C102.453 384.457 97.7042 386.178 94.3194 387.089Z" fill="#BD3535"/>
<path d="M137.968 384.305C137.968 384.305 108.566 390.428 102.453 390.782C99.5732 390.934 96.5925 389.112 94.2686 387.139C91.6922 384.912 89.8735 382.534 89.8735 382.534L89.7219 382.281C105.332 380.611 124.277 371.857 130.491 368.821C134.179 378.536 137.968 384.305 137.968 384.305Z" fill="#BD3535"/>
<path d="M50.6202 254.868L77.5974 41.6846L82.902 45.9857L65.5234 255.88L50.6202 254.868Z" fill="#BFC0C3"/>
<path d="M49.7614 240.599H69.8175L61.9365 314.578L69.8175 387.14H49.7614L45.4167 314.578L49.7614 240.599Z" fill="#959699"/>
<path d="M104.423 41.0259C103.918 45.4788 102.2 49.4763 99.6743 52.7654C94.9255 58.787 87.2971 62.3291 79.113 61.4182C70.3226 60.4568 63.1994 54.6377 60.1683 46.8957C58.8548 43.556 58.3496 39.8621 58.7538 36.067C60.1178 23.4167 71.4846 14.3085 84.0638 15.6747C96.6936 17.0409 105.787 28.3756 104.423 41.0259Z" fill="#FFB547"/>
<path d="M99.6741 52.7154L60.2186 46.8457C62.593 52.9179 67.4934 57.8262 73.8083 60.1032L71.1308 77.1053L82.8007 78.1173L83.4069 61.4189C89.9239 60.9129 95.7336 57.6744 99.6741 52.7154Z" fill="#E1E2E6"/>
<g clip-path="url(#clip0)">
<path d="M608.68 28.123V91.7269C608.68 107.322 590.404 121.597 567.86 123.603L524.884 127.438L373.254 140.972C349.841 143.061 330.861 131.62 330.861 115.427V52.9162L524.884 35.6071L608.68 28.123Z" fill="#FD1B1C"/>
<path d="M608.68 28.123V91.7269C608.68 107.322 590.404 121.597 567.86 123.603L524.884 127.438V35.6017L608.68 28.123Z" fill="#D60708"/>
<path d="M608.674 43.9428L290.68 72.3187V57.889C290.68 40.3052 304.946 24.7765 322.546 23.2105L578.832 0.340546C595.315 -1.1321 608.674 11.0282 608.674 27.491V43.9428Z" fill="#FF3F40"/>
<path d="M608.674 70.5823L334.739 95.0293L290.68 72.3187L608.674 43.9429V70.5823Z" fill="url(#paint0_linear)"/>
<path d="M370.891 92.7037L375.695 92.262C375.598 92.785 375.434 93.2741 375.203 93.7292C374.971 94.1842 374.672 94.5974 374.305 94.9686C373.937 95.3398 373.491 95.6459 372.967 95.8869C372.457 96.1105 371.86 96.2539 371.175 96.3168C370.139 96.4121 369.185 96.2588 368.313 95.857C367.456 95.4537 366.749 94.8439 366.192 94.0275C365.634 93.1951 365.302 92.2054 365.196 91.0582C365.089 89.8951 365.236 88.8694 365.636 87.981C366.053 87.0911 366.654 86.385 367.442 85.8627C368.228 85.3245 369.123 85.0092 370.127 84.9169C371.194 84.8188 372.116 84.967 372.891 85.3617C373.681 85.7389 374.317 86.275 374.798 86.9698L377.558 85.0049C376.976 84.271 376.301 83.6583 375.533 83.1665C374.779 82.6574 373.926 82.286 372.972 82.0523C372.035 81.8172 370.992 81.7524 369.845 81.8578C368.555 81.9765 367.379 82.2935 366.318 82.8089C365.256 83.3242 364.355 84.0016 363.612 84.8411C362.87 85.6806 362.318 86.6633 361.955 87.7892C361.607 88.8977 361.493 90.0973 361.611 91.3878C361.73 92.6784 362.054 93.8456 362.584 94.8895C363.13 95.9319 363.837 96.8068 364.705 97.5143C365.59 98.2203 366.593 98.7385 367.716 99.0691C368.855 99.3982 370.07 99.5034 371.361 99.3847C372.731 99.2587 373.927 98.8997 374.949 98.3076C375.971 97.7156 376.801 96.9564 377.439 96.0301C378.091 95.0864 378.533 94.0335 378.763 92.8715C379.01 91.7081 379.05 90.4912 378.885 89.221L370.64 89.9792L370.891 92.7037ZM388.136 97.6253C389.458 97.5037 390.566 97.1447 391.459 96.5484C392.367 95.9348 393.06 95.0837 393.538 93.9954L390.761 93.4072C390.491 93.9623 390.121 94.398 389.652 94.7142C389.197 95.0131 388.628 95.1941 387.942 95.2571C387.337 95.3127 386.807 95.2249 386.352 94.9936C385.897 94.7623 385.534 94.402 385.264 93.9127C385.01 93.4219 384.849 92.81 384.782 92.0771C384.728 91.3108 384.78 90.6633 384.941 90.1344C385.115 89.5881 385.39 89.1692 385.765 88.8776C386.154 88.5687 386.652 88.3864 387.257 88.3307C387.751 88.2853 388.192 88.3572 388.579 88.5466C388.966 88.736 389.272 89.0131 389.499 89.3779C389.741 89.7412 389.887 90.1937 389.937 90.7354C389.947 90.847 389.928 90.9933 389.881 91.1744C389.848 91.3381 389.804 91.4707 389.749 91.5722L390.484 90.3959L383.338 91.053L383.514 92.9649L393.36 92.0595C393.368 91.9625 393.364 91.8343 393.349 91.6749C393.35 91.5141 393.344 91.3621 393.331 91.2187C393.223 90.0396 392.907 89.0564 392.385 88.2689C391.861 87.4655 391.15 86.8882 390.25 86.5372C389.364 86.1687 388.316 86.0401 387.105 86.1515C385.894 86.2628 384.865 86.5985 384.016 87.1585C383.167 87.7026 382.534 88.4276 382.12 89.3333C381.719 90.2217 381.573 91.2554 381.682 92.4345C381.789 93.5976 382.121 94.5873 382.678 95.4037C383.249 96.2028 384.003 96.8002 384.939 97.1962C385.876 97.5921 386.941 97.7352 388.136 97.6253ZM394.481 85.7143L394.72 88.3193L401.507 87.6952L401.268 85.0902L394.481 85.7143ZM396.017 81.7168L397.379 96.5343L400.367 96.2596L399.004 81.4421L396.017 81.7168ZM411.274 78.3858L412.812 95.1152L416.278 94.7966L414.739 78.0671L411.274 78.3858ZM426.797 87.0809L427.412 93.7727L430.615 93.4782L429.969 86.4519C429.847 85.1295 429.434 84.1311 428.729 83.4568C428.023 82.7666 427.017 82.4815 425.71 82.6016C424.93 82.6734 424.276 82.9023 423.749 83.2881C423.237 83.6566 422.842 84.1669 422.564 84.819L422.41 83.1461L419.303 83.4318L420.314 94.4254L423.421 94.1397L422.806 87.4479C422.763 86.9859 422.814 86.5795 422.959 86.2288C423.103 85.8781 423.335 85.5997 423.653 85.3937C423.97 85.1718 424.344 85.041 424.774 85.0014C425.411 84.9428 425.891 85.0915 426.213 85.4476C426.535 85.8036 426.73 86.348 426.797 87.0809ZM434.581 89.2814L433.254 91.3557C433.705 91.7159 434.201 92.0478 434.743 92.3515C435.3 92.6377 435.906 92.8551 436.563 93.0036C437.235 93.1507 437.961 93.1883 438.742 93.1165C440.001 93.0008 440.961 92.6072 441.622 91.9359C442.282 91.2486 442.561 90.3552 442.46 89.2559C442.399 88.5867 442.198 88.0589 441.857 87.6725C441.516 87.2861 441.078 86.9809 440.543 86.7569C440.023 86.5155 439.458 86.3104 438.848 86.1416C438.351 85.9784 437.905 85.8427 437.509 85.7344C437.129 85.6247 436.828 85.4918 436.605 85.3356C436.396 85.162 436.281 84.9557 436.259 84.7167C436.234 84.4458 436.311 84.2379 436.49 84.0928C436.684 83.9304 436.957 83.833 437.307 83.8008C437.833 83.7525 438.379 83.8388 438.946 84.0599C439.528 84.2794 440.038 84.586 440.476 84.9796L441.663 82.9424C441.28 82.6241 440.846 82.3587 440.36 82.1463C439.873 81.9179 439.352 81.749 438.795 81.6394C438.239 81.5299 437.65 81.5037 437.029 81.5609C436.296 81.6283 435.638 81.8093 435.054 82.104C434.485 82.3812 434.047 82.767 433.739 83.2613C433.429 83.7396 433.304 84.3054 433.365 84.9587C433.428 85.6438 433.631 86.1955 433.975 86.6138C434.333 87.0146 434.763 87.3285 435.266 87.5554C435.768 87.7664 436.282 87.9441 436.81 88.0884C437.367 88.2138 437.829 88.3401 438.194 88.4672C438.559 88.5943 438.839 88.7533 439.033 88.9444C439.242 89.118 439.36 89.3482 439.386 89.635C439.415 89.9536 439.327 90.2188 439.122 90.4305C438.915 90.6263 438.604 90.7432 438.19 90.7813C437.871 90.8106 437.523 90.7784 437.145 90.6846C436.782 90.5894 436.39 90.4326 435.969 90.2143C435.546 89.9801 435.083 89.6691 434.581 89.2814ZM448.408 87.5039L447.792 80.8122L444.59 81.1066L445.236 88.133C445.356 89.4395 445.769 90.4378 446.475 91.1281C447.198 91.8169 448.212 92.1012 449.518 91.981C450.299 91.9093 450.946 91.6891 451.458 91.3207C451.969 90.9363 452.371 90.4173 452.664 89.7636L452.818 91.4366L455.901 91.1531L454.89 80.1595L451.807 80.443L452.423 87.1347C452.465 87.5968 452.406 88.0039 452.246 88.3561C452.101 88.7068 451.871 88.9931 451.554 89.2151C451.251 89.4196 450.877 89.5424 450.431 89.5834C449.793 89.642 449.314 89.4933 448.992 89.1373C448.668 88.7654 448.474 88.2209 448.408 87.5039ZM461.692 79.5341L458.657 79.8132L459.668 90.8068L462.703 90.5277L461.692 79.5341ZM465.215 82.4638L466.383 79.7052C466.134 79.4389 465.819 79.2509 465.44 79.1412C465.076 79.0301 464.695 78.9928 464.297 79.0294C463.723 79.0822 463.185 79.3406 462.681 79.8046C462.176 80.2528 461.787 80.8348 461.516 81.5507C461.243 82.2506 461.147 83.0387 461.227 83.915L462.167 84.6963C462.118 84.1705 462.141 83.7185 462.235 83.3403C462.343 82.9448 462.523 82.631 462.775 82.3989C463.027 82.1669 463.344 82.0333 463.726 81.9981C464.045 81.9688 464.313 82.0004 464.53 82.0929C464.762 82.168 464.99 82.2916 465.215 82.4638ZM474.555 89.6789C475.877 89.5573 476.985 89.1983 477.878 88.602C478.786 87.9884 479.479 87.1373 479.957 86.049L477.18 85.4608C476.909 86.0159 476.54 86.4516 476.071 86.7678C475.616 87.0667 475.046 87.2477 474.361 87.3107C473.756 87.3663 473.226 87.2785 472.77 87.0472C472.315 86.8159 471.953 86.4556 471.683 85.9662C471.429 85.4754 471.268 84.8636 471.201 84.1307C471.146 83.3644 471.199 82.7169 471.36 82.188C471.534 81.6417 471.809 81.2228 472.184 80.9312C472.573 80.6223 473.071 80.44 473.676 80.3843C474.17 80.3389 474.611 80.4108 474.997 80.6002C475.384 80.7896 475.691 81.0667 475.917 81.4315C476.16 81.7948 476.306 82.2473 476.356 82.789C476.366 82.9006 476.347 83.0469 476.3 83.228C476.266 83.3917 476.222 83.5243 476.167 83.6258L476.903 82.4495L469.757 83.1066L469.933 85.0185L479.779 84.1131C479.786 84.0161 479.783 83.8879 479.768 83.7285C479.769 83.5677 479.763 83.4156 479.75 83.2723C479.642 82.0932 479.326 81.11 478.804 80.3225C478.28 79.5191 477.568 78.9418 476.669 78.5908C475.783 78.2223 474.735 78.0937 473.524 78.2051C472.313 78.3164 471.284 78.6521 470.435 79.2121C469.585 79.7562 468.953 80.4812 468.538 81.3869C468.138 82.2753 467.992 83.309 468.101 84.4881C468.207 85.6512 468.539 86.6409 469.097 87.4573C469.668 88.2564 470.422 88.8538 471.358 89.2498C472.294 89.6457 473.36 89.7887 474.555 89.6789ZM489.899 69.2279L491.613 87.8693L494.72 87.5836L493.006 68.9422L489.899 69.2279ZM482.074 83.2032C482.185 84.4141 482.528 85.427 483.101 86.2419C483.674 87.0569 484.387 87.6501 485.241 88.0215C486.094 88.3929 486.975 88.5368 487.883 88.4533C488.807 88.3683 489.599 88.0626 490.257 87.5361C490.932 87.0081 491.429 86.2956 491.748 85.3986C492.083 84.5002 492.196 83.4614 492.088 82.2824C491.978 81.0874 491.677 80.0868 491.185 79.2804C490.708 78.4567 490.089 77.8467 489.33 77.4506C488.586 77.053 487.752 76.8967 486.828 76.9817C485.92 77.0652 485.08 77.3674 484.309 77.8882C483.537 78.4091 482.944 79.1224 482.529 80.0281C482.113 80.918 481.961 81.9763 482.074 83.2032ZM485.277 82.9087C485.216 82.2554 485.3 81.6774 485.527 81.1745C485.754 80.6716 486.086 80.2715 486.525 79.974C486.964 79.6766 487.446 79.5038 487.972 79.4554C488.434 79.4129 488.892 79.4994 489.345 79.7147C489.813 79.9127 490.205 80.2382 490.52 80.6913C490.85 81.1429 491.046 81.7033 491.108 82.3725C491.169 83.0417 491.079 83.6284 490.836 84.1328C490.609 84.6357 490.284 85.0351 489.862 85.331C489.453 85.6096 489.018 85.7701 488.556 85.8126C488.03 85.8609 487.525 85.7789 487.039 85.5664C486.554 85.354 486.154 85.0213 485.839 84.5682C485.524 84.1151 485.337 83.5619 485.277 82.9087ZM397.168 110.91L401.661 110.497L402.916 124.143L406.333 123.829L405.079 110.183L409.596 109.767L409.312 106.684L396.884 107.827L397.168 110.91ZM409.595 117.986C409.699 119.117 410.055 120.097 410.661 120.925C411.282 121.735 412.068 122.338 413.02 122.732C413.988 123.125 415.054 123.268 416.217 123.161C417.38 123.054 418.394 122.72 419.258 122.159C420.138 121.596 420.802 120.86 421.248 119.951C421.709 119.025 421.888 117.996 421.784 116.865C421.679 115.718 421.315 114.739 420.695 113.929C420.09 113.116 419.303 112.514 418.335 112.121C417.383 111.726 416.325 111.583 415.162 111.69C413.999 111.797 412.978 112.132 412.097 112.695C411.233 113.256 410.57 113.992 410.107 114.902C409.661 115.811 409.49 116.839 409.595 117.986ZM412.75 117.696C412.693 117.074 412.77 116.513 412.981 116.012C413.208 115.509 413.533 115.109 413.955 114.813C414.378 114.517 414.86 114.344 415.402 114.295C415.944 114.245 416.449 114.327 416.919 114.541C417.388 114.755 417.773 115.089 418.071 115.543C418.386 115.997 418.572 116.534 418.629 117.155C418.686 117.777 418.602 118.339 418.375 118.842C418.162 119.327 417.845 119.726 417.424 120.038C417.002 120.334 416.519 120.506 415.978 120.556C415.436 120.606 414.93 120.524 414.461 120.31C413.99 120.08 413.597 119.747 413.284 119.31C412.985 118.855 412.807 118.317 412.75 117.696ZM431.908 102.679L433.622 121.32L436.729 121.034L435.015 102.393L431.908 102.679ZM424.082 116.654C424.194 117.865 424.536 118.878 425.109 119.693C425.682 120.507 426.395 121.101 427.249 121.472C428.103 121.843 428.983 121.987 429.892 121.904C430.816 121.819 431.607 121.513 432.266 120.987C432.94 120.459 433.437 119.746 433.756 118.849C434.091 117.951 434.205 116.912 434.096 115.733C433.986 114.538 433.685 113.537 433.194 112.731C432.716 111.907 432.098 111.297 431.338 110.901C430.595 110.504 429.761 110.347 428.837 110.432C427.929 110.516 427.089 110.818 426.317 111.339C425.546 111.86 424.952 112.573 424.538 113.479C424.121 114.369 423.97 115.427 424.082 116.654ZM427.285 116.359C427.225 115.706 427.308 115.128 427.535 114.625C427.762 114.122 428.095 113.722 428.533 113.425C428.972 113.127 429.454 112.954 429.98 112.906C430.442 112.863 430.9 112.95 431.354 113.165C431.822 113.363 432.213 113.689 432.528 114.142C432.859 114.593 433.055 115.154 433.116 115.823C433.178 116.492 433.087 117.079 432.844 117.583C432.617 118.086 432.293 118.486 431.87 118.782C431.462 119.06 431.027 119.221 430.565 119.263C430.039 119.312 429.533 119.229 429.048 119.017C428.562 118.805 428.162 118.472 427.847 118.019C427.532 117.566 427.345 117.013 427.285 116.359ZM442.307 117.075C442.278 116.756 442.325 116.487 442.45 116.266C442.573 116.03 442.78 115.842 443.073 115.703C443.364 115.548 443.748 115.448 444.226 115.404C444.816 115.35 445.381 115.378 445.921 115.489C446.477 115.599 446.985 115.793 447.445 116.072L447.313 114.638C447.136 114.462 446.855 114.287 446.469 114.113C446.084 113.94 445.614 113.806 445.059 113.713C444.52 113.618 443.9 113.602 443.199 113.667C441.829 113.793 440.798 114.201 440.106 114.891C439.414 115.581 439.117 116.46 439.216 117.528C439.284 118.277 439.518 118.898 439.917 119.391C440.33 119.867 440.844 120.214 441.459 120.431C442.073 120.647 442.723 120.724 443.408 120.661C444.077 120.599 444.704 120.421 445.287 120.127C445.886 119.831 446.355 119.426 446.694 118.913C447.048 118.398 447.193 117.79 447.129 117.089L446.614 115.691C446.663 116.216 446.585 116.681 446.381 117.086C446.176 117.474 445.892 117.79 445.528 118.032C445.163 118.258 444.742 118.393 444.264 118.437C443.929 118.468 443.614 118.441 443.317 118.356C443.034 118.253 442.803 118.098 442.623 117.889C442.442 117.665 442.336 117.393 442.307 117.075ZM440.701 112.715C440.85 112.589 441.085 112.431 441.405 112.241C441.725 112.051 442.11 111.879 442.562 111.725C443.014 111.571 443.495 111.47 444.005 111.424C444.339 111.393 444.645 111.397 444.922 111.436C445.198 111.474 445.439 111.557 445.643 111.683C445.864 111.807 446.032 111.976 446.148 112.191C446.263 112.389 446.334 112.639 446.362 112.942L447.019 120.088L450.006 119.813L449.29 112.022C449.221 111.273 448.956 110.663 448.495 110.191C448.032 109.704 447.422 109.358 446.664 109.155C445.906 108.951 445.057 108.893 444.117 108.979C443.098 109.073 442.187 109.301 441.385 109.664C440.581 110.011 439.906 110.362 439.361 110.718L440.701 112.715ZM462.943 107.537L459.716 107.834L457.051 116.852L458.585 116.759L454.244 108.337L450.802 108.654L456.277 118.128L454.089 124.74L457.267 124.448L462.943 107.537ZM465.023 101.562L466.768 112.946L469.206 112.721L468.847 101.21L465.023 101.562ZM466.392 116.981C466.441 117.507 466.664 117.928 467.063 118.245C467.476 118.544 467.961 118.668 468.519 118.617C469.093 118.564 469.547 118.354 469.883 117.986C470.217 117.601 470.36 117.146 470.312 116.621C470.263 116.095 470.041 115.681 469.643 115.381C469.245 115.064 468.759 114.932 468.185 114.984C467.627 115.036 467.173 115.254 466.823 115.64C466.488 116.008 466.344 116.455 466.392 116.981Z" fill="white"/>
<path d="M346.058 46.524L344.652 47.6575C345.045 48.3016 345.529 48.9012 346.106 49.4563C346.696 49.9955 347.357 50.4184 348.089 50.7249C348.834 51.0156 349.624 51.126 350.457 51.0562C351.071 51.0047 351.647 50.8533 352.185 50.6021C352.738 50.3497 353.217 50.0151 353.624 49.5983C354.045 49.1803 354.357 48.6905 354.56 48.1289C354.778 47.566 354.859 46.9485 354.802 46.2762C354.744 45.5746 354.569 44.9858 354.279 44.5097C353.987 44.019 353.63 43.6149 353.206 43.2972C352.795 42.9637 352.353 42.699 351.881 42.5032C351.408 42.3073 350.961 42.1535 350.539 42.0417C349.622 41.8096 348.888 41.5621 348.336 41.2993C347.797 41.0207 347.404 40.7152 347.155 40.3828C346.905 40.0358 346.762 39.6504 346.727 39.2266C346.685 38.7296 346.838 38.2679 347.185 37.8414C347.53 37.4003 348.12 37.1448 348.953 37.0749C349.552 37.0247 350.066 37.0993 350.495 37.2988C350.938 37.4971 351.321 37.7667 351.644 38.1075C351.967 38.4484 352.24 38.8009 352.462 39.1649L353.985 38.1099C353.691 37.59 353.305 37.1073 352.826 36.6617C352.346 36.2016 351.778 35.8444 351.124 35.5902C350.483 35.3202 349.746 35.2201 348.913 35.29C348.051 35.3623 347.298 35.6021 346.656 36.0092C346.011 36.4018 345.525 36.9136 345.195 37.5447C344.865 38.1758 344.732 38.8714 344.796 39.6314C344.855 40.3329 345.036 40.9138 345.339 41.374C345.658 41.8331 346.043 42.2129 346.495 42.5135C346.946 42.7994 347.414 43.0324 347.9 43.2124C348.385 43.3778 348.823 43.5103 349.214 43.61C349.816 43.7656 350.383 43.9534 350.917 44.1736C351.464 44.3779 351.915 44.6712 352.271 45.0535C352.627 45.4357 352.834 45.9703 352.892 46.6572C352.95 47.3588 352.75 47.9569 352.291 48.4517C351.833 48.9464 351.194 49.2281 350.375 49.2968C349.762 49.3483 349.202 49.2627 348.698 49.0401C348.194 48.8175 347.725 48.4889 347.291 48.0543C346.871 47.6185 346.461 47.1084 346.058 46.524ZM363.454 49.9658C364.535 49.8751 365.453 49.5847 366.207 49.0947C366.974 48.5888 367.585 47.8899 368.04 46.9981L366.539 46.2188C366.225 46.8633 365.818 47.3611 365.318 47.7121C364.816 48.0486 364.222 48.2456 363.535 48.3032C362.848 48.3609 362.251 48.2637 361.744 48.0119C361.238 47.7601 360.837 47.3669 360.542 46.8323C360.247 46.2978 360.066 45.6359 360 44.8467C359.949 44.0708 360.026 43.4094 360.231 42.8624C360.448 42.2996 360.779 41.8597 361.224 41.5428C361.682 41.21 362.247 41.0154 362.919 40.959C363.489 40.9112 363.996 40.9938 364.441 41.2067C364.886 41.4196 365.243 41.7354 365.514 42.1543C365.799 42.5719 365.967 43.0803 366.017 43.6795C366.026 43.7819 366.015 43.9152 365.985 44.0797C365.953 44.2295 365.918 44.3428 365.881 44.4196L366.498 43.3522L359.263 43.9592L359.388 45.4499L368.004 44.7272C368.001 44.6979 367.996 44.6322 367.987 44.5298C367.992 44.4117 367.99 44.3015 367.982 44.1992C367.892 43.1322 367.625 42.2274 367.18 41.4847C366.735 40.7419 366.137 40.196 365.387 39.8468C364.65 39.4819 363.784 39.341 362.79 39.4244C361.796 39.5078 360.938 39.8006 360.215 40.3028C359.506 40.8038 358.973 41.4667 358.615 42.2915C358.272 43.115 358.145 44.0529 358.233 45.1052C358.32 46.1429 358.594 47.0398 359.055 47.796C359.53 48.5509 360.145 49.1248 360.899 49.5178C361.667 49.895 362.518 50.0443 363.454 49.9658ZM372.936 43.8719C372.877 43.1703 372.971 42.5369 373.218 41.9716C373.478 41.3905 373.851 40.925 374.337 40.5752C374.838 40.2241 375.417 40.021 376.074 39.9658C376.615 39.9205 377.127 39.9659 377.609 40.102C378.105 40.2223 378.54 40.4066 378.914 40.6549C379.288 40.9031 379.562 41.1892 379.736 41.5131L379.553 39.3208C379.167 38.941 378.637 38.6691 377.961 38.505C377.298 38.3251 376.623 38.264 375.936 38.3216C374.957 38.4038 374.092 38.7045 373.341 39.2237C372.589 39.743 372.013 40.4169 371.612 41.2454C371.225 42.0726 371.074 42.9978 371.16 44.0208C371.245 45.0293 371.547 45.9164 372.068 46.6823C372.602 47.4323 373.282 48.0007 374.109 48.3876C374.937 48.7744 375.84 48.9268 376.819 48.8446C377.506 48.787 378.162 48.6216 378.787 48.3484C379.425 48.0594 379.902 47.6956 380.218 47.2569L380.034 45.0646C379.915 45.3984 379.693 45.7262 379.366 46.0479C379.039 46.355 378.641 46.6165 378.174 46.8324C377.719 47.0324 377.222 47.1551 376.681 47.2004C376.024 47.2556 375.419 47.1518 374.867 46.889C374.328 46.6104 373.883 46.2136 373.531 45.6985C373.193 45.1823 372.995 44.5734 372.936 43.8719ZM386.215 43.8617L385.7 37.7233L383.947 37.8704L384.48 44.2281C384.58 45.4265 384.975 46.3575 385.663 47.0209C386.352 47.6843 387.222 47.9719 388.275 47.8836C388.947 47.8272 389.519 47.6321 389.992 47.2981C390.463 46.9495 390.842 46.4614 391.127 45.834L391.26 47.4125L393.014 47.2653L392.168 37.1808L390.414 37.3279L390.929 43.4663C390.97 43.9632 390.898 44.4109 390.71 44.8093C390.538 45.2065 390.263 45.5312 389.887 45.7835C389.524 46.02 389.087 46.1597 388.575 46.2026C387.874 46.2615 387.322 46.087 386.92 45.6792C386.518 45.2714 386.283 44.6656 386.215 43.8617ZM398.972 36.6099L397.219 36.757L398.065 46.8416L399.818 46.6945L398.972 36.6099ZM402.181 38.2835L403.025 36.7557C402.738 36.5 402.431 36.3419 402.102 36.2812C401.786 36.2046 401.446 36.1816 401.081 36.2123C400.613 36.2515 400.168 36.4728 399.745 36.8762C399.323 37.2796 398.992 37.8078 398.752 38.4608C398.526 39.0979 398.447 39.8184 398.514 40.6223L399.303 40.5561C399.263 40.0737 399.271 39.6389 399.326 39.2516C399.397 38.863 399.547 38.5487 399.777 38.3086C400.007 38.0685 400.342 37.9301 400.78 37.8933C401.072 37.8688 401.317 37.8924 401.514 37.9641C401.711 38.0213 401.933 38.1277 402.181 38.2835ZM410.933 45.9829C412.014 45.8922 412.932 45.6018 413.685 45.1117C414.452 44.6058 415.063 43.907 415.518 43.0152L414.018 42.2359C413.704 42.8804 413.297 43.3781 412.797 43.7292C412.295 44.0656 411.701 44.2627 411.014 44.3203C410.327 44.3779 409.73 44.2808 409.223 44.029C408.716 43.7771 408.315 43.3839 408.02 42.8494C407.725 42.3148 407.545 41.653 407.478 40.8637C407.428 40.0879 407.505 39.4265 407.709 38.8795C407.927 38.3166 408.258 37.8768 408.703 37.5598C409.16 37.2271 409.725 37.0325 410.398 36.9761C410.968 36.9283 411.475 37.0108 411.92 37.2237C412.364 37.4366 412.722 37.7525 412.993 38.1713C413.278 38.589 413.446 39.0974 413.496 39.6966C413.505 39.7989 413.494 39.9323 413.463 40.0967C413.432 40.2466 413.397 40.3599 413.359 40.4366L413.976 39.3693L406.742 39.9762L406.867 41.467L415.483 40.7442C415.48 40.715 415.475 40.6492 415.466 40.5469C415.471 40.4288 415.469 40.3185 415.46 40.2162C415.371 39.1493 415.104 38.2445 414.659 37.5017C414.214 36.759 413.616 36.2131 412.865 35.8639C412.128 35.4989 411.263 35.3581 410.269 35.4415C409.275 35.5249 408.417 35.8176 407.693 36.3199C406.985 36.8209 406.452 37.4837 406.094 38.3085C405.751 39.1321 405.624 40.07 405.712 41.1223C405.799 42.16 406.073 43.0569 406.534 43.813C407.009 44.5679 407.624 45.1419 408.378 45.5349C409.146 45.912 409.997 46.0614 410.933 45.9829ZM435.55 28.2429L432.177 35.6789L427.635 28.9069L425.553 29.0816L431.395 37.4003L431.948 43.9992L433.812 43.8428L433.256 37.2221L437.632 28.0682L435.55 28.2429ZM438.934 38.3354C439.018 39.3438 439.321 40.231 439.841 40.9968C440.375 41.7468 441.056 42.3152 441.883 42.7021C442.71 43.089 443.614 43.2413 444.593 43.1592C445.587 43.0758 446.452 42.7751 447.189 42.257C447.94 41.7378 448.509 41.0645 448.896 40.2373C449.296 39.3942 449.454 38.4684 449.369 37.46C449.283 36.4369 448.973 35.5504 448.44 34.8004C447.92 34.0491 447.247 33.4801 446.42 33.0932C445.607 32.7051 444.704 32.5528 443.71 32.6361C442.731 32.7183 441.866 33.019 441.114 33.5383C440.363 34.0576 439.787 34.7314 439.385 35.5599C438.999 36.3871 438.848 37.3123 438.934 38.3354ZM440.71 38.1864C440.651 37.4849 440.745 36.8515 440.992 36.2862C441.252 35.705 441.625 35.2396 442.111 34.8897C442.611 34.5387 443.19 34.3355 443.848 34.2804C444.506 34.2252 445.103 34.3296 445.641 34.5936C446.192 34.8564 446.638 35.2532 446.977 35.7841C447.329 36.2991 447.535 36.9074 447.593 37.6089C447.652 38.3105 447.551 38.9445 447.289 39.511C447.042 40.0763 446.669 40.5418 446.17 40.9074C445.684 41.2573 445.113 41.4598 444.455 41.515C443.797 41.5701 443.192 41.4663 442.641 41.2035C442.102 40.9249 441.657 40.5281 441.304 40.0131C440.967 39.4968 440.768 38.8879 440.71 38.1864ZM455.378 38.0597L454.863 31.9213L453.109 32.0684L453.643 38.4261C453.743 39.6246 454.138 40.5555 454.826 41.2189C455.515 41.8824 456.385 42.1699 457.438 42.0817C458.11 42.0253 458.682 41.8301 459.155 41.4961C459.626 41.1475 460.004 40.6594 460.29 40.032L460.423 41.6105L462.176 41.4633L461.33 31.3788L459.577 31.5259L460.092 37.6643C460.133 38.1613 460.06 38.6089 459.873 39.0073C459.7 39.4045 459.426 39.7292 459.05 39.9815C458.687 40.218 458.25 40.3577 457.738 40.4007C457.037 40.4595 456.485 40.285 456.082 39.8772C455.68 39.4694 455.446 38.8636 455.378 38.0597ZM468.135 30.8079L466.381 30.9551L467.227 41.0396L468.981 40.8925L468.135 30.8079ZM471.344 32.4815L472.187 30.9537C471.901 30.6981 471.593 30.5399 471.265 30.4792C470.949 30.4026 470.609 30.3797 470.243 30.4103C469.776 30.4495 469.331 30.6709 468.908 31.0742C468.486 31.4776 468.155 32.0058 467.915 32.6588C467.689 33.2959 467.61 34.0164 467.677 34.8203L468.466 34.7541C468.426 34.2718 468.433 33.8369 468.489 33.4496C468.56 33.061 468.71 32.7467 468.94 32.5066C469.17 32.2665 469.504 32.1281 469.943 32.0913C470.235 32.0668 470.48 32.0904 470.677 32.1622C470.873 32.2193 471.096 32.3258 471.344 32.4815ZM490.122 35.6308L484.083 24.1715L482 24.3463L490.477 39.862L496.25 23.1508L494.167 23.3256L490.122 35.6308ZM503.214 38.2415C504.295 38.1508 505.213 37.8604 505.967 37.3704C506.734 36.8645 507.345 36.1656 507.8 35.2738L506.299 34.4945C505.985 35.139 505.578 35.6368 505.078 35.9878C504.576 36.3243 503.982 36.5213 503.295 36.5789C502.608 36.6366 502.011 36.5394 501.504 36.2876C500.998 36.0358 500.597 35.6426 500.302 35.108C500.007 34.5735 499.826 33.9116 499.76 33.1224C499.709 32.3465 499.786 31.6851 499.991 31.1381C500.208 30.5753 500.539 30.1354 500.984 29.8185C501.442 29.4857 502.007 29.2911 502.679 29.2347C503.249 29.1869 503.756 29.2695 504.201 29.4824C504.646 29.6953 505.003 30.0111 505.274 30.43C505.559 30.8476 505.727 31.356 505.777 31.9552C505.786 32.0576 505.775 32.1909 505.745 32.3554C505.713 32.5052 505.678 32.6185 505.641 32.6953L506.258 31.6279L499.023 32.2349L499.148 33.7256L507.764 33.0029C507.761 32.9736 507.756 32.9079 507.747 32.8055C507.752 32.6874 507.75 32.5772 507.742 32.4749C507.652 31.4079 507.385 30.5031 506.94 29.7604C506.495 29.0176 505.897 28.4717 505.147 28.1225C504.41 27.7576 503.544 27.6167 502.55 27.7001C501.556 27.7835 500.698 28.0763 499.975 28.5785C499.266 29.0795 498.733 29.7424 498.375 30.5672C498.032 31.3907 497.905 32.3286 497.993 33.3809C498.08 34.4186 498.354 35.3155 498.815 36.0717C499.29 36.8266 499.905 37.4005 500.659 37.7935C501.427 38.1707 502.278 38.32 503.214 38.2415ZM512.649 20.009L510.895 20.1561L512.33 37.2561L514.083 37.1089L512.649 20.009ZM518.282 30.5751L518.797 36.7135L520.551 36.5664L520.017 30.2087C519.944 29.3318 519.736 28.6133 519.395 28.0532C519.068 27.4919 518.63 27.0872 518.079 26.839C517.543 26.5896 516.924 26.4943 516.222 26.5532C515.521 26.612 514.915 26.8468 514.405 27.2576C513.909 27.6671 513.535 28.199 513.28 28.8532C513.025 29.4927 512.931 30.2145 512.998 31.0183L513.568 30.9705C513.528 30.4882 513.594 30.0485 513.767 29.6513C513.954 29.2529 514.229 28.9282 514.59 28.677C514.967 28.4247 515.41 28.2771 515.922 28.2342C516.638 28.1741 517.189 28.3413 517.576 28.7357C517.977 29.1289 518.212 29.742 518.282 30.5751ZM524.406 21.8927C524.433 22.2143 524.574 22.4895 524.829 22.7183C525.097 22.9313 525.391 23.0243 525.713 22.9974C526.049 22.9692 526.324 22.8283 526.539 22.5749C526.752 22.3068 526.845 22.012 526.818 21.6904C526.789 21.3543 526.649 21.0791 526.395 20.8649C526.142 20.6506 525.847 20.5576 525.511 20.5858C525.189 20.6128 524.914 20.7536 524.685 21.0083C524.471 21.2618 524.378 21.5566 524.406 21.8927ZM525.084 26.0305L525.93 36.1151L527.684 35.968L526.838 25.8834L525.084 26.0305ZM533.416 30.4093C533.358 29.7078 533.452 29.0744 533.699 28.5091C533.959 27.928 534.332 27.4625 534.818 27.1126C535.318 26.7616 535.897 26.5585 536.555 26.5033C537.096 26.4579 537.607 26.5033 538.09 26.6395C538.585 26.7598 539.02 26.9441 539.394 27.1923C539.769 27.4406 540.043 27.7267 540.217 28.0506L540.033 25.8583C539.648 25.4785 539.117 25.2065 538.441 25.0425C537.779 24.8626 537.104 24.8014 536.417 24.8591C535.438 24.9412 534.573 25.2419 533.821 25.7612C533.07 26.2805 532.494 26.9544 532.092 27.7828C531.705 28.6101 531.555 29.5352 531.641 30.5583C531.725 31.5668 532.028 32.4539 532.548 33.2197C533.082 33.9697 533.763 34.5382 534.59 34.925C535.417 35.3119 536.321 35.4643 537.3 35.3821C537.987 35.3245 538.642 35.1591 539.267 34.8859C539.905 34.5969 540.382 34.2331 540.699 33.7944L540.515 31.6021C540.396 31.9359 540.173 32.2637 539.847 32.5854C539.519 32.8925 539.122 33.154 538.654 33.3698C538.2 33.5698 537.703 33.6925 537.162 33.7379C536.504 33.7931 535.899 33.6893 535.347 33.4265C534.809 33.1478 534.364 32.751 534.011 32.236C533.674 31.7198 533.475 31.1109 533.416 30.4093ZM543.839 17.3925L545.273 34.4925L547.027 34.3453L545.592 17.2454L543.839 17.3925ZM556 33.8134C557.082 33.7226 557.999 33.4322 558.753 32.9422C559.52 32.4363 560.131 31.7374 560.586 30.8456L559.086 30.0663C558.772 30.7108 558.365 31.2086 557.864 31.5596C557.363 31.8961 556.768 32.0931 556.082 32.1507C555.395 32.2084 554.798 32.1113 554.291 31.8594C553.784 31.6076 553.383 31.2144 553.088 30.6798C552.793 30.1453 552.612 29.4834 552.546 28.6942C552.496 27.9183 552.573 27.2569 552.777 26.7099C552.995 26.1471 553.326 25.7072 553.77 25.3903C554.228 25.0575 554.793 24.8629 555.465 24.8065C556.035 24.7587 556.543 24.8413 556.987 25.0542C557.432 25.2671 557.79 25.5829 558.06 26.0018C558.346 26.4194 558.513 26.9278 558.564 27.5271C558.572 27.6294 558.561 27.7627 558.531 27.9272C558.499 28.077 558.465 28.1903 558.427 28.2671L559.044 27.1998L551.809 27.8067L551.934 29.2974L560.55 28.5747C560.548 28.5454 560.542 28.4797 560.534 28.3773C560.538 28.2592 560.537 28.149 560.528 28.0467C560.439 26.9797 560.171 26.0749 559.726 25.3322C559.281 24.5894 558.684 24.0435 557.933 23.6944C557.196 23.3294 556.331 23.1885 555.337 23.2719C554.343 23.3553 553.484 23.6481 552.761 24.1503C552.053 24.6513 551.519 25.3142 551.162 26.139C550.819 26.9625 550.691 27.9005 550.78 28.9528C550.867 29.9904 551.141 30.8873 551.601 31.6435C552.077 32.3984 552.692 32.9723 553.446 33.3653C554.213 33.7425 555.065 33.8918 556 33.8134ZM564.377 17.4358L565.735 28.3605L567.05 28.2502L566.569 17.2519L564.377 17.4358ZM565.481 31.9142C565.508 32.2357 565.649 32.5109 565.903 32.7397C566.171 32.9527 566.466 33.0458 566.788 33.0188C567.124 32.9906 567.399 32.8497 567.613 32.5963C567.826 32.3282 567.919 32.0334 567.892 31.7119C567.864 31.3757 567.723 31.1005 567.47 30.8863C567.216 30.6721 566.922 30.579 566.586 30.6072C566.264 30.6342 565.989 30.7751 565.76 31.0297C565.546 31.2832 565.453 31.578 565.481 31.9142Z" fill="white"/>
<path d="M536.839 72.2018L541.369 70.6744L542.651 84.1596L547.465 83.7021L545.709 65.2214L536.433 67.931L536.839 72.2018ZM567.816 75.9701C567.694 74.6932 567.325 73.6487 566.708 72.8368C566.09 72.0076 565.336 71.4089 564.448 71.0406C563.56 70.6723 562.65 70.5324 561.718 70.621C561.114 70.6783 560.54 70.7764 559.996 70.9152C559.47 71.0523 558.968 71.2654 558.49 71.5546L559.185 68.694L566.587 67.9905L566.174 63.6421L555.122 64.6924L553.575 75.6258C554.17 75.2907 554.772 75.0246 555.38 74.8275C556.005 74.6288 556.609 74.4757 557.19 74.3681C557.772 74.2606 558.279 74.1863 558.71 74.1453C559.245 74.0945 559.769 74.1143 560.283 74.2048C560.812 74.2764 561.254 74.4433 561.61 74.7055C561.983 74.966 562.194 75.3552 562.243 75.8728C562.291 76.3732 562.192 76.8005 561.947 77.1546C561.702 77.5087 561.336 77.7785 560.849 77.9641C560.379 78.1481 559.799 78.2729 559.109 78.3385C558.729 78.3745 558.284 78.3646 557.774 78.3086C557.262 78.2354 556.71 78.105 556.117 77.9176C555.542 77.7285 554.961 77.4703 554.372 77.1432L553.124 81.5973C553.759 81.8677 554.453 82.1152 555.206 82.3397C555.976 82.5625 556.817 82.7175 557.731 82.8048C558.664 82.9077 559.682 82.9067 560.786 82.8017C561.666 82.7181 562.544 82.5129 563.418 82.186C564.294 81.8764 565.08 81.4448 565.776 80.8911C566.471 80.3202 567.005 79.6252 567.38 78.806C567.772 77.9852 567.917 77.0399 567.816 75.9701ZM570.654 67.6562C570.741 68.5708 571.045 69.3863 571.566 70.103C572.104 70.8179 572.783 71.3628 573.602 71.7377C574.419 72.0953 575.303 72.229 576.252 72.1388C577.218 72.047 578.069 71.7484 578.804 71.2433C579.538 70.7208 580.093 70.0587 580.47 69.2568C580.864 68.4533 581.017 67.5942 580.93 66.6797C580.843 65.7651 580.532 64.959 579.995 64.2613C579.474 63.5447 578.804 62.9989 577.985 62.6241C577.166 62.2492 576.273 62.1077 575.307 62.1996C574.358 62.2898 573.517 62.5961 572.783 63.1185C572.049 63.641 571.485 64.3039 571.091 65.1075C570.713 65.8921 570.567 66.7417 570.654 67.6562ZM574.278 67.3118C574.252 67.0358 574.297 66.779 574.414 66.5415C574.531 66.3041 574.695 66.1057 574.906 65.9463C575.117 65.787 575.361 65.6942 575.637 65.6679C575.93 65.6401 576.195 65.6845 576.433 65.8012C576.67 65.9179 576.86 66.0827 577.002 66.2956C577.162 66.5068 577.254 66.7504 577.281 67.0265C577.305 67.2853 577.26 67.5421 577.145 67.7968C577.047 68.0499 576.892 68.2561 576.681 68.4154C576.468 68.5575 576.215 68.6425 575.922 68.6704C575.646 68.6966 575.39 68.66 575.154 68.5606C574.917 68.4438 574.717 68.2712 574.556 68.0428C574.395 67.8143 574.303 67.5707 574.278 67.3118ZM585.359 75.6348C585.446 76.5494 585.75 77.3649 586.271 78.0815C586.807 78.7793 587.485 79.3155 588.304 79.6904C589.141 80.0636 590.033 80.2051 590.982 80.1149C591.949 80.0231 592.79 79.7168 593.507 79.196C594.241 78.6735 594.797 78.02 595.175 77.2354C595.568 76.4318 595.722 75.5728 595.635 74.6583C595.548 73.7437 595.236 72.9376 594.7 72.2399C594.179 71.5233 593.509 70.9775 592.69 70.6027C591.888 70.2262 591.004 70.0839 590.038 70.1757C589.089 70.2659 588.239 70.573 587.487 71.0971C586.754 71.6195 586.19 72.2825 585.796 73.0861C585.418 73.8707 585.272 74.7203 585.359 75.6348ZM589.009 75.288C588.983 75.0119 589.019 74.7559 589.119 74.5201C589.235 74.2827 589.399 74.0843 589.611 73.9249C589.822 73.7656 590.074 73.6719 590.367 73.6441C590.643 73.6178 590.9 73.6631 591.138 73.7798C591.375 73.8965 591.573 74.0605 591.733 74.2717C591.892 74.4829 591.985 74.7265 592.011 75.0026C592.036 75.2615 591.991 75.5182 591.876 75.7729C591.759 76.0104 591.595 76.2088 591.384 76.3681C591.172 76.5275 590.929 76.6203 590.653 76.6465C590.359 76.6744 590.094 76.63 589.856 76.5133C589.619 76.3965 589.421 76.2326 589.261 76.0214C589.118 75.7913 589.033 75.5468 589.009 75.288ZM587.242 61.6399L574.391 81.1432L579.05 80.7004L591.901 61.1972L587.242 61.6399ZM552.794 98.9664C552.704 98.0226 552.827 97.1611 553.163 96.3819C553.511 95.6015 554.023 94.9622 554.699 94.464C555.375 93.9658 556.167 93.6736 557.074 93.5873C557.994 93.4999 558.827 93.6377 559.573 94.0008C560.33 94.3627 560.948 94.8947 561.424 95.5968C561.913 96.2977 562.202 97.1201 562.291 98.0638C562.381 99.0076 562.252 99.8696 561.904 100.65C561.569 101.429 561.063 102.068 560.387 102.566C559.723 103.063 558.931 103.355 558.011 103.443C557.103 103.529 556.27 103.391 555.513 103.029C554.755 102.667 554.132 102.136 553.644 101.435C553.167 100.733 552.884 99.9101 552.794 98.9664ZM551.181 99.1197C551.268 100.028 551.504 100.861 551.889 101.62C552.287 102.378 552.8 103.022 553.429 103.553C554.057 104.072 554.775 104.462 555.583 104.722C556.39 104.971 557.248 105.052 558.156 104.966C559.076 104.879 559.903 104.637 560.636 104.242C561.381 103.834 562.013 103.316 562.532 102.688C563.05 102.048 563.426 101.319 563.662 100.501C563.91 99.682 563.99 98.8185 563.904 97.9106C563.817 96.9907 563.575 96.1579 563.178 95.412C562.793 94.6531 562.286 94.0141 561.658 93.4952C561.029 92.9644 560.311 92.5745 559.504 92.3258C558.708 92.064 557.85 91.9768 556.93 92.0642C556.022 92.1505 555.195 92.3977 554.451 92.806C553.705 93.2024 553.073 93.7205 552.555 94.3603C552.036 94.9882 551.653 95.7117 551.405 96.5308C551.169 97.3369 551.094 98.1998 551.181 99.1197ZM567.871 92.6517L573.48 92.1186L573.344 90.6851L567.735 91.2181L567.871 92.6517ZM568.348 97.6691L573.777 97.1531L573.641 95.7195L568.212 96.2355L568.348 97.6691ZM566.893 91.2982L568.085 103.842L569.608 103.697L568.416 91.1534L566.893 91.2982ZM578.264 91.664L583.873 91.1309L583.737 89.6974L578.128 90.2304L578.264 91.664ZM578.741 96.6813L584.171 96.1654L584.034 94.7318L578.605 95.2478L578.741 96.6813ZM577.286 90.3104L578.478 102.854L580.001 102.709L578.809 90.1657L577.286 90.3104Z" fill="white"/>
</g>
<defs>
<linearGradient id="paint0_linear" x1="448.439" y1="39.7442" x2="453.879" y2="74.6554" gradientUnits="userSpaceOnUse">
<stop stop-color="#7D0001"/>
<stop offset="0.8777" stop-color="#FD1B1C" stop-opacity="0"/>
</linearGradient>
<clipPath id="clip0">
<rect width="318" height="141" fill="white" transform="translate(290.68 0.219727)"/>
</clipPath>
</defs>
</svg>
