<svg width="250" height="153" viewBox="0 0 250 153" fill="none" xmlns="http://www.w3.org/2000/svg">
<g clip-path="url(#clip0)">
<path d="M243.554 50.279C233.154 29.7973 219.504 19.4284 206.29 16.9194C198.358 15.4089 190.594 16.7274 183.788 20.4141C179.515 22.7311 176.381 26.2258 173.759 30.3221C172.352 32.5239 171.085 34.8921 169.87 37.3499C168.795 39.5261 167.759 41.7791 166.697 44.0193C161.76 54.3625 156.208 64.629 143.121 68.3029C118.138 75.3307 115.694 63.2337 87.2695 68.3029C58.8576 73.3593 50.5298 127.79 67.1855 151.804H182.918C210.319 151.804 225.427 151.804 225.427 151.804L230.327 144.943C230.327 144.943 234.586 136.136 238.987 123.399C239.332 122.4 239.691 121.363 240.036 120.314C246.957 99.3839 253.43 69.7238 243.554 50.279ZM226.578 107.193C213.185 108.831 204.691 99.0895 204.691 99.0895C212.43 97.5662 215.142 94.6475 215.142 94.6475C215.833 94.1611 216.473 93.6746 217.061 93.1882C220.106 90.6408 221.884 87.9526 222.638 85.1491C224.225 79.3758 221.577 73.0521 217.061 66.2163C217.061 66.2163 217.061 66.2035 217.048 66.1907C213.645 61.0575 209.206 55.6426 204.691 49.9462C204.691 49.9462 207.3 40.5246 215.475 43.136C223.636 45.7474 224.289 54.6186 226.898 60.9679C229.521 67.3172 232.783 76.2524 239.32 80.4511C245.844 84.6371 239.972 105.554 226.578 107.193Z" fill="url(#paint0_linear)"/>
<path d="M225.363 100.011L217.061 93.1882C220.105 90.6408 221.884 87.9526 222.638 85.1492C222.638 85.1492 223.508 89.5143 224.66 95.9917V96.0045C224.89 97.259 225.12 98.6031 225.363 100.011Z" fill="#F87272"/>
<path d="M226.578 107.193C226.156 104.684 225.76 102.264 225.363 100.011C225.12 98.6031 224.89 97.259 224.66 96.0045V95.9917C223.508 89.5143 222.638 85.1492 222.638 85.1492C224.225 79.3759 221.577 73.0522 217.061 66.2164C217.061 66.2164 217.061 66.2036 217.048 66.1908C213.645 61.0575 209.206 55.6427 204.691 49.9462C204.691 49.9462 207.3 40.5246 215.475 43.136C223.636 45.7475 224.289 54.6186 226.898 60.9679C229.521 67.3173 232.783 76.2524 239.32 80.4512C245.844 84.6371 239.972 105.554 226.578 107.193Z" fill="#F87272"/>
<path d="M226.578 107.193C213.185 108.831 204.691 99.0895 204.691 99.0895C212.43 97.5662 215.142 94.6476 215.142 94.6476C215.833 94.1611 216.472 93.6747 217.061 93.1882L225.363 100.011C225.76 102.264 226.156 104.684 226.578 107.193Z" fill="#F87272"/>
<path d="M224.877 95.8252C225.274 88.2342 232.348 79.2863 232.348 79.2863" stroke="#E65151" stroke-miterlimit="10"/>
<path d="M217.048 66.1907C216.895 65.7427 214.771 59.5085 218.084 53.6456" stroke="#E65151" stroke-miterlimit="10"/>
<path d="M222.638 85.1492C221.884 87.9526 220.106 90.6408 217.061 93.1882C216.472 93.6747 215.833 94.1611 215.142 94.6476C215.142 94.6476 212.43 97.5662 204.691 99.0895C200.712 99.8832 195.416 100.318 188.483 99.7936C188.009 99.768 187.536 99.7168 187.05 99.6784C187.05 99.6784 146.23 93.0474 170.394 61.3904C166.94 57.7677 165.252 50.407 166.697 44.0193C167.26 41.5615 168.284 39.2445 169.87 37.3499C171.149 35.7882 172.825 34.5081 174.897 33.6504C174.513 32.5367 174.13 31.4358 173.759 30.3221C169.269 16.7402 167.056 3.69589 182.151 0.969261C198.486 -1.97499 204.371 4.23354 206.328 9.13635C206.993 10.7877 206.865 13.6295 206.29 16.9194C205.126 23.3583 202.171 31.4998 199.791 35.6218C203.718 41.1775 204.691 44.3393 204.691 49.9462C209.206 55.6427 213.645 61.0575 217.048 66.1908C217.061 66.2036 217.061 66.2164 217.061 66.2164C221.577 73.0521 224.225 79.3759 222.638 85.1492Z" fill="#FF8C8C"/>
<path d="M239 123.412C239 123.412 233.128 124.628 229.777 130.747C226.425 136.866 222.741 125.101 213.684 131.963C204.614 138.824 200.098 135.88 195.378 139.567C190.657 143.24 191.86 140.552 182.931 151.817" stroke="#FF8C8C" stroke-miterlimit="10"/>
<path d="M240.036 120.327C240.036 120.327 233.077 124.346 228.395 119.328C223.713 114.31 212.2 112.595 208.528 117.498C204.857 122.4 207.3 124.602 202.158 124.602C197.015 124.602 194.316 117.305 185.259 123.412C176.202 129.518 168.117 141.026 166.403 151.817" stroke="#FF8C8C" stroke-miterlimit="10"/>
<path d="M190.325 50.1254L187.715 120.275" stroke="#F87272" stroke-miterlimit="10"/>
<path d="M189.877 62.0944L176.611 40.1918" stroke="#F87272" stroke-miterlimit="10"/>
<path d="M188.918 87.9526L176.931 77.9421" stroke="#F87272" stroke-miterlimit="10"/>
<path d="M188.662 94.6476L202.081 80.0671" stroke="#F87272" stroke-miterlimit="10"/>
<path d="M229.764 130.734C229.406 127.111 228.932 123.232 228.395 119.315C227.832 115.219 227.205 111.097 226.578 107.193C226.578 107.193 224.852 91.7929 222.638 85.1492" stroke="#E65151" stroke-miterlimit="10"/>
<path d="M120.21 151.523C161.964 151.523 195.813 150.382 195.813 148.975C195.813 147.568 161.964 146.428 120.21 146.428C78.4555 146.428 44.6069 147.568 44.6069 148.975C44.6069 150.382 78.4555 151.523 120.21 151.523Z" fill="#F9E8E8"/>
<g clip-path="url(#clip1)">
<path d="M140.1 108.083H132.625V112.008H140.1V108.083Z" fill="#D6332B"/>
<path d="M98.5976 120.862H90.8351C86.355 120.862 82.7221 127.105 82.7221 134.805C82.7221 135.808 82.7836 136.787 82.901 137.729C83.6651 143.874 86.7849 148.518 90.5587 148.736V148.747H98.5976C102.496 148.747 105.751 144.024 106.534 137.729C106.651 136.787 106.712 135.808 106.712 134.805C106.712 127.105 103.08 120.862 98.5976 120.862Z" fill="#2C2933"/>
<path d="M159.785 120.862H152.023C147.543 120.862 143.91 127.105 143.91 134.805C143.91 135.808 143.971 136.787 144.089 137.729C144.853 143.874 147.973 148.518 151.747 148.736V148.747H159.785C163.684 148.747 166.939 144.024 167.721 137.729C167.839 136.787 167.9 135.808 167.9 134.805C167.9 127.103 164.267 120.862 159.785 120.862Z" fill="#3A3842"/>
<path d="M51.0435 105.873H34.8157L30.6048 104.362H57.9876L51.0435 105.873Z" fill="#4B4554"/>
<path d="M32.4853 135.782C32.4853 136.347 32.9442 136.809 33.506 136.809H73.2453C73.8071 136.809 74.2659 136.347 74.2659 135.782V118.734C74.2659 118.169 73.8071 117.708 73.2453 117.708H33.506C32.9442 117.708 32.4853 118.169 32.4853 118.734V135.782Z" fill="#433144"/>
<path d="M74.0853 97.1716C67.7409 97.1716 67.3326 96.1218 63.5552 97.5239C57.6245 99.7252 44.1734 109.814 44.1734 109.814L39.7456 116.859L84.805 115.021L74.0853 97.1716Z" fill="#F9543E"/>
<path d="M61.9944 98.3395C71.7892 92.2279 108.461 93.7209 116.139 97.1916C122.344 98.9116 139.863 114.556 139.863 114.556L63.0801 111.616C63.0801 111.189 63.1289 110.501 63.2463 109.651C59.2341 107.717 54.3873 103.085 61.9944 98.3395Z" fill="#F9543E"/>
<path d="M70.5933 97.4732C72.7593 97.1898 75.227 97.1898 75.7346 97.1898C83.7085 97.1898 110.761 97.1898 114.484 97.1898C119.862 97.1898 139.433 114.555 139.433 114.555L58.806 112.729C45.9509 112.697 58.918 99.5945 70.5933 97.4732Z" fill="#7AB1AD"/>
<path opacity="0.4" d="M111.868 97.1898C112.867 97.1898 114.05 97.1898 114.484 97.1898C119.862 97.1898 139.433 114.555 139.433 114.555L137.82 114.518C135.844 113.403 133.853 112.462 133.853 112.462C132.227 110.695 118.176 97.1898 111.868 97.1898Z" fill="#8C4C57"/>
<path opacity="0.4" d="M70.5933 97.4732C72.7593 97.1898 75.227 97.1898 75.7346 97.1898C80.8958 97.1898 102.651 97.1898 112.298 97.1898C111.792 97.1898 109.323 97.1898 107.157 97.4732C95.4814 99.5945 82.5126 112.697 95.3676 112.729L138.691 113.904C139.166 114.319 139.432 114.555 139.432 114.555L58.8041 112.729C45.9509 112.697 58.918 99.5945 70.5933 97.4732Z" fill="#8C4C57"/>
<path d="M91.2361 100.488C91.2361 100.488 95.252 109.698 95.252 111.215" stroke="#647F7F" stroke-width="7.6426" stroke-miterlimit="10" stroke-linecap="square"/>
<path d="M135.573 111.839C135.416 111.754 135.25 111.659 135.074 111.552C131.525 109.418 121.737 104.458 107.538 104.458C106.761 104.458 105.97 104.473 105.188 104.504L104.832 104.518C99.9995 104.702 96.5075 104.834 93.7743 104.834C88.138 104.834 86.1527 104.289 84.5359 102.295C83.8711 101.476 83.9253 100.817 83.9975 99.905C84.0499 99.2475 84.1095 98.5174 83.8819 97.6547H114.486C117.214 97.6528 125.043 102.929 135.573 111.839Z" fill="url(#paint1_linear)"/>
<path opacity="0.3" d="M70.5934 97.4732C72.7594 97.1898 75.2271 97.1898 75.7347 97.1898C76.9378 97.1898 78.5745 97.1898 80.4984 97.1898C81.1 97.5385 81.6257 98.0943 81.9851 99.0169C83.0401 101.719 84.5865 111.445 85.9793 112.945V113.343H85.9775L74.6923 113.087L57.2705 111.947C57.2705 111.947 55.2815 111.772 53.7225 110.957C51.7878 107.303 61.5736 99.1132 70.5934 97.4732Z" fill="#2C2933"/>
<path opacity="0.7" d="M62.4804 100.488C62.4804 100.488 80.0702 100.488 85.3036 100.488C90.537 100.488 86.6386 103.258 86.6386 103.258L82.2958 107.635C82.2958 107.635 81.0403 108.732 78.4407 108.732C75.8412 108.732 54.5679 108.732 54.5679 108.732C54.8624 106.087 57.6137 103.178 62.4804 100.488Z" fill="#7AB1AD"/>
<g opacity="0.8">
<path opacity="0.8" d="M82.9155 107.11C81.566 106.058 78.7244 105.325 75.5974 105.325H75.4366C74.891 105.328 74.3346 105.33 73.7692 105.33C72.3294 105.33 70.821 105.317 69.3631 105.306C67.9414 105.295 66.4691 105.285 65.1016 105.285C60.3216 105.285 57.7727 105.426 56.5352 105.813C56.5262 105.715 56.5027 105.619 56.463 105.528C59.3877 102.531 64.9336 98.9769 70.6674 97.9307C72.3944 97.7055 74.34 97.6601 75.3481 97.6547C78.9863 97.6819 80.7314 99.1585 81.7828 103.101C82.0429 104.079 82.3428 105.121 82.6626 106.224C82.742 106.509 82.827 106.805 82.9155 107.11Z" fill="url(#paint2_linear)"/>
</g>
<path d="M115.129 98.0562C115.982 98.0562 118.368 98.7427 124.763 103.343C128.517 106.042 132.007 108.345 134.924 110.777C133.828 110.893 111.843 110.933 104.62 110.701C100.037 110.554 94.2584 110.437 94.2584 110.437L90.1721 110.288C88.1976 110.288 87.3413 107.393 86.308 104.373C86.1491 103.91 85.9991 103.47 85.8456 103.042C85.4933 102.054 84.8375 100.212 85.3976 99.164C85.4301 99.1023 85.786 98.5592 88.1651 98.2614C89.6898 98.0707 91.3481 98.0634 92.3399 98.0598C92.4736 98.0598 92.5946 98.058 92.6904 98.058H114.054L115.129 98.0562ZM114.484 97.1898C112.24 97.1898 101.522 97.1898 91.6137 97.1898C89.977 97.2043 84.4365 97.1172 83.5622 98.7518C82.8414 100.101 83.4899 102.017 83.9578 103.33C85.2458 106.945 86.5916 112.016 89.5236 112.016C89.5272 112.016 89.5308 112.016 89.5344 112.016L94.6974 112.813C99.089 112.813 116.587 112.735 127.476 112.735C133.197 112.735 137.094 112.517 136.308 111.856C130.343 106.828 118.373 97.1898 114.484 97.1898Z" fill="#4E4C59"/>
<path d="M94.6974 111.95C99.6418 112.559 108.645 111.71 120.435 112.124C138.823 112.773 128.166 111.805 140.826 111.805C153.486 111.805 165.763 115.777 168.39 120.401L169.927 124.126C170.426 125.519 170.1 127.713 170.1 129.288L167.178 136.024C167.178 137.599 167.544 138.578 166.404 138.578C166.404 138.578 166.99 139.064 165.528 139.064C164.067 139.064 163.705 138.921 163.705 135.982C163.705 135.902 163.704 135.822 163.704 135.744C163.704 135.704 163.705 135.666 163.705 135.626C163.705 126.974 159.551 119.934 154.445 119.934C149.34 119.934 145.185 126.974 145.185 135.626C145.185 135.666 145.187 135.704 145.187 135.744C145.187 135.824 145.185 135.904 145.185 135.984C145.185 138.403 144.941 139.064 143.554 139.064C135.997 139.064 102.987 139.064 100.885 139.064C98.4621 139.064 98.6374 138.285 98.6374 136.919C98.6374 136.498 98.6554 136.102 98.6554 135.77C98.6554 130.43 97.0892 125.702 94.6974 122.826V111.95Z" fill="#D6332B"/>
<path d="M48.6299 141.422C48.6299 141.94 49.0509 142.363 49.5657 142.363H153.842C154.357 142.363 154.778 141.94 154.778 141.422V120.75C154.778 120.232 154.357 119.809 153.842 119.809H49.5657C49.0509 119.809 48.6299 120.232 48.6299 120.75V141.422Z" fill="#433144"/>
<path d="M42.6523 148.747H50.6912C54.5896 148.747 57.8449 144.024 58.6271 137.729C58.7446 136.787 58.806 135.808 58.806 134.805C58.806 127.105 55.1731 120.862 50.6912 120.862H42.9287L42.2115 135.194L42.6523 148.747Z" fill="#2C2933"/>
<path d="M103.446 148.747H111.485C115.384 148.747 118.639 144.024 119.421 137.729C119.538 136.787 119.6 135.808 119.6 134.805C119.6 127.105 115.967 120.862 111.485 120.862H103.723L103.005 135.194L103.446 148.747Z" fill="#2C2933"/>
<path d="M148.352 138.578C148.287 138.058 148.253 137.519 148.253 136.967C148.253 132.726 150.253 129.288 152.72 129.288" fill="#2C2933"/>
<path d="M152.722 129.288C155.19 129.288 157.191 132.726 157.191 136.967C157.191 137.519 157.157 138.058 157.092 138.578" fill="#2C2933"/>
<path d="M116.233 119.684L117.168 119.689V139.535H160.761H164.755C165.51 139.535 167.987 138.249 167.987 136.674L170.561 130.156C170.561 128.581 170.408 126.169 169.909 124.774L168.092 120.041C167.88 119.447 163.886 118.899 163.594 118.445H159.753H128.385H116.233V119.684Z" fill="#EF553C"/>
<path d="M102.816 112.264C115.714 114.698 123.162 119.344 123.162 119.344C125.269 119.758 132.637 123.885 132.637 123.885L157.666 123.559L161.361 122.37C148.379 112.263 135.298 112.263 126.049 112.263H102.816V112.264Z" fill="#EF553C"/>
<path d="M157.191 117.916C156.888 118.182 154.859 118.1 154.859 118.1C154.859 118.1 155.705 118.539 156.469 119.017C157.999 119.972 159.314 122.37 154.778 122.37C150.242 122.37 158.145 124.364 158.145 124.364L160.385 124.413C160.385 124.413 166.292 119.448 165.808 119.177C165.324 118.906 161.202 117.001 161.363 116.856C163.127 115.267 157.191 117.916 157.191 117.916Z" fill="#D6332B"/>
<path d="M132.684 123.885C132.684 123.885 120.577 111.948 94.6956 111.948L53.7857 112.481L96.7387 116.425L125.775 123.885H132.684Z" fill="#F9543E"/>
<path d="M40.9596 109.596C34.8753 109.596 32.3878 110.352 32.3878 119.349V124.269C32.3878 125.844 32.3878 125.537 32.3878 127.112V130.283H34.458C35.7786 124.226 39.22 119.896 43.2466 119.896C48.4114 119.896 52.6115 127.016 52.6115 135.766C52.6115 136.098 52.5934 136.494 52.5934 136.916C52.5934 138.28 52.42 139.061 54.8407 139.061C56.9417 139.061 85.6505 139.061 93.2089 139.061C94.5963 139.061 94.8401 138.4 94.8401 135.98C94.8401 135.901 94.8419 135.821 94.8419 135.741C94.8419 135.701 94.8401 135.663 94.8401 135.623C94.8401 126.97 98.9933 119.931 104.1 119.931C109.207 119.931 114.222 126.97 114.222 135.623C114.222 135.663 115.51 135.701 115.51 135.741C115.51 135.821 114.222 135.899 114.222 135.979C114.222 138.917 117.808 136.898 119.271 136.898C120.733 136.898 116.495 139.061 116.495 139.061C117.634 139.061 120.019 137.595 120.019 136.02L119.159 129.502C119.159 127.927 117.665 122.164 115.281 121.959L122.346 122.775C119.719 118.151 103.139 113.962 90.4811 113.962C77.823 113.962 79.8751 113.634 61.4868 112.985C43.0985 112.337 44.3901 109.593 44.3901 109.593H40.9596V109.596Z" fill="#D6332B"/>
<path opacity="0.2" d="M39.5542 109.616C36.4813 109.713 34.4996 110.234 33.4157 112.477C34.4436 110.421 41.973 110.84 42.8745 111.126L41.4654 110.33L39.5542 109.616Z" fill="#2C2933"/>
<path d="M43.5555 117.709H48.2018L50.0716 118.89L49.3002 119.858L44.7478 119.438L43.5555 117.709Z" fill="#2C2933"/>
<path d="M43.2448 119.898C47.1143 119.898 50.4437 123.895 51.869 129.584C52.588 128.492 54.6908 128.367 55.0557 129.475C55.6139 131.167 55.8018 128.216 55.8018 128.216C55.8018 128.216 56.248 120.679 46.5814 118.053C36.9131 115.428 33.6848 126.66 33.6848 130.285H34.4544C35.7768 124.228 39.2181 119.898 43.2448 119.898Z" fill="url(#paint3_linear)"/>
<mask id="mask0" mask-type="alpha" maskUnits="userSpaceOnUse" x="39" y="116" width="74" height="24">
<path d="M112.621 116.789H39.7781V139.631H112.621V116.789Z" fill="url(#paint4_linear)"/>
</mask>
<g mask="url(#mask0)">
<path opacity="0.3" d="M96.7406 123.525C86.6405 122.511 50.7002 119.987 50.3715 119.976C50.3715 119.976 52.7705 118.614 55.2363 124.331C57.704 130.049 55.6573 134.335 60.2295 136.698C64.8017 139.061 91.9425 138.576 91.9425 138.576L93.7291 137.399L94.6974 129.286L95.6115 126.476L97.7504 123.992C97.7504 123.993 98.8885 123.741 96.7406 123.525Z" fill="#8C4C57"/>
<path d="M95.429 123.267C97.6438 119.515 100.724 117.448 104.1 117.448C107.426 117.448 110.717 119.527 113.131 123.153C115.429 126.603 116.695 131.033 116.695 135.626H114.222C114.222 126.974 109.207 119.934 104.1 119.934C98.9951 119.934 94.8401 126.974 94.8401 135.626H92.367C92.367 131.002 93.4545 126.612 95.429 123.267Z" fill="#F9543E"/>
<path d="M88.5878 118.512H84.6894V121.364H88.5878V118.512Z" fill="#F97830"/>
<path d="M61.8715 116.196C61.6945 116.861 60.7226 117.342 59.7128 117.264L57.7636 117.114C56.7538 117.035 56.0727 116.429 56.2515 115.762C56.4286 115.098 57.4005 114.616 58.4103 114.694L60.3595 114.845C61.3675 114.925 62.0486 115.532 61.8715 116.196Z" fill="#2C2933"/>
<path d="M103.724 120.862C108.206 120.862 111.839 127.105 111.839 134.805C111.839 135.808 111.778 136.787 111.66 137.729C110.878 144.024 107.623 148.747 103.724 148.747C99.8279 148.747 96.5726 144.024 95.7904 137.729C95.6729 136.787 95.6115 135.808 95.6115 134.805C95.6115 127.103 99.2426 120.862 103.724 120.862Z" fill="#4B4554"/>
<path d="M103.629 124.7C106.877 124.7 109.509 129.224 109.509 134.804C109.509 135.53 109.464 136.238 109.379 136.923C108.812 141.485 106.452 144.905 103.629 144.905C100.805 144.905 98.4459 141.484 97.8787 136.921C97.7938 136.238 97.7486 135.53 97.7486 134.802C97.7504 129.224 100.382 124.7 103.629 124.7Z" fill="#8C98A4" stroke="#DFE7E8" stroke-width="6.3689" stroke-miterlimit="10"/>
<path d="M42.9287 120.862C47.4106 120.862 51.0435 127.105 51.0435 134.805C51.0435 135.808 50.982 136.787 50.8646 137.729C50.0824 144.024 46.8271 148.747 42.9287 148.747C39.0321 148.747 35.7768 144.024 34.9945 137.729C34.8771 136.787 34.8157 135.808 34.8157 134.805C34.8157 127.103 38.4486 120.862 42.9287 120.862Z" fill="#4B4554"/>
<path d="M131.096 124.408C127.52 122.693 117.046 116.367 113.897 118.245C110.748 120.123 114.616 123.558 118.619 124.219C122.622 124.88 131.096 124.408 131.096 124.408Z" fill="#EADCDA"/>
<path opacity="0.2" d="M84.5359 112.079C84.5359 112.079 83.349 112.816 82.8468 113.826C82.3446 114.836 81.2679 118.952 80.9464 122.246V137.332" stroke="#37333F" stroke-width="2.5475" stroke-miterlimit="10" stroke-linecap="square"/>
<path d="M48.0862 117.709C54.2952 117.709 59.3714 126.088 59.5846 136.524C56.4196 135.913 56.0782 134.442 55.6283 132.729C55.5145 131.912 55.1984 130.336 55.1966 130.336C54.9834 129.061 54.7793 128.256 54.4541 127.653C52.8174 122.738 49.9596 119.141 46.5814 118.053C47.2787 117.829 47.3528 117.709 48.0862 117.709Z" fill="#2C2933"/>
<path d="M56.1703 134.38C59.1022 138.018 68.3497 137.292 72.6509 137.292C76.9522 137.292 87.8147 137.292 89.7494 137.292C91.686 137.292 92.3309 137.183 92.3652 135.626L94.8473 135.031C94.8437 135.229 94.8383 135.427 94.8383 135.626C94.8383 135.666 94.8401 135.704 94.8401 135.744C94.8401 135.824 94.8383 135.904 94.8383 135.984C94.8383 138.403 94.5944 139.064 93.207 139.064C85.6505 139.064 56.9416 139.064 54.8389 139.064C52.4164 139.064 52.5916 138.285 52.5916 136.919C52.5916 136.498 52.6097 136.102 52.6097 135.77C54.3566 133.806 56.1703 134.38 56.1703 134.38Z" fill="#F9543E"/>
<path opacity="0.7" d="M116.233 119.344C115.1 118.47 115.026 118.456 113.94 118.223C113.926 118.231 113.91 118.236 113.895 118.245C111.389 119.74 113.328 122.219 116.242 123.501C120.814 125.054 117.564 120.37 116.233 119.344Z" fill="#F4EEED"/>
<path opacity="0.2" d="M54.3529 108.283C53.6321 109.972 51.5781 115.29 51.5836 120.145" stroke="#37333F" stroke-width="2.5475" stroke-miterlimit="10" stroke-linecap="square"/>
<path d="M62.2094 115.339L56.0077 114.901" stroke="#D6332B" stroke-width="11.464" stroke-miterlimit="10" stroke-linejoin="round"/>
<path d="M105.345 125.14C107.755 126.402 109.509 130.25 109.509 134.805C109.509 135.532 109.464 136.24 109.379 136.925C108.931 140.525 107.366 143.414 105.339 144.471C103.313 143.412 101.748 140.525 101.302 136.923C101.217 136.24 101.172 135.53 101.172 134.804C101.172 130.245 102.93 126.396 105.345 125.14Z" fill="#CAD5D7"/>
<path d="M91.845 135.788C91.845 135.788 90.0096 135.788 88.9618 135.788C87.914 135.788 87.0578 134.524 87.0578 132.976V131.095C87.0578 129.549 88.3151 128.283 89.8542 128.283H92.8042C92.8042 128.283 91.8468 130.283 91.8468 133.485C91.845 135.434 91.845 135.788 91.845 135.788Z" fill="#2C2933"/>
<path d="M92.7048 130.623H86.0948" stroke="#D6332B" stroke-width="7.6426" stroke-miterlimit="10" stroke-linejoin="round"/>
<path d="M92.0599 133.648H86.0948" stroke="#D6332B" stroke-width="7.6426" stroke-miterlimit="10" stroke-linejoin="round"/>
</g>
<path d="M106.633 127.354C106.859 127.472 108.853 129.647 108.853 134.568C108.853 139.488 106.871 142.341 106.629 142.466C104.982 142.466 103.392 139.38 103.042 136.565C102.975 136.031 102.94 135.477 102.94 134.909C102.942 131.346 104.53 127.354 106.633 127.354Z" fill="#3A3842"/>
<path d="M101.172 134.804H109.509" stroke="#CAD5D7" stroke-width="5.0951" stroke-miterlimit="10"/>
<path d="M106.777 142.519L107.207 134.805L106.777 127.087" stroke="#CAD5D7" stroke-width="5.0951" stroke-miterlimit="10"/>
<path d="M103.67 129.756L107.207 134.805L103.67 140.063" stroke="#CAD5D7" stroke-width="5.0951" stroke-miterlimit="10"/>
<path d="M109.086 138.569L107.207 134.805L108.853 130.158" stroke="#CAD5D7" stroke-width="5.0951" stroke-miterlimit="10"/>
<path d="M106.855 132.034C107.746 132.034 108.468 133.274 108.468 134.805C108.468 135.005 108.456 135.199 108.432 135.387C108.277 136.638 107.63 137.577 106.855 137.577C106.08 137.577 105.433 136.638 105.278 135.387C105.255 135.199 105.242 135.005 105.242 134.805C105.244 133.276 105.965 132.034 106.855 132.034Z" fill="#CAD5D7"/>
<path d="M42.7733 124.607C46.0214 124.607 48.6535 129.131 48.6535 134.711C48.6535 135.437 48.6083 136.146 48.5234 136.83C47.9562 141.393 45.5969 144.813 42.7733 144.813C39.9498 144.813 37.5905 141.391 37.0233 136.828C36.9384 136.146 36.8932 135.437 36.8932 134.709C36.8932 129.13 39.5253 124.607 42.7733 124.607Z" fill="#8C98A4" stroke="#DFE7E8" stroke-width="6.3689" stroke-miterlimit="10"/>
<path d="M44.4877 125.045C46.8976 126.307 48.6517 130.156 48.6517 134.711C48.6517 135.437 48.6065 136.146 48.5216 136.83C48.0736 140.43 46.5092 143.32 44.4823 144.377C42.4554 143.318 40.891 140.43 40.4448 136.829C40.3599 136.146 40.3147 135.435 40.3147 134.709C40.3147 130.15 42.0742 126.302 44.4877 125.045Z" fill="#CAD5D7"/>
<path d="M45.7775 127.261C46.0033 127.379 47.9977 129.555 47.9977 134.475C47.9977 139.395 46.016 142.248 45.7739 142.373C44.1264 142.373 42.5367 139.288 42.1862 136.473C42.1194 135.939 42.0851 135.385 42.0851 134.816C42.0851 131.251 43.6748 127.261 45.7775 127.261Z" fill="#3A3842"/>
<path d="M40.3147 134.709H48.6517" stroke="#CAD5D7" stroke-width="5.0951" stroke-miterlimit="10"/>
<path d="M45.9221 142.424L46.352 134.711L45.9221 126.992" stroke="#CAD5D7" stroke-width="5.0951" stroke-miterlimit="10"/>
<path d="M42.8148 129.664L46.352 134.711L42.8148 139.971" stroke="#CAD5D7" stroke-width="5.0951" stroke-miterlimit="10"/>
<path d="M48.2307 138.474L46.352 134.711L47.9977 130.063" stroke="#CAD5D7" stroke-width="5.0951" stroke-miterlimit="10"/>
<path d="M45.9997 131.941C46.8903 131.941 47.6129 133.182 47.6129 134.713C47.6129 134.912 47.6003 135.107 47.5768 135.294C47.4214 136.545 46.7747 137.484 45.9997 137.484C45.2247 137.484 44.578 136.545 44.4227 135.294C44.3992 135.107 44.3865 134.912 44.3865 134.713C44.3865 133.182 45.1091 131.941 45.9997 131.941Z" fill="#CAD5D7"/>
<path d="M105.596 136.652C105.477 136.652 105.052 136.237 104.933 135.274C104.915 135.121 104.904 134.965 104.904 134.807C104.904 133.616 105.424 132.96 105.596 132.96C105.768 132.96 106.288 133.616 106.288 134.807C106.288 134.965 106.279 135.121 106.259 135.274C106.14 136.237 105.713 136.652 105.596 136.652Z" fill="#DFEBED"/>
<path d="M44.7388 136.558C44.6196 136.558 44.195 136.142 44.0758 135.179C44.0577 135.027 44.0469 134.871 44.0469 134.713C44.0469 133.521 44.5672 132.867 44.7388 132.867C44.9104 132.867 45.4307 133.523 45.4307 134.714C45.4307 134.871 45.4217 135.029 45.4018 135.181C45.2826 136.144 44.858 136.558 44.7388 136.558Z" fill="#DFEBED"/>
<path d="M82.3644 112.749C82.1495 113.225 81.2697 113.806 79.2266 114.213C77.1834 114.62 73.0429 113.676 73.0429 113.676C73.0429 113.676 75.1132 112.457 80.7314 112.457" fill="#933838"/>
<path d="M81.9544 111.213L78.7352 110.277L78.1499 110.939C78.1499 110.939 80.2147 112.735 80.6519 113.187C81.5118 114.081 83.844 111.885 81.9544 111.213Z" fill="#D6332B"/>
<path d="M79.0477 111.096C79.0477 111.096 79.801 111.772 80.4116 111.981C81.024 112.19 81.9146 111.485 81.5533 111.096L81.9544 111.213C83.844 111.883 81.5118 114.079 80.6519 113.187C80.2942 112.816 78.8436 111.543 78.3324 111.096H79.0477Z" fill="#C12F2F"/>
<path d="M80.3556 107.435H70.7306V111.36H80.3556V107.435Z" fill="#C12F2F"/>
<path d="M79.9257 107.867H73.4729V108.982H79.9257V107.867Z" fill="#F9543E"/>
<path d="M168.982 124.538L165.604 119.402C164.771 119.98 163.998 120.662 163.299 121.351L166.265 124.569C167.172 124.573 168.099 124.565 168.982 124.538Z" fill="white"/>
<path d="M47.3306 145.582C47.3306 146.792 46.4852 147.773 45.4422 147.773H42.4579C41.415 147.773 40.5696 146.792 40.5696 145.582V144.361C40.5696 143.15 41.415 142.17 42.4579 142.17H45.4422C46.4852 142.17 47.3306 143.15 47.3306 144.361V145.582Z" fill="#C9B5B3"/>
<path d="M40.5672 144.361C40.5672 143.15 41.4126 142.17 42.4556 142.17H45.4398C46.4828 142.17 47.3282 143.15 47.3282 144.361V145.153H40.5648V144.361H40.5672Z" fill="#A58E8C"/>
<path d="M56.0595 150.192C56.0065 149.381 55.3032 148.771 54.4939 148.771H53.5834C51.9841 148.771 49.679 147.601 49.6718 147.596C48.8167 146.807 48.7493 144.974 47.834 144.974H45.9023C44.6835 144.974 44.8208 147.308 43.6936 147.841H42.7735C41.5884 147.841 40.6226 146.901 40.5696 145.722C40.2251 146.114 40.0132 146.628 40.0132 147.192V151.243H43.879V150.929L48.388 151.817H49.1684H53.7255H54.5493C55.4188 151.817 56.1173 151.081 56.0595 150.192Z" fill="#3F211B"/>
<path d="M56.0595 149.573C56.0065 148.761 55.3032 148.151 54.4939 148.151H53.5834C51.9841 148.151 49.679 146.981 49.6718 146.977C48.8167 146.187 48.7493 144.354 47.834 144.354H45.9023C44.6835 144.354 44.8208 146.688 43.6936 147.221H42.7735C41.5884 147.221 40.6226 146.282 40.5696 145.102C40.2251 145.495 40.0132 146.008 40.0132 146.572V151.197H43.879V150.309L48.388 151.197H49.1684H53.7255H54.5493C55.4188 151.197 56.1173 150.459 56.0595 149.573Z" fill="#5E3329"/>
<path d="M49.0407 97.0144H40.242V99.8816V102.749V144.71C40.242 144.71 45.0376 146.371 48.335 144.71L49.9126 102.749L49.0407 97.0144Z" fill="#392D3B"/>
<g opacity="0.5">
<path opacity="0.5" d="M41.9594 98.3826H40.3841V144.712H41.9594V98.3826Z" fill="#261E28"/>
</g>
<path d="M43.879 150.309H40.0132V151.674H43.879V150.309Z" fill="#3F211B"/>
<path d="M66.5298 144.821C66.5298 146.032 65.6843 147.013 64.6414 147.013H61.6571C60.6142 147.013 59.7687 146.032 59.7687 144.821V143.601C59.7687 142.39 60.6142 141.409 61.6571 141.409H64.6414C65.6843 141.409 66.5298 142.39 66.5298 143.601V144.821Z" fill="#C9B5B3"/>
<path d="M59.7663 143.601C59.7663 142.39 60.6118 141.409 61.6547 141.409H64.6414C65.6843 141.409 66.5298 142.39 66.5298 143.601V144.393H59.7663V143.601Z" fill="#A58E8C"/>
<path d="M75.261 149.432C75.208 148.621 74.5047 148.011 73.6954 148.011H72.785C71.1856 148.011 68.8806 146.841 68.8734 146.836C68.0183 146.047 67.9509 144.214 67.0356 144.214H65.1039C63.8851 144.214 64.0224 146.548 62.8952 147.081H61.9751C60.79 147.081 59.8242 146.141 59.7712 144.962C59.4267 145.354 59.2148 145.867 59.2148 146.432V150.483H63.0806V150.168L67.5896 151.057H68.37H72.9271H73.7508C74.6179 151.057 75.3188 150.318 75.261 149.432Z" fill="#3F211B"/>
<path d="M75.261 148.81C75.208 147.998 74.5047 147.388 73.6954 147.388H72.785C71.1856 147.388 68.8806 146.218 68.8734 146.214C68.0183 145.424 67.9509 143.591 67.0356 143.591H65.1039C63.8851 143.591 64.0224 145.925 62.8952 146.458H61.9751C60.79 146.458 59.8242 145.519 59.7712 144.339C59.4267 144.732 59.2148 145.245 59.2148 145.809V150.434H63.0806V149.546L67.5896 150.434H68.37H72.9271H73.7508C74.6179 150.437 75.3188 149.698 75.261 148.81Z" fill="#5E3329"/>
<path d="M63.0806 149.548H59.2148V150.914H63.0806V149.548Z" fill="#3F211B"/>
<path d="M51.4735 104.211L55.2887 119.729C55.4911 120.475 55.6259 121.237 55.691 122.008L58.5187 144.213C58.5187 144.213 62.8952 146.458 67.3632 142.901L64.2657 119.516C64.2488 119.249 64.2103 118.983 64.1501 118.721L59.4051 97.9249L59.0004 95.0868L45.9384 104.369L51.4735 104.211Z" fill="#392D3B"/>
<path d="M77.1976 79.189C77.9948 79.08 78.8836 80.1189 79.3966 80.4071C79.9 80.688 82.7735 81.6542 82.9156 81.9472C83.2625 82.6591 81.5981 83.158 80.2661 82.0755L79.5074 82.1821C79.1943 82.2257 79.3268 82.3613 79.5291 82.6059C79.9819 83.1531 80.0662 83.8336 80.7479 84.9451C82.0076 85.7757 83.0866 86.8 83.5949 88.0278C83.7731 88.4613 83.3034 89.2967 82.7446 88.4225C81.9353 87.1609 78.6933 84.8773 78.6933 84.8773C78.6933 84.8773 77.2915 85.1897 76.7905 84.6037C76.2871 84.0176 75.5284 82.4824 75.5284 82.4824L72.007 81.6929L70.3932 79.2859C70.3932 79.2883 76.3931 79.3004 77.1976 79.189Z" fill="#EF9875"/>
<path d="M79.098 84.4487C79.098 84.4487 78.7776 84.0032 80.4974 85.3689C80.4974 85.3689 83.5274 85.0856 83.9297 86.5943C84.0983 87.2239 82.393 86.5749 80.9912 86.6185C79.5893 86.6621 76.7664 84.5795 76.7664 84.5795" fill="#EF9875"/>
<path d="M79.6616 85.8073C79.6616 85.8073 80.2589 85.3133 80.9382 85.3375C80.9382 85.3375 80.9863 84.1122 82.01 83.8361C83.0337 83.5625 82.3448 84.5698 82.2485 84.8411C82.1521 85.1147 81.8366 86.5555 81.8366 86.5555C81.8366 86.5555 80.3457 86.9188 79.8952 87.2408C79.4448 87.5629 79.0354 87.667 78.6789 86.7081C78.3224 85.7516 77.33 84.0928 77.33 84.0928L78.6403 83.916L79.6616 85.8073Z" fill="#EF9875"/>
<path d="M78.8667 83.3736C78.8667 83.3736 80.389 83.8313 80.6925 84.5941C80.996 85.3569 80.0662 86.8292 79.8278 87.0738C79.5917 87.3184 77.754 86.6621 77.3999 86.3134C77.265 86.1803 74.8106 81.5478 74.8106 81.5478L72.007 81.6931L70.3932 79.286L75.7572 80.3007C76.1257 80.2256 76.4918 80.4338 76.6195 80.7898L78.1586 85.1293L79.11 85.4998L79.452 84.9646C79.452 84.967 78.1249 84.2357 78.8667 83.3736Z" fill="#F9A78A"/>
<path d="M74.4132 84.1702L75.5428 84.1363L75.1888 78.8984L74.0591 78.9323L74.4132 84.1702Z" fill="white"/>
<path d="M58.957 68.4857L65.1448 77.8451C65.3519 78.1478 65.6891 78.3367 66.0552 78.3537L74.4686 78.7387L74.7359 85.0106L63.1095 85.076C61.7896 85.0833 60.5467 84.4512 59.7735 83.376L52.7789 73.6824L58.957 68.4857Z" fill="#261E28"/>
<path d="M44.5197 68.6794C47.0199 74.8254 58.8294 77.3269 54.5011 66.3135L52.9499 66.253C50.2402 66.2021 46.5599 66.0229 44.4836 66.6283C43.9995 66.7688 44.3295 68.2072 44.5197 68.6794Z" fill="white"/>
<path d="M45.146 60.5962C45.146 60.5962 39.0521 53.1038 43.0191 50.118C44.0139 43.7783 56.9796 44.2723 55.862 52.7744C55.385 56.3899 45.146 60.5962 45.146 60.5962Z" fill="#511700"/>
<path d="M52.4754 66.0907L46.2299 67.8004L45.4446 59.4386L51.7938 58.8333L52.4754 66.0907Z" fill="#FEB187"/>
<path d="M46.0661 66.265L45.4254 59.4386L52.4971 58.7678C52.2418 62.3736 51.3482 63.6885 47.7136 66.4152L46.0661 66.265Z" fill="#DE7756"/>
<path d="M55.3417 57.93C55.6379 61.0804 53.923 63.4609 50.9194 63.7466L50.8086 63.7563C47.8075 64.042 44.657 62.1241 44.3607 58.9737L43.9224 54.3C43.6261 51.1495 45.8204 48.3623 48.8215 48.0765L48.9323 48.0669C51.9335 47.7811 54.607 50.1058 54.9033 53.2563L55.3417 57.93Z" fill="#DE7756"/>
<path d="M56.3509 57.8332C56.6471 60.9836 54.6143 63.3955 51.8516 63.6571L51.7504 63.6667C48.9877 63.9283 46.5405 61.945 46.2443 58.7945L45.8059 54.1209C45.5096 50.9704 47.5088 48.2025 50.2715 47.9386L50.3727 47.9289C53.1354 47.6673 55.6162 50.009 55.9125 53.1595L56.3509 57.8332Z" fill="#FEB187"/>
<path d="M45.6903 55.8765C46.2082 56.8911 45.8999 58.0898 45.0014 58.5523C44.103 59.0173 42.9541 58.5717 42.4363 57.5571C41.9184 56.5424 42.2267 55.3437 43.1251 54.8812C44.0235 54.4163 45.1725 54.8618 45.6903 55.8765Z" fill="#DE7756"/>
<path d="M41.4294 69.2243C41.4294 69.2243 39.6615 74.5034 42.7277 95.4598L58.5644 98.8427C58.5644 98.8427 61.8137 77.5497 58.9715 68.4954C58.8221 68.0208 56.729 66.7858 53.858 66.1877C53.1233 66.0351 51.8805 66.8488 51.0615 66.8027C46.8392 66.563 42.2893 67.0352 41.4294 69.2243Z" fill="#3C313F"/>
<path d="M45.3604 67.9844C46.5189 70.9242 49.5152 77.5085 48.877 94.5225C48.877 94.5225 52.8247 95.1739 57.695 94.1109C57.695 94.1109 58.2634 75.7795 53.964 66.7252L53.357 66.776C50.8858 66.4031 47.8172 66.6864 45.8469 66.994C45.3845 67.0642 45.1869 67.5485 45.3604 67.9844Z" fill="white"/>
<path d="M41.1164 70.3503L46.5189 70.9339C50.2908 83.5092 48.665 99.4481 48.665 99.4481L38.8812 100.702L39.4062 72.3046L41.1164 70.3503Z" fill="#3C313F"/>
<path d="M50.2667 69.2194L50.9411 69.9508L50.5654 89.1055L53.6797 91.2219L55.4115 88.7447L52.0057 68.7521L50.2667 69.2194Z" fill="#95BDC1"/>
<path d="M51.4445 69.7013L51.3747 88.6865L54.0579 90.711L55.7897 88.2337L52.3526 69.4955L51.4445 69.7013Z" fill="#F21C3B"/>
<path d="M53.8218 49.1784C51.9985 52.6025 46.2419 46.6188 46.3045 52.4403C46.3045 52.4403 46.372 54.3945 46.4346 56.385C46.4442 56.7289 45.8878 56.9613 45.7867 56.3971C45.6325 55.5326 44.7847 54.1426 43.0505 54.9006C43.0505 54.9006 42.0509 48.1323 48.8143 47.3791C53.0439 46.9094 55.0526 46.8658 53.8218 49.1784Z" fill="#511700"/>
<path d="M57.5287 94.588L56.7555 94.6583C57.6347 85.1003 54.6745 69.5271 53.7495 67.459L54.9948 66.8972C56.1148 69.4036 58.3862 85.2431 57.5287 94.588Z" fill="#95BDC1"/>
<path d="M54.5011 66.3136L52.685 65.2069L51.3675 66.4395L45.9119 65.5144L44.6883 66.9722C44.0814 67.6963 44.4306 68.8078 45.3411 69.05L50.2137 70.578L51.2374 66.9989L53.6316 69.251L54.5011 66.3136Z" fill="#95BDC1"/>
<path d="M52.3478 69.4615L51.4397 69.6674L51.4421 70.4399C51.5481 70.4956 51.6637 70.4883 51.7769 70.4617L52.1936 70.3624C52.3092 70.3357 52.4056 70.2631 52.4754 70.1662L52.3478 69.4615Z" fill="#D61237"/>
<path d="M51.3024 69.7594L50.3366 68.7981C50.1342 68.5971 50.0885 68.2653 50.2306 68.0256L50.8279 67.0085C50.9002 66.8874 51.011 66.8027 51.1411 66.7712L51.3723 66.7155C51.5023 66.684 51.6396 66.7107 51.7577 66.7857L52.7452 67.425C52.9788 67.5776 53.0848 67.8924 52.9957 68.1636L52.5621 69.4592C52.5019 69.6359 52.367 69.7667 52.2008 69.8054L51.7842 69.9047C51.6131 69.9459 51.4349 69.8926 51.3024 69.7594Z" fill="#F21C3B"/>
<path d="M52.7452 67.4274L51.7577 66.7881C51.6396 66.7106 51.5023 66.6864 51.3723 66.7179L51.141 66.7736C51.011 66.805 50.9002 66.8898 50.8279 67.0109L50.8062 67.0496L52.909 68.4202L52.9933 68.1684C53.0848 67.8948 52.9788 67.58 52.7452 67.4274Z" fill="#D61237"/>
<path d="M54.371 66.5968L52.473 64.7007L51.3674 66.4394L45.8902 65.0252L44.486 66.6283C43.9995 67.1828 44.2572 68.0594 44.9677 68.258L49.7368 69.5947L51.3867 66.713L53.5737 68.3379L54.371 66.5968Z" fill="white"/>
<path d="M41.1766 74.777L41.574 69.9895L40.6322 69.59L38.2982 77.1768V103.841H46.8609C48.0098 103.841 48.9396 102.904 48.9396 101.751V92.4303C48.9396 92.4303 48.2651 92.8178 46.7357 92.302L45.7939 92.0235C45.5097 91.9388 45.252 91.7765 45.0544 91.5537L42.1087 88.2458C41.1308 87.1464 41.1741 85.7226 41.1741 84.2478L41.1766 74.777Z" fill="#261E28"/>
<path d="M58.998 96.4889L59.2148 93.767C59.1594 93.7912 52.0178 95.8714 41.9088 93.072L41.6848 95.7551C48.0291 97.4091 55.255 97.334 58.998 96.4889Z" fill="#601700"/>
<path d="M53.9664 94.5467C54.371 94.5298 54.7733 94.5758 54.8214 95.094C54.8359 95.2659 54.8214 95.4451 54.8214 95.617C54.8214 95.8205 54.8214 96.0239 54.8214 96.2297C54.8214 96.7358 54.3831 96.8036 54.0073 96.8303C53.7689 96.8472 53.7665 97.2226 54.0073 97.2056C54.4481 97.1741 54.7733 97.116 55.0551 96.7431C55.2719 96.4549 55.1948 95.9561 55.1924 95.6195C55.1924 95.2199 55.2285 94.8518 54.9852 94.5104C54.7396 94.1641 54.3421 94.1593 53.964 94.1762C53.7255 94.1835 53.7255 94.5588 53.9664 94.5467Z" fill="#C9C9C9"/>
<path d="M53.4389 65.667C53.4389 65.667 56.5508 66.7761 57.9213 70.2971C58.0177 70.5416 57.9623 70.8201 57.7985 71.0235L56.6086 72.4571L58.6608 74.0989C58.9161 74.3242 59.0052 74.6535 59.0582 74.9925C59.405 77.1719 58.6969 84.0783 57.5552 90.9895C57.56 90.9895 56.811 72.3602 53.4389 65.667Z" fill="#5C4A60"/>
<path d="M50.5076 55.3777C50.5461 55.7894 50.2041 55.9274 49.773 55.9685C49.3394 56.0097 48.9781 55.9395 48.9396 55.5278C48.901 55.1161 49.2214 54.7481 49.6525 54.7069C50.0861 54.6657 50.469 54.966 50.5076 55.3777Z" fill="#FFFEFD"/>
<path d="M49.5754 54.9321C49.4671 54.9418 49.3683 54.9854 49.2912 55.0483C49.3033 55.0677 49.3105 55.0871 49.3129 55.1089C49.3201 55.1936 49.2551 55.2663 49.1684 55.276C49.1563 55.276 49.1467 55.276 49.1347 55.276C49.1154 55.3341 49.1082 55.3995 49.113 55.4649C49.1371 55.7312 49.3852 55.9274 49.667 55.9007C49.9488 55.8741 50.1559 55.6344 50.1294 55.368C50.1053 55.1016 49.8548 54.9055 49.5754 54.9321Z" fill="#2B1E11"/>
<path d="M54.5565 54.9927C54.595 55.4043 54.253 55.5424 53.8219 55.5835C53.3883 55.6247 53.027 55.5545 52.9885 55.1428C52.9499 54.7311 53.2703 54.3631 53.7014 54.3219C54.135 54.2807 54.5155 54.581 54.5565 54.9927Z" fill="#FFFEFD"/>
<path d="M53.622 54.5471C53.5136 54.5568 53.4148 54.6004 53.3378 54.6633C53.3498 54.6827 53.357 54.7021 53.3594 54.7239C53.3667 54.8086 53.3016 54.8813 53.2149 54.891C53.2029 54.891 53.1932 54.891 53.1812 54.891C53.1619 54.9491 53.1547 55.0145 53.1595 55.0798C53.1836 55.3462 53.4317 55.5424 53.7135 55.5157C53.9953 55.4891 54.2025 55.2494 54.176 54.983C54.1519 54.7166 53.9038 54.5205 53.622 54.5471Z" fill="#2B1E11"/>
<path d="M48.9227 55.523C48.8986 55.0944 49.2045 54.7432 49.6525 54.6851C50.0981 54.627 50.4714 54.9684 50.5244 55.3704C50.5388 55.4746 50.7099 55.46 50.6954 55.3535C50.628 54.8377 50.18 54.4865 49.6356 54.5204C49.0913 54.5543 48.7227 55.0459 48.7516 55.5375C48.7565 55.6441 48.9275 55.6271 48.9227 55.523Z" fill="#DE7756"/>
<path d="M52.9692 55.1379C52.9451 54.7092 53.251 54.3581 53.699 54.3C54.1446 54.2419 54.5179 54.5833 54.5709 54.9853C54.5854 55.0894 54.7564 55.0749 54.7419 54.9683C54.6745 54.4525 54.2265 54.1014 53.6821 54.1353C53.1378 54.1692 52.7693 54.6608 52.7982 55.1524C52.8054 55.2589 52.9764 55.242 52.9692 55.1379Z" fill="#DE7756"/>
<path d="M55.7825 53.1134C55.0382 52.0964 53.7617 52.1327 52.7765 52.7647C52.5598 52.9052 52.7597 53.2539 52.9789 53.1134C53.7713 52.6049 54.8431 52.508 55.4356 53.3193C55.5874 53.5227 55.9366 53.3217 55.7825 53.1134Z" fill="#602717"/>
<path d="M53.0728 56.4795C53.3811 57.0752 53.1812 57.792 52.632 58.0777C52.0804 58.3659 51.3843 58.114 51.0784 57.5183C50.7701 56.9226 51.3915 58.0971 52.3767 57.5837C53.3618 57.0679 52.7645 55.8813 53.0728 56.4795Z" fill="#DE7756"/>
<path d="M52.6055 59.6687C52.1382 59.7753 51.6878 59.768 51.2254 59.6324C50.6714 59.4702 50.4185 59.0851 50.062 58.6759C49.9536 58.5524 49.7754 58.734 49.8813 58.8575C50.2354 59.2643 50.4907 59.6421 51.0278 59.8334C51.565 60.0247 52.1141 60.0392 52.6705 59.9157C52.8343 59.8794 52.7669 59.6348 52.6055 59.6687Z" fill="#DE7756"/>
<path d="M47.9882 54.0579C48.441 53.0989 49.5032 53.0021 50.392 53.3629C50.6328 53.4598 50.734 53.0699 50.4979 52.9754C49.4526 52.5492 48.1688 52.7406 47.6413 53.8545C47.5329 54.087 47.8774 54.2928 47.9882 54.0579Z" fill="#602717"/>
<path d="M49.7705 94.876C49.7705 94.876 48.6915 93.8226 46.2684 93.8275C43.8453 93.8299 40.4202 89.2289 40.4202 89.2289C40.4202 89.2289 38.9847 90.2484 38.0694 91.9411L43.3853 96.0916L47.0054 99.8499L49.7705 94.876Z" fill="#FF9976"/>
<path d="M44.6835 100.884L44.8641 101.192L57.7238 104.206L68.8372 91.5416L68.6565 91.234L55.6138 87.9116L44.6835 100.884Z" fill="#FFC892"/>
<path d="M44.8641 101.192L57.9044 104.516L68.8372 91.5415L55.7969 88.2191L44.8641 101.192Z" fill="#773D31"/>
<path d="M50.0547 102.165C50.0547 102.165 51.0808 102.349 51.2759 101.272C51.2759 101.272 52.8584 100.736 51.6613 99.884C51.6613 99.884 49.0503 99.2229 48.0026 97.2202L45.0785 101.104C45.1171 101.158 45.1532 101.206 45.1845 101.247C45.2688 101.351 45.4061 101.465 45.5819 101.581L49.797 102.412C49.8982 102.347 49.9873 102.267 50.0547 102.165Z" fill="#B77A3D"/>
<path d="M52.1021 99.2519C52.1021 99.2519 48.7059 98.1913 48.2965 95.3846L43.4744 95.9295C43.4744 95.9295 44.9918 99.4699 45.5603 100.257C46.1287 101.044 49.5249 102.569 50.3727 101.443C50.3727 101.443 51.3867 101.683 51.6421 100.618C51.6421 100.615 53.251 100.17 52.1021 99.2519Z" fill="#FF9976"/>
<path d="M45.0107 92.9029L42.0753 96.4513L42.8345 97.0861L45.7699 93.5377L45.0107 92.9029Z" fill="white"/>
<path d="M38.8546 85.495L45.3483 92.6774L41.256 97.8087L32.5681 88.6503C30.9279 86.9213 30.5738 84.3302 31.689 82.221C34.1506 77.5691 38.2091 69.9194 38.5415 69.4399C40.0445 67.2798 43.5177 67.166 43.5177 67.166L43.5322 74.1474L38.6692 84.1946C38.462 84.6256 38.5343 85.1414 38.8546 85.495Z" fill="#3C313F"/>
<path opacity="0.34" d="M44.9967 65.8486C44.9967 65.8486 44.7173 66.5339 45.211 67.8997C46.4756 71.4013 48.5711 76.2639 48.9372 89.9821C48.9372 89.9821 45.0906 82.1725 43.6261 76.8572C43.5659 76.6392 43.5852 76.4067 43.7056 76.213L45.4398 73.4427L42.7109 72.2949C42.4772 72.1956 42.3014 71.997 42.2315 71.7525C42.0581 71.1374 41.8173 69.7958 42.1304 67.6406C42.1328 67.6406 43.8068 66.471 44.9967 65.8486Z" fill="#261E28"/>
<path d="M45.4254 65.5531C45.4254 65.5531 45.146 66.2384 45.6397 67.6042C46.9043 71.1058 48.5927 75.3629 48.9612 89.0812C48.9612 89.0812 45.3387 80.5064 44.0549 76.5592C43.985 76.3437 44.0139 76.1088 44.1343 75.9151L45.8685 73.1448L43.1396 71.9969C42.9059 71.8977 42.7301 71.6991 42.6603 71.4545C42.4868 70.8394 42.246 69.4979 42.5591 67.3427C42.5591 67.3475 44.2355 66.1779 45.4254 65.5531Z" fill="#5C4A60"/>
<path opacity="0.34" d="M45.8902 65.0228L45.3386 65.6524C44.3511 66.1731 43.0529 67.0521 42.641 67.333C41.5186 67.5074 39.5339 68.0207 38.4933 69.5197C38.4331 69.6045 38.2525 69.9241 37.9851 70.4109C40.4491 67.9675 42.4073 70.8443 42.4073 70.8443L48.5542 65.7106L45.8902 65.0228Z" fill="#261E28"/>
<path d="M38.8546 85.4948C38.5825 85.1946 38.4909 84.7781 38.5945 84.3979C38.4115 84.3712 38.2236 84.3494 38.0357 84.3349C37.2698 84.2719 36.4942 84.3301 35.9041 84.456C35.6102 84.5189 35.3621 84.5964 35.1887 84.6594C35.0153 84.7248 34.9141 84.7756 34.9141 84.7756C34.9141 84.7756 35.0057 84.841 35.167 84.933C35.3284 85.0251 35.5596 85.1389 35.8414 85.2454C36.4027 85.4634 37.1614 85.6426 37.9273 85.6983C38.3055 85.7273 38.686 85.7297 39.0473 85.7079L38.8546 85.4948Z" fill="#261E28"/>
</g>
</g>
<defs>
<linearGradient id="paint0_linear" x1="153.637" y1="16.3054" x2="153.637" y2="151.804" gradientUnits="userSpaceOnUse">
<stop stop-color="#F9E8E8"/>
<stop offset="1" stop-color="#F9E8E8" stop-opacity="0"/>
</linearGradient>
<linearGradient id="paint1_linear" x1="111.851" y1="84.9686" x2="108.773" y2="113.324" gradientUnits="userSpaceOnUse">
<stop offset="0.2102" stop-color="white"/>
<stop offset="1" stop-color="#231F20"/>
</linearGradient>
<linearGradient id="paint2_linear" x1="74.164" y1="86.6821" x2="69.5222" y2="106.829" gradientUnits="userSpaceOnUse">
<stop stop-color="white"/>
<stop offset="1" stop-color="#231F20"/>
</linearGradient>
<linearGradient id="paint3_linear" x1="40.6897" y1="123.56" x2="52.6463" y2="134.02" gradientUnits="userSpaceOnUse">
<stop stop-color="#F9543E"/>
<stop offset="0.2717" stop-color="#F14D3A"/>
<stop offset="0.682" stop-color="#DD392F"/>
<stop offset="0.7901" stop-color="#D6332B"/>
</linearGradient>
<linearGradient id="paint4_linear" x1="76.6966" y1="116.881" x2="75.9225" y2="134.374" gradientUnits="userSpaceOnUse">
<stop stop-color="white"/>
<stop offset="0.0742" stop-color="#F8F7F7"/>
<stop offset="0.1865" stop-color="#E3E3E3"/>
<stop offset="0.3231" stop-color="#C1C0C1"/>
<stop offset="0.4788" stop-color="#939191"/>
<stop offset="0.6481" stop-color="#585555"/>
<stop offset="0.7843" stop-color="#231F20"/>
</linearGradient>
<clipPath id="clip0">
<rect width="249" height="152" fill="white" transform="translate(0.0534668 0.213867)"/>
</clipPath>
<clipPath id="clip1">
<rect width="195" height="106" fill="white" transform="translate(0.812805 45.8173)"/>
</clipPath>
</defs>
</svg>
