<svg width="527" height="421" viewBox="0 0 527 421" fill="none" xmlns="http://www.w3.org/2000/svg">
<path d="M263.196 420.826C408.555 420.826 526.392 416.426 526.392 410.997C526.392 405.569 408.555 401.169 263.196 401.169C117.837 401.169 0 405.569 0 410.997C0 416.426 117.837 420.826 263.196 420.826Z" fill="#D8D7FF"/>
<path d="M299.716 3.37069C299.716 2.39635 300.508 1.60303 301.488 1.60303C302.465 1.60303 303.261 2.39368 303.261 3.37069V357.116H299.718V3.37069H299.716Z" fill="#403379"/>
<path fill-rule="evenodd" clip-rule="evenodd" d="M304.721 334.008H298.253V381.69C298.253 386.498 296.328 391.069 292.921 394.463C289.514 397.86 284.933 399.779 280.109 399.779C275.287 399.779 270.704 397.86 267.297 394.463C263.89 391.066 261.965 386.498 261.965 381.69V360.372C261.965 358.591 260.518 357.145 258.73 357.145C256.944 357.145 255.494 358.588 255.494 360.372V381.69C255.494 388.218 258.097 394.415 262.721 399.026C267.345 403.637 273.56 406.232 280.106 406.232C286.653 406.232 292.868 403.637 297.492 399.026C302.116 394.415 304.719 388.218 304.719 381.69V334.008H304.721ZM298.25 3.31733V26.9971C298.25 28.778 299.697 30.2236 301.486 30.2236C303.272 30.2236 304.721 28.7807 304.721 26.9971V3.31733C304.721 1.53636 303.274 0.0908203 301.486 0.0908203C299.7 0.0908203 298.25 1.5337 298.25 3.31733Z" fill="#403379"/>
<path fill-rule="evenodd" clip-rule="evenodd" d="M223.326 151.849C225.523 104.521 259.733 36.5833 301.488 23.8716C239.168 24.9258 164.477 53.227 124.036 140.255C141.312 127.956 193.751 121.676 223.326 151.849Z" fill="#FFA9A9"/>
<path fill-rule="evenodd" clip-rule="evenodd" d="M301.486 23.8716C343.24 36.5806 377.448 104.521 379.648 151.849C409.223 121.676 461.662 127.956 478.938 140.255C438.499 53.227 363.805 24.9258 301.486 23.8716Z" fill="#FFA9A9"/>
<path fill-rule="evenodd" clip-rule="evenodd" d="M379.648 151.849C377.45 104.521 343.24 36.5833 301.486 23.8716C259.731 36.5806 225.524 104.521 223.324 151.849C239.433 131.465 268.856 123.923 301.486 123.883C334.115 123.923 363.536 131.465 379.648 151.849Z" fill="#F68484"/>
<path fill-rule="evenodd" clip-rule="evenodd" d="M366.291 328.423C383.628 328.423 397.682 346.158 397.682 368.038C397.682 389.919 383.628 407.654 366.291 407.654H348.638C331.301 407.654 317.248 389.919 317.248 368.038C317.248 346.161 331.301 328.423 348.638 328.423H366.291Z" fill="#493A89"/>
<path fill-rule="evenodd" clip-rule="evenodd" d="M366.291 328.423C383.628 328.423 397.682 346.158 397.682 368.038C397.682 389.916 383.628 407.654 366.291 407.654C348.954 407.654 334.9 389.919 334.9 368.038C334.9 346.158 348.954 328.423 366.291 328.423Z" fill="#3C2F75"/>
<path fill-rule="evenodd" clip-rule="evenodd" d="M117.623 328.423C134.961 328.423 149.014 346.158 149.014 368.038C149.014 389.919 134.961 407.654 117.623 407.654H99.9711C82.6338 407.654 68.5803 389.919 68.5803 368.038C68.5803 346.161 82.6338 328.423 99.9711 328.423H117.623Z" fill="#2C2933"/>
<path fill-rule="evenodd" clip-rule="evenodd" d="M117.623 328.423C134.961 328.423 149.014 346.158 149.014 368.038C149.014 389.916 134.961 407.654 117.623 407.654C100.286 407.654 86.2325 389.919 86.2325 368.038C86.2325 346.158 100.286 328.423 117.623 328.423Z" fill="#4B4554"/>
<path fill-rule="evenodd" clip-rule="evenodd" d="M518.084 326.126C520.58 279.767 489.32 255.057 483.703 251.232L487.537 247.473L485.86 244.164C472.749 241.012 458.277 238.847 443.494 237.413H443.481C441.385 237.21 439.284 237.021 437.178 236.845C437.14 236.843 437.106 236.84 437.068 236.837C434.994 236.667 432.917 236.507 430.84 236.364C430.773 236.358 430.706 236.356 430.642 236.35C428.595 236.209 426.55 236.079 424.505 235.959C424.408 235.954 424.312 235.948 424.216 235.943C422.203 235.829 420.19 235.725 418.185 235.632C418.062 235.626 417.937 235.621 417.814 235.616C415.836 235.525 413.866 235.445 411.901 235.373C411.751 235.368 411.602 235.363 411.452 235.357C409.517 235.288 407.589 235.232 405.672 235.182C405.496 235.176 405.322 235.174 405.149 235.168C403.261 235.12 401.382 235.083 399.516 235.051C399.315 235.049 399.118 235.046 398.918 235.043C397.081 235.014 395.258 234.995 393.447 234.982C393.226 234.979 393.007 234.979 392.785 234.977C391.325 234.966 389.87 234.961 388.431 234.961H285.814C253.598 234.961 234.742 237.173 226.322 238.451C209.703 240.972 153.782 276.618 142.941 284C104.779 286.699 74.6086 300.367 71.6825 303.066C63.3236 312.187 57.1138 323.589 52.3403 336.01C44.7689 337.972 36.8051 344.667 29.2604 381.794H185.093H406.935H511.031C512.87 380.553 522.132 372.934 523.709 358.67V329.089C523.709 327.459 522.655 326.128 521.363 326.128H518.084V326.126Z" fill="#EF553C"/>
<path fill-rule="evenodd" clip-rule="evenodd" d="M255.545 381.791H257.163H261.61C261.613 365.443 262.053 346.92 253.833 333.889C246.153 321.715 232.419 320.94 219.124 320.94C195.961 320.94 174.473 339.575 174.473 368.808L177.185 381.794H180.373H183.561H255.545V381.791Z" fill="#1F1D25"/>
<path fill-rule="evenodd" clip-rule="evenodd" d="M223.743 328.423C241.08 328.423 255.134 346.158 255.134 368.038C255.134 389.919 241.08 407.654 223.743 407.654H206.091C188.753 407.654 174.7 389.919 174.7 368.038C174.7 346.161 188.753 328.423 206.091 328.423H223.743Z" fill="#2C2933"/>
<path fill-rule="evenodd" clip-rule="evenodd" d="M502.565 381.791H504.183H510.766C510.769 365.443 509.074 346.92 500.854 333.889C493.173 321.715 479.44 320.94 466.144 320.94C441.495 320.94 424.067 335.089 421.514 381.791H427.39H430.578H502.565Z" fill="#1F1D25"/>
<path fill-rule="evenodd" clip-rule="evenodd" d="M518.084 326.126C520.58 279.767 489.32 255.057 483.703 251.232L487.537 247.473L485.86 244.164C425.946 229.762 337.588 235.927 320.969 238.448C304.35 240.969 257.152 276.615 246.313 283.997C208.151 286.697 182.696 300.599 179.772 303.298C171.413 312.418 160.489 323.586 155.715 336.008C148.144 337.97 140.18 344.665 132.635 381.791H177.129C177.164 381.621 177.183 381.442 177.183 381.253V373.869C177.183 344.636 195.961 320.937 219.124 320.937C232.419 320.937 244.268 328.735 251.951 340.909C260.177 353.945 262.32 358.993 262.32 375.359C262.32 378.9 261.074 381.789 263.88 381.789H360.07H422.024C424.83 381.789 427.121 378.9 427.121 375.359C427.121 358.993 425.727 353.945 433.953 340.909C441.633 328.735 453.482 320.937 466.78 320.937C489.942 320.937 511.629 344.636 511.629 373.869V379.992C511.629 380.646 512.018 381.373 512.259 381.607C512.499 381.842 512.403 381.735 512.475 381.789H513.954C515.793 380.548 522.147 372.929 523.725 358.665V329.083C523.725 327.454 522.671 326.123 521.379 326.123H518.084V326.126Z" fill="#D6332B"/>
<path fill-rule="evenodd" clip-rule="evenodd" d="M177.183 381.791V373.871C177.183 344.638 195.961 320.94 219.124 320.94C232.419 320.94 244.268 328.737 251.951 340.911C259.91 353.524 262.363 366.361 261.613 381.791H271.136C271.382 379.193 271.512 376.552 271.512 373.871C271.512 337.357 248.059 307.757 219.127 307.757C190.195 307.757 166.741 339.279 166.741 373.871C166.741 376.983 166.741 379.595 166.741 381.791H177.183Z" fill="#F9543E"/>
<path fill-rule="evenodd" clip-rule="evenodd" d="M223.743 343.113C234.649 343.113 243.491 354.273 243.491 368.036C243.491 381.799 234.649 392.959 223.743 392.959C212.837 392.959 203.995 381.799 203.995 368.036C203.995 354.273 212.837 343.113 223.743 343.113Z" fill="#8C98A4"/>
<path fill-rule="evenodd" clip-rule="evenodd" d="M223.743 341.997C235.137 341.997 244.377 353.655 244.377 368.038C244.377 382.419 235.14 394.079 223.743 394.079C212.348 394.079 203.108 382.422 203.108 368.038C203.108 353.655 212.348 341.997 223.743 341.997ZM223.743 328.423C241.08 328.423 255.133 346.158 255.133 368.038C255.133 389.916 241.08 407.654 223.743 407.654C206.405 407.654 192.352 389.919 192.352 368.038C192.352 346.158 206.408 328.423 223.743 328.423Z" fill="#4B4554"/>
<path fill-rule="evenodd" clip-rule="evenodd" d="M223.743 347.646C232.665 347.646 239.9 356.775 239.9 368.038C239.9 379.302 232.665 388.43 223.743 388.43C214.82 388.43 207.585 379.302 207.585 368.038C207.585 356.775 214.82 347.646 223.743 347.646ZM223.743 341.997C235.137 341.997 244.377 353.655 244.377 368.038C244.377 382.419 235.14 394.079 223.743 394.079C212.348 394.079 203.108 382.422 203.108 368.038C203.108 353.655 212.348 341.997 223.743 341.997Z" fill="#D9D3FF"/>
<path fill-rule="evenodd" clip-rule="evenodd" d="M223.743 347.647C232.665 347.647 239.9 356.775 239.9 368.039C239.9 379.302 232.665 388.431 223.743 388.431C214.82 388.431 207.585 379.302 207.585 368.039C207.585 356.775 214.82 347.647 223.743 347.647ZM223.743 345.461C233.623 345.461 241.63 355.569 241.63 368.036C241.63 380.505 233.621 390.611 223.743 390.611C213.862 390.611 205.855 380.503 205.855 368.036C205.855 355.569 213.865 345.461 223.743 345.461Z" fill="#576573"/>
<path fill-rule="evenodd" clip-rule="evenodd" d="M227.339 359.49C227.98 359.919 228.567 360.46 229.082 361.093C236.138 360.475 238.749 356.296 238.859 354.142C240.415 356.291 241.328 359.895 241.534 360.766C241.774 361.62 242.711 365.214 242.452 368.108C241.363 366.447 237.305 365.001 231.309 369.729C231.183 370.642 230.956 371.513 230.641 372.319C233.295 380.588 237.252 382.425 238.907 381.887C237.772 384.421 235.338 386.634 234.748 387.147C234.179 387.699 231.76 389.94 229.501 390.526C230.415 388.702 230.246 383.383 224.824 377.654C224.472 377.718 224.111 377.75 223.746 377.75C223.38 377.75 223.019 377.718 222.667 377.654C217.245 383.386 217.077 388.702 217.99 390.526C215.728 389.94 213.312 387.699 212.744 387.147C212.154 386.634 209.719 384.419 208.584 381.887C210.239 382.425 214.196 380.588 216.85 372.319C216.537 371.513 216.31 370.645 216.182 369.729C210.186 365.001 206.128 366.447 205.039 368.108C204.78 365.214 205.717 361.62 205.957 360.766C206.16 359.898 207.076 356.293 208.632 354.142C208.742 356.296 211.353 360.475 218.409 361.093C218.927 360.462 219.511 359.922 220.152 359.49C221.863 350.833 219.519 346.409 217.931 345.613C220.032 344.407 223.03 344.425 223.748 344.447C224.466 344.423 227.464 344.407 229.566 345.613C227.972 346.409 225.628 350.833 227.339 359.49Z" fill="#ECECEC"/>
<path fill-rule="evenodd" clip-rule="evenodd" d="M223.743 365.398C224.899 365.398 225.836 366.58 225.836 368.039C225.836 369.497 224.899 370.679 223.743 370.679C222.587 370.679 221.65 369.497 221.65 368.039C221.65 366.58 222.587 365.398 223.743 365.398Z" fill="#8C98A4"/>
<path fill-rule="evenodd" clip-rule="evenodd" d="M223.743 361.199C224.239 361.199 224.643 361.708 224.643 362.334C224.643 362.959 224.239 363.468 223.743 363.468C223.246 363.468 222.843 362.959 222.843 362.334C222.843 361.708 223.246 361.199 223.743 361.199Z" fill="#2E1469"/>
<path fill-rule="evenodd" clip-rule="evenodd" d="M218.59 365.925C218.742 365.328 219.25 365.004 219.722 365.195C220.195 365.39 220.454 366.029 220.299 366.625C220.147 367.221 219.639 367.546 219.167 367.354C218.694 367.163 218.435 366.521 218.59 365.925Z" fill="#2E1469"/>
<path fill-rule="evenodd" clip-rule="evenodd" d="M220.558 373.568C220.157 373.198 220.067 372.49 220.36 371.984C220.654 371.478 221.215 371.366 221.615 371.734C222.015 372.101 222.106 372.812 221.813 373.318C221.522 373.826 220.958 373.938 220.558 373.568Z" fill="#2E1469"/>
<path fill-rule="evenodd" clip-rule="evenodd" d="M226.928 373.568C226.527 373.938 225.964 373.826 225.673 373.318C225.382 372.812 225.47 372.101 225.871 371.734C226.271 371.364 226.834 371.475 227.125 371.984C227.419 372.49 227.331 373.2 226.928 373.568Z" fill="#2E1469"/>
<path fill-rule="evenodd" clip-rule="evenodd" d="M228.898 365.925C229.05 366.521 228.794 367.16 228.321 367.354C227.849 367.549 227.342 367.221 227.189 366.625C227.037 366.029 227.293 365.39 227.766 365.195C228.236 365.001 228.743 365.328 228.898 365.925Z" fill="#2E1469"/>
<path fill-rule="evenodd" clip-rule="evenodd" d="M441.412 281.479C438.32 282.501 435.157 283.209 431.993 283.758C428.077 284.437 424.128 284.881 420.185 285.23C415.232 285.672 410.267 285.965 405.306 286.22C399.096 286.54 392.887 286.793 386.674 287.048C369.588 287.748 352.515 288.491 335.439 289.479C310.629 290.916 285.838 292.801 261.066 295.059C260.198 295.139 259.397 294.526 259.055 293.512C258.714 292.495 258.914 291.35 259.565 290.613C261.677 288.228 263.898 285.967 266.146 283.787C268.912 281.104 271.747 278.527 274.623 276.032C281.254 270.279 288.153 264.907 295.214 260.036C300.22 256.583 305.351 253.356 310.6 250.537C315.344 247.987 320.288 245.7 325.3 244.145C327.232 243.544 329.205 243.088 331.173 242.702C333.528 242.242 335.896 241.882 338.267 241.584C343.966 240.865 349.712 240.477 355.436 240.229C362.089 239.942 368.752 239.859 375.411 239.899C382.536 239.942 389.662 240.131 396.782 240.426C410.179 240.983 423.594 241.906 436.956 243.259C442.568 243.828 448.18 244.475 453.775 245.261C458.084 245.868 462.415 246.544 466.692 247.449C469.073 247.955 471.374 249.097 473.467 250.606C474.583 251.413 475.803 252.427 476.773 253.505L477.106 253.878L476.842 254.331C476.578 254.783 476.196 255.222 475.862 255.595C475.336 256.183 474.778 256.74 474.22 257.28C472.608 258.84 470.92 260.312 469.231 261.742C464.609 265.653 459.812 269.34 454.969 272.792C450.604 275.905 446.081 278.929 441.479 281.444L441.444 281.463L441.412 281.479Z" fill="#AE1B14"/>
<path fill-rule="evenodd" clip-rule="evenodd" d="M284.29 270.716C280.149 278.22 276.574 286.926 275.125 291.568C295.19 289.857 315.267 288.4 335.356 287.237C342.813 286.806 350.27 286.42 357.724 286.066C359.371 274.871 364.614 242.196 364.614 242.196C361.571 242.252 358.532 242.345 355.497 242.476C349.813 242.721 344.105 243.109 338.445 243.823C334.233 244.353 329.841 245.053 325.727 246.331C320.809 247.856 315.956 250.106 311.299 252.608C306.104 255.401 301.024 258.595 296.069 262.011C292.085 264.758 288.153 267.668 284.29 270.716Z" fill="#FB7963"/>
<path d="M369.524 239.899C369.508 240.037 363.229 290.538 362.946 298.415L362.898 299.725C362.438 311.825 360.268 373.541 366.972 381.791H366.168C359.205 373.219 361.632 311.854 362.091 299.677L362.139 298.373C362.425 290.408 368.696 240.045 368.715 239.907L369.524 239.899Z" fill="#2E1469"/>
<path d="M266.328 294.584C266.314 294.635 262.112 313.725 264.432 340.666L263.423 338.566C261.084 311.42 265.444 294.712 265.457 294.659L266.328 294.584Z" fill="#2E1469"/>
<path d="M426.136 242.258L447.261 281.479C448.636 284.029 449.541 286.726 449.974 289.537C450.406 292.348 450.369 295.277 449.854 298.288L444.028 332.334L443.238 332.118L449.063 298.072C449.555 295.194 449.595 292.404 449.181 289.726C448.767 287.048 447.905 284.482 446.594 282.049L425.113 242.175L426.136 242.258Z" fill="#2E1469"/>
<path fill-rule="evenodd" clip-rule="evenodd" d="M434.265 245.247L447.568 275.306C449.776 273.873 451.957 272.367 454.099 270.838C458.901 267.415 463.662 263.757 468.245 259.878C469.901 258.475 471.559 257.033 473.142 255.502C473.604 255.055 474.068 254.594 474.511 254.112C473.884 253.543 473.214 253.013 472.586 252.56C470.678 251.181 468.574 250.127 466.401 249.666C462.156 248.767 457.857 248.096 453.581 247.494C448.003 246.709 442.41 246.065 436.817 245.498C435.966 245.412 435.117 245.33 434.265 245.247Z" fill="#FB7963"/>
<path opacity="0.63" fill-rule="evenodd" clip-rule="evenodd" d="M262.406 365.307C262.398 368.188 262.318 371.451 262.318 375.362C262.318 378.903 264.606 381.791 267.412 381.791H360.065H422.019C424.825 381.791 427.115 378.903 427.115 375.362C427.115 371.451 427.035 368.188 427.027 365.307H262.406Z" fill="#F9543E"/>
<path fill-rule="evenodd" clip-rule="evenodd" d="M518.156 324.403C518.316 320.003 518.175 315.802 517.777 311.801C515.422 302.669 510.852 294.18 497.113 288.683C497.113 288.683 492.962 296.621 493.261 296.621C515.713 304.248 509.584 321.406 518.156 324.403Z" fill="#FF6B6B"/>
<path fill-rule="evenodd" clip-rule="evenodd" d="M518.111 316.342C518.036 314.801 517.924 313.286 517.777 311.798C515.422 302.667 510.852 294.177 497.113 288.68C497.113 288.68 496.729 289.412 496.206 290.435C515.441 297.159 513.268 310.981 518.111 316.342Z" fill="#FF9898"/>
<path opacity="0.25" fill-rule="evenodd" clip-rule="evenodd" d="M215.985 243.211C200.452 249.131 157.432 276.099 144.689 284.21C154.303 285.352 239.078 287.325 245.947 284.237C252.819 281.149 294.865 247.452 312.698 240.972C312.698 240.969 233.845 237.863 215.985 243.211Z" fill="#F5B0A5"/>
<path fill-rule="evenodd" clip-rule="evenodd" d="M282.335 277.771C286.957 275.023 293.017 272.603 295.011 275.316C298.269 279.749 298.306 289.191 294.256 290.016C292.456 290.384 288.513 291.161 284.733 290.948C278.833 290.618 275.626 289.78 275.287 287.368C274.991 285.251 276.855 281.029 282.335 277.771Z" fill="#FD9483"/>
<path fill-rule="evenodd" clip-rule="evenodd" d="M136.432 365.669H78.9789H33.1795C32.1383 368.64 31.3374 372.394 30.9423 374.486H134.213C134.95 371.286 135.689 368.353 136.432 365.669Z" fill="#FE6A57"/>
<path fill-rule="evenodd" clip-rule="evenodd" d="M472.41 328.423C489.747 328.423 503.801 346.158 503.801 368.038C503.801 389.919 489.747 407.654 472.41 407.654H454.758C437.421 407.654 423.367 389.919 423.367 368.038C423.367 346.161 437.421 328.423 454.758 328.423H472.41Z" fill="#3C2F75"/>
<path fill-rule="evenodd" clip-rule="evenodd" d="M425.847 381.791V373.871C425.847 344.638 444.626 320.94 467.789 320.94C481.084 320.94 492.933 328.737 500.616 340.911C508.575 353.524 511.028 366.361 510.278 381.791H519.801C520.046 379.193 520.177 376.552 520.177 373.871C520.177 337.357 496.724 307.757 467.792 307.757C438.86 307.757 415.406 339.279 415.406 373.871C415.406 376.983 415.406 379.595 415.406 381.791H425.847Z" fill="#4B4554"/>
<path fill-rule="evenodd" clip-rule="evenodd" d="M472.41 343.113C483.316 343.113 492.158 354.273 492.158 368.036C492.158 381.799 483.316 392.959 472.41 392.959C461.504 392.959 452.662 381.799 452.662 368.036C452.662 354.273 461.504 343.113 472.41 343.113Z" fill="#5534A0"/>
<path fill-rule="evenodd" clip-rule="evenodd" d="M472.41 341.997C483.805 341.997 493.045 353.655 493.045 368.038C493.045 382.419 483.807 394.079 472.41 394.079C461.016 394.079 451.776 382.422 451.776 368.038C451.776 353.655 461.013 341.997 472.41 341.997ZM472.41 328.423C489.747 328.423 503.801 346.158 503.801 368.038C503.801 389.916 489.747 407.654 472.41 407.654C455.073 407.654 441.019 389.919 441.019 368.038C441.019 346.158 455.073 328.423 472.41 328.423Z" fill="#4B4554"/>
<path fill-rule="evenodd" clip-rule="evenodd" d="M472.41 347.646C481.332 347.646 488.567 356.775 488.567 368.038C488.567 379.302 481.332 388.43 472.41 388.43C463.488 388.43 456.253 379.302 456.253 368.038C456.253 356.775 463.488 347.646 472.41 347.646ZM472.41 341.997C483.805 341.997 493.045 353.655 493.045 368.038C493.045 382.419 483.807 394.079 472.41 394.079C461.016 394.079 451.776 382.422 451.776 368.038C451.776 353.655 461.013 341.997 472.41 341.997Z" fill="#D9D3FF"/>
<path fill-rule="evenodd" clip-rule="evenodd" d="M472.41 347.647C481.332 347.647 488.567 356.775 488.567 368.039C488.567 379.302 481.332 388.431 472.41 388.431C463.488 388.431 456.253 379.302 456.253 368.039C456.253 356.775 463.488 347.647 472.41 347.647ZM472.41 345.461C482.291 345.461 490.297 355.569 490.297 368.036C490.297 380.505 482.288 390.611 472.41 390.611C462.532 390.611 454.523 380.503 454.523 368.036C454.523 355.569 462.529 345.461 472.41 345.461Z" fill="#412681"/>
<path fill-rule="evenodd" clip-rule="evenodd" d="M476.006 359.49C476.647 359.919 477.234 360.46 477.75 361.093C484.806 360.475 487.417 356.296 487.526 354.142C489.083 356.291 489.996 359.895 490.201 360.766C490.442 361.62 491.379 365.214 491.12 368.108C490.03 366.447 485.972 365.001 479.976 369.729C479.851 370.642 479.624 371.513 479.309 372.319C481.963 380.588 485.919 382.425 487.574 381.887C486.44 384.421 484.005 386.634 483.415 387.147C482.846 387.699 480.427 389.94 478.169 390.526C479.082 388.702 478.914 383.383 473.491 377.654C473.139 377.718 472.779 377.75 472.413 377.75C472.047 377.75 471.687 377.718 471.334 377.654C465.912 383.386 465.744 388.702 466.657 390.526C464.398 389.94 461.98 387.699 461.411 387.147C460.821 386.634 458.386 384.419 457.251 381.887C458.907 382.425 462.863 380.588 465.517 372.319C465.205 371.513 464.978 370.645 464.85 369.729C458.853 365.001 454.795 366.447 453.706 368.108C453.447 365.214 454.384 361.62 454.624 360.766C454.827 359.898 455.743 356.293 457.3 354.142C457.409 356.296 460.02 360.475 467.076 361.093C467.594 360.462 468.179 359.922 468.819 359.49C470.531 350.833 468.187 346.409 466.598 345.613C468.699 344.407 471.697 344.425 472.416 344.447C473.134 344.423 476.132 344.407 478.233 345.613C476.639 346.409 474.295 350.833 476.006 359.49Z" fill="#D9D3FF"/>
<path fill-rule="evenodd" clip-rule="evenodd" d="M472.41 365.398C473.566 365.398 474.503 366.58 474.503 368.039C474.503 369.497 473.566 370.679 472.41 370.679C471.254 370.679 470.317 369.497 470.317 368.039C470.317 366.58 471.254 365.398 472.41 365.398Z" fill="#5534A0"/>
<path fill-rule="evenodd" clip-rule="evenodd" d="M472.41 361.199C472.907 361.199 473.31 361.708 473.31 362.334C473.31 362.959 472.907 363.468 472.41 363.468C471.914 363.468 471.51 362.959 471.51 362.334C471.51 361.708 471.914 361.199 472.41 361.199Z" fill="#2E1469"/>
<path fill-rule="evenodd" clip-rule="evenodd" d="M467.255 365.925C467.407 365.328 467.914 365.004 468.387 365.195C468.859 365.39 469.118 366.029 468.964 366.625C468.811 367.221 468.304 367.546 467.832 367.354C467.359 367.163 467.103 366.521 467.255 365.925Z" fill="#2E1469"/>
<path fill-rule="evenodd" clip-rule="evenodd" d="M469.225 373.568C468.825 373.198 468.734 372.49 469.028 371.984C469.319 371.478 469.882 371.366 470.283 371.734C470.683 372.101 470.774 372.812 470.48 373.318C470.189 373.826 469.626 373.938 469.225 373.568Z" fill="#2E1469"/>
<path fill-rule="evenodd" clip-rule="evenodd" d="M475.595 373.568C475.195 373.938 474.631 373.826 474.34 373.318C474.049 372.812 474.138 372.101 474.538 371.734C474.938 371.364 475.502 371.475 475.793 371.984C476.087 372.49 475.998 373.2 475.595 373.568Z" fill="#2E1469"/>
<path fill-rule="evenodd" clip-rule="evenodd" d="M477.566 365.925C477.718 366.521 477.461 367.16 476.989 367.354C476.516 367.549 476.009 367.221 475.857 366.625C475.705 366.029 475.961 365.39 476.433 365.195C476.903 365.001 477.411 365.328 477.566 365.925Z" fill="#2E1469"/>
<path fill-rule="evenodd" clip-rule="evenodd" d="M61.655 335.081H144.494L149.367 326.15L151.489 323.014H67.2348L61.655 335.081Z" fill="#D6332B"/>
<path fill-rule="evenodd" clip-rule="evenodd" d="M64.7358 311.838C59.1668 319.691 56.134 326.424 52.7194 335.081H66.65C68.5456 323.453 66.8209 317.343 64.7358 311.838Z" fill="#ECECEC"/>
<path fill-rule="evenodd" clip-rule="evenodd" d="M54.9219 329.674C54.185 331.407 53.4615 333.199 52.7194 335.081H54.4814C54.444 333.609 54.6309 331.628 54.9219 329.674Z" fill="#E0B945"/>
<path fill-rule="evenodd" clip-rule="evenodd" d="M139.414 335.073C144.222 335.007 155.555 334.504 157.696 332.965C160.013 331.298 165.615 322.433 178.381 318.696C177.247 317.485 173.68 314.609 169.665 313.31C157.384 317.418 145.658 324.092 139.414 335.073Z" fill="#ECECEC"/>
<path fill-rule="evenodd" clip-rule="evenodd" d="M139.414 335.073C144.222 335.007 156.372 334.471 158.47 332.965C160.566 331.458 164.373 324.374 174.267 320.168C173.869 319.561 172.729 319.505 170.449 320.341C162.835 323.141 157.739 322.473 153.513 320.799C147.735 324.488 142.778 329.155 139.414 335.073Z" fill="#ECECEC"/>
<path fill-rule="evenodd" clip-rule="evenodd" d="M151.975 334.322C154.653 334.003 156.866 333.561 157.696 332.965C160.013 331.298 165.615 322.433 178.381 318.696C177.906 318.19 177.009 317.394 175.829 316.542C169.494 319.002 157.637 327.835 151.975 334.322Z" fill="#E0B945"/>
<path fill-rule="evenodd" clip-rule="evenodd" d="M434.086 270.668C434.086 270.668 426.4 253.181 421.159 244.108C413.019 243.485 404.869 243.011 396.726 242.67C389.066 242.351 381.375 242.143 373.689 242.125C373.368 247.359 371.732 274.241 371.243 285.451C376.369 285.227 381.492 285.014 386.618 284.804C392.825 284.549 399.032 284.296 405.234 283.979C410.179 283.726 415.126 283.43 420.059 282.991C423.962 282.642 427.874 282.206 431.75 281.532C432.527 281.397 433.307 281.253 434.083 281.096V270.668H434.086Z" fill="#403379"/>
<path fill-rule="evenodd" clip-rule="evenodd" d="M308.755 183.195H458.357C461.574 183.195 464.206 185.82 464.206 189.028V403.881C464.206 407.089 461.574 409.714 458.357 409.714H308.755C305.538 409.714 302.906 407.089 302.906 403.881V189.028C302.906 185.82 305.538 183.195 308.755 183.195Z" fill="#FFA9A9"/>
<path d="M456.234 193.466H310.878V402.084H456.234V193.466Z" fill="white"/>
<path fill-rule="evenodd" clip-rule="evenodd" d="M383.556 169.022C386.947 169.022 389.696 166.28 389.696 162.899C389.696 159.518 386.947 156.776 383.556 156.776C380.165 156.776 377.416 159.518 377.416 162.899C377.416 166.28 380.165 169.022 383.556 169.022ZM336.117 200.899H430.992C431.152 200.899 431.261 200.851 431.368 200.734C431.475 200.616 431.515 200.502 431.502 200.345C430.792 191.972 424.31 183.669 415.355 183.669H401.433V173.601C401.433 171.924 400.052 170.548 398.37 170.548H393.567V164.893C393.567 159.401 389.058 154.907 383.553 154.907C378.046 154.907 373.536 159.404 373.536 164.893V170.548H368.731C367.049 170.548 365.669 171.924 365.669 173.601V183.669H351.746C342.792 183.669 336.31 191.972 335.599 200.345C335.586 200.502 335.626 200.616 335.733 200.734C335.848 200.851 335.96 200.899 336.117 200.899Z" fill="#F68484"/>
<path fill-rule="evenodd" clip-rule="evenodd" d="M406.251 200.899H414.883L420.641 184.692C419.01 184.037 417.24 183.669 415.358 183.669H412.373L406.251 200.899ZM398.651 200.899H403.531L409.653 183.667H404.775L398.651 200.899Z" fill="#E87272"/>
<path d="M347.968 255.358H330.7V272.577H347.968V255.358ZM329.131 252.227H351.108V275.707H327.561V252.227H329.131Z" fill="#CBCDFF"/>
<path d="M334.417 262.397L337.898 265.868L344.252 259.532L345.945 261.22L337.898 269.241L332.724 264.082L334.417 262.397Z" fill="#CBCDFF"/>
<path d="M408.91 253.708H361.106V257.091H408.91V253.708Z" fill="#CBCDFF"/>
<path d="M439.551 263.156H361.106V266.691H439.551V263.156Z" fill="#CBCDFF"/>
<path d="M439.551 270.748H361.106V274.283H439.551V270.748Z" fill="#CBCDFF"/>
<path d="M439.548 212.631H327.561V240.434H439.548V212.631Z" fill="#E1251B"/>
<path d="M428.952 230.456V232.711H420.673V220.353H428.768V222.608H422.908V225.257H428.304V227.512H422.908V230.454H428.952V230.456ZM410.253 226.532C410.253 227.121 410.347 227.661 410.534 228.151C410.721 228.641 410.969 229.067 411.279 229.426C411.588 229.785 411.951 230.065 412.368 230.259C412.784 230.456 413.227 230.555 413.697 230.555C414.095 230.555 414.453 230.494 414.776 230.368C415.099 230.243 415.387 230.081 415.641 229.879C415.895 229.676 416.105 229.447 416.274 229.192C416.442 228.936 416.575 228.673 416.674 228.398H418.999C418.863 228.987 418.639 229.548 418.329 230.086C418.02 230.621 417.638 231.09 417.184 231.489C416.73 231.888 416.21 232.208 415.622 232.45C415.032 232.692 414.391 232.812 413.697 232.812C412.928 232.812 412.2 232.653 411.511 232.33C410.822 232.011 410.221 231.566 409.706 230.997C409.191 230.427 408.782 229.764 408.478 229.005C408.174 228.247 408.021 227.424 408.021 226.535C408.021 225.659 408.174 224.839 408.478 224.072C408.782 223.308 409.191 222.64 409.706 222.07C410.221 221.501 410.822 221.056 411.511 220.737C412.2 220.417 412.928 220.255 413.697 220.255C414.367 220.255 414.99 220.375 415.566 220.617C416.143 220.859 416.655 221.179 417.101 221.578C417.547 221.977 417.926 222.443 418.236 222.981C418.546 223.516 418.77 224.08 418.906 224.669H416.581C416.506 224.395 416.388 224.128 416.228 223.875C416.068 223.62 415.865 223.391 415.622 223.189C415.379 222.986 415.099 222.821 414.776 222.699C414.453 222.574 414.092 222.512 413.697 222.512C413.225 222.512 412.782 222.611 412.368 222.808C411.951 223.005 411.588 223.282 411.279 223.641C410.969 224.001 410.721 224.426 410.534 224.916C410.347 225.403 410.253 225.944 410.253 226.532ZM406.254 220.353V232.711H404.3L399.091 224.669V232.711H396.859V220.353H398.814L404.022 228.396V220.353H406.254ZM391.835 228.004L390.345 223.492L388.855 228.004H391.835ZM387.278 232.711H384.952L389.325 220.353H391.373L395.746 232.711H393.421L392.582 230.161H388.116L387.278 232.711ZM378.067 225.944H380.486C380.958 225.944 381.353 225.776 381.677 225.443C382 225.111 382.16 224.722 382.16 224.277C382.16 223.833 382 223.444 381.677 223.111C381.353 222.779 380.958 222.611 380.486 222.611H378.067V225.944ZM379.741 228.199H378.067V232.711H375.835V220.353H380.486C381.044 220.353 381.562 220.455 382.04 220.657C382.517 220.859 382.929 221.139 383.276 221.49C383.623 221.844 383.895 222.251 384.095 222.717C384.293 223.181 384.392 223.668 384.392 224.179C384.392 224.871 384.261 225.449 384.002 225.904C383.74 226.362 383.449 226.735 383.126 227.022C382.755 227.363 382.339 227.624 381.879 227.807L384.669 232.711H382.157L379.741 228.199ZM368.856 230.552C369.601 230.552 370.189 230.323 370.624 229.865C371.059 229.407 371.275 228.787 371.275 228.002V220.351H373.507V228.002C373.507 228.694 373.392 229.333 373.163 229.913C372.933 230.496 372.61 231.002 372.196 231.433C371.78 231.865 371.289 232.203 370.717 232.442C370.146 232.684 369.527 232.804 368.856 232.804C368.186 232.804 367.567 232.684 366.996 232.442C366.424 232.2 365.933 231.865 365.517 231.433C365.1 231.002 364.78 230.496 364.55 229.913C364.321 229.33 364.206 228.694 364.206 228.002V220.351H366.438V228.002C366.438 228.787 366.654 229.407 367.089 229.865C367.524 230.323 368.114 230.552 368.856 230.552ZM354.16 223.806C354.16 223.335 354.256 222.885 354.448 222.454C354.64 222.023 354.912 221.647 355.267 221.325C355.62 221.006 356.05 220.747 356.552 220.55C357.054 220.353 357.622 220.255 358.255 220.255C358.837 220.255 359.368 220.353 359.846 220.55C360.324 220.747 360.735 221.022 361.082 221.373C361.429 221.727 361.696 222.142 361.883 222.619C362.07 223.095 362.163 223.617 362.163 224.179H360.025C360.025 223.63 359.87 223.199 359.56 222.885C359.251 222.571 358.816 222.414 358.258 222.414C357.7 222.414 357.264 222.558 356.955 222.845C356.645 223.133 356.49 223.447 356.49 223.788C356.49 224.155 356.64 224.434 356.936 224.631C357.232 224.828 357.606 225.004 358.052 225.161C358.498 225.318 358.986 225.481 359.512 225.651C360.038 225.821 360.527 226.05 360.973 226.338C361.419 226.625 361.792 227.001 362.089 227.467C362.388 227.93 362.534 228.537 362.534 229.282C362.534 229.727 362.433 230.158 362.227 230.576C362.022 230.994 361.734 231.369 361.362 231.705C360.991 232.038 360.54 232.306 360.014 232.509C359.488 232.711 358.901 232.812 358.255 232.812C357.598 232.812 357.011 232.714 356.496 232.517C355.98 232.32 355.542 232.043 355.185 231.683C354.824 231.324 354.549 230.898 354.357 230.408C354.165 229.918 354.069 229.378 354.069 228.79H356.301C356.301 229.338 356.474 229.788 356.821 230.134C357.168 230.48 357.646 230.653 358.255 230.653C358.912 230.653 359.403 230.507 359.726 230.211C360.049 229.916 360.209 229.572 360.209 229.181C360.209 228.803 360.06 228.508 359.763 228.297C359.464 228.087 359.093 227.901 358.647 227.738C358.202 227.576 357.713 227.413 357.187 227.256C356.661 227.099 356.172 226.884 355.727 226.609C355.281 226.335 354.907 225.979 354.611 225.539C354.309 225.103 354.16 224.525 354.16 223.806ZM352.205 220.353V232.711H350.251L345.042 224.669V232.711H342.81V220.353H344.765L349.973 228.396V220.353H352.205ZM340.392 232.711H338.16V220.353H340.392V232.711Z" fill="white"/>
<path d="M347.968 255.358H330.7V272.577H347.968V255.358ZM329.131 252.227H351.108V275.707H327.561V252.227H329.131Z" fill="#FCF1F1"/>
<path d="M334.417 262.397L337.898 265.868L344.252 259.532L345.945 261.22L337.898 269.244L332.724 264.082L334.417 262.397Z" fill="#F85C24"/>
<path d="M408.91 253.708H361.106V257.091H408.91V253.708Z" fill="#FCF1F1"/>
<path d="M439.551 263.156H361.106V266.691H439.551V263.156Z" fill="#FCF1F1"/>
<path d="M439.551 270.748H361.106V274.283H439.551V270.748Z" fill="#FCF1F1"/>
<path d="M347.968 290.403H330.7V307.621H347.968V290.403ZM329.131 287.272H351.108V310.752H327.561V287.272H329.131Z" fill="#FCF1F1"/>
<path d="M334.417 297.441L337.898 300.915L344.252 294.579L345.945 296.265L337.898 304.288L332.724 299.129L334.417 297.441Z" fill="#F85C24"/>
<path d="M408.91 288.752H361.106V292.136H408.91V288.752Z" fill="#FCF1F1"/>
<path d="M439.551 298.202H361.106V301.738H439.551V298.202Z" fill="#FCF1F1"/>
<path d="M439.551 305.792H361.106V309.328H439.551V305.792Z" fill="#FCF1F1"/>
<path d="M347.968 325.45H330.7V342.668H347.968V325.45ZM329.131 322.319H351.108V345.799H327.561V322.319H329.131Z" fill="#FCF1F1"/>
<path d="M334.417 332.488L337.898 335.96L344.252 329.624L345.945 331.312L337.898 339.333L332.724 334.173L334.417 332.488Z" fill="#F85C24"/>
<path d="M408.91 323.799H361.106V327.182H408.91V323.799Z" fill="#FCF1F1"/>
<path d="M439.551 333.247H361.106V336.782H439.551V333.247Z" fill="#FCF1F1"/>
<path d="M439.551 340.839H361.106V344.375H439.551V340.839Z" fill="#FCF1F1"/>
<path d="M347.968 360.494H330.7V377.713H347.968V360.494ZM329.131 357.363H351.108V380.843H327.561V357.363H329.131Z" fill="#FCF1F1"/>
<path d="M334.417 367.533L337.898 371.007L344.252 364.671L345.945 366.356L337.898 374.38L332.724 369.22L334.417 367.533Z" fill="#F85C24"/>
<path d="M408.91 358.844H361.106V362.227H408.91V358.844Z" fill="#FCF1F1"/>
<path d="M439.551 368.294H361.106V371.829H439.551V368.294Z" fill="#CBCDFF"/>
<path d="M439.551 375.884H361.106V379.419H439.551V375.884Z" fill="#CBCDFF"/>
<path fill-rule="evenodd" clip-rule="evenodd" d="M183.283 255.454C183.403 256.503 183.627 257.674 183.937 258.941L188.443 258.023C186.996 256.077 186.107 254.746 186.089 254.296C189.477 249.27 186.735 246.956 185.539 251.067C185.726 247.864 182.602 244.978 181.022 245.048C179.799 245.104 178.907 247.334 183.283 255.454Z" fill="#E4AB8D"/>
<path fill-rule="evenodd" clip-rule="evenodd" d="M200.636 273.013C204.483 267.636 213.883 257.014 213.753 257.105C213.275 258.593 214.417 261.886 213.12 274.158C212.853 274.55 207.035 280.968 206.253 281.466C202.879 278.388 201.998 275.183 200.636 273.013Z" fill="#497BFD"/>
<path fill-rule="evenodd" clip-rule="evenodd" d="M204.307 391.881L203.228 400.453C203.154 401.717 203.186 405.199 203.247 409.589C205.191 411.253 208.285 410.8 208.68 409.437C209.075 408.074 210.258 394.151 210.258 394.151L204.307 391.881Z" fill="#E4AB8D"/>
<path fill-rule="evenodd" clip-rule="evenodd" d="M210.589 412.962C209.412 413.085 204.993 413.316 204.555 413.351C204.12 413.388 203.244 413.987 202.975 414.006C201.589 414.099 199.707 413.476 199.229 413.367C198.754 413.258 191.42 413.156 191.369 413.013C191.319 412.869 191.399 411.969 192.074 411.671C192.416 411.522 193.898 411.024 195.646 410.351C197.371 409.688 199.213 408.884 200.057 408.458C200.585 408.192 200.887 407.83 201.338 407.571C201.683 407.342 203.301 405.857 203.533 405.894C203.765 405.931 205.364 406.959 205.364 407.215C205.364 407.366 205.097 407.835 204.881 408.192C205.279 408.338 205.69 408.41 206.12 408.295C207.479 407.933 207.596 406.368 208.36 406.309C209.131 406.251 210.586 408.042 210.589 412.962Z" fill="#345F81"/>
<path fill-rule="evenodd" clip-rule="evenodd" d="M234.617 391.928L232.694 398.182C232.62 399.446 233.493 405.247 233.554 409.637C235.498 411.301 238.594 410.848 238.987 409.485C239.382 408.122 239.713 394.577 239.713 394.577L234.617 391.928Z" fill="#E4AB8D"/>
<path fill-rule="evenodd" clip-rule="evenodd" d="M210.557 412.965L210.592 412.999C210.666 413.199 210.923 414.032 210.851 414.213C210.778 414.394 207.775 415.105 202.291 414.961C196.808 414.818 192.218 414.631 191.38 413.021C191.607 413.162 198.765 413.263 199.235 413.369C199.71 413.479 201.595 414.099 202.98 414.008C203.25 413.99 204.125 413.391 204.561 413.353C204.99 413.316 209.331 413.087 210.557 412.965Z" fill="#61B1C5"/>
<path fill-rule="evenodd" clip-rule="evenodd" d="M228.637 414.959C233.1 414.959 240.554 414.959 240.554 414.959C240.725 414.179 240.589 411.437 240.253 410.444C239.833 409.209 239.358 408.146 238.806 408.13C237.69 408.098 238.344 410.154 236.731 410.055C235.119 409.959 235.69 408.649 233.541 408.583C233.159 408.572 230.989 410.492 229.451 412.305C228.879 412.975 228.594 413.71 228.637 414.959Z" fill="#345F81"/>
<path fill-rule="evenodd" clip-rule="evenodd" d="M228.636 414.959C233.1 414.959 240.554 414.959 240.554 414.959C240.618 414.666 240.64 414.099 240.621 413.452L228.711 413.811C228.647 414.141 228.62 414.519 228.636 414.959Z" fill="#61B1C5"/>
<path fill-rule="evenodd" clip-rule="evenodd" d="M232.457 402.471C231.325 378.764 226.557 342.586 225.791 325.016C223.054 332.691 218.839 343.728 217.41 352.51L202.951 352.715C203.143 340.656 208.541 319.601 210.562 307.281C213.889 305.082 217.01 306.059 221.46 306.197C225.911 306.335 229.68 301.259 237.471 303.418C241.555 304.549 244.046 306.839 245.699 308.329C247.092 324.292 245.899 357.544 245.696 368.174C245.496 378.804 247.888 381.996 247.634 383.325C247.381 384.656 245.939 384.799 245.68 385.707C244.893 388.806 246.804 393.103 246.569 395.144C246.332 397.186 244.727 399.194 244.15 399.806C243.574 400.418 244.764 401.534 243.731 402.146C242.693 402.763 235.994 403.421 232.457 402.471Z" fill="#DFD8FC"/>
<path fill-rule="evenodd" clip-rule="evenodd" d="M217.453 352.353C217.375 352.63 217.301 352.904 217.229 353.181C213.859 366.308 218.62 381.184 218.337 382.483C218.054 383.783 216.559 382.731 216.054 385.697C215.755 387.448 216.879 390.124 216.871 391.772C216.866 392.77 215.277 391.998 215.304 393.041C215.392 396.728 215.635 401.563 215.269 401.898C214.97 402.173 214.102 401.701 213.382 401.941C212.626 402.194 212.727 402.737 211.913 402.83C210.504 402.995 207.554 401.85 203.052 403.155C203.159 389.157 202.035 357.952 203.146 351.23L217.453 352.353Z" fill="#DFD8FC"/>
<path fill-rule="evenodd" clip-rule="evenodd" d="M213.723 257.301C212.468 258.095 213.608 281.852 209.983 310.592C212.06 310.917 244.019 311.742 245.888 310.856C246.126 302.715 244.495 258.872 243.603 256.684C240.269 254.581 234.886 252.467 232.158 252.438C226.437 252.613 221.078 252.656 213.723 257.301Z" fill="#5D8AFF"/>
<path fill-rule="evenodd" clip-rule="evenodd" d="M261.269 287.703H229.616L228.66 309.607H262.155L261.269 287.703Z" fill="white"/>
<path fill-rule="evenodd" clip-rule="evenodd" d="M244.385 306.753C253.39 298.144 254.247 284.751 254.079 282.533C253.337 280.313 246.641 274.326 243.005 269.763C239.369 265.2 241.36 256.434 242.103 256.189C245.912 256.905 260.583 270.783 263.682 281.964C264.574 288.129 257.002 305.545 248.641 310.478L244.385 306.753Z" fill="#5D8AFF"/>
<path fill-rule="evenodd" clip-rule="evenodd" d="M247.645 309.607L248.227 310.118C247.303 310.728 244.97 312.104 244.54 312.16C244.07 312.221 240.458 312 240.039 309.607H243.181L245.544 307.768L247.645 309.607Z" fill="#E4AB8D"/>
<path fill-rule="evenodd" clip-rule="evenodd" d="M229.571 246.429C229.678 245.564 229.627 243.211 229.587 242.774L227.98 242.66L227.908 240.37C226.495 240.596 222.961 241.568 219.634 239.028C215.894 235.147 219.981 230.305 222.75 232.559C223.569 231.992 229.389 229.511 231.883 233.773C237.513 234.167 240.202 244.845 232.219 248.94L230.898 246.916C232.176 246.001 233.162 244.097 231.912 243.394C230.524 242.614 230.569 245.569 229.571 246.429Z" fill="#345F81"/>
<path fill-rule="evenodd" clip-rule="evenodd" d="M224.744 250.148C224.301 250.09 223.876 249.975 223.489 249.802C220.646 248.516 220.833 241.893 221.068 239.918C223.927 241.307 226.698 240.567 227.908 240.373L227.98 242.662L229.587 242.777C229.627 243.213 229.675 245.567 229.571 246.432C230.569 245.575 230.524 242.617 231.915 243.397C233.164 244.097 232.179 246.001 230.9 246.916L232.222 248.94V251.804V252.145C231.784 254.732 228.474 256.04 227.227 255.978C225.98 255.917 224.979 254.839 224.744 254.184V252.137V250.148Z" fill="#E4AB8D"/>
<path fill-rule="evenodd" clip-rule="evenodd" d="M224.744 250.148C226.65 250.399 228.874 249.611 229.638 248.128C229.496 249.704 227.998 251.7 224.744 251.746V250.148Z" fill="#BC896F"/>
<path fill-rule="evenodd" clip-rule="evenodd" d="M207.858 279.807C205.519 282.397 203.642 282.432 201.176 283.76C194.402 285.874 184.965 264.313 183.064 258.297L189.036 256.332C193.868 266.925 198.976 271.709 207.858 279.807Z" fill="#5D8AFF"/>
<path fill-rule="evenodd" clip-rule="evenodd" d="M229.635 244.6C229.632 245.024 225.676 247.071 225.334 247.486C224.992 247.901 225.395 248.439 225.219 248.498C224.888 248.612 225.294 245.87 221.457 246.536C221.239 246.573 222.477 251.349 223.43 251.607C224.386 251.865 228.989 250.822 229.638 248.125C230.286 245.428 230.668 243.967 230.409 243.368L229.635 244.6Z" fill="#345F81"/>
<path fill-rule="evenodd" clip-rule="evenodd" d="M222.528 249.77C222.069 248.99 222.045 248.546 221.789 247.79C222.528 247.614 223.924 247.457 223.978 247.603C224.031 247.75 224.416 248.998 222.528 249.77Z" fill="#E4AB8D"/>
<path fill-rule="evenodd" clip-rule="evenodd" d="M114.97 404.103C114.935 402.532 114.82 400.959 114.636 399.391C114.583 399.38 114.529 399.369 114.478 399.359V398.161C113.053 387.789 108.963 377.622 107.353 368.842C105.594 359.251 108.036 358.921 104.817 347.447C101.536 335.757 92.4424 321.246 93.3902 307.6C94.2632 307.898 101.989 306.878 102.878 306.849C107.171 306.713 108.079 304.874 111.288 306.996C112.594 314.945 115.971 327.063 118.12 337.698C122.199 357.88 120.747 379.116 120.29 399.939C122.354 401.688 126.562 408.857 127.678 409.552C127.667 409.597 127.654 409.64 127.64 409.685C127.461 410.13 126.7 410.942 125.462 410.95C122.605 410.8 115.773 406.876 114.97 404.103Z" fill="#E4AB8D"/>
<path fill-rule="evenodd" clip-rule="evenodd" d="M116.561 413.1C116.417 413.1 114.454 413.63 114.147 413.1C114.115 411.708 113.256 406.219 113.258 402.604C113.261 400.948 114.03 400.455 114.163 399.321C115.002 399.383 117.135 400.005 118.731 402.183C121.249 405.617 122.335 410.787 125.459 410.949C126.834 410.941 127.622 409.94 127.675 409.552C128.497 410.265 132.731 410.364 132.406 411.618C132.251 412.123 128.986 414.541 123.668 413.691C120.971 413.114 120.627 409.845 117.06 407.864L116.561 413.1Z" fill="#012384"/>
<path fill-rule="evenodd" clip-rule="evenodd" d="M99.4318 272.297C101.65 272.38 114.142 268.397 122.068 265.008C124.012 261.923 122.974 259.458 120.296 257.898C115.656 260.083 105.764 258.75 99.0366 259.78C93.3741 263.022 96.8368 269.739 99.4318 272.297Z" fill="#A9BAEF"/>
<path fill-rule="evenodd" clip-rule="evenodd" d="M119.682 265.786C122.792 264.833 125.248 263.893 126.228 263.131C126.588 262.815 126.925 262.314 127.234 261.702C128.695 258.811 129.549 253.471 129.893 252.837C130.238 252.203 131.535 251.772 131.813 251.314C132.093 250.854 130.961 249.091 131.207 248.327C131.455 247.566 131.853 247.164 132.005 246.472C132.157 245.78 131.319 244.845 131.463 244.278C131.607 243.711 132.243 242.862 132.283 242.534C132.323 242.207 130.385 242.59 128.038 242.91C125.913 243.2 123.441 243.543 121.761 243.65C121.067 247.579 121.046 257.344 118.697 258.529C117.829 259.404 118.675 264.369 119.682 265.786Z" fill="#A9BAEF"/>
<path fill-rule="evenodd" clip-rule="evenodd" d="M35.5662 370.134C33.7268 368.486 34.4103 365.179 35.7638 364.961C37.8195 364.628 39.699 364.266 41.4343 363.878C41.437 363.838 41.4423 363.798 41.445 363.758L42.4195 363.651C58.9345 359.727 61.6389 353.32 77.0567 348.057C83.4347 341.092 81.6539 320.794 84.8176 309C89.4549 304.32 96.77 304.32 103.231 306.836C103.839 316.718 100.919 347.617 93.6945 355.95C86.4568 364.298 57.5489 367.724 41.5758 369.473C40.2116 371.654 33.313 376.757 32.7337 377.958C32.6856 377.95 32.6429 377.942 32.5975 377.934C32.1356 377.806 31.2413 377.14 31.0971 375.913C30.9556 373.464 34.0365 371.925 36.8904 369.985C36.4259 370.035 35.9827 370.086 35.5662 370.134Z" fill="#E4AB8D"/>
<path fill-rule="evenodd" clip-rule="evenodd" d="M83.6081 309.959C79.0589 314.178 80.4178 329.712 78.3594 339.181C77.3396 343.869 74.5497 347.521 69.7441 348.485C72.3204 352.247 102.123 359.616 121.505 357.198C122.717 346.084 114.905 316.627 112.027 310.941C106.485 308.758 107.852 309.088 107.852 309.088L83.6081 309.959Z" fill="#FF7281"/>
<path fill-rule="evenodd" clip-rule="evenodd" d="M93.9026 268.837C92.1379 270.178 79.6302 274.11 71.1938 275.897C67.8219 274.494 67.2426 271.882 68.5321 269.068C73.2655 267.87 79.2991 264.039 85.1005 262.626C91.5959 262.019 94.5433 265.253 93.9026 268.837Z" fill="#BACAFF"/>
<path fill-rule="evenodd" clip-rule="evenodd" d="M83.1117 263.193C82.5884 263.363 82.5324 271.839 83.6697 277.952C85.0926 285.611 88.0854 288.062 87.984 293.68C87.9359 296.387 85.6933 300.777 83.6083 309.959C92.9604 311.151 109.481 309.905 111.932 309.719C110.618 302.731 109.369 299.885 109.686 295.056C110.004 290.227 112.345 283.044 112.847 277.662C114.689 257.821 102.366 256.95 83.1117 263.193Z" fill="#BACAFF"/>
<path fill-rule="evenodd" clip-rule="evenodd" d="M128.065 229.53C127.899 231.207 126.623 238.632 125.771 243.455C127.453 243.352 129.923 243.008 132.048 242.715C132.059 237.865 132.011 232.125 131.706 229.365L127.977 229.469C128.006 229.493 128.035 229.514 128.065 229.53Z" fill="#E5A485"/>
<path fill-rule="evenodd" clip-rule="evenodd" d="M129.883 230.56C133.41 229.892 132.739 227.281 134.616 225.22C135.177 224.664 137.374 223.442 137.099 222.641C136.501 220.892 131.613 223.831 129.827 225.787C129.749 225.731 128.495 223.303 127.029 224.4C126.805 224.568 127.704 225.383 127.699 226.828C127.694 228.843 127.723 230.97 129.883 230.56Z" fill="#E5A485"/>
<path fill-rule="evenodd" clip-rule="evenodd" d="M94.2899 255.771C94.4982 257.456 94.3673 259.303 94.4901 260.901C95.0481 262.626 98.2865 263.624 99.1969 263.579C100.107 263.533 100.788 262.173 100.863 261.617C100.887 261.438 100.823 260.842 100.721 260.083C100.532 258.667 100.388 257.922 100.273 256.99C98.3079 257.296 95.9612 256.876 94.2899 255.771Z" fill="#E5A485"/>
<path fill-rule="evenodd" clip-rule="evenodd" d="M100.518 258.67C100.425 258.052 100.342 257.554 100.273 256.99C98.5909 257.254 96.6286 256.982 95.0535 256.207C96.084 257.477 97.9795 258.893 100.518 258.67Z" fill="#D88F6F"/>
<path fill-rule="evenodd" clip-rule="evenodd" d="M94.3885 256.157C95.5285 257.137 97.7417 257.48 98.6735 257.475C102.494 257.448 103.618 253.354 102.945 248.54C102.617 246.187 100.903 244.169 98.2009 244.244C91.038 244.441 91.5239 253.692 94.3885 256.157Z" fill="#E5A485"/>
<path fill-rule="evenodd" clip-rule="evenodd" d="M95.2322 256.878C95.5472 255.563 96.2093 255.052 96.5831 253.83C97.0236 252.393 95.9317 251.557 96.5404 250.061C96.9595 249.033 98.0194 248.926 98.5186 248.602C99.2875 248.104 99.106 247.095 99.9763 246.853C101.132 246.528 101.584 247.015 102.443 246.861C102.574 247.225 102.74 247.593 102.844 247.992C103.578 247.215 104.368 245.138 103.77 244.025C103.151 242.873 101.947 243.102 101.341 242.649C100.489 242.013 100.727 239.947 99.68 239.556C98.6334 239.164 97.336 240.543 96.0705 240.402C95.1414 240.298 93.7745 237.801 91.3851 238.15C87.0628 238.784 86.9133 243.677 84.7108 244.198C83.739 244.419 81.7687 242.798 79.7958 243.959C77.8202 245.12 78.9495 249.688 75.38 251.796C73.8182 252.486 69.8483 251.908 68.4521 254.293C67.7019 255.576 68.8312 257.512 69.7202 259.716C71.904 265.139 68.1878 265.844 68.5749 267.809C69.1569 270.764 74.3362 270.391 75.1157 271.661C75.639 272.516 74.9475 274.821 76.9045 275.827C77.8575 276.317 79.4407 276.498 82.1024 276.048C87.5994 274.201 83.8191 269.614 86.4781 266.672C88.4244 264.519 89.3401 264.897 91.5667 263.723C92.9015 263.02 94.3645 262.285 94.7864 260.781C95.2135 259.253 94.9973 257.858 95.2322 256.878Z" fill="#3C2F75"/>
<path fill-rule="evenodd" clip-rule="evenodd" d="M50.3407 245.183C51.1122 246.682 55.0367 253.122 57.605 257.293C56.0032 257.813 53.5764 258.398 51.494 258.907C49.6946 254.4 47.6255 249.046 46.8914 246.365L50.3967 245.095C50.3807 245.13 50.3593 245.159 50.3407 245.183Z" fill="#E5A485"/>
<path fill-rule="evenodd" clip-rule="evenodd" d="M71.4982 275.833C68.2545 276.085 65.6248 276.112 64.4341 275.763C63.9802 275.601 63.4863 275.258 62.9711 274.802C60.5469 272.649 57.7864 267.995 57.2311 267.532C56.6758 267.069 55.3116 267.143 54.8844 266.819C54.4546 266.494 54.8577 264.439 54.3478 263.821C53.8379 263.203 53.3173 262.974 52.9222 262.389C52.5271 261.8 52.9622 260.624 52.6178 260.15C52.2734 259.676 51.3711 259.12 51.2135 258.827C51.056 258.537 52.9996 258.183 55.2982 257.621C57.3806 257.112 59.8074 256.527 61.4093 256.008C63.5023 259.407 67.1198 268.482 69.7442 268.722C70.8682 269.217 71.912 274.142 71.4982 275.833Z" fill="#BACAFF"/>
<path fill-rule="evenodd" clip-rule="evenodd" d="M49.0271 246.81C45.5004 247.481 45.1613 244.808 42.6571 243.578C41.931 243.267 39.4374 242.934 39.3974 242.087C39.3093 240.243 44.9371 241.182 47.3212 242.348C47.3719 242.269 47.6442 239.55 49.4116 240.032C49.6812 240.107 49.1473 241.193 49.6839 242.537C50.4314 244.412 51.1869 246.4 49.0271 246.81Z" fill="#E5A485"/>
<path fill-rule="evenodd" clip-rule="evenodd" d="M27.9734 367.328C27.9574 367.184 27.2126 365.299 27.7091 364.937C29.0947 364.753 34.4689 363.297 38.0757 362.903C39.7256 362.722 40.3023 363.433 41.4476 363.441C41.4797 364.28 41.0925 366.463 39.0956 368.283C35.948 371.156 30.9128 372.799 31.0944 375.913C31.2546 377.274 32.3385 377.944 32.7309 377.955C32.1115 378.85 32.4773 383.056 31.1905 382.869C30.6699 382.774 27.9014 379.803 28.163 374.438C28.4433 371.704 31.663 371.002 33.2462 367.248L27.9734 367.328Z" fill="#012384"/>
<path fill-rule="evenodd" clip-rule="evenodd" d="M473.557 333.838C473.762 332.795 475.081 332.262 475.516 333.875C475.954 335.486 474.71 336.66 474.883 337.051C475.057 337.443 476.184 338.457 479.366 338.124C480.655 337.988 481.707 337.754 482.511 337.44C483.688 336.977 484.326 336.346 484.382 335.614C484.476 334.384 483.517 334.442 483.405 333.875C483.293 333.308 484.868 331.732 484.585 330.399C484.46 329.802 483.699 329.552 483.44 329.041C483.178 328.53 483.598 326.041 483.226 324.052C482.863 322.103 481.587 321.299 480.605 321.086C478.96 320.73 477.305 322.008 476.01 322.17C474.211 322.394 474.064 320.852 471.984 321.052C469.904 321.252 468.305 323.19 467.758 323.496C467.208 323.802 466.479 323.23 466.143 323.442C465.806 323.655 465.062 326.352 467.737 328C468.06 328.176 468.631 328.2 469.234 328.184C470.225 328.16 471.303 328.027 471.52 328.282C471.867 328.692 473.372 335.715 471.386 337.805C471.026 337.789 469.645 335.188 468.78 335.987C467.838 336.57 470.561 341.715 472.804 340.927C473.327 340.744 473.642 340.331 473.821 339.791C474.408 338.01 473.351 334.882 473.557 333.838Z" fill="#1F1D25"/>
<path fill-rule="evenodd" clip-rule="evenodd" d="M471.389 337.797C473.375 335.709 471.869 328.684 471.522 328.274C471.306 328.019 470.227 328.152 469.237 328.176C468.666 329.632 468.369 331.423 468.425 333.433C468.452 334.357 468.567 335.209 468.78 335.976C469.648 335.18 471.031 337.781 471.389 337.797Z" fill="#E4AB8D"/>
<path fill-rule="evenodd" clip-rule="evenodd" d="M473.557 333.838C473.351 334.882 474.411 338.01 473.824 339.783L474.104 342.455C476.114 341.619 477.914 341.247 479.545 341.09C480.666 340.981 481.777 340.914 482.879 340.903L482.516 337.437C481.713 337.751 480.661 337.988 479.371 338.121C476.189 338.454 475.065 337.44 474.889 337.049C474.713 336.657 475.957 335.486 475.522 333.873C475.081 332.262 473.762 332.792 473.557 333.838Z" fill="#E4AB8D"/>
<path fill-rule="evenodd" clip-rule="evenodd" d="M400.312 411.506C400.2 411.831 399.455 412.962 405.548 414.876C406.493 414.775 407.742 414.788 407.886 414.873C408.031 414.959 407.964 415.653 407.964 415.653C408.679 416.013 410.794 416.923 411.181 416.311C411.998 415.023 412.054 412.805 411.456 411.823L411.258 411.737C411.165 412.004 410.455 412.749 409.715 412.422C408.973 412.094 408.335 411.051 408.263 410.438C407.774 410.433 404.814 412.038 403.094 411.729C401.372 411.421 400.844 410.686 400.312 411.506Z" fill="#1A4F61"/>
<path fill-rule="evenodd" clip-rule="evenodd" d="M408.193 410.529L409.149 405.998L413.413 407.262L411.472 411.841C411.031 412.557 410.524 412.733 409.686 412.472C408.783 412.19 408.295 411.341 408.193 410.529Z" fill="#E5A786"/>
<path fill-rule="evenodd" clip-rule="evenodd" d="M379.99 407.976C379.766 408.237 378.653 409.012 383.594 413.045C384.51 413.3 385.666 413.777 385.768 413.91C385.869 414.043 385.549 414.663 385.549 414.663C386.08 415.262 387.703 416.889 388.29 416.466C389.529 415.571 390.408 413.532 390.215 412.398L390.066 412.246C389.882 412.459 388.945 412.888 388.376 412.31C387.81 411.732 387.604 410.526 387.767 409.93C387.316 409.744 383.968 410.138 382.486 409.214C381.005 408.29 380.789 407.414 379.99 407.976Z" fill="#1A4F61"/>
<path fill-rule="evenodd" clip-rule="evenodd" d="M387.671 409.989L390.248 406.136L393.734 408.889L390.226 412.422C389.551 412.925 389.014 412.898 388.333 412.345C387.602 411.748 387.46 410.779 387.671 409.989Z" fill="#E5A786"/>
<path fill-rule="evenodd" clip-rule="evenodd" d="M439.533 349.236L444.315 359.996L447.396 366.923L448.197 368.725H441.538H436.461H417.919L409.355 349.236H439.533Z" fill="#029DCD"/>
<path fill-rule="evenodd" clip-rule="evenodd" d="M447.504 413.077C446.743 413.835 445.526 416.114 446.823 416.362C448.118 416.612 450.892 415.93 451.642 415.819C452.393 415.704 460.893 417.043 460.848 416.431C460.802 415.819 455.812 412.976 452.518 412.704L447.504 413.077Z" fill="#E5A786"/>
<path fill-rule="evenodd" clip-rule="evenodd" d="M408.792 406.698L415.997 409.078C418.429 402.167 420.928 403.072 421.339 402.279C421.748 401.486 420.781 399.638 421.008 399.026C421.235 398.414 424.054 397.168 424.578 396.148C425.101 395.128 423.737 392.453 424.191 391.684C424.644 390.914 427.466 380.439 430.192 380.258C432.921 380.077 451.43 413.05 471.053 409.587C490.678 406.12 479.508 388.103 479.508 388.103C472.235 380.851 453.691 366.084 432.509 367.093C417.962 368.105 412.689 375.051 408.792 406.698Z" fill="#5B35B2"/>
<path fill-rule="evenodd" clip-rule="evenodd" d="M488.972 351.597C488.972 351.597 490.926 347.069 494.482 350.106C498.038 353.146 514.161 398.115 516.705 412.8L511.568 413.252C509.296 407.042 497.878 386.902 494.88 374.665L488.972 351.597Z" fill="#E2AC49"/>
<path fill-rule="evenodd" clip-rule="evenodd" d="M489.789 404.31L494.106 408.57C491.286 412.874 485.135 418.177 468.607 416.74C451.721 415.273 430.197 385.452 424.743 382.734C422.335 387.243 411.138 395.581 405.994 399.731C404.111 401.251 403.647 401.914 403.668 402.516C403.698 403.381 404.565 404.238 404.05 405.178C403.535 406.118 399.018 405.812 397.13 411.772C396.153 411.205 390.448 406.81 390.13 406.288C392.517 402.255 411.2 367.605 422.562 368.102C433.924 368.6 456.868 384.28 465.505 392.44L489.789 404.31Z" fill="#6843BE"/>
<path fill-rule="evenodd" clip-rule="evenodd" d="M427.477 367.588C424.978 367.293 417.38 367.772 417.137 368.949C417.046 369.652 424.967 369.412 428.422 370.115L427.477 367.588Z" fill="#E5A786"/>
<path fill-rule="evenodd" clip-rule="evenodd" d="M481.702 340.03C483.309 340.006 484.671 340.107 485.573 340.336C488.195 340.999 492.779 347.05 494.485 350.109C494.525 350.181 494.565 350.253 494.6 350.322C495.849 352.643 496.164 370.573 496.778 380.742C497.421 391.391 496.407 401.155 496.866 410.1C490.632 406.655 478.464 399.313 478.349 399.228C476.213 397.641 465.713 394.468 465.168 393.11C466.335 387.919 468.644 363.284 469.023 356.929C463.42 364.298 454.321 373.914 452.623 374.846C450.923 375.777 432.056 371.922 426.054 370.11L426.281 366.936C428.553 366.846 445.714 366.143 449.759 366.596C452.805 362.062 461.578 346.425 466.191 343.501C469.862 341.172 477.337 340.131 481.702 340.03Z" fill="#F5BB52"/>
<path fill-rule="evenodd" clip-rule="evenodd" d="M471.197 396.095C468.222 394.929 465.441 393.789 465.166 393.105C466.332 387.914 468.642 363.279 469.021 356.924L471.023 353.809C470.78 359.613 469.915 384.727 471.197 396.095Z" fill="#D8A446"/>
</svg>
