<svg width="25" height="25" viewBox="0 0 25 25" fill="none" xmlns="http://www.w3.org/2000/svg">
<path d="M20.3073 8.82398C20.3303 8.64998 20.3423 8.47598 20.3423 8.30298C20.3423 5.92398 18.1993 4.01498 15.8213 4.33798C15.1283 3.10498 13.8083 2.30298 12.3423 2.30298C10.8763 2.30298 9.55628 3.10498 8.86329 4.33798C6.48029 4.01498 4.34229 5.92398 4.34229 8.30298C4.34229 8.47598 4.35429 8.64998 4.37729 8.82398C3.14428 9.51798 2.34229 10.838 2.34229 12.303C2.34229 13.768 3.14428 15.088 4.37729 15.782C4.35421 15.9547 4.34252 16.1287 4.34229 16.303C4.34229 18.682 6.48029 20.586 8.86329 20.268C9.55628 21.501 10.8763 22.303 12.3423 22.303C13.8083 22.303 15.1283 21.501 15.8213 20.268C18.1993 20.586 20.3423 18.682 20.3423 16.303C20.3423 16.13 20.3303 15.956 20.3073 15.782C21.5403 15.088 22.3423 13.768 22.3423 12.303C22.3423 10.838 21.5403 9.51798 20.3073 8.82398ZM11.2973 16.719L7.63029 13.005L9.05429 11.601L11.3113 13.887L15.6383 9.59298L17.0463 11.013L11.2973 16.719Z" fill="#FF545F"/>
</svg>
