<svg width="141" height="92" viewBox="0 0 141 92" fill="none" xmlns="http://www.w3.org/2000/svg">
<path opacity="0.5" d="M135.212 90.1153H0.00256348C0.00256348 77.6864 16.9887 74.7613 11.5242 64.8088C5.48933 53.8176 6.62277 39.1955 22.0138 42.4289C23.4704 42.7351 24.6723 42.9309 25.6667 42.9586C38.4365 43.3145 16.5626 20.0474 31.5191 8.95324C47.643 -3.00518 49.0415 2.73663 58.6542 11.2936C68.2669 19.8506 86.7518 8.4491 114.489 13.9194C119.556 14.9191 123.081 16.8194 124.604 19.8506C130.168 30.9218 121.116 50.9805 131.905 61.5263C144.981 74.3068 139.221 87.289 135.212 90.1153Z" fill="url(#paint0_linear)"/>
<path d="M122.077 40.1039C120.756 38.5467 120.533 36.2276 121.409 33.2162C122.606 29.0999 122.459 25.9294 121.663 23.6814C122.693 22.8897 123.805 21.8281 124.963 20.4143C124.848 20.2234 124.729 20.0345 124.603 19.8505C123.48 21.245 122.409 22.2916 121.421 23.0721C120.815 21.6888 119.952 20.719 119.038 20.1508C117.203 19.0118 115.012 19.2887 113.322 20.8715C112.381 21.7534 112.051 22.8491 112.413 23.8809C112.829 25.0604 114.067 25.8606 115.642 25.97C116.508 26.0302 118.524 25.9075 121.13 24.0761C121.825 26.1871 121.921 29.1639 120.795 33.0359C119.852 36.2682 120.12 38.7867 121.589 40.52C122.677 41.8025 124.253 42.4656 125.779 42.7958C125.809 42.5813 125.843 42.3648 125.875 42.1482C124.474 41.8414 123.042 41.2407 122.077 40.1039ZM115.687 25.3266C114.369 25.2364 113.347 24.5995 113.018 23.6643C112.743 22.8875 113.014 22.0404 113.758 21.3431C114.634 20.5237 115.658 20.1055 116.675 20.1055C117.371 20.1055 118.062 20.3007 118.705 20.6998C119.554 21.2252 120.352 22.1455 120.905 23.4648C118.412 25.2599 116.502 25.3847 115.687 25.3266Z" fill="white"/>
<g opacity="0.5">
<path d="M19.5154 28.6208C19.5841 28.1953 19.2967 27.7944 18.8734 27.7253C18.4502 27.6563 18.0514 27.9452 17.9828 28.3707C17.9141 28.7962 18.2015 29.1971 18.6247 29.2661C19.0479 29.3352 19.4467 29.0463 19.5154 28.6208Z" fill="#FFBED1"/>
<path d="M24.994 28.6208C25.0627 28.1953 24.7753 27.7944 24.3521 27.7253C23.9289 27.6563 23.5301 27.9452 23.4614 28.3707C23.3927 28.7962 23.6801 29.1971 24.1033 29.2661C24.5266 29.3352 24.9253 29.0463 24.994 28.6208Z" fill="#FFBED1"/>
<path d="M30.4755 28.5722C30.5177 28.1432 30.2061 27.7611 29.7795 27.7186C29.3528 27.6762 28.9727 27.9895 28.9305 28.4184C28.8882 28.8473 29.1999 29.2295 29.6265 29.2719C30.0532 29.3144 30.4333 29.0011 30.4755 28.5722Z" fill="#FFBED1"/>
<path d="M35.954 28.5724C35.9962 28.1435 35.6846 27.7613 35.2579 27.7189C34.8313 27.6764 34.4512 27.9897 34.4089 28.4187C34.3667 28.8476 34.6783 29.2297 35.105 29.2722C35.5316 29.3146 35.9117 29.0013 35.954 28.5724Z" fill="#FFBED1"/>
<path d="M41.4385 28.537C41.4622 28.1066 41.1344 27.7384 40.7063 27.7145C40.2782 27.6907 39.9119 28.0203 39.8882 28.4507C39.8645 28.8811 40.1923 29.2493 40.6204 29.2731C41.0485 29.297 41.4148 28.9674 41.4385 28.537Z" fill="#FFBED1"/>
<path d="M46.9084 28.6208C46.9771 28.1953 46.6897 27.7944 46.2665 27.7253C45.8433 27.6563 45.4445 27.9452 45.3758 28.3707C45.3071 28.7962 45.5946 29.1971 46.0178 29.2661C46.441 29.3352 46.8398 29.0463 46.9084 28.6208Z" fill="#FFBED1"/>
<path d="M19.0436 23.7101C19.4404 23.5466 19.6301 23.0907 19.4675 22.6919C19.3049 22.293 18.8514 22.1022 18.4547 22.2657C18.058 22.4292 17.8682 22.8851 18.0308 23.2839C18.1935 23.6828 18.6469 23.8736 19.0436 23.7101Z" fill="#FFBED1"/>
<path d="M24.5221 23.7108C24.9188 23.5473 25.1086 23.0915 24.9459 22.6926C24.7833 22.2938 24.3299 22.103 23.9332 22.2665C23.5364 22.43 23.3467 22.8858 23.5093 23.2847C23.6719 23.6835 24.1254 23.8743 24.5221 23.7108Z" fill="#FFBED1"/>
<path d="M29.8826 23.7488C30.3 23.6504 30.559 23.2304 30.4612 22.8107C30.3633 22.3911 29.9455 22.1306 29.5281 22.229C29.1107 22.3275 28.8516 22.7474 28.9495 23.1671C29.0474 23.5868 29.4651 23.8472 29.8826 23.7488Z" fill="#FFBED1"/>
<path d="M35.361 23.7488C35.7785 23.6504 36.0375 23.2304 35.9396 22.8107C35.8417 22.3911 35.424 22.1306 35.0066 22.229C34.5891 22.3275 34.3301 22.7474 34.428 23.1671C34.5259 23.5868 34.9436 23.8472 35.361 23.7488Z" fill="#FFBED1"/>
<path d="M40.7601 23.7615C41.1857 23.709 41.4883 23.3196 41.4361 22.8917C41.3839 22.4639 40.9966 22.1596 40.571 22.2121C40.1454 22.2646 39.8427 22.654 39.895 23.0818C39.9472 23.5097 40.3345 23.814 40.7601 23.7615Z" fill="#FFBED1"/>
<path d="M46.4367 23.7101C46.8334 23.5466 47.0232 23.0907 46.8606 22.6919C46.698 22.293 46.2445 22.1022 45.8478 22.2657C45.4511 22.4292 45.2613 22.8851 45.4239 23.2839C45.5865 23.6828 46.04 23.8736 46.4367 23.7101Z" fill="#FFBED1"/>
<path d="M18.7484 18.2599C19.1772 18.2599 19.5247 17.9105 19.5247 17.4795C19.5247 17.0484 19.1772 16.699 18.7484 16.699C18.3197 16.699 17.9721 17.0484 17.9721 17.4795C17.9721 17.9105 18.3197 18.2599 18.7484 18.2599Z" fill="#FFBED1"/>
<path d="M24.2266 18.2599C24.6554 18.2599 25.003 17.9105 25.003 17.4795C25.003 17.0484 24.6554 16.699 24.2266 16.699C23.7979 16.699 23.4503 17.0484 23.4503 17.4795C23.4503 17.9105 23.7979 18.2599 24.2266 18.2599Z" fill="#FFBED1"/>
<path d="M29.7055 18.2599C30.1343 18.2599 30.4818 17.9105 30.4818 17.4795C30.4818 17.0484 30.1343 16.699 29.7055 16.699C29.2768 16.699 28.9292 17.0484 28.9292 17.4795C28.9292 17.9105 29.2768 18.2599 29.7055 18.2599Z" fill="#FFBED1"/>
<path d="M35.1838 18.2599C35.6125 18.2599 35.9601 17.9105 35.9601 17.4795C35.9601 17.0484 35.6125 16.699 35.1838 16.699C34.755 16.699 34.4075 17.0484 34.4075 17.4795C34.4075 17.9105 34.755 18.2599 35.1838 18.2599Z" fill="#FFBED1"/>
<path d="M40.6626 18.2599C41.0914 18.2599 41.4389 17.9105 41.4389 17.4795C41.4389 17.0484 41.0914 16.699 40.6626 16.699C40.2339 16.699 39.8863 17.0484 39.8863 17.4795C39.8863 17.9105 40.2339 18.2599 40.6626 18.2599Z" fill="#FFBED1"/>
<path d="M46.1409 18.2599C46.5696 18.2599 46.9172 17.9105 46.9172 17.4795C46.9172 17.0484 46.5696 16.699 46.1409 16.699C45.7121 16.699 45.3646 17.0484 45.3646 17.4795C45.3646 17.9105 45.7121 18.2599 46.1409 18.2599Z" fill="#FFBED1"/>
<path d="M18.7484 12.7526C19.1772 12.7526 19.5247 12.4032 19.5247 11.9721C19.5247 11.5411 19.1772 11.1917 18.7484 11.1917C18.3197 11.1917 17.9721 11.5411 17.9721 11.9721C17.9721 12.4032 18.3197 12.7526 18.7484 12.7526Z" fill="#FFBED1"/>
<path d="M24.2266 12.7526C24.6554 12.7526 25.003 12.4032 25.003 11.9721C25.003 11.5411 24.6554 11.1917 24.2266 11.1917C23.7979 11.1917 23.4503 11.5411 23.4503 11.9721C23.4503 12.4032 23.7979 12.7526 24.2266 12.7526Z" fill="#FFBED1"/>
<path d="M29.7055 12.7526C30.1343 12.7526 30.4818 12.4032 30.4818 11.9721C30.4818 11.5411 30.1343 11.1917 29.7055 11.1917C29.2768 11.1917 28.9292 11.5411 28.9292 11.9721C28.9292 12.4032 29.2768 12.7526 29.7055 12.7526Z" fill="#FFBED1"/>
<path d="M35.1838 12.7526C35.6125 12.7526 35.9601 12.4032 35.9601 11.9721C35.9601 11.5411 35.6125 11.1917 35.1838 11.1917C34.755 11.1917 34.4075 11.5411 34.4075 11.9721C34.4075 12.4032 34.755 12.7526 35.1838 12.7526Z" fill="#FFBED1"/>
<path d="M40.6626 12.7526C41.0914 12.7526 41.4389 12.4032 41.4389 11.9721C41.4389 11.5411 41.0914 11.1917 40.6626 11.1917C40.2339 11.1917 39.8863 11.5411 39.8863 11.9721C39.8863 12.4032 40.2339 12.7526 40.6626 12.7526Z" fill="#FFBED1"/>
<path d="M46.1409 12.7526C46.5696 12.7526 46.9172 12.4032 46.9172 11.9721C46.9172 11.5411 46.5696 11.1917 46.1409 11.1917C45.7121 11.1917 45.3646 11.5411 45.3646 11.9721C45.3646 12.4032 45.7121 12.7526 46.1409 12.7526Z" fill="#FFBED1"/>
<path d="M19.5151 6.58454C19.5809 6.15863 19.2909 5.75968 18.8673 5.69347C18.4436 5.62727 18.0468 5.91887 17.9809 6.34478C17.9151 6.7707 18.2051 7.16964 18.6288 7.23585C19.0524 7.30206 19.4492 7.01046 19.5151 6.58454Z" fill="#FFBED1"/>
<path d="M24.9938 6.58527C25.0596 6.15935 24.7696 5.76041 24.346 5.6942C23.9223 5.62799 23.5255 5.91959 23.4596 6.34551C23.3938 6.77142 23.6838 7.17037 24.1075 7.23658C24.5311 7.30279 24.9279 7.01119 24.9938 6.58527Z" fill="#FFBED1"/>
<path d="M30.4802 6.49501C30.4972 6.06431 30.1637 5.70129 29.7353 5.68417C29.3069 5.66706 28.9458 6.00234 28.9288 6.43304C28.9117 6.86374 29.2452 7.22676 29.6736 7.24388C30.1021 7.26099 30.4631 6.92571 30.4802 6.49501Z" fill="#FFBED1"/>
<path d="M35.9585 6.49525C35.9755 6.06455 35.642 5.70153 35.2136 5.68441C34.7852 5.6673 34.4241 6.00258 34.4071 6.43328C34.3901 6.86398 34.7236 7.22701 35.152 7.24412C35.5804 7.26123 35.9415 6.92595 35.9585 6.49525Z" fill="#FFBED1"/>
<path d="M41.4381 6.47513C41.4449 6.04413 41.1029 5.68917 40.6742 5.68232C40.2455 5.67546 39.8924 6.01931 39.8856 6.45031C39.8788 6.88131 40.2208 7.23627 40.6495 7.24312C41.0782 7.24998 41.4312 6.90613 41.4381 6.47513Z" fill="#FFBED1"/>
<path d="M46.9081 6.58576C46.974 6.15985 46.684 5.76091 46.2603 5.6947C45.8367 5.62849 45.4399 5.92009 45.374 6.346C45.3081 6.77192 45.5982 7.17086 46.0218 7.23707C46.4455 7.30328 46.8423 7.01168 46.9081 6.58576Z" fill="#FFBED1"/>
<path d="M18.7484 1.73698C19.1772 1.73698 19.5247 1.38755 19.5247 0.956503C19.5247 0.525457 19.1772 0.176025 18.7484 0.176025C18.3197 0.176025 17.9721 0.525457 17.9721 0.956503C17.9721 1.38755 18.3197 1.73698 18.7484 1.73698Z" fill="#FFBED1"/>
<path d="M24.2266 1.73698C24.6554 1.73698 25.003 1.38755 25.003 0.956503C25.003 0.525457 24.6554 0.176025 24.2266 0.176025C23.7979 0.176025 23.4503 0.525457 23.4503 0.956503C23.4503 1.38755 23.7979 1.73698 24.2266 1.73698Z" fill="#FFBED1"/>
<path d="M30.4784 1.01665C30.5122 0.586937 30.1932 0.210984 29.7658 0.176932C29.3384 0.142879 28.9644 0.463622 28.9305 0.893331C28.8967 1.32304 29.2157 1.69899 29.6431 1.73304C30.0705 1.7671 30.4445 1.44635 30.4784 1.01665Z" fill="#FFBED1"/>
<path d="M35.9566 1.01665C35.9904 0.586937 35.6714 0.210984 35.244 0.176931C34.8166 0.142879 34.4426 0.463621 34.4087 0.89333C34.3749 1.32304 34.6939 1.69899 35.1213 1.73304C35.5487 1.7671 35.9227 1.44635 35.9566 1.01665Z" fill="#FFBED1"/>
<path d="M41.44 0.975706C41.4504 0.54479 41.1114 0.186972 40.6828 0.176497C40.2542 0.166023 39.8982 0.506859 39.8878 0.937775C39.8774 1.36869 40.2164 1.72651 40.645 1.73698C41.0737 1.74746 41.4296 1.40662 41.44 0.975706Z" fill="#FFBED1"/>
<path d="M46.1409 1.73698C46.5696 1.73698 46.9172 1.38755 46.9172 0.956503C46.9172 0.525457 46.5696 0.176025 46.1409 0.176025C45.7121 0.176025 45.3646 0.525457 45.3646 0.956503C45.3646 1.38755 45.7121 1.73698 46.1409 1.73698Z" fill="#FFBED1"/>
</g>
<g opacity="0.5">
<path d="M109.234 71.2802C109.319 70.9164 109.095 70.5517 108.733 70.4658C108.371 70.3799 108.009 70.6052 107.923 70.9691C107.838 71.333 108.062 71.6976 108.424 71.7835C108.786 71.8694 109.149 71.6441 109.234 71.2802Z" fill="#FFBED1"/>
<path d="M113.998 71.2242C114.057 70.8551 113.808 70.5074 113.441 70.4475C113.074 70.3876 112.728 70.6382 112.668 71.0073C112.609 71.3764 112.858 71.7241 113.225 71.784C113.592 71.8439 113.938 71.5933 113.998 71.2242Z" fill="#FFBED1"/>
<path d="M118.557 71.5949C118.82 71.3305 118.82 70.9019 118.557 70.6375C118.294 70.3731 117.868 70.3731 117.605 70.6375C117.342 70.9019 117.342 71.3305 117.605 71.5949C117.868 71.8593 118.294 71.8593 118.557 71.5949Z" fill="#FFBED1"/>
<path d="M123.492 71.281C123.577 70.9171 123.353 70.5525 122.991 70.4665C122.629 70.3806 122.267 70.6059 122.181 70.9698C122.096 71.3337 122.32 71.6983 122.682 71.7842C123.044 71.8702 123.406 71.6448 123.492 71.281Z" fill="#FFBED1"/>
<path d="M128.255 71.2239C128.314 70.8549 128.065 70.5071 127.698 70.4472C127.331 70.3873 126.985 70.638 126.925 71.007C126.866 71.3761 127.115 71.7238 127.482 71.7837C127.849 71.8436 128.195 71.593 128.255 71.2239Z" fill="#FFBED1"/>
<path d="M132.814 71.5949C133.077 71.3305 133.077 70.9019 132.814 70.6375C132.551 70.3731 132.125 70.3732 131.862 70.6375C131.599 70.9019 131.599 71.3305 131.862 71.5949C132.125 71.8593 132.551 71.8593 132.814 71.5949Z" fill="#FFBED1"/>
<path d="M109.052 66.8166C109.315 66.5522 109.315 66.1236 109.052 65.8592C108.789 65.5948 108.363 65.5948 108.1 65.8592C107.837 66.1236 107.837 66.5522 108.1 66.8166C108.363 67.081 108.789 67.081 109.052 66.8166Z" fill="#FFBED1"/>
<path d="M113.591 66.963C113.934 66.8199 114.097 66.4239 113.955 66.0785C113.813 65.7331 113.419 65.569 113.075 65.7121C112.732 65.8552 112.569 66.2512 112.711 66.5967C112.853 66.9421 113.247 67.1061 113.591 66.963Z" fill="#FFBED1"/>
<path d="M118.739 66.5026C118.825 66.1388 118.6 65.7742 118.238 65.6882C117.877 65.6023 117.514 65.8276 117.428 66.1915C117.343 66.5554 117.567 66.92 117.929 67.0059C118.291 67.0918 118.654 66.8665 118.739 66.5026Z" fill="#FFBED1"/>
<path d="M123.309 66.8166C123.572 66.5522 123.572 66.1236 123.309 65.8592C123.046 65.5948 122.62 65.5948 122.357 65.8592C122.094 66.1236 122.094 66.5522 122.357 66.8166C122.62 67.081 123.046 67.081 123.309 66.8166Z" fill="#FFBED1"/>
<path d="M127.848 66.9625C128.192 66.8194 128.355 66.4234 128.213 66.078C128.07 65.7326 127.676 65.5685 127.333 65.7116C126.989 65.8547 126.826 66.2507 126.968 66.5962C127.111 66.9416 127.505 67.1056 127.848 66.9625Z" fill="#FFBED1"/>
<path d="M132.997 66.5036C133.082 66.1398 132.858 65.7751 132.496 65.6892C132.134 65.6033 131.772 65.8286 131.686 66.1925C131.601 66.5564 131.825 66.921 132.187 67.0069C132.549 67.0928 132.911 66.8675 132.997 66.5036Z" fill="#FFBED1"/>
<path d="M109.052 62.0387C109.315 61.7744 109.315 61.3457 109.052 61.0814C108.789 60.817 108.363 60.817 108.1 61.0814C107.837 61.3457 107.837 61.7744 108.1 62.0387C108.363 62.3031 108.789 62.3031 109.052 62.0387Z" fill="#FFBED1"/>
<path d="M113.591 62.1847C113.934 62.0416 114.097 61.6456 113.955 61.3002C113.813 60.9547 113.419 60.7907 113.075 60.9338C112.732 61.0769 112.569 61.4729 112.711 61.8183C112.853 62.1638 113.247 62.3278 113.591 62.1847Z" fill="#FFBED1"/>
<path d="M118.739 61.7248C118.825 61.361 118.601 60.9963 118.239 60.9104C117.877 60.8245 117.514 61.0498 117.429 61.4137C117.343 61.7775 117.567 62.1422 117.929 62.2281C118.291 62.314 118.654 62.0887 118.739 61.7248Z" fill="#FFBED1"/>
<path d="M123.309 62.0392C123.572 61.7749 123.572 61.3462 123.309 61.0819C123.046 60.8175 122.62 60.8175 122.357 61.0819C122.094 61.3462 122.094 61.7749 122.357 62.0392C122.62 62.3036 123.046 62.3036 123.309 62.0392Z" fill="#FFBED1"/>
<path d="M127.848 62.1847C128.192 62.0416 128.355 61.6456 128.213 61.3002C128.07 60.9547 127.676 60.7907 127.333 60.9338C126.989 61.0769 126.826 61.4729 126.968 61.8183C127.111 62.1638 127.505 62.3278 127.848 62.1847Z" fill="#FFBED1"/>
<path d="M132.997 61.7258C133.083 61.3619 132.858 60.9973 132.497 60.9114C132.135 60.8254 131.772 61.0508 131.686 61.4146C131.601 61.7785 131.825 62.1431 132.187 62.2291C132.549 62.315 132.912 62.0897 132.997 61.7258Z" fill="#FFBED1"/>
<path d="M109.234 56.946C109.32 56.5821 109.096 56.2175 108.734 56.1316C108.372 56.0457 108.009 56.271 107.924 56.6349C107.838 56.9987 108.062 57.3634 108.424 57.4493C108.786 57.5352 109.149 57.3099 109.234 56.946Z" fill="#FFBED1"/>
<path d="M113.997 56.8905C114.056 56.5214 113.807 56.1737 113.44 56.1138C113.073 56.0539 112.727 56.3045 112.667 56.6735C112.608 57.0426 112.857 57.3904 113.224 57.4503C113.591 57.5101 113.937 57.2595 113.997 56.8905Z" fill="#FFBED1"/>
<path d="M118.557 57.2614C118.82 56.997 118.82 56.5684 118.557 56.304C118.294 56.0397 117.867 56.0397 117.605 56.304C117.342 56.5684 117.342 56.997 117.605 57.2614C117.867 57.5258 118.294 57.5258 118.557 57.2614Z" fill="#FFBED1"/>
<path d="M123.492 56.947C123.578 56.5831 123.353 56.2185 122.991 56.1326C122.63 56.0466 122.267 56.272 122.181 56.6358C122.096 56.9997 122.32 57.3643 122.682 57.4503C123.044 57.5362 123.407 57.3108 123.492 56.947Z" fill="#FFBED1"/>
<path d="M128.254 56.8904C128.314 56.5214 128.065 56.1737 127.697 56.1138C127.33 56.0539 126.984 56.3045 126.925 56.6735C126.865 57.0426 127.115 57.3904 127.482 57.4502C127.849 57.5101 128.195 57.2595 128.254 56.8904Z" fill="#FFBED1"/>
<path d="M132.814 57.2614C133.077 56.997 133.077 56.5684 132.814 56.304C132.551 56.0397 132.125 56.0397 131.862 56.304C131.599 56.5684 131.599 56.997 131.862 57.2614C132.125 57.5258 132.551 57.5258 132.814 57.2614Z" fill="#FFBED1"/>
<path d="M109.052 52.4836C109.315 52.2192 109.315 51.7906 109.052 51.5262C108.789 51.2618 108.363 51.2618 108.1 51.5262C107.837 51.7906 107.837 52.2192 108.1 52.4836C108.363 52.7479 108.789 52.7479 109.052 52.4836Z" fill="#FFBED1"/>
<path d="M113.591 52.6288C113.934 52.4857 114.097 52.0897 113.955 51.7443C113.813 51.3988 113.419 51.2348 113.075 51.3779C112.732 51.521 112.569 51.917 112.711 52.2624C112.853 52.6079 113.247 52.7719 113.591 52.6288Z" fill="#FFBED1"/>
<path d="M118.74 52.1687C118.825 51.8048 118.601 51.4402 118.239 51.3542C117.877 51.2683 117.515 51.4936 117.429 51.8575C117.344 52.2214 117.568 52.586 117.93 52.6719C118.292 52.7578 118.654 52.5325 118.74 52.1687Z" fill="#FFBED1"/>
<path d="M123.309 52.4836C123.572 52.2192 123.572 51.7906 123.309 51.5262C123.046 51.2618 122.62 51.2618 122.357 51.5262C122.094 51.7906 122.094 52.2192 122.357 52.4836C122.62 52.7479 123.046 52.748 123.309 52.4836Z" fill="#FFBED1"/>
<path d="M127.848 52.6288C128.192 52.4857 128.355 52.0897 128.212 51.7443C128.07 51.3988 127.676 51.2348 127.333 51.3779C126.989 51.521 126.826 51.917 126.968 52.2624C127.11 52.6079 127.504 52.7719 127.848 52.6288Z" fill="#FFBED1"/>
<path d="M132.998 52.1694C133.083 51.8055 132.859 51.4409 132.497 51.355C132.135 51.2691 131.773 51.4944 131.687 51.8583C131.602 52.2221 131.826 52.5867 132.188 52.6727C132.55 52.7586 132.912 52.5333 132.998 52.1694Z" fill="#FFBED1"/>
<path d="M109.052 47.7057C109.315 47.4414 109.315 47.0127 109.052 46.7483C108.789 46.484 108.363 46.484 108.1 46.7484C107.837 47.0127 107.837 47.4414 108.1 47.7057C108.363 47.9701 108.789 47.9701 109.052 47.7057Z" fill="#FFBED1"/>
<path d="M113.59 47.851C113.934 47.7079 114.097 47.3119 113.955 46.9664C113.813 46.621 113.419 46.457 113.075 46.6001C112.731 46.7431 112.568 47.1392 112.711 47.4846C112.853 47.83 113.247 47.9941 113.59 47.851Z" fill="#FFBED1"/>
<path d="M118.74 47.3903C118.825 47.0265 118.601 46.6619 118.239 46.5759C117.878 46.49 117.515 46.7153 117.429 47.0792C117.344 47.4431 117.568 47.8077 117.93 47.8936C118.292 47.9795 118.655 47.7542 118.74 47.3903Z" fill="#FFBED1"/>
<path d="M123.309 47.706C123.572 47.4416 123.572 47.013 123.309 46.7486C123.046 46.4842 122.62 46.4842 122.357 46.7486C122.094 47.013 122.094 47.4416 122.357 47.706C122.62 47.9704 123.046 47.9704 123.309 47.706Z" fill="#FFBED1"/>
<path d="M127.848 47.8507C128.192 47.7076 128.355 47.3116 128.212 46.9662C128.07 46.6208 127.676 46.4567 127.333 46.5998C126.989 46.7429 126.826 47.1389 126.968 47.4843C127.11 47.8298 127.504 47.9938 127.848 47.8507Z" fill="#FFBED1"/>
<path d="M132.998 47.3916C133.083 47.0277 132.859 46.6631 132.497 46.5771C132.135 46.4912 131.773 46.7166 131.687 47.0804C131.602 47.4443 131.826 47.8089 132.188 47.8948C132.55 47.9807 132.912 47.7554 132.998 47.3916Z" fill="#FFBED1"/>
</g>
<path d="M42.2566 86.8601C42.2465 86.962 42.2375 87.0666 42.2269 87.1685C42.1208 88.2877 41.9844 89.3653 41.883 90.1154H34.018C33.699 89.7094 33.3578 89.2666 33.0082 88.8009L33.0076 88.7982C32.9455 88.7182 32.8866 88.6371 32.824 88.5544C32.4913 88.1069 32.1549 87.6411 31.8264 87.1711C31.542 86.7652 31.2629 86.3554 30.9976 85.9479C30.9424 85.8636 30.8877 85.7793 30.8331 85.695C30.5152 85.1999 30.2197 84.7081 29.9597 84.2359C29.8997 84.1298 29.8429 84.0241 29.7856 83.918C29.766 83.8785 29.7426 83.8364 29.7251 83.7964C29.7251 83.7964 29.7251 83.7964 29.7251 83.7937C28.4543 81.3066 28.8087 79.1279 30.1406 78.4536C30.2197 78.4141 30.3025 78.3783 30.3895 78.3501C30.9318 78.1655 31.6068 78.205 32.3799 78.5299C32.668 78.6499 32.9508 78.8403 33.2231 79.0852C33.378 79.2218 33.5298 79.3722 33.6778 79.5408C33.7452 79.6171 33.8126 79.6982 33.8805 79.7798C34.4674 80.5021 35.0076 81.4357 35.4889 82.4221H35.4915C35.5303 82.5069 35.5706 82.5896 35.612 82.6745C36.063 83.6262 36.4562 84.6131 36.7789 85.4949C36.8117 85.5808 36.8425 85.6683 36.8728 85.7531C37.4172 87.2789 37.7319 88.4307 37.7319 88.4307C37.7319 88.4307 37.6443 87.6891 37.5976 86.6622C37.5939 86.5715 37.5891 86.4781 37.5844 86.3827C37.5493 85.4469 37.5525 84.3245 37.6735 83.3093V83.3066C37.6841 83.1962 37.7011 83.0895 37.7181 82.9801C37.812 82.3362 37.9643 81.7537 38.193 81.3114C38.5894 80.5427 39.2585 80.3101 39.9441 80.4445C40.0354 80.4626 40.1298 80.4883 40.2227 80.5197C41.259 80.867 42.2619 82.0065 42.3755 83.3674C42.3776 83.3781 42.3808 83.3914 42.3808 83.4026C42.3866 83.4923 42.3914 83.5851 42.3946 83.6838L42.3951 83.6865C42.4291 84.5571 42.3617 85.7147 42.2566 86.8601Z" fill="url(#paint1_linear)"/>
<path d="M23.6419 87.9451C23.6419 87.9461 23.6419 87.9461 23.6419 87.9461C23.6339 87.9616 23.6233 87.9782 23.6138 87.9936C23.5888 88.0342 23.5634 88.0752 23.5363 88.1158C23.4196 88.2977 23.289 88.4871 23.1484 88.6765C23.1245 88.709 23.1001 88.741 23.0762 88.7736C22.9595 88.9299 22.8369 89.0857 22.7128 89.2409C22.569 89.4207 22.422 89.5983 22.2776 89.7685C22.2506 89.8 22.224 89.8309 22.1975 89.8613L22.197 89.8624C22.1227 89.9494 22.0489 90.0336 21.9773 90.1153H18.6078C18.5876 89.8149 18.5627 89.3977 18.5505 88.9662C18.5489 88.9251 18.5478 88.8824 18.5462 88.8419C18.5335 88.3809 18.5377 87.9152 18.5733 87.5679L18.5738 87.5668C18.577 87.5274 18.5818 87.49 18.5865 87.4548C18.5871 87.45 18.5881 87.4452 18.5897 87.4409C18.6704 86.8995 19.1018 86.4695 19.5258 86.3575C19.5634 86.3479 19.6017 86.3398 19.6388 86.335C19.9163 86.2988 20.1779 86.4097 20.3169 86.7282C20.3965 86.9112 20.4427 87.1486 20.4634 87.4089C20.4676 87.4532 20.4719 87.4959 20.473 87.5407V87.5412C20.4947 87.9515 20.4666 88.4001 20.4279 88.7741C20.4236 88.8125 20.4194 88.8499 20.4151 88.8856C20.3695 89.2953 20.3154 89.5898 20.3154 89.5898C20.3154 89.5898 20.4714 89.1374 20.7293 88.541C20.7436 88.5084 20.7584 88.4743 20.7738 88.4401C20.9256 88.0961 21.1092 87.7114 21.3145 87.3417C21.3331 87.3092 21.3517 87.2772 21.3692 87.2446H21.3703C21.5889 86.8627 21.8293 86.5026 22.0834 86.2294C22.1126 86.199 22.1418 86.1681 22.1705 86.1398C22.2341 86.0763 22.2989 86.0198 22.3647 85.9691C22.4803 85.8784 22.5987 85.8096 22.717 85.769C23.0349 85.6597 23.306 85.6613 23.5183 85.7498C23.5522 85.7632 23.5846 85.7797 23.6154 85.7978C24.1306 86.1019 24.2155 86.9832 23.6419 87.9451Z" fill="url(#paint2_linear)"/>
<path d="M123.678 79.7932C123.454 80.0098 123.087 79.806 123.155 79.4992C123.597 77.5174 124.361 73.6838 124.043 72.0172C123.782 70.6553 122.993 71.0756 122.392 71.6417C122.172 71.8497 121.815 71.663 121.867 71.3648C122.148 69.6726 122.522 66.5944 121.656 65.8694C120.934 65.2645 120.215 66.6286 119.75 67.8321C119.628 68.1431 119.172 68.0764 119.146 67.7419C118.933 65.0153 118.235 59.8545 116.01 59.8545C113.784 59.8545 113.088 65.0153 112.875 67.7419C112.85 68.0764 112.391 68.1431 112.271 67.8321C111.806 66.6286 111.085 65.2645 110.364 65.8694C109.5 66.5944 109.871 69.6726 110.155 71.3648C110.203 71.663 109.847 71.8497 109.628 71.6417C109.028 71.0751 108.236 70.6547 107.978 72.0172C107.661 73.6838 108.422 77.5168 108.866 79.4992C108.935 79.806 108.567 80.0098 108.341 79.7932C107.678 79.1541 106.843 78.6969 106.803 80.396C106.735 83.2341 113.225 90.1149 113.225 90.1149H118.796C118.796 90.1149 125.284 83.2336 125.218 80.396C125.177 78.6974 124.341 79.1541 123.678 79.7932ZM109.997 75.8188C109.997 75.8188 108.452 74.317 109.017 73.3285C109.583 72.3394 110.549 74.3517 109.997 75.8188ZM111.679 69.7932C111.679 69.7932 110.599 68.7422 110.993 68.0514C111.388 67.361 112.064 68.7678 111.679 69.7932ZM120.33 69.7932C119.946 68.7678 120.62 67.3605 121.015 68.0514C121.41 68.7422 120.33 69.7932 120.33 69.7932ZM122.052 75.8188C121.5 74.3517 122.466 72.3394 123.031 73.3285C123.597 74.317 122.052 75.8188 122.052 75.8188Z" fill="url(#paint3_linear)"/>
<path d="M116.376 71.4364V90.1155H115.642V71.4364C115.642 71.2326 115.807 71.0693 116.009 71.0693C116.212 71.0693 116.376 71.2326 116.376 71.4364Z" fill="white"/>
<path d="M134.557 53.112V47.8341H132.55C132.31 46.9112 131.943 46.0416 131.471 45.2399L132.89 43.8229L129.146 40.0903L127.724 41.5049C126.92 41.035 126.048 40.6692 125.122 40.4294V38.4287H119.827V40.4294C118.901 40.6692 118.029 41.035 117.224 41.5049L115.803 40.0903L112.058 43.8229L113.477 45.2399C113.006 46.0416 112.641 46.9112 112.398 47.8341H110.391V53.112H112.398C112.641 54.0349 113.008 54.9044 113.477 55.7062L112.058 57.1232L115.803 60.8557L117.224 59.4412C118.029 59.9111 118.901 60.2744 119.827 60.5166V62.5174H125.122V60.5166C126.048 60.2744 126.92 59.9111 127.724 59.4412L129.146 60.8557L132.89 57.1232L131.471 55.7062C131.943 54.9044 132.31 54.0349 132.55 53.112H134.557ZM122.478 55.0449C119.943 55.0449 117.89 52.9982 117.89 50.4718C117.89 47.9479 119.943 45.9012 122.478 45.9012C125.01 45.9012 127.063 47.9479 127.063 50.4718C127.063 52.9982 125.008 55.0449 122.478 55.0449Z" fill="#EFD0D9"/>
<path d="M118.561 66.3348L117.552 63.7164L116.556 64.0967C116.26 63.6849 115.912 63.324 115.526 63.014L115.958 62.0427L113.39 60.9018L112.955 61.8731C112.466 61.7932 111.963 61.7763 111.458 61.832L111.077 60.8389L108.452 61.8465L108.834 62.8396C108.421 63.1351 108.059 63.4815 107.747 63.8666L106.773 63.4355L105.629 65.9957L106.603 66.4293C106.523 66.9161 106.508 67.4175 106.562 67.9213L105.565 68.3016L106.574 70.92L107.57 70.5397C107.867 70.9515 108.214 71.3124 108.6 71.6224L108.168 72.5937L110.736 73.7346L111.171 72.7633C111.66 72.8432 112.163 72.8578 112.668 72.8045L113.05 73.7976L115.676 72.7924L115.295 71.7993C115.708 71.5038 116.07 71.1574 116.381 70.7723L117.356 71.2034L118.5 68.6432L117.526 68.2096C117.606 67.7227 117.623 67.2213 117.567 66.7175L118.561 66.3348ZM112.938 69.5854C111.682 70.065 110.272 69.4401 109.789 68.1878C109.308 66.9355 109.934 65.5306 111.191 65.0511C112.447 64.5715 113.856 65.1964 114.338 66.4487C114.821 67.6985 114.192 69.1058 112.938 69.5854Z" stroke="#EFD0D9" stroke-miterlimit="10"/>
<path d="M109.956 57.1546L109.276 55.3864L108.603 55.6432C108.404 55.3646 108.168 55.12 107.905 54.9117L108.199 54.2553L106.464 53.485L106.17 54.1414C105.84 54.0881 105.5 54.076 105.16 54.1148L104.902 53.4438L103.128 54.1221L103.386 54.793C103.106 54.9916 102.861 55.2266 102.652 55.4882L101.993 55.1951L101.221 56.9245L101.879 57.2176C101.826 57.547 101.814 57.8837 101.852 58.2252L101.179 58.482L101.86 60.2502L102.533 59.9934C102.734 60.272 102.968 60.5166 103.23 60.7249L102.936 61.3814L104.671 62.1516L104.965 61.4952C105.296 61.5485 105.633 61.5606 105.976 61.5218L106.234 62.1928L108.008 61.5146L107.75 60.8436C108.029 60.6426 108.275 60.4101 108.484 60.1485L109.142 60.4415L109.915 58.7121L109.257 58.419C109.31 58.0896 109.322 57.7505 109.283 57.4114L109.956 57.1546ZM106.158 59.3516C105.31 59.6761 104.358 59.2523 104.032 58.4069C103.706 57.5616 104.132 56.6121 104.98 56.2875C105.828 55.9629 106.78 56.3868 107.106 57.2321C107.432 58.0775 107.006 59.027 106.158 59.3516Z" stroke="#EFD0D9" stroke-miterlimit="10"/>
<path d="M88.9518 46.7464V42.6286C88.9518 41.5047 89.8654 40.594 90.993 40.594H104.008C105.135 40.594 106.049 41.5047 106.049 42.6286V46.7464C106.049 47.8702 105.135 48.781 104.008 48.781H90.9954C89.8679 48.7834 88.9518 47.8702 88.9518 46.7464Z" fill="#EFD0D9"/>
<path d="M94.4484 46.5308L88.1499 52.6468L98.3582 47.5045" fill="#EFD0D9"/>
<path d="M90.5313 42.527V42.5052C90.5313 42.338 90.6674 42.2024 90.8351 42.2024H97.2696C97.4373 42.2024 97.5733 42.338 97.5733 42.5052V42.527C97.5733 42.6941 97.4373 42.8297 97.2696 42.8297H90.8351C90.6674 42.8297 90.5313 42.6941 90.5313 42.527Z" fill="white"/>
<path d="M97.8625 42.527V42.5052C97.8625 42.338 97.9986 42.2024 98.1662 42.2024H103.782C103.95 42.2024 104.086 42.338 104.086 42.5052V42.527C104.086 42.6941 103.95 42.8297 103.782 42.8297H98.1662C97.9986 42.8297 97.8625 42.6941 97.8625 42.527Z" fill="white"/>
<path d="M95.4107 43.9051V43.8833C95.4107 43.7162 95.5468 43.5806 95.7145 43.5806H103.782C103.95 43.5806 104.086 43.7162 104.086 43.8833V43.9051C104.086 44.0723 103.95 44.2079 103.782 44.2079H95.7145C95.5468 44.2079 95.4107 44.0723 95.4107 43.9051Z" fill="white"/>
<path d="M90.5313 43.9051V43.8833C90.5313 43.7162 90.6674 43.5806 90.8351 43.5806H94.4387C94.6064 43.5806 94.7424 43.7162 94.7424 43.8833V43.9051C94.7424 44.0723 94.6064 44.2079 94.4387 44.2079H90.8351C90.6674 44.2079 90.5313 44.0723 90.5313 43.9051Z" fill="white"/>
<path d="M96.5309 45.2836V45.2618C96.5309 45.0946 96.667 44.959 96.8346 44.959H103.782C103.95 44.959 104.086 45.0946 104.086 45.2618V45.2836C104.086 45.4507 103.95 45.5863 103.782 45.5863H96.8346C96.667 45.5863 96.5309 45.4507 96.5309 45.2836Z" fill="white"/>
<path d="M90.5313 45.2836V45.2618C90.5313 45.0946 90.6674 44.959 90.8351 44.959H95.6342C95.8019 44.959 95.938 45.0946 95.938 45.2618V45.2836C95.938 45.4507 95.8019 45.5863 95.6342 45.5863H90.8351C90.6674 45.5863 90.5313 45.4507 90.5313 45.2836Z" fill="white"/>
<path d="M90.5313 46.6615V46.6397C90.5313 46.4726 90.6674 46.3369 90.8351 46.3369H92.6162C92.7839 46.3369 92.92 46.4726 92.92 46.6397V46.6615C92.92 46.8286 92.7839 46.9643 92.6162 46.9643H90.8351C90.6674 46.9643 90.5313 46.8286 90.5313 46.6615Z" fill="white"/>
<path d="M93.5493 46.6615V46.6397C93.5493 46.4726 93.6854 46.3369 93.8531 46.3369H103.782C103.95 46.3369 104.086 46.4726 104.086 46.6397V46.6615C104.086 46.8286 103.95 46.9643 103.782 46.9643H93.8531C93.6854 46.9643 93.5493 46.8286 93.5493 46.6615Z" fill="white"/>
<path d="M56.8271 40.9182C58.7024 36.901 56.9555 32.1291 52.9254 30.2598C48.8953 28.3906 44.1081 30.1318 42.2328 34.149C40.3575 38.1663 42.1044 42.9382 46.1345 44.8075C50.1646 46.6767 54.9519 44.9355 56.8271 40.9182Z" fill="#FF6C64"/>
<path d="M48.277 43.3062C49.2938 42.9502 49.8285 41.84 49.4714 40.8265C49.1142 39.813 48.0005 39.2799 46.9837 39.6359C45.967 39.9919 45.4322 41.1021 45.7893 42.1156C46.1465 43.1292 47.2602 43.6622 48.277 43.3062Z" fill="white"/>
<path d="M46.6072 42.1683L46.5125 40.9354L47.5379 40.2378L48.6557 40.7731L48.7504 42.006L47.725 42.7036L46.6072 42.1683Z" fill="#FF6C64"/>
<path d="M52.0788 35.4274C53.0935 35.0658 53.6221 33.9527 53.2593 32.9412C52.8966 31.9298 51.7799 31.4029 50.7652 31.7645C49.7505 32.1261 49.222 33.2391 49.5847 34.2506C49.9474 35.2621 51.0641 35.7889 52.0788 35.4274Z" fill="white"/>
<path d="M50.4563 34.1776L50.5243 32.608L51.7102 31.5762L52.8279 32.1115L52.7599 33.6786L51.5741 34.7129L50.4563 34.1776Z" fill="#FF6C64"/>
<path d="M48.9813 40.5719L47.4893 39.8574L48.5925 37.3213C48.663 37.1615 48.7383 37.0016 48.8209 36.8466L50.1161 34.4026L51.6081 35.1171L50.5438 37.6144C50.4612 37.8082 50.3713 37.9971 50.2716 38.1812L48.9813 40.5719Z" fill="white"/>
<path d="M55.1169 41.8512C55.4037 41.718 60.023 41.9287 60.023 41.9287L56.694 38.8816L55.1169 41.8512Z" fill="#FF6C64"/>
<path d="M82.5877 75.3379C82.5877 75.3379 83.1199 80.1992 83.7152 80.5892C84.7795 81.2892 97.0994 82.9072 97.0994 82.9072L96.6961 86.1021C96.6961 86.1021 79.8224 87.6135 79.1055 86.773C77.8614 85.3149 75.6744 78.2808 75.6744 78.2808L82.5877 75.3379Z" fill="#E06A58"/>
<path d="M74.4522 62.8225L75.8154 59.5598C75.8154 59.5598 79.5138 61.2917 80.7337 63.4305C82.0386 65.717 83.635 77.874 83.635 77.874C83.635 77.874 77.1057 79.3733 75.9053 78.7363C74.7049 78.0992 74.4522 62.8225 74.4522 62.8225Z" fill="#F2AE30"/>
<path d="M64.069 47.679C63.114 47.3302 62.1031 47.025 61.0801 47.1025C60.0571 47.18 59.0122 47.7201 58.6647 48.6164C58.4169 49.251 58.5311 49.9994 58.1398 50.5711C57.7656 51.1185 57.0221 51.3462 56.3271 51.3922C55.6297 51.4406 54.9274 51.3486 54.2349 51.4382C52.0965 51.7216 50.5705 54.0372 51.2728 55.9338C51.5522 56.6895 52.1257 57.4113 51.9945 58.1985C51.856 59.0414 50.969 59.5961 50.6045 60.3785C50.121 61.42 50.6993 62.682 51.6543 63.3917C52.6092 64.099 53.851 64.3678 55.0562 64.5471C56.7159 64.7941 58.429 64.9104 60.0692 64.5616C61.7095 64.2128 63.2768 63.3505 64.1249 62.0038C64.5015 61.4079 64.7299 60.7346 65.1673 60.175C66.0713 59.0196 67.6726 58.5715 68.9338 57.7528C70.3115 56.8542 71.3224 55.1054 70.5108 53.7369C69.7284 52.4216 67.692 52.1285 66.8756 50.8327C66.5378 50.2974 66.4576 49.6603 66.2389 49.0766C66.0154 48.4904 65.4808 48.1949 64.069 47.679Z" fill="#0A2240"/>
<path d="M69.6336 63.8132C69.8742 64.0894 70.1585 64.3921 70.5521 64.4188C70.9676 64.4478 71.3151 64.1548 71.5824 63.8714C72.9626 62.4156 73.8739 60.6281 74.2432 58.7848C73.9006 58.591 73.5701 58.4045 73.2713 58.2301C72.9942 58.0654 72.7853 57.8353 72.6662 57.5664C72.5836 57.3678 72.5544 57.1595 72.5763 56.9415C72.7707 55.12 72.9432 54.1051 73.5847 52.257C70.5375 51.5715 67.6629 50.7576 66.0105 49.3818C65.8088 50.2296 65.5707 51.8888 65.0628 53.5335C64.5209 55.275 63.6753 56.9972 62.2416 57.7384C65.0555 59.3952 67.5657 61.454 69.6336 63.8132Z" fill="#F9A07B"/>
<path d="M72.5763 56.9439C72.5544 57.1619 72.5836 57.3727 72.6662 57.5688C70.8632 59.7488 66.8319 56.9003 65.0629 53.5359C65.5707 51.8912 65.8089 50.232 66.0106 49.3843C67.6605 50.7601 70.5376 51.5764 73.5848 52.2594C72.9432 54.1075 72.7707 55.12 72.5763 56.9439Z" fill="#E06A58"/>
<path d="M77.5966 83.2973C77.1981 85.9278 80.046 88.7593 80.1165 90.1642C74.0683 90.1642 61.3985 90.5324 54.9469 89.6579C54.6529 88.0351 57.8386 84.3848 57.8386 80.7806C57.8386 80.3035 57.8191 79.7803 57.7802 79.2183C57.6782 77.61 57.44 75.6965 57.1752 73.7345C56.4559 68.4711 55.4985 62.8419 56.2056 61.6744C57.5907 59.4 60.8298 57.8546 62.4361 57.1909C62.9877 56.9633 63.3473 56.8397 63.374 56.8252C65.3885 60.2502 69.4878 63.1713 71.0357 63.0405C71.4658 63.0066 72.7415 62.5634 73.5847 58.3318C73.9128 58.5183 74.2408 58.6903 74.5664 58.8574C76.1678 59.6882 77.6695 60.3737 78.102 61.4419C79.2441 64.254 80.3643 71.3438 80.1165 73.8653C79.8662 76.4086 78.8407 78.3512 78.1215 80.9042C77.9538 81.5024 77.8007 82.137 77.6768 82.8201C77.6452 82.9727 77.6209 83.1326 77.5966 83.2973Z" fill="#FFC73C"/>
<path d="M80.1165 90.1643C74.0683 90.1643 61.3985 90.5325 54.9469 89.6581C54.6529 88.0352 57.8386 84.385 57.8386 80.7808C57.8386 80.3036 57.8191 79.7804 57.7802 79.2184C57.6782 77.6101 57.44 75.6966 57.1752 73.7346C58.3197 74.9384 59.9891 69.8518 60.7278 71.3415C64.7251 79.3832 67.8767 81.4977 73.3539 81.4977C74.9868 81.4977 76.4934 81.2725 78.1215 80.9043C77.9538 81.5026 77.8007 82.1372 77.6768 82.8202C77.6476 82.9752 77.6209 83.1351 77.5966 83.2998C77.1981 85.9255 80.046 88.757 80.1165 90.1643Z" fill="#FFBB33"/>
<path d="M74.5664 58.8574C74.3064 60.7395 73.5361 63.2755 71.2957 63.944C68.268 64.8475 63.8867 59.2086 62.436 57.1909C62.9876 56.9633 63.3473 56.8397 63.374 56.8252C65.3884 60.2502 69.4878 63.1713 71.0357 63.0405C71.4658 63.0066 72.7415 62.5634 73.5847 58.3318C73.9128 58.5159 74.2408 58.6879 74.5664 58.8574Z" fill="#FCE172"/>
<path d="M75.8106 87.3323L75.7887 89.4323L113.453 89.6552L113.531 87.2742L75.8106 87.3323Z" fill="#325F73"/>
<path d="M129.778 68.5968L128.939 67.7491L101.505 67.5698L87.7417 87.41L88.461 87.9864L129.778 68.5968Z" fill="#325F73"/>
<path d="M102.035 68.1753L88.461 87.858L114.389 87.9864L129.778 68.4684L102.035 68.1753Z" fill="#0B2D50"/>
<path d="M108.586 80.8677C110.253 80.8677 111.604 80.1943 111.604 79.3635C111.604 78.5328 110.253 77.8594 108.586 77.8594C106.919 77.8594 105.568 78.5328 105.568 79.3635C105.568 80.1943 106.919 80.8677 108.586 80.8677Z" fill="#3C738C"/>
<path d="M81.8492 49.8914C82.2768 47.6043 81.3966 45.5225 79.8833 45.2414C78.37 44.9603 76.7967 46.5864 76.3691 48.8734C75.9416 51.1604 76.8217 53.2423 78.335 53.5234C79.8483 53.8045 81.4217 52.1784 81.8492 49.8914Z" fill="#56C4F9"/>
<path d="M81.8514 42.7135C81.5696 44.7045 80.6778 46.899 79.3777 49.3236C78.9209 47.3374 78.6293 44.9176 78.2259 42.4979C77.8153 40.0733 77.2928 37.6487 76.3864 35.6673C76.1823 35.2289 75.9612 34.8099 75.7206 34.4223C76.2577 34.3714 76.802 34.4223 77.3196 34.5652C78.1287 34.7808 78.8869 35.1974 79.5065 35.7545C80.5368 36.6677 81.2269 37.9127 81.6376 39.2255C81.9754 40.3155 82.0361 41.4733 81.8514 42.7135Z" fill="#0B2D50"/>
<path d="M80.3254 44.7723C80.3109 45.1647 80.2841 45.5644 80.2477 45.9616C79.6936 52.4046 76.9794 56.8251 72.8266 56.8251C66.9631 56.8251 63.1626 50.2707 63.1626 43.8494C63.1626 37.5154 67.0554 32.9302 71.6116 33.4607C74.2384 33.761 76.1581 34.6306 77.5213 35.9047C78.4228 36.7524 79.074 37.777 79.5187 38.9421C80.0266 40.2476 80.272 41.7252 80.323 43.3166C80.323 43.3214 80.3279 43.3263 80.3279 43.3311C80.3473 43.801 80.3424 44.2806 80.3254 44.7723Z" fill="#F9A07B"/>
<path d="M80.3254 44.7724C80.1505 44.1499 79.8905 43.5419 79.5357 42.9969C76.0779 44.799 71.9566 45.4942 68.0493 44.8353C67.3057 45.453 66.5791 46.061 65.8477 46.6689C65.8623 43.7381 65.9036 41.7543 67.0505 40.3349C68.127 39.0027 69.9228 38.5013 71.6237 38.2833C73.5386 38.0338 75.485 38.0435 77.3949 38.3197C78.1263 38.4214 78.8845 38.5788 79.5211 38.947C80.029 40.2526 80.2744 41.7301 80.3254 43.3215C80.3254 43.3263 80.3303 43.3312 80.3303 43.336C80.3473 43.8011 80.3424 44.2807 80.3254 44.7724Z" fill="#E06A58"/>
<path d="M81.171 40.8048C80.3667 41.483 79.3583 42.0449 78.2259 42.5003C75.0038 43.7962 70.817 44.2249 67.5535 44.0675C65.9498 47.5796 65.3009 48.8392 64.8903 51.9032C63.323 50.4378 62.0472 47.754 61.6682 45.6443C61.2939 43.5419 61.3304 41.3352 61.9184 39.2691C62.8443 36.0113 65.1795 34.2673 66.7978 33.4195C67.2012 33.1991 67.5657 33.0465 67.8476 32.9351C69.9155 32.1382 72.2458 32.2109 74.3671 32.8576C75.5238 33.2161 76.4982 33.8216 77.3171 34.5676C78.9719 36.0573 79.9949 38.075 80.6559 39.5864C80.8649 40.0491 81.0325 40.4681 81.171 40.8048Z" fill="#0B2D50"/>
<path d="M81.8514 42.7134C81.7178 42.0086 81.5185 41.3255 81.2367 40.6667C81.0787 40.2937 80.8843 39.9328 80.6583 39.584C79.922 38.431 78.8504 37.4815 77.5553 37.0625C77.1859 36.5466 76.7971 36.0815 76.3889 35.6697C74.9187 34.1801 73.1935 33.3275 71.3661 33.0295C69.845 32.7849 68.2631 32.923 66.8027 33.4171C67.206 33.1967 67.5705 33.0441 67.8524 32.9327C69.9203 32.1358 72.2506 32.2084 74.372 32.8551C75.5287 33.2136 76.5031 33.8192 77.322 34.5652C78.1312 34.7808 78.8893 35.1974 79.509 35.7545C80.5393 36.6677 81.2294 37.9127 81.64 39.2255C81.9754 40.3155 82.0361 41.4733 81.8514 42.7134Z" fill="#225570"/>
<path d="M69.4222 46.664C70.5059 46.0463 71.631 45.7678 73.2081 46.3418" stroke="#0B2D50" stroke-width="2" stroke-miterlimit="10" stroke-linecap="round"/>
<path d="M76.8433 46.6203C77.7716 45.93 79.1469 45.8598 79.8638 46.6203" stroke="#0B2D50" stroke-width="2" stroke-miterlimit="10" stroke-linecap="round"/>
<path d="M75.7231 50.1423C75.8179 50.6316 75.7669 51.7143 75.5336 52.2012" stroke="#CC454E" stroke-width="2" stroke-miterlimit="10" stroke-linecap="round"/>
<path d="M72.0611 50.4718C72.3081 50.4718 72.5082 50.1573 72.5082 49.7693C72.5082 49.3814 72.3081 49.0669 72.0611 49.0669C71.8142 49.0669 71.614 49.3814 71.614 49.7693C71.614 50.1573 71.8142 50.4718 72.0611 50.4718Z" fill="#262D40"/>
<path d="M77.9052 50.1446C78.1521 50.1446 78.3523 49.8301 78.3523 49.4422C78.3523 49.0542 78.1521 48.7397 77.9052 48.7397C77.6582 48.7397 77.4581 49.0542 77.4581 49.4422C77.4581 49.8301 77.6582 50.1446 77.9052 50.1446Z" fill="#262D40"/>
<path d="M75.1691 53.158C75.1691 53.158 75.0816 53.3275 74.9139 53.5576C74.6515 53.9088 74.2044 54.3933 73.5945 54.5822H73.592C73.3344 54.6646 73.055 54.6936 72.744 54.6379C71.8303 54.4756 71.5897 53.6351 71.546 52.9884C71.5363 52.8625 71.5363 52.7462 71.5387 52.6396C71.5436 52.378 71.5727 52.2036 71.5727 52.2036C73.0283 53.0029 75.1691 53.158 75.1691 53.158Z" fill="#CC454E"/>
<path d="M75.1696 53.158C75.1696 53.158 75.0821 53.3275 74.9144 53.5576C74.1708 53.5479 72.6497 53.1676 71.5392 52.6396C71.544 52.378 71.5732 52.2036 71.5732 52.2036C73.0288 53.0029 75.1696 53.158 75.1696 53.158Z" fill="white"/>
<path d="M73.592 54.5799C73.3345 54.6622 73.055 54.6913 72.744 54.6356C71.8303 54.4733 71.5898 53.6328 71.546 52.9861C71.9883 53.0394 72.4159 53.2089 72.7707 53.4778C73.1425 53.7612 73.4268 54.1463 73.592 54.5799Z" fill="#E8729B"/>
<path d="M64.9049 45.5522C64.9049 45.5522 64.8539 42.5317 66.115 39.5306C67.6969 35.7641 70.9215 34.1533 74.0488 34.0443C77.8177 33.9111 80.1772 36.4326 80.1772 36.4326C80.1772 36.4326 78.9501 34.2745 76.5298 33.6544C74.9406 33.2474 72.5423 33.182 70.6177 33.962C68.6349 34.7637 66.1636 36.9897 65.2694 39.3417C64.3776 41.6936 63.9426 45.356 63.9426 45.356L64.9049 45.5522Z" fill="#3D86E0"/>
<path d="M64.8411 53.4158C66.4549 53.2485 67.557 51.137 67.3028 48.6995C67.0486 46.262 65.5343 44.4216 63.9205 44.5888C62.3067 44.756 61.2046 46.8676 61.4588 49.3051C61.7131 51.7426 63.2274 53.583 64.8411 53.4158Z" fill="#56C4F9"/>
<path d="M64.0987 52.6341C65.1405 52.478 65.7618 50.8705 65.4864 49.0436C65.211 47.2167 64.1432 45.8622 63.1014 46.0182C62.0596 46.1743 61.4383 47.7818 61.7137 49.6087C61.9891 51.4356 63.0569 52.7901 64.0987 52.6341Z" fill="#3D86E0"/>
<path d="M74.0731 56.9148C74.9374 56.9148 75.638 56.4799 75.638 55.9435C75.638 55.407 74.9374 54.9722 74.0731 54.9722C73.2089 54.9722 72.5082 55.407 72.5082 55.9435C72.5082 56.4799 73.2089 56.9148 74.0731 56.9148Z" fill="#3A92C9"/>
<path d="M66.2122 52.6953C66.2122 52.6953 68.511 55.6407 72.5083 55.9435" stroke="#3A92C9" stroke-width="2" stroke-miterlimit="10" stroke-linecap="round"/>
<path d="M75.7887 81.7257L75.6381 85.5988C75.6381 85.5988 61.5856 89.7965 59.265 88.4691C58.1326 87.82 57.0756 84.2497 56.2859 80.7641C55.4597 77.1018 54.9299 73.5363 54.9299 73.5363L63.1675 71.928C63.1675 71.928 63.1724 76.9346 63.4518 79.8292C63.5514 80.907 63.6948 81.6918 63.8868 81.8202C64.6133 82.2974 75.7887 81.7257 75.7887 81.7257Z" fill="#F9A07B"/>
<path d="M63.4518 79.8238C61.955 80.3082 59.0657 81.0567 56.2859 80.7612C55.4597 77.0988 54.9299 73.5334 54.9299 73.5334L63.1675 71.925C63.1675 71.9226 63.1724 76.9293 63.4518 79.8238Z" fill="#E06A58"/>
<path d="M75.3878 81.7639C77.4776 81.3182 81.0156 80.2476 82.4833 79.8795C83.5257 79.6179 86.24 81.0179 86.9568 82.338C87.2703 82.9144 87.5668 86.1795 86.4806 85.8429C85.9362 85.6733 86.0262 84.2733 85.8561 83.7017C85.7176 83.2366 85.2753 82.7861 84.6022 82.3985C85.0517 83.5151 85.0347 84.4889 84.9861 85.6951C84.9764 85.9616 84.9594 86.2401 84.8306 86.4702C84.6994 86.7003 84.4175 86.865 84.1745 86.7633C83.9267 86.6616 83.8416 86.3539 83.7857 86.0851C83.5938 85.155 83.3994 84.2248 83.3216 83.1736C83.3411 84.2079 83.3192 85.2446 83.2536 86.2764C83.205 87.0661 82.8113 87.4996 82.3278 87.3616C82.1115 87.301 82.024 87.1024 81.9317 86.8408C81.7859 87.347 81.4214 87.9066 80.95 87.6934C80.6632 87.565 80.4858 86.5332 80.5369 85.4723C79.6329 86.0318 78.6123 86.2692 77.4362 86.3225C76.3816 86.3709 75.3027 86.1747 74.6685 85.4602C74.7317 84.3435 75.101 82.6916 75.3878 81.7639Z" fill="#F9A07B"/>
<path d="M81.9535 86.6811C82.024 85.843 81.9511 84.9928 81.7372 84.1838" stroke="#CC454E" stroke-miterlimit="10" stroke-linecap="round"/>
<path d="M62.2417 63.8034C61.6439 62.1249 59.4545 58.6902 59.4545 58.6902C59.4545 58.6902 56.1133 60.0757 54.9275 62.4276C52.9203 66.4097 53.9409 77.8424 53.9409 77.8424C56.6455 78.9712 62.074 78.9881 64.3849 78.6636C64.3849 78.6636 63.4396 67.1582 62.2417 63.8034Z" fill="#FFC73C"/>
<path d="M62.6669 64.5059C63.5782 68.8537 64.0666 72.9084 64.2221 76.8808" stroke="#F2AE30" stroke-miterlimit="10" stroke-linecap="round"/>
<path d="M134.293 89.4102H16.9644V90.3608H134.293V89.4102Z" fill="#E2E2E2"/>
<defs>
<linearGradient id="paint0_linear" x1="70" y1="2.14453" x2="70" y2="90.1153" gradientUnits="userSpaceOnUse">
<stop stop-color="#F9E5EC"/>
<stop offset="1" stop-color="#FBF5F5"/>
</linearGradient>
<linearGradient id="paint1_linear" x1="35.6698" y1="78.24" x2="35.6698" y2="90.1154" gradientUnits="userSpaceOnUse">
<stop stop-color="#F9E5EC"/>
<stop offset="1" stop-color="#FBF5F5"/>
</linearGradient>
<linearGradient id="paint2_linear" x1="21.2888" y1="85.6851" x2="21.2888" y2="90.1153" gradientUnits="userSpaceOnUse">
<stop stop-color="#F9E5EC"/>
<stop offset="1" stop-color="#FBF5F5"/>
</linearGradient>
<linearGradient id="paint3_linear" x1="116.011" y1="59.8545" x2="116.011" y2="90.1149" gradientUnits="userSpaceOnUse">
<stop stop-color="#F1CEDA"/>
<stop offset="1" stop-color="#FBF5F5"/>
</linearGradient>
</defs>
</svg>
