<svg width="28" height="36" viewBox="0 0 28 36" fill="none" xmlns="http://www.w3.org/2000/svg">
<path d="M20.1523 8.22365H26.7293L19.127 0.621338V7.19826C19.127 7.764 19.5866 8.22365 20.1523 8.22365Z" fill="#E2211C"/>
<path d="M3.74609 35.0205H24.2539C25.9502 35.0205 27.3301 33.6406 27.3301 31.9443V10.2744H20.1523C18.4561 10.2744 17.0762 8.89451 17.0762 7.19824V0.0205078H3.74609C2.04982 0.0205078 0.669922 1.40041 0.669922 3.09668V31.9443C0.669922 33.6406 2.04982 35.0205 3.74609 35.0205ZM9.89844 16.4951H20.1523C20.7191 16.4951 21.1777 16.9537 21.1777 17.5205C21.1777 18.0873 20.7191 18.5459 20.1523 18.5459H9.89844C9.33167 18.5459 8.87305 18.0873 8.87305 17.5205C8.87305 16.9537 9.33167 16.4951 9.89844 16.4951ZM9.89844 20.5967H20.1523C20.7191 20.5967 21.1777 21.0553 21.1777 21.6221C21.1777 22.1888 20.7191 22.6475 20.1523 22.6475H9.89844C9.33167 22.6475 8.87305 22.1888 8.87305 21.6221C8.87305 21.0553 9.33167 20.5967 9.89844 20.5967ZM9.89844 24.6982H20.1523C20.7191 24.6982 21.1777 25.1569 21.1777 25.7236C21.1777 26.2904 20.7191 26.749 20.1523 26.749H9.89844C9.33167 26.749 8.87305 26.2904 8.87305 25.7236C8.87305 25.1569 9.33167 24.6982 9.89844 24.6982ZM5.79688 16.4951C6.36316 16.4951 6.82227 16.9542 6.82227 17.5205C6.82227 18.0868 6.36316 18.5459 5.79688 18.5459C5.23059 18.5459 4.77148 18.0868 4.77148 17.5205C4.77148 16.9542 5.23059 16.4951 5.79688 16.4951ZM5.79688 20.5967C6.36316 20.5967 6.82227 21.0558 6.82227 21.6221C6.82227 22.1884 6.36316 22.6475 5.79688 22.6475C5.23059 22.6475 4.77148 22.1884 4.77148 21.6221C4.77148 21.0558 5.23059 20.5967 5.79688 20.5967ZM5.79688 24.6982C6.36316 24.6982 6.82227 25.1573 6.82227 25.7236C6.82227 26.2899 6.36316 26.749 5.79688 26.749C5.23059 26.749 4.77148 26.2899 4.77148 25.7236C4.77148 25.1573 5.23059 24.6982 5.79688 24.6982Z" fill="#E2211C"/>
</svg>
