<svg width="1920" height="1271" viewBox="0 0 1920 1271" fill="none" xmlns="http://www.w3.org/2000/svg">
<rect y="0.726562" width="1920" height="1269.36" fill="#FBF5F5"/>
<path d="M1763.34 148.509C1763.34 147.536 1762.55 146.748 1761.58 146.748H1745.06C1744.09 146.748 1743.3 147.536 1743.3 148.509V159.961C1743.3 160.934 1744.09 161.722 1745.06 161.722H1761.58C1762.55 161.722 1763.34 160.934 1763.34 159.961V148.509ZM1759.81 158.199H1746.82V150.271H1759.81V158.199Z" fill="#FDD9D7"/>
<path d="M1824.78 148.509C1824.78 147.536 1823.99 146.748 1823.02 146.748H1806.5C1805.53 146.748 1804.74 147.536 1804.74 148.509V159.961C1804.74 160.934 1805.53 161.722 1806.5 161.722H1823.02C1823.99 161.722 1824.78 160.934 1824.78 159.961V148.509ZM1808.26 150.271H1821.25V158.199H1808.26V150.271Z" fill="#FDD9D7"/>
<path d="M1796.59 150.711C1796.59 149.738 1795.8 148.949 1794.83 148.949H1773.47C1772.49 148.949 1771.71 149.738 1771.71 150.711V157.538C1771.71 158.511 1772.49 159.3 1773.47 159.3H1794.83C1795.8 159.3 1796.59 158.511 1796.59 157.538V150.711ZM1792.85 155.776H1775.23V152.473H1792.85V155.776Z" fill="#FDD9D7"/>
<path d="M1794.57 116.618C1794.75 115.916 1795.14 114.969 1795.43 114.623C1795.97 114.119 1796.68 113.836 1797.42 113.83C1798.15 113.825 1798.86 114.104 1799.39 114.612C1799.91 115.153 1800.21 115.873 1800.21 116.623C1800.21 117.596 1801 118.385 1801.97 118.385C1802.95 118.385 1803.73 117.596 1803.73 116.623C1803.72 115.878 1804.01 115.158 1804.54 114.631C1805.06 114.104 1805.78 113.815 1806.53 113.83C1807.27 113.825 1807.98 114.104 1808.52 114.612C1809.05 115.151 1809.35 115.869 1809.36 116.622V130.293C1809.37 130.502 1809.28 130.702 1809.13 130.847C1808.98 130.992 1808.78 131.07 1808.57 131.062C1808.37 131.07 1808.17 130.992 1808.02 130.846C1807.87 130.701 1807.79 130.5 1807.79 130.293C1807.79 129.318 1807 128.528 1806.03 128.528C1805.05 128.528 1804.26 129.318 1804.26 130.293C1804.28 132.663 1806.21 134.574 1808.57 134.574C1810.94 134.574 1812.87 132.663 1812.89 130.293V116.622C1812.86 115.879 1813.14 115.158 1813.67 114.63C1814.19 114.102 1814.9 113.812 1815.65 113.828C1816.38 113.823 1817.09 114.104 1817.62 114.61C1818.14 115.152 1818.43 115.871 1818.43 116.622C1818.41 117.265 1818.74 117.869 1819.3 118.197C1819.85 118.524 1820.54 118.524 1821.09 118.197C1821.64 117.869 1821.97 117.265 1821.95 116.622C1821.94 115.877 1822.23 115.157 1822.75 114.629C1823.28 114.102 1824 113.813 1824.75 113.828C1825.48 113.823 1826.19 114.102 1826.72 114.606C1827.01 114.938 1827.41 115.906 1827.6 116.615C1827.82 117.471 1828.65 118.026 1829.53 117.913C1830.41 117.799 1831.06 117.052 1831.06 116.166C1831.06 105.131 1822.12 96.1851 1811.08 96.1851C1800.05 96.1851 1791.1 105.131 1791.1 116.166C1791.1 117.051 1791.76 117.798 1792.64 117.913C1793.51 118.027 1794.34 117.472 1794.57 116.617V116.618ZM1811.08 99.7094C1818.01 99.7172 1824.19 104.055 1826.56 110.566C1824.35 109.916 1821.96 110.502 1820.3 112.1C1820.28 112.125 1820.25 112.15 1820.23 112.176L1820.19 112.211C1820.18 112.199 1820.17 112.188 1820.16 112.176C1820.15 112.164 1820.13 112.15 1820.12 112.137C1818.93 110.96 1817.32 110.302 1815.64 110.306C1813.98 110.313 1812.39 110.956 1811.19 112.1C1811.17 112.125 1811.14 112.15 1811.12 112.176L1811.08 112.211C1811.07 112.199 1811.06 112.188 1811.05 112.176C1811.04 112.164 1811.03 112.15 1811.01 112.137C1809.82 110.96 1808.21 110.302 1806.53 110.306C1804.87 110.313 1803.28 110.956 1802.08 112.1C1802.06 112.125 1802.03 112.15 1802.01 112.176L1801.97 112.211C1801.96 112.199 1801.95 112.188 1801.94 112.176C1801.93 112.164 1801.92 112.15 1801.9 112.137C1800.25 110.508 1797.83 109.907 1795.6 110.572C1797.97 104.058 1804.15 99.7172 1811.08 99.7086V99.7094Z" fill="#FDD9D7"/>
<path d="M1840.4 115.386C1840.4 99.2217 1827.25 86.0249 1811.08 86.0249C1797.68 86.0249 1786.35 95.2164 1782.87 107.328H1756.55C1752.9 107.359 1749.64 109.646 1748.36 113.077L1740.54 134.198L1737.24 137.275C1734.52 139.599 1732.95 143 1732.95 146.582V177.546C1732.95 182.363 1736.88 186.387 1741.7 186.387H1747.52C1752.37 186.34 1756.28 182.398 1756.29 177.545V172.733H1811.79V177.546C1811.79 182.363 1815.71 186.387 1820.53 186.387H1826.34C1831.19 186.342 1835.11 182.401 1835.13 177.545V145.782C1835.11 142.437 1833.74 139.242 1831.31 136.934L1831.14 136.758C1837.05 131.225 1840.4 123.485 1840.4 115.386ZM1811.08 89.5957C1825.33 89.5957 1836.87 101.143 1836.87 115.386C1836.87 129.63 1825.33 141.177 1811.08 141.177C1796.84 141.177 1785.29 129.63 1785.29 115.386C1785.31 101.149 1796.85 89.6112 1811.08 89.5957ZM1751.67 114.336C1752.42 112.277 1754.36 110.892 1756.55 110.852H1782.1C1781.88 112.35 1781.77 113.86 1781.77 115.374C1781.77 121.955 1783.98 128.345 1788.02 133.534H1744.58L1751.67 114.336ZM1752.77 177.545C1752.76 180.452 1750.42 182.817 1747.52 182.863H1741.7C1738.83 182.863 1736.47 180.419 1736.47 177.545V170.949C1738.01 172.037 1739.75 172.733 1741.7 172.733H1752.77V177.545ZM1830.05 181.284C1829.07 182.28 1827.74 182.848 1826.34 182.863H1820.53C1817.65 182.863 1815.31 180.419 1815.31 177.545V172.733H1826.34C1828.24 172.713 1830.08 172.091 1831.61 170.956V177.545C1831.6 178.947 1831.04 180.29 1830.05 181.284ZM1828.75 139.379C1828.77 139.406 1828.83 139.431 1828.85 139.456C1830.6 141.1 1831.59 143.387 1831.61 145.782V163.943C1831.59 166.843 1829.24 169.189 1826.34 169.21H1741.7C1738.81 169.183 1736.48 166.835 1736.47 163.943V146.582C1736.47 144.024 1737.6 141.597 1739.55 139.946C1739.57 139.929 1739.6 139.946 1739.62 139.928L1742.74 137.058H1791.29C1796.51 141.683 1803.46 144.736 1811.08 144.736C1817.32 144.736 1823.39 142.737 1828.41 139.033L1828.75 139.379Z" fill="#FDD9D7"/>
<g clip-path="url(#clip0)">
<path d="M182.928 771.634C171.99 771.647 163.123 780.414 163.112 791.231C163.112 792.1 163.763 792.833 164.633 792.945C165.505 793.057 166.322 792.513 166.547 791.674C166.733 790.987 167.115 790.058 167.408 789.719C167.941 789.224 168.644 788.945 169.376 788.939C170.106 788.934 170.808 789.209 171.334 789.706C171.85 790.237 172.141 790.942 172.145 791.679C172.145 792.634 172.927 793.408 173.893 793.408C174.859 793.408 175.641 792.634 175.641 791.679C175.626 790.948 175.912 790.242 176.436 789.725C176.959 789.209 177.673 788.924 178.412 788.939C179.137 788.934 179.836 789.209 180.358 789.706C180.868 790.24 181.154 790.944 181.156 791.679V805.09C181.156 805.5 180.819 805.835 180.402 805.835C179.985 805.835 179.648 805.5 179.648 805.09C179.655 804.467 179.325 803.893 178.781 803.579C178.237 803.268 177.566 803.268 177.024 803.579C176.482 803.893 176.15 804.469 176.157 805.09C176.146 806.596 176.952 807.994 178.272 808.75C179.589 809.507 181.215 809.507 182.535 808.75C183.852 807.994 184.661 806.596 184.65 805.09V791.679C184.639 790.946 184.932 790.242 185.456 789.725C185.983 789.209 186.697 788.926 187.438 788.939C188.168 788.934 188.871 789.209 189.4 789.706C189.916 790.237 190.206 790.942 190.213 791.679C190.213 792.634 190.995 793.408 191.961 793.408C192.927 793.408 193.709 792.634 193.709 791.679C193.694 790.948 193.98 790.242 194.504 789.725C195.027 789.209 195.741 788.924 196.48 788.939C197.207 788.934 197.909 789.207 198.435 789.702C198.728 790.028 199.121 790.974 199.309 791.67C199.532 792.511 200.352 793.055 201.223 792.945C202.095 792.833 202.746 792.1 202.746 791.231C202.731 780.414 193.866 771.645 182.928 771.634ZM196.48 785.481C194.837 785.49 193.259 786.119 192.07 787.242C192.044 787.266 192.02 787.29 191.996 787.316L191.963 787.35L191.93 787.316C191.917 787.303 191.906 787.29 191.893 787.279C190.707 786.125 189.11 785.479 187.447 785.481C185.804 785.49 184.226 786.119 183.037 787.242C183.011 787.266 182.987 787.29 182.963 787.316L182.93 787.35C182.919 787.34 182.908 787.327 182.897 787.316C182.887 787.305 182.873 787.29 182.86 787.279C181.674 786.125 180.077 785.479 178.412 785.481C176.768 785.49 175.191 786.119 174.002 787.242C173.976 787.266 173.952 787.29 173.928 787.316C173.917 787.327 173.906 787.34 173.895 787.35L173.862 787.316C173.851 787.303 173.838 787.29 173.825 787.279C172.182 785.68 169.787 785.092 167.578 785.743C169.916 779.351 176.052 775.089 182.926 775.087C189.8 775.087 195.938 779.344 198.278 785.736C197.692 785.57 197.087 785.483 196.48 785.481Z" fill="#F9D2CF"/>
<path d="M212 790.464C212 774.612 198.957 761.713 182.928 761.713C166.899 761.713 153.854 774.56 153.854 790.415C153.852 791.592 153.926 792.768 154.079 793.935H143.176C139.557 793.965 136.159 795.649 133.97 798.497L124.137 811.289L107.686 815.754C103.733 816.839 100.996 820.402 101 824.463V830.619C101 835.589 105.038 839.728 110.066 839.728H111.807C112.996 844.694 117.652 848.713 123.204 848.713C128.757 848.713 133.413 844.694 134.602 839.725H171.977C173.165 844.694 177.824 848.713 183.376 848.713C188.928 848.713 193.584 844.694 194.773 839.725H197.743C202.768 839.725 206.926 835.589 206.926 830.617V823.59C206.907 820.05 204.807 816.845 201.549 815.382L199.161 814.317C207.191 808.979 212.004 800.035 212 790.464ZM123.204 845.165C118.675 845.165 115.004 841.534 115.004 837.055C115.004 832.575 118.675 828.944 123.202 828.944C127.732 828.944 131.403 832.575 131.403 837.055C131.398 841.532 127.732 845.158 123.204 845.165ZM183.376 845.165C178.846 845.165 175.176 841.534 175.176 837.055C175.176 832.575 178.846 828.944 183.376 828.944C187.906 828.944 191.576 832.575 191.576 837.055C191.57 841.532 187.901 845.158 183.376 845.165ZM200.102 818.531C202.115 819.432 203.413 821.407 203.432 823.592V830.619C203.404 833.72 200.878 836.229 197.743 836.27H195.033C194.57 830.241 189.49 825.584 183.376 825.584C177.262 825.584 172.182 830.243 171.719 836.27H134.862C134.398 830.241 129.318 825.584 123.204 825.584C117.091 825.584 112.01 830.243 111.547 836.27H110.066C106.965 836.27 104.494 833.683 104.494 830.619V824.463C104.487 821.962 106.172 819.767 108.608 819.101L125.641 814.496C126.01 814.397 126.333 814.177 126.563 813.876L136.749 800.593C138.275 798.6 140.645 797.42 143.171 797.392H154.73C157.909 809.919 169.344 819.168 182.924 819.168C187.243 819.181 191.513 818.239 195.416 816.409L200.102 818.531ZM182.928 815.763C168.802 815.763 157.35 804.437 157.35 790.467C157.35 776.496 168.8 765.17 182.926 765.17C197.052 765.17 208.506 776.494 208.506 790.464C208.491 804.431 197.048 815.745 182.928 815.763Z" fill="#F9D2CF"/>
</g>
<path d="M1777.52 1259.4H1779.15C1780.75 1265.84 1786.34 1270.09 1792.97 1270.09C1799.6 1270.09 1805.19 1265.84 1806.79 1259.4H1849.92C1851.51 1265.84 1857.1 1270.09 1863.73 1270.09C1870.37 1270.09 1875.95 1265.84 1877.55 1259.4H1880.63C1883.59 1259.43 1886.45 1258.27 1888.55 1256.19C1890.66 1254.1 1891.85 1251.26 1891.86 1248.3V1239.94C1891.85 1235.54 1889.28 1231.54 1885.27 1229.71L1875.18 1225.12L1866.28 1210.94C1863.7 1206.81 1859.17 1204.32 1854.3 1204.34H1816.46C1812.05 1204.34 1807.9 1206.39 1805.22 1209.88L1793.76 1224.91L1774.56 1230.14C1769.68 1231.48 1766.3 1235.92 1766.29 1240.98V1248.3C1766.3 1251.26 1767.49 1254.1 1769.59 1256.19C1771.7 1258.27 1774.55 1259.43 1777.52 1259.4ZM1792.97 1265.08C1787.93 1265.07 1783.85 1260.99 1783.85 1255.95C1783.85 1250.91 1787.93 1246.83 1792.97 1246.83C1798.01 1246.83 1802.09 1250.91 1802.09 1255.95C1802.09 1260.99 1798.01 1265.07 1792.97 1265.08ZM1863.73 1265.08C1858.7 1265.08 1854.61 1260.99 1854.61 1255.95C1854.61 1250.91 1858.7 1246.83 1863.73 1246.83C1868.77 1246.83 1872.86 1250.91 1872.86 1255.95C1872.85 1260.99 1868.77 1265.07 1863.73 1265.08ZM1771.44 1240.98C1771.44 1238.24 1773.28 1235.83 1775.92 1235.1L1795.96 1229.63C1796.51 1229.48 1796.99 1229.15 1797.33 1228.7L1809.32 1213C1811.02 1210.79 1813.66 1209.49 1816.46 1209.5H1854.3C1857.4 1209.47 1860.28 1211.05 1861.91 1213.67L1871.23 1228.53C1871.5 1228.95 1871.88 1229.29 1872.34 1229.5L1883.14 1234.4C1885.31 1235.39 1886.7 1237.56 1886.7 1239.94V1248.3C1886.7 1249.9 1886.05 1251.43 1884.91 1252.55C1883.77 1253.66 1882.23 1254.28 1880.63 1254.25H1877.92C1877.12 1247.01 1871.01 1241.54 1863.73 1241.54C1856.46 1241.54 1850.34 1247.01 1849.55 1254.25H1807.16C1806.36 1247.01 1800.25 1241.54 1792.97 1241.54C1785.69 1241.54 1779.58 1247.01 1778.78 1254.25H1777.52C1775.92 1254.28 1774.38 1253.66 1773.23 1252.55C1772.09 1251.43 1771.45 1249.9 1771.44 1248.3V1240.98Z" fill="#F9D2CF"/>
<g clip-path="url(#clip1)">
<path d="M69.6918 171.079C69.7211 171.038 72.6818 166.871 76.4157 164.786C79.1876 163.238 83.9445 164.058 85.5393 164.503L87.8991 165.167L88.5765 162.811C89.0355 161.216 90.8331 156.736 93.6051 155.188C95.9473 153.88 99.7067 154.263 101.778 154.682L115.728 179.665C117.713 183.219 122.219 184.496 125.773 182.512C129.327 180.527 130.605 176.021 128.62 172.466L126.22 168.169L121.923 170.568L124.323 174.866C124.984 176.051 124.558 177.553 123.374 178.214C122.189 178.876 120.687 178.45 120.025 177.265L106.075 152.282C106.807 150.296 108.453 146.897 110.794 145.59C113.566 144.042 118.323 144.862 119.918 145.307L122.278 145.971L122.955 143.615C123.414 142.02 125.212 137.54 127.984 135.992C131.709 133.912 136.795 133.574 136.869 133.57L140.784 133.34L138.871 129.913C128.052 110.538 104.94 104.934 85.104 114.724L82.6729 110.37L78.3756 112.769L80.8067 117.123C62.0593 128.877 54.714 151.496 65.529 170.865L67.4387 174.278L69.6918 171.079ZM86.0321 156.374C81.7401 147.135 76.9249 129.271 83.3968 121.762L98.8129 149.371C96.4106 149.278 93.5859 149.562 91.2056 150.891C88.899 152.179 87.2089 154.337 86.0321 156.374ZM103.11 146.972L87.6941 119.363C97.5248 117.786 110.177 131.285 115.778 139.766C113.425 139.698 110.702 140.005 108.395 141.293C106.015 142.622 104.291 144.877 103.11 146.972ZM132.632 129.216C130.528 129.648 127.904 130.399 125.584 131.695C123.139 133.06 121.387 135.403 120.205 137.544C114.677 129.036 105.915 119.615 96.4488 115.855C110.491 112.659 124.481 117.587 132.632 129.216ZM75.8175 127.375C74.0522 137.407 77.4751 149.808 81.8178 158.978C79.3748 158.861 76.4612 159.123 74.0162 160.489C71.6965 161.784 69.6796 163.624 68.2083 165.188C62.5853 152.148 65.7296 137.653 75.8175 127.375Z" fill="#F9D2CF"/>
</g>
<defs>
<clipPath id="clip0">
<rect width="111" height="87" fill="white" transform="translate(101 761.713)"/>
</clipPath>
<clipPath id="clip1">
<rect width="84" height="84" fill="white" transform="translate(43.8535 132.045) rotate(-29.1776)"/>
</clipPath>
</defs>
</svg>
