<svg width="216" height="50" viewBox="0 0 216 50" fill="none" xmlns="http://www.w3.org/2000/svg">
<g clip-path="url(#clip0)">
<path d="M51.8268 24.1438C51.8268 25.7184 52.6414 26.6954 53.9614 26.6954C55.2813 26.6954 56.0959 25.7184 56.0959 24.1438V13.7109H62.0721V24.1438C62.0721 28.8703 59.2386 32.399 53.9614 32.399C48.6814 32.399 45.8506 28.873 45.8506 24.1438V13.7109H51.8268V24.1438Z" fill="white"/>
<path d="M76.3177 13.5633V19.0408H71.8927V23.9181C71.8927 26.0203 72.6696 26.3944 75.0757 26.4698C75.5032 26.4698 75.9682 26.4321 76.3957 26.3944V31.9473H72.9035C68.1693 31.9473 65.9165 28.8707 65.9165 25.4173V9.21094H71.933V13.5633H76.3177Z" fill="white"/>
<path d="M88.9315 13.2617C94.1335 13.2617 98.6741 17.5764 98.6741 22.8305C98.6741 28.0846 94.1335 32.3993 88.9315 32.3993C83.7295 32.3993 79.1889 28.0846 79.1889 22.8305C79.1889 17.5764 83.7295 13.2617 88.9315 13.2617ZM88.9315 26.6957C91.1037 26.6957 92.6952 24.9327 92.6952 22.8305C92.6952 20.7283 91.1037 18.9653 88.9315 18.9653C86.7566 18.9653 85.1678 20.7283 85.1678 22.8305C85.1651 24.9327 86.7566 26.6957 88.9315 26.6957Z" fill="white"/>
<path d="M102.088 39.8312V22.1202C102.088 16.2658 107.29 13.2646 112.801 13.2646C118.818 13.2646 123.165 17.3909 123.165 22.8711C123.165 29.1373 118.041 32.4022 113.113 32.4022C111.64 32.4022 110.67 32.1761 110.086 31.9527V26.3972C110.551 26.661 111.328 26.9221 112.689 26.9221C115.095 26.9221 116.958 25.2344 116.958 22.8308C116.958 20.4271 115.095 18.7421 112.689 18.7421C109.739 18.7421 108.301 20.769 108.301 23.5817V39.8312H102.088Z" fill="#E1251B"/>
<path d="M127.276 31.9499V5.68213H133.486V31.9499H127.276Z" fill="#E1251B"/>
<path d="M152.465 31.9498V23.5438C152.465 20.3165 150.914 18.7419 148.081 18.7419C145.831 18.7419 143.812 20.4296 143.812 22.7202C143.812 25.4979 145.909 26.9218 147.925 26.9218C149.167 26.9218 150.215 26.658 150.914 26.3969V31.3496C149.75 32.1382 148.43 32.3993 146.683 32.3993C142.726 32.3993 137.602 29.1343 137.602 22.8682C137.602 17.3907 141.949 13.2617 147.965 13.2617C153.826 13.2617 158.678 16.3383 158.678 22.1172V31.9498H152.465Z" fill="#E1251B"/>
<path d="M162.633 31.9498V21.517C162.633 16.7878 165.466 13.2617 170.744 13.2617C176.021 13.2617 178.854 16.7878 178.854 21.517V31.9498H172.878V21.517C172.878 19.9397 172.064 18.9653 170.744 18.9653C169.424 18.9653 168.609 19.9397 168.609 21.517V31.9498H162.633Z" fill="#E1251B"/>
<path d="M191.78 25.3071L189.411 21.7056L194.495 18.4784C193.562 17.9158 192.826 17.8404 192.089 17.8404C189.527 17.8404 188.129 20.3544 188.129 22.532C188.129 24.7822 189.799 27.1482 192.32 27.1482C194.648 27.1482 196.939 25.159 197.869 23.0569L202.332 25.2721C200.547 29.3984 196.587 32.4022 191.89 32.4022C186.688 32.4022 182.148 28.0875 182.148 22.8334C182.148 17.5794 186.688 13.2646 191.89 13.2646C196.237 13.2646 199.108 15.5149 201.127 19.0813L191.78 25.3071Z" fill="#E1251B"/>
<path d="M215.456 13.5633V19.0408H211.031V23.9181C211.031 26.0203 211.808 26.3944 214.214 26.4698C214.642 26.4698 215.107 26.4321 215.534 26.3944V31.9473H212.039C207.305 31.9473 205.052 28.8707 205.052 25.4173V9.21094H211.069V13.5633H215.456Z" fill="#E1251B"/>
<path d="M42.7167 2.08949C37.5389 -3.09462 24.3498 1.70459 13.2604 12.8076C2.16821 23.9133 -2.62513 37.1186 2.55264 42.3027C6.99112 46.7466 17.3252 43.8477 27.1753 35.9235C28.4335 34.9141 29.6835 33.8213 30.9121 32.6504C30.9121 32.6504 36.5389 27.5175 40.8644 20.0912C40.9585 19.9297 41.0526 19.7817 41.1521 19.639C45.2276 12.2505 46.0906 5.46751 42.7167 2.08949ZM37.3615 20.7022C37.1303 21.0764 36.8883 21.4505 36.6356 21.8246C36.6329 21.83 36.6303 21.8381 36.6222 21.8435C36.5684 21.9269 36.5093 22.0157 36.4474 22.0992C36.4448 22.1099 36.4367 22.118 36.4313 22.1288C36.3722 22.2149 36.313 22.3037 36.2512 22.3899C36.2485 22.3926 36.2458 22.4006 36.2404 22.4033C36.0469 22.6833 35.8479 22.9686 35.6436 23.2485V23.2512C35.5791 23.3427 35.5146 23.4289 35.4474 23.5204C35.442 23.5338 35.4312 23.5473 35.4205 23.5554C35.3614 23.6361 35.3049 23.7142 35.2458 23.7949C35.2323 23.8084 35.2242 23.8245 35.2108 23.8407C35.1517 23.9187 35.0925 23.9995 35.0334 24.0775C35.0226 24.091 35.0146 24.1045 35.0038 24.1152C34.7941 24.3925 34.5817 24.6697 34.3613 24.9442C34.3559 24.9577 34.3452 24.9658 34.3398 24.9765C34.2753 25.0546 34.2134 25.1354 34.1489 25.2134C34.1328 25.2349 34.1166 25.2565 34.1005 25.2753C34.0467 25.3453 33.9876 25.4153 33.9338 25.4853L33.8747 25.5526C33.8209 25.6225 33.7618 25.6925 33.708 25.7598C33.6892 25.7813 33.6731 25.8056 33.6569 25.8244C33.5924 25.9025 33.5279 25.9805 33.4634 26.0559C33.4526 26.0667 33.4446 26.0774 33.4338 26.0909C33.2833 26.2712 33.1273 26.4516 32.9741 26.6319C32.958 26.6508 32.9418 26.6696 32.9257 26.6911C32.8639 26.7611 32.8074 26.8311 32.7456 26.8984C32.7241 26.928 32.6972 26.9522 32.6757 26.9791C32.6219 27.041 32.5681 27.1029 32.5144 27.1622C32.4875 27.1945 32.4633 27.2241 32.4364 27.2537C32.3827 27.3129 32.3289 27.3721 32.2751 27.434C32.2482 27.4636 32.224 27.4932 32.1972 27.5175C32.138 27.5848 32.0816 27.6493 32.0224 27.7139C32.0009 27.7355 31.9794 27.7597 31.9579 27.7812C31.7993 27.9562 31.638 28.1338 31.474 28.3061C31.4525 28.333 31.4256 28.3573 31.4041 28.3842C31.3449 28.4461 31.2885 28.508 31.232 28.5645C31.1998 28.5968 31.1702 28.6291 31.1406 28.6614C31.0869 28.7152 31.0331 28.7718 30.982 28.8256C30.9498 28.8579 30.9175 28.8929 30.8852 28.9252C30.8342 28.979 30.7777 29.0355 30.7266 29.0894C30.6944 29.1217 30.6648 29.154 30.6325 29.1863C30.5734 29.2455 30.5169 29.302 30.4578 29.3639C30.4309 29.3908 30.4067 29.4151 30.3798 29.4447C30.2938 29.5281 30.2078 29.6169 30.1244 29.7004C30.0061 29.8188 29.8852 29.9372 29.7669 30.0557C29.7481 30.0745 29.7292 30.0934 29.705 30.1149C29.5895 30.2279 29.4739 30.341 29.3556 30.454C29.3394 30.4702 29.3206 30.489 29.3018 30.5052C29.0572 30.7447 28.8098 30.9762 28.5598 31.205C28.5491 31.2158 28.541 31.2239 28.5302 31.2346C28.4039 31.3504 28.2748 31.4661 28.1512 31.5845C28.1458 31.5899 28.1377 31.598 28.1324 31.6007C27.7345 31.9614 27.3393 32.3113 26.9387 32.6531C17.723 40.5423 7.78688 43.627 3.66294 39.4953C-0.944908 34.8818 3.43442 23.0224 13.4405 13.0014C23.4492 2.98312 35.2968 -1.40426 39.902 3.20922C43.1764 6.47956 41.929 13.389 37.3615 20.7022Z" fill="#E1251B"/>
<path d="M30.7851 11.1706C30.2636 10.4142 29.6318 9.7817 28.8871 9.27029C28.1424 8.76157 27.215 8.50586 26.1047 8.50586C24.946 8.50586 23.9889 8.77772 23.2335 9.32143C22.4754 9.86514 21.8517 10.4815 21.3543 11.1679L6.13824 32.6499H14.827L25.9622 16.8849L30.2178 23.1699C30.6184 23.7379 31.0378 24.3489 31.476 24.9976C31.7287 25.3744 31.9626 25.7109 32.1804 26.0123C33.9332 23.9774 35.4682 21.8833 36.7398 19.7973L30.7851 11.1706Z" fill="white"/>
<path d="M22.4565 26.5344L18.0181 32.6499H25.3734C26.7498 31.5274 28.1075 30.3027 29.4194 28.9865C30.2125 28.1925 30.9974 27.3527 31.726 26.5317L22.4565 26.5344Z" fill="white"/>
<path d="M45.6086 32.6525H30.9114C30.9114 32.6525 36.5381 27.5196 40.8637 20.0933C40.9578 19.9318 41.0519 19.7838 41.1513 19.6411C40.5196 20.7878 39.8098 21.9452 39.0275 23.1106L45.6086 32.6525Z" fill="#E1251B"/>
<path d="M30.9114 32.6523C29.6828 33.8232 28.4327 34.916 27.1746 35.9254L30.9114 32.6523Z" fill="#E1251B"/>
<path d="M123.138 43.3035H124.722V47.7717H123.138V47.2764C122.802 47.699 122.348 47.9116 121.772 47.9116C121.447 47.9116 121.149 47.8524 120.877 47.734C120.606 47.6156 120.366 47.4487 120.165 47.2333C119.963 47.018 119.805 46.765 119.692 46.4743C119.579 46.1836 119.522 45.8687 119.522 45.5241C119.522 45.2038 119.576 44.9024 119.686 44.6144C119.797 44.3264 119.95 44.076 120.146 43.8607C120.342 43.6454 120.579 43.4758 120.85 43.352C121.122 43.2282 121.423 43.1636 121.754 43.1636C122.31 43.1636 122.773 43.3574 123.135 43.7477V43.3035H123.138ZM121.154 45.5241C121.154 45.6695 121.181 45.8041 121.232 45.9279C121.286 46.0517 121.356 46.1621 121.445 46.2536C121.533 46.3478 121.641 46.4178 121.767 46.4716C121.891 46.5227 122.028 46.5497 122.17 46.5497C122.31 46.5497 122.442 46.5227 122.566 46.4716C122.689 46.4205 122.797 46.3478 122.888 46.2536C122.977 46.1621 123.049 46.0544 123.106 45.9306C123.16 45.8095 123.189 45.6776 123.189 45.5376C123.189 45.3976 123.162 45.2657 123.106 45.1419C123.049 45.0181 122.977 44.9078 122.888 44.8162C122.799 44.7247 122.692 44.6521 122.566 44.5982C122.442 44.5471 122.307 44.5202 122.17 44.5202C122.025 44.5202 121.891 44.5471 121.767 44.5982C121.643 44.6494 121.536 44.722 121.445 44.8162C121.356 44.9105 121.283 45.0154 121.232 45.1339C121.181 45.2577 121.154 45.3869 121.154 45.5241Z" fill="white"/>
<path d="M125.789 43.3034H127.364V43.8687C127.579 43.6076 127.797 43.4326 128.018 43.3411C128.238 43.2523 128.496 43.2065 128.792 43.2065C129.104 43.2065 129.372 43.2577 129.596 43.36C129.819 43.4622 130.01 43.6049 130.166 43.7906C130.292 43.9414 130.381 44.1109 130.426 44.2967C130.472 44.4824 130.496 44.695 130.496 44.9319V47.7716H128.921V45.516C128.921 45.2953 128.905 45.1176 128.872 44.9803C128.84 44.8431 128.784 44.7354 128.703 44.6546C128.633 44.5847 128.555 44.5362 128.469 44.5066C128.383 44.477 128.289 44.4635 128.19 44.4635C127.923 44.4635 127.719 44.5443 127.577 44.7031C127.434 44.8619 127.364 45.0907 127.364 45.3868V47.7716H125.789V43.3034Z" fill="white"/>
<path d="M133.007 47.1603L130.851 43.3032H132.676L133.867 45.5938L135.023 43.3032H136.833L133.249 50H131.483L133.007 47.1603Z" fill="white"/>
<path d="M138.594 43.3032L139.664 45.653L140.777 43.3032H141.769L142.881 45.723L144.003 43.3032H145.75L143.419 47.7714H142.368L141.255 45.3247L140.193 47.7714H139.123L136.835 43.3032H138.594Z" fill="white"/>
<path d="M146.29 40.5444H147.866V43.8713C148.081 43.6102 148.298 43.4353 148.519 43.3437C148.739 43.2522 148.997 43.2092 149.293 43.2092C149.855 43.2092 150.28 43.3653 150.567 43.6748C150.855 43.9844 150.998 44.4043 150.998 44.9318V47.7715H149.422V45.5159C149.422 45.2898 149.403 45.1068 149.368 44.9668C149.334 44.8268 149.277 44.7192 149.194 44.6438C149.054 44.5227 148.887 44.4608 148.688 44.4608C148.422 44.4608 148.218 44.5415 148.075 44.7003C147.933 44.8591 147.863 45.0879 147.863 45.384V47.7688H146.288V40.5444H146.29Z" fill="white"/>
<path d="M153.482 45.8041C153.482 46.4824 153.802 46.8216 154.439 46.8216C154.78 46.8216 155.038 46.6816 155.213 46.4044H156.735C156.428 47.4272 155.659 47.9359 154.431 47.9359C154.054 47.9359 153.707 47.8794 153.396 47.7663C153.084 47.6533 152.815 47.4918 152.592 47.2818C152.369 47.0719 152.197 46.8243 152.073 46.5336C151.952 46.2429 151.89 45.9172 151.89 45.5592C151.89 45.1878 151.947 44.8513 152.065 44.5525C152.18 44.2538 152.347 44.0007 152.56 43.7908C152.775 43.5808 153.033 43.422 153.336 43.3063C153.64 43.1932 153.984 43.1367 154.366 43.1367C154.742 43.1367 155.081 43.1932 155.385 43.3063C155.686 43.4193 155.941 43.5835 156.151 43.7989C156.361 44.0142 156.519 44.2753 156.63 44.5875C156.74 44.8971 156.794 45.247 156.794 45.6373V45.8014H153.482V45.8041ZM155.326 44.889C155.272 44.6683 155.167 44.4906 155.003 44.3587C154.842 44.2241 154.643 44.1595 154.412 44.1595C154.167 44.1595 153.971 44.2241 153.815 44.3507C153.659 44.4772 153.565 44.6575 153.525 44.8917H155.326V44.889Z" fill="white"/>
<path d="M157.692 43.3032H159.267V44.0353C159.436 43.7688 159.641 43.5643 159.885 43.4216C160.13 43.279 160.412 43.209 160.738 43.209C160.778 43.209 160.824 43.209 160.872 43.209C160.92 43.209 160.977 43.2144 161.041 43.2278V44.7351C160.832 44.6302 160.606 44.579 160.364 44.579C159.998 44.579 159.724 44.6867 159.541 44.9047C159.358 45.1227 159.267 45.4404 159.267 45.8576V47.774H157.692V43.3032Z" fill="white"/>
<path d="M163.213 45.8041C163.213 46.4824 163.533 46.8216 164.171 46.8216C164.512 46.8216 164.77 46.6816 164.945 46.4044H166.466C166.16 47.4272 165.391 47.9359 164.162 47.9359C163.786 47.9359 163.439 47.8794 163.127 47.7663C162.816 47.6533 162.547 47.4918 162.324 47.2818C162.1 47.0719 161.928 46.8243 161.805 46.5336C161.684 46.2429 161.622 45.9172 161.622 45.5592C161.622 45.1878 161.678 44.8513 161.797 44.5525C161.912 44.2538 162.079 44.0007 162.291 43.7908C162.506 43.5808 162.765 43.422 163.068 43.3063C163.372 43.1932 163.716 43.1367 164.098 43.1367C164.474 43.1367 164.813 43.1932 165.117 43.3063C165.418 43.4193 165.673 43.5835 165.883 43.7989C166.093 44.0142 166.251 44.2753 166.362 44.5875C166.472 44.8971 166.526 45.247 166.526 45.6373V45.8014H163.213V45.8041ZM165.058 44.889C165.004 44.6683 164.899 44.4906 164.735 44.3587C164.574 44.2241 164.375 44.1595 164.144 44.1595C163.899 44.1595 163.703 44.2241 163.547 44.3507C163.391 44.4772 163.297 44.6575 163.256 44.8917H165.058V44.889Z" fill="white"/>
<path d="M167.91 46.1079H169.389L167.789 48.9907H166.781L167.91 46.1079Z" fill="white"/>
<path d="M176.782 43.3035H178.365V47.7717H176.782V47.2764C176.446 47.699 175.991 47.9116 175.416 47.9116C175.091 47.9116 174.792 47.8524 174.521 47.734C174.249 47.6156 174.01 47.4487 173.808 47.2333C173.607 47.018 173.448 46.765 173.335 46.4743C173.222 46.1836 173.166 45.8687 173.166 45.5241C173.166 45.2038 173.22 44.9024 173.33 44.6144C173.44 44.3264 173.593 44.076 173.79 43.8607C173.986 43.6454 174.222 43.4758 174.494 43.352C174.765 43.2282 175.066 43.1636 175.397 43.1636C175.954 43.1636 176.416 43.3574 176.779 43.7477V43.3035H176.782ZM174.798 45.5241C174.798 45.6695 174.825 45.8041 174.876 45.9279C174.929 46.0517 174.999 46.1621 175.088 46.2536C175.177 46.3478 175.284 46.4178 175.411 46.4716C175.534 46.5227 175.671 46.5497 175.814 46.5497C175.954 46.5497 176.085 46.5227 176.209 46.4716C176.333 46.4205 176.44 46.3478 176.532 46.2536C176.62 46.1621 176.693 46.0544 176.749 45.9306C176.803 45.8095 176.833 45.6776 176.833 45.5376C176.833 45.3976 176.806 45.2657 176.749 45.1419C176.693 45.0181 176.62 44.9078 176.532 44.8162C176.443 44.7247 176.335 44.6521 176.209 44.5982C176.085 44.5471 175.951 44.5202 175.814 44.5202C175.669 44.5202 175.534 44.5471 175.411 44.5982C175.287 44.6494 175.179 44.722 175.088 44.8162C174.999 44.9105 174.927 45.0154 174.876 45.1339C174.825 45.2577 174.798 45.3869 174.798 45.5241Z" fill="white"/>
<path d="M179.435 43.3034H181.01V43.8687C181.226 43.6076 181.443 43.4326 181.664 43.3411C181.884 43.2523 182.142 43.2065 182.438 43.2065C182.75 43.2065 183.019 43.2577 183.242 43.36C183.465 43.4622 183.656 43.6049 183.812 43.7906C183.938 43.9414 184.027 44.1109 184.072 44.2967C184.118 44.4824 184.142 44.695 184.142 44.9319V47.7716H182.567V45.516C182.567 45.2953 182.551 45.1176 182.519 44.9803C182.486 44.8431 182.43 44.7354 182.349 44.6546C182.279 44.5847 182.201 44.5362 182.115 44.5066C182.029 44.477 181.935 44.4635 181.836 44.4635C181.57 44.4635 181.365 44.5443 181.223 44.7031C181.08 44.8619 181.01 45.0907 181.01 45.3868V47.7716H179.435V43.3034Z" fill="white"/>
<path d="M186.653 47.1603L184.497 43.3032H186.323L187.514 45.5938L188.67 43.3032H190.479L186.895 50H185.129L186.653 47.1603Z" fill="white"/>
<path d="M192.775 44.6198V47.7717H191.199V44.6198H190.678V43.3063H191.199V41.9658H192.775V43.3063H193.67V44.6198H192.775Z" fill="white"/>
<path d="M194.28 41.5889C194.28 41.4678 194.304 41.3521 194.35 41.2444C194.396 41.1367 194.46 41.0425 194.541 40.9618C194.622 40.881 194.716 40.8164 194.823 40.7707C194.931 40.7249 195.044 40.7007 195.167 40.7007C195.291 40.7007 195.404 40.7249 195.511 40.7707C195.619 40.8164 195.713 40.881 195.794 40.9618C195.874 41.0425 195.939 41.1367 195.985 41.2444C196.03 41.3521 196.054 41.4651 196.054 41.5889C196.054 41.71 196.03 41.8258 195.985 41.9335C195.939 42.0411 195.874 42.1353 195.794 42.2161C195.713 42.2968 195.619 42.3614 195.511 42.4072C195.404 42.4529 195.291 42.4772 195.167 42.4772C195.044 42.4772 194.931 42.4529 194.823 42.4072C194.716 42.3614 194.622 42.2968 194.541 42.2161C194.46 42.1353 194.396 42.0411 194.35 41.9335C194.304 41.8258 194.28 41.71 194.28 41.5889ZM195.958 43.3035V47.7716H194.382V43.3035H195.958Z" fill="white"/>
<path d="M197.036 43.3032H198.611V43.8523C199.041 43.4404 199.522 43.2332 200.055 43.2332C200.716 43.2332 201.219 43.5131 201.568 44.0703C201.923 43.5077 202.426 43.2251 203.082 43.2251C203.292 43.2251 203.488 43.2547 203.673 43.3166C203.859 43.3785 204.017 43.4727 204.152 43.6046C204.286 43.7365 204.391 43.9061 204.469 44.1133C204.547 44.3233 204.587 44.5736 204.587 44.8697V47.7686H203.012V45.5668C203.012 45.3407 202.996 45.155 202.964 45.0097C202.931 44.8643 202.886 44.7513 202.824 44.6705C202.762 44.5898 202.692 44.5332 202.611 44.5063C202.531 44.4767 202.442 44.4633 202.351 44.4633C201.845 44.4633 201.595 44.832 201.595 45.5695V47.7713H200.02V45.5695C200.02 45.3434 200.006 45.155 199.977 45.007C199.947 44.8589 199.904 44.7405 199.85 44.6544C199.797 44.5682 199.724 44.509 199.638 44.4767C199.549 44.4444 199.45 44.4283 199.334 44.4283C199.235 44.4283 199.143 44.4417 199.057 44.4713C198.971 44.5009 198.893 44.5575 198.826 44.6409C198.759 44.7243 198.708 44.8401 198.67 44.9881C198.633 45.1362 198.614 45.33 198.614 45.5668V47.7686H197.038V43.3032H197.036Z" fill="white"/>
<path d="M207.082 45.8041C207.082 46.4824 207.402 46.8216 208.039 46.8216C208.381 46.8216 208.639 46.6816 208.813 46.4044H210.335C210.029 47.4272 209.26 47.9359 208.031 47.9359C207.655 47.9359 207.308 47.8794 206.996 47.7663C206.684 47.6533 206.415 47.4918 206.192 47.2818C205.969 47.0719 205.797 46.8243 205.673 46.5336C205.552 46.2429 205.491 45.9172 205.491 45.5592C205.491 45.1878 205.547 44.8513 205.665 44.5525C205.781 44.2538 205.948 44.0007 206.163 43.7908C206.378 43.5808 206.636 43.422 206.94 43.3063C207.243 43.1932 207.588 43.1367 207.969 43.1367C208.346 43.1367 208.684 43.1932 208.988 43.3063C209.289 43.4193 209.545 43.5835 209.754 43.7989C209.964 44.0142 210.123 44.2753 210.233 44.5875C210.343 44.8971 210.397 45.247 210.397 45.6373V45.8014H207.082V45.8041ZM208.926 44.889C208.873 44.6683 208.768 44.4906 208.604 44.3587C208.442 44.2241 208.243 44.1595 208.012 44.1595C207.768 44.1595 207.571 44.2241 207.415 44.3507C207.26 44.4772 207.165 44.6575 207.125 44.8917H208.926V44.889Z" fill="white"/>
</g>
<defs>
<clipPath id="clip0">
<rect width="215.068" height="50" fill="white" transform="translate(0.465759)"/>
</clipPath>
</defs>
</svg>
