<svg width="140" height="91" viewBox="0 0 140 91" fill="none" xmlns="http://www.w3.org/2000/svg">
<path opacity="0.5" d="M135.212 90.1153H0.00256348C0.00256348 77.6864 16.9887 74.7613 11.5242 64.8088C5.48933 53.8176 6.62277 39.1955 22.0138 42.4289C23.4704 42.7351 24.6723 42.9309 25.6667 42.9586C38.4365 43.3145 16.5626 20.0474 31.5191 8.95324C47.643 -3.00518 49.0415 2.73663 58.6542 11.2936C68.2669 19.8506 86.7518 8.4491 114.489 13.9194C119.556 14.9191 123.081 16.8194 124.604 19.8506C130.168 30.9218 121.116 50.9805 131.905 61.5263C144.981 74.3068 139.221 87.289 135.212 90.1153Z" fill="url(#paint0_linear)"/>
<path d="M122.077 40.1039C120.757 38.5467 120.533 36.2276 121.409 33.2162C122.606 29.0999 122.459 25.9294 121.663 23.6814C122.693 22.8897 123.805 21.8281 124.963 20.4143C124.848 20.2234 124.729 20.0345 124.603 19.8505C123.48 21.245 122.409 22.2916 121.421 23.0721C120.815 21.6888 119.952 20.719 119.038 20.1508C117.203 19.0118 115.012 19.2887 113.322 20.8715C112.382 21.7534 112.051 22.8491 112.413 23.8809C112.829 25.0604 114.067 25.8606 115.642 25.97C116.508 26.0302 118.524 25.9075 121.13 24.0761C121.825 26.1871 121.921 29.1639 120.795 33.0359C119.852 36.2682 120.12 38.7867 121.589 40.52C122.677 41.8025 124.253 42.4656 125.779 42.7958C125.809 42.5813 125.843 42.3648 125.875 42.1482C124.474 41.8414 123.042 41.2407 122.077 40.1039ZM115.687 25.3266C114.369 25.2364 113.347 24.5995 113.018 23.6643C112.743 22.8875 113.014 22.0404 113.759 21.3431C114.634 20.5237 115.658 20.1055 116.675 20.1055C117.371 20.1055 118.062 20.3007 118.705 20.6998C119.554 21.2252 120.352 22.1455 120.905 23.4648C118.412 25.2599 116.502 25.3847 115.687 25.3266Z" fill="white"/>
<g opacity="0.5">
<path d="M19.5153 28.6208C19.584 28.1953 19.2966 27.7944 18.8734 27.7253C18.4502 27.6563 18.0514 27.9452 17.9827 28.3707C17.914 28.7962 18.2015 29.1971 18.6247 29.2661C19.0479 29.3352 19.4467 29.0463 19.5153 28.6208Z" fill="#FFBED1"/>
<path d="M24.994 28.6208C25.0627 28.1953 24.7753 27.7944 24.3521 27.7253C23.9289 27.6563 23.5301 27.9452 23.4614 28.3707C23.3927 28.7962 23.6802 29.1971 24.1034 29.2661C24.5266 29.3352 24.9254 29.0463 24.994 28.6208Z" fill="#FFBED1"/>
<path d="M30.4755 28.5722C30.5177 28.1432 30.2061 27.7611 29.7795 27.7186C29.3528 27.6762 28.9727 27.9895 28.9305 28.4184C28.8882 28.8473 29.1999 29.2295 29.6265 29.2719C30.0532 29.3144 30.4333 29.0011 30.4755 28.5722Z" fill="#FFBED1"/>
<path d="M35.954 28.5724C35.9962 28.1435 35.6846 27.7613 35.2579 27.7189C34.8313 27.6764 34.4512 27.9897 34.4089 28.4187C34.3667 28.8476 34.6783 29.2297 35.105 29.2722C35.5316 29.3146 35.9117 29.0013 35.954 28.5724Z" fill="#FFBED1"/>
<path d="M41.4385 28.537C41.4622 28.1066 41.1344 27.7384 40.7063 27.7145C40.2782 27.6907 39.9119 28.0203 39.8882 28.4507C39.8645 28.8811 40.1923 29.2493 40.6204 29.2731C41.0485 29.297 41.4148 28.9674 41.4385 28.537Z" fill="#FFBED1"/>
<path d="M46.9084 28.6208C46.9771 28.1953 46.6897 27.7944 46.2665 27.7253C45.8433 27.6563 45.4445 27.9452 45.3758 28.3707C45.3071 28.7962 45.5946 29.1971 46.0178 29.2661C46.441 29.3352 46.8398 29.0463 46.9084 28.6208Z" fill="#FFBED1"/>
<path d="M19.0436 23.7101C19.4404 23.5466 19.6301 23.0907 19.4675 22.6919C19.3049 22.293 18.8514 22.1022 18.4547 22.2657C18.058 22.4292 17.8682 22.8851 18.0308 23.2839C18.1935 23.6828 18.6469 23.8736 19.0436 23.7101Z" fill="#FFBED1"/>
<path d="M24.5221 23.7108C24.9188 23.5473 25.1086 23.0915 24.9459 22.6926C24.7833 22.2938 24.3299 22.103 23.9332 22.2665C23.5364 22.43 23.3467 22.8858 23.5093 23.2847C23.6719 23.6835 24.1254 23.8743 24.5221 23.7108Z" fill="#FFBED1"/>
<path d="M29.8826 23.7488C30.3 23.6504 30.559 23.2304 30.4612 22.8107C30.3633 22.3911 29.9455 22.1306 29.5281 22.229C29.1107 22.3275 28.8516 22.7474 28.9495 23.1671C29.0474 23.5868 29.4651 23.8472 29.8826 23.7488Z" fill="#FFBED1"/>
<path d="M35.361 23.7488C35.7785 23.6504 36.0375 23.2304 35.9396 22.8107C35.8417 22.3911 35.424 22.1306 35.0066 22.229C34.5891 22.3275 34.3301 22.7474 34.428 23.1671C34.5259 23.5868 34.9436 23.8472 35.361 23.7488Z" fill="#FFBED1"/>
<path d="M40.7601 23.7615C41.1856 23.709 41.4883 23.3196 41.4361 22.8917C41.3839 22.4639 40.9965 22.1596 40.571 22.2121C40.1454 22.2646 39.8427 22.654 39.8949 23.0818C39.9472 23.5097 40.3345 23.814 40.7601 23.7615Z" fill="#FFBED1"/>
<path d="M46.4367 23.7101C46.8334 23.5466 47.0232 23.0907 46.8606 22.6919C46.698 22.293 46.2445 22.1022 45.8478 22.2657C45.4511 22.4292 45.2613 22.8851 45.4239 23.2839C45.5865 23.6828 46.04 23.8736 46.4367 23.7101Z" fill="#FFBED1"/>
<path d="M18.7484 18.2599C19.1771 18.2599 19.5247 17.9105 19.5247 17.4795C19.5247 17.0484 19.1771 16.699 18.7484 16.699C18.3196 16.699 17.9721 17.0484 17.9721 17.4795C17.9721 17.9105 18.3196 18.2599 18.7484 18.2599Z" fill="#FFBED1"/>
<path d="M24.2266 18.2599C24.6554 18.2599 25.003 17.9105 25.003 17.4795C25.003 17.0484 24.6554 16.699 24.2266 16.699C23.7979 16.699 23.4503 17.0484 23.4503 17.4795C23.4503 17.9105 23.7979 18.2599 24.2266 18.2599Z" fill="#FFBED1"/>
<path d="M29.7055 18.2599C30.1343 18.2599 30.4818 17.9105 30.4818 17.4795C30.4818 17.0484 30.1343 16.699 29.7055 16.699C29.2768 16.699 28.9292 17.0484 28.9292 17.4795C28.9292 17.9105 29.2768 18.2599 29.7055 18.2599Z" fill="#FFBED1"/>
<path d="M35.1838 18.2599C35.6125 18.2599 35.9601 17.9105 35.9601 17.4795C35.9601 17.0484 35.6125 16.699 35.1838 16.699C34.755 16.699 34.4074 17.0484 34.4074 17.4795C34.4074 17.9105 34.755 18.2599 35.1838 18.2599Z" fill="#FFBED1"/>
<path d="M40.6626 18.2599C41.0913 18.2599 41.4389 17.9105 41.4389 17.4795C41.4389 17.0484 41.0913 16.699 40.6626 16.699C40.2338 16.699 39.8863 17.0484 39.8863 17.4795C39.8863 17.9105 40.2338 18.2599 40.6626 18.2599Z" fill="#FFBED1"/>
<path d="M46.1409 18.2599C46.5696 18.2599 46.9172 17.9105 46.9172 17.4795C46.9172 17.0484 46.5696 16.699 46.1409 16.699C45.7121 16.699 45.3646 17.0484 45.3646 17.4795C45.3646 17.9105 45.7121 18.2599 46.1409 18.2599Z" fill="#FFBED1"/>
<path d="M18.7484 12.7526C19.1771 12.7526 19.5247 12.4032 19.5247 11.9721C19.5247 11.5411 19.1771 11.1917 18.7484 11.1917C18.3196 11.1917 17.9721 11.5411 17.9721 11.9721C17.9721 12.4032 18.3196 12.7526 18.7484 12.7526Z" fill="#FFBED1"/>
<path d="M24.2266 12.7526C24.6554 12.7526 25.003 12.4032 25.003 11.9721C25.003 11.5411 24.6554 11.1917 24.2266 11.1917C23.7979 11.1917 23.4503 11.5411 23.4503 11.9721C23.4503 12.4032 23.7979 12.7526 24.2266 12.7526Z" fill="#FFBED1"/>
<path d="M29.7055 12.7526C30.1343 12.7526 30.4818 12.4032 30.4818 11.9721C30.4818 11.5411 30.1343 11.1917 29.7055 11.1917C29.2768 11.1917 28.9292 11.5411 28.9292 11.9721C28.9292 12.4032 29.2768 12.7526 29.7055 12.7526Z" fill="#FFBED1"/>
<path d="M35.1838 12.7526C35.6125 12.7526 35.9601 12.4032 35.9601 11.9721C35.9601 11.5411 35.6125 11.1917 35.1838 11.1917C34.755 11.1917 34.4074 11.5411 34.4074 11.9721C34.4074 12.4032 34.755 12.7526 35.1838 12.7526Z" fill="#FFBED1"/>
<path d="M40.6626 12.7526C41.0913 12.7526 41.4389 12.4032 41.4389 11.9721C41.4389 11.5411 41.0913 11.1917 40.6626 11.1917C40.2338 11.1917 39.8863 11.5411 39.8863 11.9721C39.8863 12.4032 40.2338 12.7526 40.6626 12.7526Z" fill="#FFBED1"/>
<path d="M46.1409 12.7526C46.5696 12.7526 46.9172 12.4032 46.9172 11.9721C46.9172 11.5411 46.5696 11.1917 46.1409 11.1917C45.7121 11.1917 45.3646 11.5411 45.3646 11.9721C45.3646 12.4032 45.7121 12.7526 46.1409 12.7526Z" fill="#FFBED1"/>
<path d="M19.5151 6.58454C19.581 6.15863 19.2909 5.75968 18.8673 5.69347C18.4436 5.62727 18.0468 5.91887 17.981 6.34478C17.9151 6.7707 18.2052 7.16964 18.6288 7.23585C19.0524 7.30206 19.4493 7.01046 19.5151 6.58454Z" fill="#FFBED1"/>
<path d="M24.9938 6.58527C25.0596 6.15935 24.7696 5.76041 24.346 5.6942C23.9223 5.62799 23.5255 5.91959 23.4596 6.34551C23.3938 6.77142 23.6838 7.17037 24.1075 7.23658C24.5311 7.30279 24.9279 7.01119 24.9938 6.58527Z" fill="#FFBED1"/>
<path d="M30.4802 6.49501C30.4972 6.06431 30.1637 5.70129 29.7353 5.68417C29.3069 5.66706 28.9458 6.00234 28.9288 6.43304C28.9118 6.86374 29.2453 7.22676 29.6737 7.24388C30.1021 7.26099 30.4632 6.92571 30.4802 6.49501Z" fill="#FFBED1"/>
<path d="M35.9585 6.49525C35.9755 6.06455 35.642 5.70153 35.2136 5.68441C34.7852 5.6673 34.4241 6.00258 34.4071 6.43328C34.3901 6.86398 34.7236 7.22701 35.152 7.24412C35.5804 7.26123 35.9415 6.92595 35.9585 6.49525Z" fill="#FFBED1"/>
<path d="M41.4381 6.47513C41.4449 6.04413 41.1029 5.68917 40.6742 5.68232C40.2455 5.67546 39.8924 6.01931 39.8856 6.45031C39.8788 6.88131 40.2208 7.23627 40.6495 7.24312C41.0782 7.24998 41.4312 6.90613 41.4381 6.47513Z" fill="#FFBED1"/>
<path d="M46.9082 6.58576C46.974 6.15985 46.684 5.76091 46.2603 5.6947C45.8367 5.62849 45.4399 5.92009 45.374 6.346C45.3082 6.77192 45.5982 7.17086 46.0219 7.23707C46.4455 7.30328 46.8423 7.01168 46.9082 6.58576Z" fill="#FFBED1"/>
<path d="M18.7484 1.73698C19.1771 1.73698 19.5247 1.38755 19.5247 0.956503C19.5247 0.525457 19.1771 0.176025 18.7484 0.176025C18.3196 0.176025 17.9721 0.525457 17.9721 0.956503C17.9721 1.38755 18.3196 1.73698 18.7484 1.73698Z" fill="#FFBED1"/>
<path d="M24.2266 1.73698C24.6554 1.73698 25.003 1.38755 25.003 0.956503C25.003 0.525457 24.6554 0.176025 24.2266 0.176025C23.7979 0.176025 23.4503 0.525457 23.4503 0.956503C23.4503 1.38755 23.7979 1.73698 24.2266 1.73698Z" fill="#FFBED1"/>
<path d="M30.4783 1.01665C30.5122 0.586937 30.1932 0.210984 29.7657 0.176932C29.3383 0.142879 28.9644 0.463622 28.9305 0.893331C28.8966 1.32304 29.2157 1.69899 29.6431 1.73304C30.0705 1.7671 30.4445 1.44635 30.4783 1.01665Z" fill="#FFBED1"/>
<path d="M35.9566 1.01665C35.9904 0.586937 35.6714 0.210984 35.244 0.176931C34.8166 0.142879 34.4426 0.463621 34.4087 0.89333C34.3749 1.32304 34.6939 1.69899 35.1213 1.73304C35.5487 1.7671 35.9227 1.44635 35.9566 1.01665Z" fill="#FFBED1"/>
<path d="M41.44 0.975706C41.4504 0.54479 41.1114 0.186972 40.6828 0.176497C40.2542 0.166023 39.8982 0.506859 39.8878 0.937775C39.8774 1.36869 40.2164 1.72651 40.645 1.73698C41.0737 1.74746 41.4296 1.40662 41.44 0.975706Z" fill="#FFBED1"/>
<path d="M46.1409 1.73698C46.5696 1.73698 46.9172 1.38755 46.9172 0.956503C46.9172 0.525457 46.5696 0.176025 46.1409 0.176025C45.7121 0.176025 45.3646 0.525457 45.3646 0.956503C45.3646 1.38755 45.7121 1.73698 46.1409 1.73698Z" fill="#FFBED1"/>
</g>
<g opacity="0.5">
<path d="M109.234 71.2802C109.319 70.9164 109.095 70.5517 108.733 70.4658C108.371 70.3799 108.009 70.6052 107.923 70.9691C107.838 71.333 108.062 71.6976 108.424 71.7835C108.786 71.8694 109.149 71.6441 109.234 71.2802Z" fill="#FFBED1"/>
<path d="M113.998 71.2242C114.057 70.8551 113.808 70.5074 113.441 70.4475C113.074 70.3876 112.728 70.6382 112.668 71.0073C112.609 71.3764 112.858 71.7241 113.225 71.784C113.592 71.8439 113.938 71.5933 113.998 71.2242Z" fill="#FFBED1"/>
<path d="M118.557 71.5949C118.82 71.3305 118.82 70.9019 118.557 70.6375C118.294 70.3731 117.868 70.3731 117.605 70.6375C117.342 70.9019 117.342 71.3305 117.605 71.5949C117.868 71.8593 118.294 71.8593 118.557 71.5949Z" fill="#FFBED1"/>
<path d="M123.492 71.281C123.577 70.9171 123.353 70.5525 122.991 70.4665C122.629 70.3806 122.267 70.6059 122.181 70.9698C122.096 71.3337 122.32 71.6983 122.682 71.7842C123.044 71.8702 123.406 71.6448 123.492 71.281Z" fill="#FFBED1"/>
<path d="M128.255 71.2239C128.314 70.8549 128.065 70.5071 127.698 70.4472C127.331 70.3873 126.985 70.638 126.925 71.007C126.866 71.3761 127.115 71.7238 127.482 71.7837C127.849 71.8436 128.195 71.593 128.255 71.2239Z" fill="#FFBED1"/>
<path d="M132.814 71.5949C133.077 71.3305 133.077 70.9019 132.814 70.6375C132.551 70.3731 132.125 70.3732 131.862 70.6375C131.599 70.9019 131.599 71.3305 131.862 71.5949C132.125 71.8593 132.551 71.8593 132.814 71.5949Z" fill="#FFBED1"/>
<path d="M109.052 66.8166C109.315 66.5522 109.315 66.1236 109.052 65.8592C108.789 65.5948 108.363 65.5948 108.1 65.8592C107.837 66.1236 107.837 66.5522 108.1 66.8166C108.363 67.081 108.789 67.081 109.052 66.8166Z" fill="#FFBED1"/>
<path d="M113.591 66.963C113.934 66.8199 114.097 66.4239 113.955 66.0785C113.813 65.7331 113.419 65.569 113.075 65.7121C112.732 65.8552 112.569 66.2512 112.711 66.5967C112.853 66.9421 113.247 67.1061 113.591 66.963Z" fill="#FFBED1"/>
<path d="M118.739 66.5026C118.825 66.1388 118.6 65.7742 118.238 65.6882C117.877 65.6023 117.514 65.8276 117.428 66.1915C117.343 66.5554 117.567 66.92 117.929 67.0059C118.291 67.0918 118.654 66.8665 118.739 66.5026Z" fill="#FFBED1"/>
<path d="M123.309 66.8166C123.572 66.5522 123.572 66.1236 123.309 65.8592C123.046 65.5948 122.62 65.5948 122.357 65.8592C122.094 66.1236 122.094 66.5522 122.357 66.8166C122.62 67.081 123.046 67.081 123.309 66.8166Z" fill="#FFBED1"/>
<path d="M127.848 66.9625C128.192 66.8194 128.355 66.4234 128.213 66.078C128.07 65.7326 127.676 65.5685 127.333 65.7116C126.989 65.8547 126.826 66.2507 126.968 66.5962C127.111 66.9416 127.505 67.1056 127.848 66.9625Z" fill="#FFBED1"/>
<path d="M132.997 66.5036C133.082 66.1398 132.858 65.7751 132.496 65.6892C132.134 65.6033 131.772 65.8286 131.686 66.1925C131.601 66.5564 131.825 66.921 132.187 67.0069C132.549 67.0928 132.911 66.8675 132.997 66.5036Z" fill="#FFBED1"/>
<path d="M109.052 62.0387C109.315 61.7744 109.315 61.3457 109.052 61.0814C108.789 60.817 108.363 60.817 108.1 61.0814C107.837 61.3457 107.837 61.7744 108.1 62.0387C108.363 62.3031 108.789 62.3031 109.052 62.0387Z" fill="#FFBED1"/>
<path d="M113.591 62.1847C113.934 62.0416 114.097 61.6456 113.955 61.3002C113.813 60.9547 113.419 60.7907 113.075 60.9338C112.732 61.0769 112.569 61.4729 112.711 61.8183C112.853 62.1638 113.247 62.3278 113.591 62.1847Z" fill="#FFBED1"/>
<path d="M118.739 61.7248C118.825 61.361 118.601 60.9963 118.239 60.9104C117.877 60.8245 117.514 61.0498 117.429 61.4137C117.343 61.7775 117.567 62.1422 117.929 62.2281C118.291 62.314 118.654 62.0887 118.739 61.7248Z" fill="#FFBED1"/>
<path d="M123.309 62.0392C123.572 61.7749 123.572 61.3462 123.309 61.0819C123.046 60.8175 122.62 60.8175 122.357 61.0819C122.094 61.3462 122.094 61.7749 122.357 62.0392C122.62 62.3036 123.046 62.3036 123.309 62.0392Z" fill="#FFBED1"/>
<path d="M127.848 62.1847C128.192 62.0416 128.355 61.6456 128.213 61.3002C128.07 60.9547 127.676 60.7907 127.333 60.9338C126.989 61.0769 126.826 61.4729 126.968 61.8183C127.111 62.1638 127.505 62.3278 127.848 62.1847Z" fill="#FFBED1"/>
<path d="M132.997 61.7258C133.083 61.3619 132.858 60.9973 132.497 60.9114C132.135 60.8254 131.772 61.0508 131.686 61.4146C131.601 61.7785 131.825 62.1431 132.187 62.2291C132.549 62.315 132.912 62.0897 132.997 61.7258Z" fill="#FFBED1"/>
<path d="M109.234 56.946C109.32 56.5821 109.096 56.2175 108.734 56.1316C108.372 56.0457 108.009 56.271 107.924 56.6349C107.838 56.9987 108.062 57.3634 108.424 57.4493C108.786 57.5352 109.149 57.3099 109.234 56.946Z" fill="#FFBED1"/>
<path d="M113.997 56.8905C114.056 56.5214 113.807 56.1737 113.44 56.1138C113.073 56.0539 112.727 56.3045 112.667 56.6735C112.608 57.0426 112.857 57.3904 113.224 57.4503C113.591 57.5101 113.937 57.2595 113.997 56.8905Z" fill="#FFBED1"/>
<path d="M118.557 57.2614C118.82 56.997 118.82 56.5684 118.557 56.304C118.294 56.0397 117.867 56.0397 117.605 56.304C117.342 56.5684 117.342 56.997 117.605 57.2614C117.867 57.5258 118.294 57.5258 118.557 57.2614Z" fill="#FFBED1"/>
<path d="M123.492 56.947C123.578 56.5831 123.353 56.2185 122.991 56.1326C122.63 56.0466 122.267 56.272 122.181 56.6358C122.096 56.9997 122.32 57.3643 122.682 57.4503C123.044 57.5362 123.407 57.3108 123.492 56.947Z" fill="#FFBED1"/>
<path d="M128.254 56.8904C128.314 56.5214 128.065 56.1737 127.697 56.1138C127.33 56.0539 126.984 56.3045 126.925 56.6735C126.865 57.0426 127.115 57.3904 127.482 57.4502C127.849 57.5101 128.195 57.2595 128.254 56.8904Z" fill="#FFBED1"/>
<path d="M132.814 57.2614C133.077 56.997 133.077 56.5684 132.814 56.304C132.551 56.0397 132.125 56.0397 131.862 56.304C131.599 56.5684 131.599 56.997 131.862 57.2614C132.125 57.5258 132.551 57.5258 132.814 57.2614Z" fill="#FFBED1"/>
<path d="M109.052 52.4836C109.315 52.2192 109.315 51.7906 109.052 51.5262C108.789 51.2618 108.363 51.2618 108.1 51.5262C107.837 51.7906 107.837 52.2192 108.1 52.4836C108.363 52.7479 108.789 52.7479 109.052 52.4836Z" fill="#FFBED1"/>
<path d="M113.591 52.6288C113.934 52.4857 114.097 52.0897 113.955 51.7443C113.813 51.3988 113.419 51.2348 113.075 51.3779C112.732 51.521 112.569 51.917 112.711 52.2624C112.853 52.6079 113.247 52.7719 113.591 52.6288Z" fill="#FFBED1"/>
<path d="M118.74 52.1687C118.825 51.8048 118.601 51.4402 118.239 51.3542C117.877 51.2683 117.515 51.4936 117.429 51.8575C117.344 52.2214 117.568 52.586 117.93 52.6719C118.292 52.7578 118.654 52.5325 118.74 52.1687Z" fill="#FFBED1"/>
<path d="M123.309 52.4836C123.572 52.2192 123.572 51.7906 123.309 51.5262C123.046 51.2618 122.62 51.2618 122.357 51.5262C122.094 51.7906 122.094 52.2192 122.357 52.4836C122.62 52.7479 123.046 52.748 123.309 52.4836Z" fill="#FFBED1"/>
<path d="M127.848 52.6288C128.192 52.4857 128.355 52.0897 128.212 51.7443C128.07 51.3988 127.676 51.2348 127.333 51.3779C126.989 51.521 126.826 51.917 126.968 52.2624C127.11 52.6079 127.504 52.7719 127.848 52.6288Z" fill="#FFBED1"/>
<path d="M132.998 52.1694C133.083 51.8055 132.859 51.4409 132.497 51.355C132.135 51.2691 131.773 51.4944 131.687 51.8583C131.602 52.2221 131.826 52.5867 132.188 52.6727C132.55 52.7586 132.912 52.5333 132.998 52.1694Z" fill="#FFBED1"/>
<path d="M109.052 47.7057C109.315 47.4414 109.315 47.0127 109.052 46.7483C108.789 46.484 108.363 46.484 108.1 46.7484C107.837 47.0127 107.837 47.4414 108.1 47.7057C108.363 47.9701 108.789 47.9701 109.052 47.7057Z" fill="#FFBED1"/>
<path d="M113.59 47.851C113.934 47.7079 114.097 47.3119 113.955 46.9664C113.813 46.621 113.419 46.457 113.075 46.6001C112.731 46.7431 112.568 47.1392 112.711 47.4846C112.853 47.83 113.247 47.9941 113.59 47.851Z" fill="#FFBED1"/>
<path d="M118.74 47.3903C118.825 47.0265 118.601 46.6619 118.239 46.5759C117.878 46.49 117.515 46.7153 117.429 47.0792C117.344 47.4431 117.568 47.8077 117.93 47.8936C118.292 47.9795 118.655 47.7542 118.74 47.3903Z" fill="#FFBED1"/>
<path d="M123.309 47.706C123.572 47.4416 123.572 47.013 123.309 46.7486C123.046 46.4842 122.62 46.4842 122.357 46.7486C122.094 47.013 122.094 47.4416 122.357 47.706C122.62 47.9704 123.046 47.9704 123.309 47.706Z" fill="#FFBED1"/>
<path d="M127.848 47.8507C128.192 47.7076 128.355 47.3116 128.212 46.9662C128.07 46.6208 127.676 46.4567 127.333 46.5998C126.989 46.7429 126.826 47.1389 126.968 47.4843C127.11 47.8298 127.504 47.9938 127.848 47.8507Z" fill="#FFBED1"/>
<path d="M132.998 47.3916C133.083 47.0277 132.859 46.6631 132.497 46.5771C132.135 46.4912 131.773 46.7166 131.687 47.0804C131.602 47.4443 131.826 47.8089 132.188 47.8948C132.55 47.9807 132.912 47.7554 132.998 47.3916Z" fill="#FFBED1"/>
</g>
<path d="M42.2566 86.8601C42.2465 86.962 42.2375 87.0666 42.2269 87.1685C42.1208 88.2877 41.9844 89.3653 41.883 90.1154H34.018C33.699 89.7094 33.3578 89.2666 33.0082 88.8009L33.0076 88.7982C32.9455 88.7182 32.8866 88.6371 32.824 88.5544C32.4913 88.1069 32.1549 87.6411 31.8264 87.1711C31.542 86.7652 31.2629 86.3554 30.9976 85.9479C30.9424 85.8636 30.8877 85.7793 30.8331 85.695C30.5152 85.1999 30.2197 84.7081 29.9597 84.2359C29.8997 84.1298 29.8429 84.0241 29.7856 83.918C29.766 83.8785 29.7426 83.8364 29.7251 83.7964C29.7251 83.7964 29.7251 83.7964 29.7251 83.7937C28.4543 81.3066 28.8087 79.1279 30.1406 78.4536C30.2197 78.4141 30.3025 78.3783 30.3895 78.3501C30.9318 78.1655 31.6068 78.205 32.3799 78.5299C32.668 78.6499 32.9508 78.8403 33.2231 79.0852C33.378 79.2218 33.5298 79.3722 33.6778 79.5408C33.7452 79.6171 33.8126 79.6982 33.8805 79.7798C34.4674 80.5021 35.0076 81.4357 35.4889 82.4221H35.4915C35.5303 82.5069 35.5706 82.5896 35.612 82.6745C36.063 83.6262 36.4562 84.6131 36.7789 85.4949C36.8117 85.5808 36.8425 85.6683 36.8728 85.7531C37.4172 87.2789 37.7319 88.4307 37.7319 88.4307C37.7319 88.4307 37.6443 87.6891 37.5976 86.6622C37.5939 86.5715 37.5891 86.4781 37.5844 86.3827C37.5493 85.4469 37.5525 84.3245 37.6735 83.3093V83.3066C37.6841 83.1962 37.7011 83.0895 37.7181 82.9801C37.812 82.3362 37.9643 81.7537 38.193 81.3114C38.5894 80.5427 39.2585 80.3101 39.9441 80.4445C40.0354 80.4626 40.1298 80.4883 40.2227 80.5197C41.259 80.867 42.2619 82.0065 42.3755 83.3674C42.3776 83.3781 42.3808 83.3914 42.3808 83.4026C42.3866 83.4923 42.3914 83.5851 42.3946 83.6838L42.3951 83.6865C42.4291 84.5571 42.3617 85.7147 42.2566 86.8601Z" fill="url(#paint1_linear)"/>
<path d="M23.6419 87.9451C23.6419 87.9461 23.6419 87.9461 23.6419 87.9461C23.6339 87.9616 23.6233 87.9782 23.6137 87.9936C23.5888 88.0342 23.5633 88.0752 23.5363 88.1158C23.4195 88.2977 23.289 88.4871 23.1484 88.6765C23.1245 88.709 23.1001 88.741 23.0762 88.7736C22.9595 88.9299 22.8369 89.0857 22.7127 89.2409C22.5689 89.4207 22.4219 89.5983 22.2776 89.7685C22.2505 89.8 22.224 89.8309 22.1975 89.8613L22.197 89.8624C22.1227 89.9494 22.0489 90.0336 21.9773 90.1153H18.6077C18.5876 89.8149 18.5626 89.3977 18.5504 88.9662C18.5488 88.9251 18.5478 88.8824 18.5462 88.8419C18.5335 88.3809 18.5377 87.9152 18.5733 87.5679L18.5738 87.5668C18.577 87.5274 18.5817 87.49 18.5865 87.4548C18.587 87.45 18.5881 87.4452 18.5897 87.4409C18.6704 86.8995 19.1018 86.4695 19.5257 86.3575C19.5634 86.3479 19.6016 86.3398 19.6388 86.335C19.9163 86.2988 20.1779 86.4097 20.3169 86.7282C20.3965 86.9112 20.4427 87.1486 20.4634 87.4089C20.4676 87.4532 20.4719 87.4959 20.4729 87.5407V87.5412C20.4947 87.9515 20.4666 88.4001 20.4278 88.7741C20.4236 88.8125 20.4193 88.8499 20.4151 88.8856C20.3694 89.2953 20.3153 89.5898 20.3153 89.5898C20.3153 89.5898 20.4713 89.1374 20.7292 88.541C20.7435 88.5084 20.7584 88.4743 20.7738 88.4401C20.9256 88.0961 21.1092 87.7114 21.3145 87.3417C21.3331 87.3092 21.3517 87.2772 21.3692 87.2446H21.3702C21.5888 86.8627 21.8292 86.5026 22.0834 86.2294C22.1126 86.199 22.1418 86.1681 22.1704 86.1398C22.2341 86.0763 22.2988 86.0198 22.3646 85.9691C22.4803 85.8784 22.5986 85.8096 22.717 85.769C23.0348 85.6597 23.306 85.6613 23.5182 85.7498C23.5522 85.7632 23.5846 85.7797 23.6153 85.7978C24.1306 86.1019 24.2155 86.9832 23.6419 87.9451Z" fill="url(#paint2_linear)"/>
<path d="M123.678 79.7932C123.454 80.0098 123.087 79.806 123.155 79.4992C123.597 77.5174 124.361 73.6838 124.043 72.0172C123.782 70.6553 122.993 71.0756 122.392 71.6417C122.172 71.8497 121.815 71.663 121.867 71.3648C122.148 69.6726 122.522 66.5944 121.656 65.8694C120.934 65.2645 120.215 66.6286 119.75 67.8321C119.628 68.1431 119.172 68.0764 119.146 67.7419C118.933 65.0153 118.235 59.8545 116.01 59.8545C113.784 59.8545 113.088 65.0153 112.875 67.7419C112.85 68.0764 112.391 68.1431 112.271 67.8321C111.806 66.6286 111.085 65.2645 110.364 65.8694C109.5 66.5944 109.871 69.6726 110.155 71.3648C110.203 71.663 109.847 71.8497 109.628 71.6417C109.028 71.0751 108.236 70.6547 107.978 72.0172C107.661 73.6838 108.422 77.5168 108.866 79.4992C108.935 79.806 108.567 80.0098 108.341 79.7932C107.678 79.1541 106.843 78.6969 106.803 80.396C106.735 83.2341 113.225 90.1149 113.225 90.1149H118.796C118.796 90.1149 125.284 83.2336 125.218 80.396C125.177 78.6974 124.341 79.1541 123.678 79.7932ZM109.997 75.8188C109.997 75.8188 108.452 74.317 109.017 73.3285C109.583 72.3394 110.549 74.3517 109.997 75.8188ZM111.679 69.7932C111.679 69.7932 110.599 68.7422 110.993 68.0514C111.388 67.361 112.064 68.7678 111.679 69.7932ZM120.33 69.7932C119.946 68.7678 120.62 67.3605 121.015 68.0514C121.41 68.7422 120.33 69.7932 120.33 69.7932ZM122.052 75.8188C121.5 74.3517 122.466 72.3394 123.031 73.3285C123.597 74.317 122.052 75.8188 122.052 75.8188Z" fill="url(#paint3_linear)"/>
<path d="M116.376 71.4364V90.1155H115.642V71.4364C115.642 71.2326 115.807 71.0693 116.009 71.0693C116.212 71.0693 116.376 71.2326 116.376 71.4364Z" fill="white"/>
<line x1="125.875" y1="90.4172" x2="9.53935" y2="90.4172" stroke="#E2E2E2"/>
<g clip-path="url(#clip0)">
<path opacity="0.3" d="M104.232 72.5688C104.777 71.1801 104.902 70.5009 106.331 70.2539C107.76 70.007 109.013 68.1589 108.949 66.7357C108.885 65.3124 110.254 65.0189 111.428 63.8942C112.602 62.7694 110.827 63.1608 110.296 60.4708C109.765 57.7813 109.804 56.2651 112.059 55.9716C114.313 55.6782 116.563 57.7323 115.927 59.1996C115.291 60.6668 114.802 62.8674 115.781 63.6987C116.759 64.5301 117.288 66.8777 115.532 67.758C113.776 68.6384 112.068 73.2324 109.499 72.2559C106.929 71.2794 110.927 75.1219 108.83 75.3727C106.735 75.6227 103.213 74.7933 103.457 73.8922C103.702 72.9911 104.232 72.5688 104.232 72.5688Z" fill="#2B2B2B"/>
<path d="M112.272 74.2391L109.141 64.2449L109.082 64.2832L112.168 74.2391H112.272Z" fill="#4C4C4D"/>
<path d="M98.7506 72.7631C98.7506 72.7631 108.1 64.7639 109.64 63.5888C109.758 63.4983 109.903 63.45 110.052 63.45H110.176L99.0679 73.0251L98.7506 72.7631Z" fill="#E61D32"/>
<path opacity="0.1" d="M115.531 89.5434C115.531 89.7325 101.81 89.8859 87.3381 89.8859C72.866 89.8859 61.1337 89.7325 61.1337 89.5434C61.1337 89.3543 72.866 89.2009 87.3381 89.2009C101.81 89.2009 115.531 89.3543 115.531 89.5434Z" fill="black"/>
<path d="M66.3372 83.3801L64.6746 83.83L64.6607 83.8331L62.2855 84.4508L61.6257 83.6742L64.3554 82.9679L64.8398 82.8428V82.8422L66.0959 82.5173L66.3372 83.3801Z" fill="#545554"/>
<path d="M106.867 85.1345H100.868V85.548H106.867V85.1345Z" fill="#363635"/>
<path d="M96.4036 85.9364C96.2999 85.9364 96.2371 85.9345 96.2258 85.9339L94.9188 85.8968L94.925 85.6662L96.2327 85.7032C96.2465 85.7039 97.5623 85.7416 98.7619 85.4268L98.8203 85.6505C97.8388 85.9081 96.8095 85.9364 96.4036 85.9364Z" fill="black"/>
<path d="M93.2549 85.937H88.1242C87.6397 85.937 87.247 85.5443 87.247 85.0598H93.2549V85.937Z" fill="#434343"/>
<path d="M95.4774 85.0598H93.9046V86.1676H95.4774V85.0598Z" fill="#434343"/>
<path d="M101.53 85.8943H98.7939C98.5017 85.8943 98.2623 85.6549 98.2623 85.3627V85.1566C98.2623 84.8644 98.5017 84.625 98.7939 84.625H101.53C101.823 84.625 102.062 84.8644 102.062 85.1566V85.3627C102.063 85.6549 101.823 85.8943 101.53 85.8943Z" fill="#434343"/>
<path d="M62.8887 71.5032L62.3546 80.0679C62.3376 80.3375 62.2044 80.5744 62.0064 80.7302C61.9631 80.7648 61.9166 80.795 61.8676 80.8213C61.7224 80.8993 61.5553 80.9388 61.3793 80.9275L58.8973 80.773C58.7383 80.7629 58.5912 80.7126 58.4656 80.6328C58.4178 80.6027 58.3726 80.5675 58.3311 80.5292C58.1432 80.3551 58.0288 80.105 58.0358 79.8329C58.0358 79.821 58.0364 79.8097 58.037 79.7977L58.5711 71.233C58.5919 70.9012 58.7892 70.6197 59.065 70.4752C59.0902 70.462 59.1166 70.4494 59.143 70.4387L59.1442 70.4381C59.2517 70.3941 59.3685 70.3702 59.4898 70.3709C59.508 70.3709 59.5269 70.3715 59.5451 70.3727L62.0272 70.5273C62.0693 70.5298 62.1108 70.5355 62.151 70.5437C62.5946 70.6335 62.917 71.0407 62.8887 71.5032Z" fill="#383838"/>
<path d="M60.0104 70.4003L59.3624 80.7996L59.5361 80.8104L60.1842 70.4111L60.0104 70.4003Z" fill="#525252"/>
<path d="M61.4344 70.4892L60.7863 80.8884L60.96 80.8993L61.6081 70.5L61.4344 70.4892Z" fill="#525252"/>
<path d="M62.8787 71.6553L62.868 71.8244L62.2026 71.4172L61.5321 71.6918L61.353 71.7647L60.7542 72.0097L60.1044 71.6553L59.936 71.5636L59.3409 71.2387L58.5479 71.6063L58.558 71.436L59.346 71.0703L59.9467 71.3983L60.1151 71.4901L60.763 71.8438L61.3637 71.5981L61.5421 71.5253L62.2158 71.2494L62.8787 71.6553Z" fill="#525352"/>
<path d="M59.0651 70.4764C59.0902 70.4632 59.1166 70.4506 59.143 70.4399L59.0651 70.4764Z" fill="#525352"/>
<path d="M62.151 70.5449L61.5886 70.7749L61.4101 70.8477L60.8107 71.0928L60.1609 70.7384L59.9925 70.6467L59.4892 70.3721C59.5074 70.3721 59.5263 70.3727 59.5445 70.374L59.8392 70.3922L60.0026 70.4814L60.171 70.5731L60.8195 70.9269L61.4196 70.6812L61.598 70.6083L61.8236 70.516L62.0266 70.5285C62.0699 70.531 62.1108 70.5367 62.151 70.5449Z" fill="#525352"/>
<path d="M62.8146 72.6833L62.8039 72.8529L62.1384 72.4457L61.468 72.7197L61.2889 72.7932L60.69 73.0383L60.0403 72.6839L59.8719 72.5921L59.2768 72.2667L58.4832 72.6349L58.4939 72.464L59.2818 72.0989L59.8819 72.4263L60.051 72.5186L60.6988 72.8724L61.2996 72.6267L61.478 72.5532L62.1516 72.278L62.8146 72.6833Z" fill="#525352"/>
<path d="M62.7498 73.7118L62.7398 73.8815L62.0743 73.4737L61.4039 73.7483L61.2248 73.8212L60.6259 74.0668L59.9762 73.7118L59.8078 73.6201L59.2127 73.2952L58.4191 73.6628L58.4298 73.4925L59.2178 73.1274L59.8179 73.4548L59.9863 73.5466L60.6347 73.9003L61.2355 73.6553L61.4139 73.5817L62.0875 73.3059L62.7498 73.7118Z" fill="#525352"/>
<path d="M62.6858 74.7405L62.6757 74.9102L62.0103 74.5024L61.3398 74.777L61.1607 74.8499L60.5619 75.0949L59.9121 74.7405L59.7437 74.6488L59.1486 74.3239L58.355 74.6915L58.3657 74.5212L59.1537 74.1555L59.7538 74.4835L59.9222 74.5753L60.5707 74.929L61.1714 74.6833L61.3498 74.6105L62.0235 74.3346L62.6858 74.7405Z" fill="#525352"/>
<path d="M62.6216 75.7687L62.6116 75.9384L61.9461 75.5312L61.2757 75.8052L61.0966 75.8787L60.4977 76.1237L59.848 75.7693L59.6796 75.6776L59.0839 75.3521L58.2909 75.7203L58.3016 75.5494L59.0896 75.1843L59.6897 75.5117L59.8581 75.6041L60.5065 75.9578L61.1073 75.7122L61.2857 75.6386L61.9593 75.3634L62.6216 75.7687Z" fill="#525352"/>
<path d="M62.5576 76.7973L62.5475 76.9669L61.8821 76.5591L61.2116 76.8337L61.0325 76.9066L60.4337 77.1523L59.7839 76.7979L59.6155 76.7055L59.0198 76.3807L58.2268 76.7483L58.2375 76.578L59.0255 76.2129L59.6256 76.5403L59.794 76.632L60.4424 76.9858L61.0432 76.7407L61.2216 76.6672L61.8952 76.3913L62.5576 76.7973Z" fill="#525352"/>
<path d="M62.4935 77.8258L62.4834 77.9955L61.818 77.5877L61.1475 77.8623L60.9684 77.9352L60.3696 78.1802L59.7198 77.8258L59.5514 77.7341L58.9557 77.4092L58.1627 77.7768L58.1734 77.6065L58.9614 77.2415L59.5615 77.5688L59.7299 77.6606L60.3784 78.0144L60.9791 77.7687L61.1575 77.6958L61.8312 77.4199L62.4935 77.8258Z" fill="#525352"/>
<path d="M62.4294 78.8539L62.4193 79.0236L61.7539 78.6164L61.0834 78.891L60.9043 78.9639L60.3055 79.209L59.6557 78.8545L59.4873 78.7628L58.8916 78.4379L58.0986 78.8055L58.1093 78.6352L58.8973 78.2695L59.4974 78.5969L59.6658 78.6893L60.3143 79.0431L60.915 78.7974L61.0935 78.7238L61.7671 78.4486L62.4294 78.8539Z" fill="#525352"/>
<path d="M62.3653 79.8825L62.3546 80.0521L61.6892 79.645L61.0187 79.9196L60.8402 79.9924L60.2408 80.2375L59.591 79.8831L59.4226 79.7914L58.8269 79.4665L58.0345 79.8341C58.0345 79.8222 58.0352 79.8108 58.0358 79.7989L58.044 79.6638L58.8319 79.2981L59.432 79.6255L59.6004 79.7172L60.2489 80.071L60.849 79.8253L61.0275 79.7524L61.7011 79.4766L62.3653 79.8825Z" fill="#525352"/>
<path d="M59.6765 80.8213L59.3227 80.7993L58.7641 80.4946L58.4656 80.6328C58.4179 80.6027 58.3726 80.5675 58.3311 80.5291L58.7691 80.3262L59.3692 80.6536L59.5376 80.7453L59.6765 80.8213Z" fill="#525352"/>
<path d="M62.0058 80.7303C61.9625 80.7649 61.916 80.795 61.867 80.8214L61.625 80.6731L61.0526 80.9075L60.7083 80.8862L60.7855 80.8541L60.964 80.7812L61.6376 80.5054L62.0058 80.7303Z" fill="#525352"/>
<path d="M64.4609 66.1345L63.6861 74.4699H62.6782C63.0697 70.4709 63.6063 66.6617 63.6063 66.6617C63.7345 66.4041 64.1442 66.2325 64.4609 66.1345Z" fill="#CF192C"/>
<path d="M63.3757 80.0838L63.3933 80.0844H62.2855C62.3264 78.4714 62.4816 76.4788 62.6726 74.5271H63.6818L63.3757 80.0838Z" fill="#CF192C"/>
<path d="M116.292 79.0732H115.254V79.192L114.354 79.1656C114.354 79.1656 114.22 78.5636 113.593 78.0408C112.966 77.5173 108.884 77.6223 107.497 77.6223C106.11 77.6223 105.404 78.3807 105.012 78.972C104.619 79.5627 102.526 82.7636 102.526 82.7636H77.8465L77.7057 82.4695L77.6241 82.2986C77.6241 82.2986 75.2777 78.8112 74.9786 78.4304C74.6795 78.0502 74.2271 77.6694 73.2939 77.452C72.3608 77.2346 68.6377 77.3251 67.8585 77.3251C67.0793 77.3251 66.7444 77.9955 66.7444 77.9955L65.7497 80.0842H63.3933L63.3757 80.0836L63.6817 74.5275H62.6725C62.6744 74.5081 62.6763 74.4892 62.6782 74.4697H63.6861L64.4609 66.1344C64.4728 66.1306 64.4848 66.1268 64.4967 66.1237C64.7041 66.0621 64.8631 66.0332 64.8631 66.0332C64.8631 66.0332 77.0918 66.0332 85.5258 66.0332H93.3434C93.9121 66.0332 94.3482 66.1991 94.5782 66.3109C94.597 66.3197 94.614 66.3285 94.6303 66.3367C94.7139 66.3801 94.7585 66.4102 94.7585 66.4102C94.861 66.4442 94.9822 66.534 95.118 66.6679C95.1022 66.6899 95.0909 66.7194 95.0985 66.7583C95.1167 66.8532 98.4873 72.6016 98.4873 72.6016C98.4873 72.6016 98.5853 72.6581 98.7028 72.6619C98.7342 72.7254 98.7512 72.7593 98.7512 72.7593L101.14 72.9874L101.201 72.9931L113.243 74.1424C114.14 74.6608 114.507 75.521 114.655 76.0809C114.658 76.0909 114.66 76.1004 114.663 76.1104C114.665 76.1205 114.668 76.1299 114.67 76.1399C114.743 76.4303 114.754 76.6263 114.754 76.6263C115.574 77.0354 116.292 79.0732 116.292 79.0732Z" fill="#E61D32"/>
<path d="M65.7497 80.0844L64.8392 82.8423L64.3547 82.9673H63.3223C63.3223 82.9673 62.2849 82.9761 61.5622 82.9673C60.839 82.9585 60.4619 82.3578 60.4619 82.3578V80.0837H65.7497V80.0844Z" fill="#40403F"/>
<path d="M79.1183 85.428H67.2377L66.1582 83.4292L66.3372 83.3808L66.0966 82.518L64.8405 82.8429L65.751 80.085L66.7457 77.9963C66.7457 77.9963 67.0806 77.3258 67.8598 77.3258C68.639 77.3258 72.3621 77.2353 73.2952 77.4527C74.2283 77.6701 74.6814 78.0509 74.9799 78.4311C75.279 78.8113 77.6253 82.2994 77.6253 82.2994L79.1183 85.428Z" fill="#363635"/>
<path d="M79.7404 82.8416L77.8465 82.7637L77.7057 82.4696L77.6241 82.2987C77.6241 82.2987 75.2777 78.8112 74.9786 78.4304C74.6795 78.0502 74.2271 77.6694 73.2939 77.452C72.3608 77.2346 68.6377 77.3251 67.8585 77.3251C67.0793 77.3251 66.7444 77.9956 66.7444 77.9956L65.7497 80.0843H64.06L65.5838 77.0027C65.5838 77.0027 66.0124 75.8666 67.6329 75.9037C69.2535 75.9408 73.3806 75.9785 74.1014 76.1645C74.8228 76.3505 75.2984 76.3134 76.383 77.8039C77.4682 79.2944 79.7404 82.8416 79.7404 82.8416Z" fill="#CF192C"/>
<path d="M79.2572 82.7637H77.8465L77.7032 82.4633C77.6511 82.3533 77.5901 82.2478 77.5223 82.1472C77.0679 81.4724 75.2406 78.7634 74.9792 78.431C74.6801 78.0509 74.2277 77.6701 73.2946 77.4526C72.3614 77.2352 68.6383 77.3257 67.8591 77.3257C67.08 77.3257 66.745 77.9962 66.745 77.9962L65.7503 80.0849H64.5665L65.8615 77.4596C65.8615 77.4596 66.1864 76.4246 67.7354 76.3762C69.2843 76.3279 72.5876 76.3279 74.102 76.6408C74.102 76.6408 74.966 76.713 75.6642 77.6518L79.2572 82.7637Z" fill="#EE2E3F"/>
<path d="M63.2545 75.0833L63.1231 77.412C63.1162 77.5346 63.0113 77.6288 62.8881 77.6219L62.3458 77.5911C62.229 77.5848 62.1385 77.4893 62.136 77.3743L62.9265 77.419L63.0572 75.099L62.266 75.0544L62.2673 75.0274C62.2742 74.9048 62.3791 74.8106 62.5023 74.8175L63.0446 74.8483C63.1671 74.8552 63.2614 74.9608 63.2545 75.0833Z" fill="#40403F"/>
<path d="M63.0572 75.0988L62.9265 77.4188L62.136 77.3742C62.136 77.3685 62.136 77.3622 62.136 77.3566L62.2654 75.0542L63.0572 75.0988Z" fill="#E02C47"/>
<path d="M74.4853 73.122C74.4853 73.2961 74.3433 73.4381 74.1693 73.4381H65.4713C65.2973 73.4381 65.1553 73.2961 65.1553 73.122L65.3155 67.4176C65.3155 67.2436 65.4575 67.1016 65.6316 67.1016H74.1209C74.2949 67.1016 74.437 67.2436 74.437 67.4176L74.4853 73.122Z" fill="#40403F"/>
<path d="M84.6606 73.122C84.6606 73.2961 84.5186 73.4381 84.3445 73.4381H76.6991C76.525 73.4381 76.383 73.2961 76.383 73.122V67.4176C76.383 67.2436 76.525 67.1016 76.6991 67.1016H84.342C84.516 67.1016 84.6581 67.2436 84.6581 67.4176L84.6606 73.122Z" fill="#40403F"/>
<path d="M96.7819 73.3226C96.7762 73.3232 96.7712 73.3232 96.7656 73.3232L90.2518 73.398L89.592 73.4055L89.1453 73.4105L87.8251 73.4256L86.7656 73.4376C86.5916 73.4376 86.4496 73.2956 86.4496 73.1215V67.4171C86.4496 67.2431 86.5916 67.1011 86.7656 67.1011H93.8405C93.8405 67.1011 94.0032 67.1325 94.1565 67.4171L97.0213 72.8903C97.1193 73.0788 96.9937 73.3119 96.7819 73.3226Z" fill="#40403F"/>
<path d="M116.701 83.4687C116.135 84.5269 114.611 84.3793 114.611 84.3793H103.309L101.235 85.428H79.1183L77.8465 82.7637H102.527C102.527 82.7637 104.62 79.5628 105.012 78.9721C105.404 78.3814 106.111 77.6224 107.498 77.6224C108.884 77.6224 112.966 77.5174 113.594 78.0409C114.221 78.5643 114.322 79.0576 114.322 79.0576L115.255 79.0733V80.839C115.255 80.839 115.264 82.5727 115.651 83.0666C116.036 83.5605 116.701 83.4687 116.701 83.4687Z" fill="#363635"/>
<path d="M118.963 81.2318V82.6418C118.963 82.9667 118.115 83.4694 118.115 83.4694H116.7C116.7 83.4694 116.036 83.5611 115.649 83.0672C115.263 82.5733 115.254 80.8397 115.254 80.8397H115.819L115.945 80.5418C118.493 80.4017 118.963 81.2318 118.963 81.2318Z" fill="#40403F"/>
<path d="M116.292 79.0734H115.254L114.321 79.0577C114.321 79.0577 114.221 78.5644 113.593 78.0409C112.966 77.5175 108.884 77.6224 107.497 77.6224C106.11 77.6224 105.404 78.3809 105.012 78.9722C104.62 79.5635 102.526 82.7638 102.526 82.7638H100.311L103.814 77.5207C103.814 77.5207 104.428 76.2388 106.992 76.2388C109.555 76.2388 114.753 76.6271 114.753 76.6271C115.574 77.0355 116.292 79.0734 116.292 79.0734Z" fill="#CF192C"/>
<path d="M115.531 79.0733H115.254L114.321 79.0576C114.321 79.0576 114.221 78.5643 113.593 78.0409C112.966 77.5174 108.884 77.6224 107.497 77.6224C106.11 77.6224 105.404 78.3808 105.012 78.9721C104.62 79.5634 102.526 82.7637 102.526 82.7637H101.17C101.17 82.7637 104.187 78.2275 104.4 77.9196C104.613 77.6123 105.363 76.7722 106.454 76.6892C107.547 76.6063 112.408 76.7954 113.521 76.9852C114.633 77.1743 115.153 77.9674 115.531 79.0733Z" fill="#EE2E3F"/>
<path d="M114.663 76.1111L101.83 75.2722L101.799 75.2703L99.3601 75.1107C99.3588 75.1013 99.3576 75.0919 99.3563 75.0818C99.2225 74.1204 98.7506 72.76 98.7506 72.76L101.139 72.9881L101.201 72.9938L113.242 74.143C114.139 74.6615 114.506 75.5217 114.655 76.0816C114.658 76.0916 114.66 76.1011 114.663 76.1111Z" fill="#EE2E3F"/>
<path d="M114.67 76.14L99.3595 75.139H98.0638V74.3021C98.0606 74.2713 98.0009 73.6617 97.7257 73.0943C97.4498 72.525 94.592 67.1122 94.4173 66.7811H75.4034V74.527H62.6725C62.6744 74.5075 62.6763 74.4887 62.6782 74.4692H75.3456V66.7239H94.4525L94.4607 66.739C94.4908 66.7961 97.4945 72.4842 97.7785 73.0692C98.0644 73.6586 98.1216 74.292 98.1222 74.2983V74.3008V75.0812H99.3626L114.656 76.081C114.658 76.091 114.661 76.1005 114.663 76.1105C114.665 76.1212 114.668 76.1306 114.67 76.14Z" fill="#A51E25"/>
<path d="M83.9304 81.6963H79.9145C79.7015 81.6963 79.3037 81.3042 78.6615 80.4628C78.1286 79.7647 77.538 78.8981 77.0636 78.2019C76.7688 77.7689 76.5137 77.3957 76.3604 77.1915C75.727 76.3501 75.3519 75.5357 75.3481 75.5275L75.3456 75.5219V74.4983H75.4034V75.5093C75.438 75.5828 75.8049 76.3576 76.4063 77.1569C76.5609 77.3624 76.816 77.7363 77.1113 78.1698C77.5857 78.8655 78.1758 79.7313 78.7074 80.4282C79.3207 81.2319 79.7266 81.6391 79.9145 81.6391H83.9304C84.0693 81.6391 84.2081 81.6089 84.3319 81.5524C84.6882 81.389 85.2852 81.017 85.2852 80.3566V66.7529H85.343V80.3566C85.343 81.049 84.7247 81.4361 84.3558 81.6045C84.2251 81.6648 84.0774 81.6963 83.9304 81.6963Z" fill="#A51E25"/>
<path d="M96.5871 81.6963H88.3372C88.0123 81.6963 87.7063 81.5184 87.3733 81.1358C87.071 80.7889 86.765 80.2944 86.425 79.7313C86.0688 79.1419 85.9217 78.5136 85.8614 78.0907C85.7973 77.6445 85.8136 77.3253 85.8149 77.3058V66.7529H85.8727V77.3077V77.3083C85.8727 77.3115 85.8539 77.6313 85.9192 78.0844C85.9789 78.5016 86.1241 79.1212 86.4747 79.7018C87.203 80.907 87.6912 81.6391 88.3378 81.6391H96.5865C96.6009 81.6385 96.9013 81.6215 97.2148 81.47C97.6415 81.2639 97.8897 80.919 97.9532 80.4452C98.1078 79.2921 98.0644 75.153 98.0638 75.1115L98.1216 75.1109C98.1222 75.1524 98.1656 79.2959 98.0104 80.4527C97.9274 81.0692 97.5447 81.3745 97.2381 81.5228C96.9069 81.6818 96.6003 81.6963 96.5871 81.6963Z" fill="#A51E25"/>
<path d="M71.3485 89.7563H70.8402C70.8018 89.7563 70.771 89.7255 70.771 89.6872V79.0413C70.771 79.003 70.8018 78.9722 70.8402 78.9722H71.3485C71.3868 78.9722 71.4176 79.003 71.4176 79.0413V89.6872C71.4183 89.7255 71.3868 89.7563 71.3485 89.7563Z" fill="#464648"/>
<path d="M70.2966 89.703L69.7977 89.6037C69.76 89.5962 69.7361 89.5597 69.743 89.5226L71.8104 79.0797C71.8179 79.042 71.8543 79.0175 71.892 79.025L72.391 79.1243C72.4287 79.1319 72.4526 79.1683 72.4456 79.2054L70.3783 89.6483C70.3708 89.686 70.3343 89.7105 70.2966 89.703Z" fill="#464648"/>
<path d="M69.2259 89.4276L68.7577 89.2291C68.7225 89.214 68.7062 89.1738 68.7213 89.1386L72.8723 79.3372C72.8874 79.302 72.9276 79.2857 72.9634 79.3008L73.4316 79.4993C73.4668 79.5144 73.4831 79.5546 73.468 79.5898L69.317 89.3912C69.3019 89.4264 69.2611 89.4427 69.2259 89.4276Z" fill="#464648"/>
<path d="M68.179 88.9048L67.7649 88.6095C67.7335 88.5875 67.7266 88.5441 67.7486 88.5127L73.9141 79.8399C73.9361 79.8085 73.9795 79.8016 74.0109 79.8236L74.425 80.1189C74.4564 80.1409 74.4633 80.1843 74.4413 80.2157L68.2758 88.8885C68.2531 88.9193 68.2098 88.9268 68.179 88.9048Z" fill="#464648"/>
<path d="M67.2836 88.1824L66.9411 87.806C66.9153 87.7777 66.9172 87.7337 66.9455 87.7079L74.8077 80.5413C74.836 80.5156 74.88 80.5174 74.9057 80.5457L75.2482 80.9221C75.274 80.9504 75.2721 80.9944 75.2438 81.0201L67.3816 88.1867C67.3533 88.2131 67.3093 88.2106 67.2836 88.1824Z" fill="#464648"/>
<path d="M66.6087 87.3584L66.3467 86.9217C66.3272 86.889 66.3379 86.8463 66.3706 86.8268L75.4851 81.3462C75.5178 81.3267 75.5605 81.3374 75.58 81.37L75.842 81.8068C75.8615 81.8394 75.8508 81.8822 75.8181 81.9016L66.7036 87.3823C66.6709 87.4018 66.6282 87.3911 66.6087 87.3584Z" fill="#464648"/>
<path d="M66.0903 86.3717L65.9238 85.8904C65.9112 85.8546 65.9307 85.815 65.9665 85.8024L76.011 82.3137C76.0475 82.3011 76.0865 82.32 76.099 82.3564L76.2655 82.8378C76.2781 82.8736 76.2586 82.9132 76.2228 82.9257L66.1783 86.4145C66.1418 86.427 66.1029 86.4076 66.0903 86.3717Z" fill="#464648"/>
<path d="M65.7805 85.2747L65.7183 84.7688C65.7139 84.7311 65.7409 84.6966 65.7786 84.6915L76.3309 83.3921C76.3686 83.3877 76.4032 83.4147 76.4082 83.4524L76.4704 83.9576C76.4748 83.9953 76.4478 84.0299 76.4101 84.0349L65.8578 85.3344C65.8201 85.34 65.7855 85.313 65.7805 85.2747Z" fill="#464648"/>
<path d="M65.7063 84.1796L65.7478 83.6719C65.751 83.6335 65.7843 83.6053 65.8226 83.6084L76.4189 84.4749C76.4572 84.4781 76.4855 84.5114 76.4823 84.5497L76.4409 85.0574C76.4377 85.0958 76.4044 85.124 76.3661 85.1209L65.7698 84.2544C65.7321 84.2506 65.7032 84.2173 65.7063 84.1796Z" fill="#464648"/>
<path d="M76.2366 85.8717L76.0726 86.353C76.0601 86.3894 76.0211 86.4083 75.9846 86.3964L65.9087 82.9749C65.8722 82.9623 65.8528 82.9234 65.8653 82.8869L66.0293 82.4056C66.0419 82.3691 66.0809 82.3503 66.1173 82.3622L76.1933 85.7837C76.2297 85.7956 76.2492 85.8352 76.2366 85.8717Z" fill="#464648"/>
<path d="M75.8012 86.9362L75.5385 87.3723C75.519 87.4049 75.4763 87.4156 75.4436 87.3961L66.3247 81.9174C66.292 81.8979 66.2813 81.8552 66.3008 81.8225L66.5635 81.3864C66.5829 81.3537 66.6257 81.343 66.6584 81.3625L75.7773 86.8413C75.81 86.8608 75.8207 86.9035 75.8012 86.9362Z" fill="#464648"/>
<path d="M75.2048 87.819L74.8617 88.1947C74.836 88.223 74.792 88.2249 74.7637 88.1991L66.9015 81.0376C66.8732 81.0118 66.8713 80.9678 66.8971 80.9396L67.2402 80.5638C67.266 80.5355 67.3099 80.5336 67.3382 80.5594L75.2011 87.7216C75.2287 87.7467 75.2306 87.7907 75.2048 87.819Z" fill="#464648"/>
<path d="M74.408 88.598L73.9946 88.8959C73.9638 88.9185 73.9204 88.9109 73.8978 88.8801L67.6769 80.2564C67.6543 80.2256 67.6618 80.1822 67.6926 80.1596L68.1061 79.8617C68.1369 79.8391 68.1802 79.8467 68.2028 79.8775L74.4237 88.5012C74.4464 88.5327 74.4394 88.576 74.408 88.598Z" fill="#464648"/>
<path d="M73.446 89.209L72.9798 89.4132C72.9446 89.4283 72.9038 89.4126 72.8887 89.3774L68.6201 79.6402C68.605 79.605 68.6208 79.5641 68.6559 79.5491L69.1222 79.3448C69.1574 79.3297 69.1982 79.3455 69.2133 79.3806L73.4819 89.1179C73.4976 89.1531 73.4812 89.1939 73.446 89.209Z" fill="#464648"/>
<path d="M72.418 89.5942L71.9197 89.6997C71.882 89.7079 71.8455 89.684 71.8374 89.6463L69.6305 79.2461C69.6224 79.2084 69.6462 79.172 69.6839 79.1638L70.1822 79.0582C70.2199 79.0501 70.2564 79.074 70.2646 79.1117L72.4714 89.5119C72.4789 89.5496 72.4551 89.586 72.418 89.5942Z" fill="#464648"/>
<path d="M74.8325 88.1043C76.8984 86.0383 76.8984 82.6887 74.8325 80.6228C72.7665 78.5568 69.4169 78.5568 67.351 80.6228C65.285 82.6887 65.285 86.0383 67.3509 88.1043C69.4169 90.1702 72.7665 90.1702 74.8325 88.1043Z" fill="#464648"/>
<path d="M71.0928 89.2544C73.7938 89.2544 75.9834 87.0648 75.9834 84.3638C75.9834 81.6627 73.7938 79.4731 71.0928 79.4731C68.3917 79.4731 66.2021 81.6627 66.2021 84.3638C66.2021 87.0648 68.3917 89.2544 71.0928 89.2544Z" fill="#3E3E40"/>
<path d="M71.0927 87.4961C72.8227 87.4961 74.2252 86.0936 74.2252 84.3636C74.2252 82.6336 72.8227 81.2312 71.0927 81.2312C69.3627 81.2312 67.9603 82.6336 67.9603 84.3636C67.9603 86.0936 69.3627 87.4961 71.0927 87.4961Z" fill="#A9ACAE"/>
<path d="M69.3302 83.6744H68.1639C68.2337 83.3772 68.3474 83.0975 68.4976 82.8418L69.3302 83.6744Z" fill="#2F2F30"/>
<path d="M70.3625 81.4443V82.6414L69.5199 81.7987C69.7775 81.6404 70.0609 81.5197 70.3625 81.4443Z" fill="#2F2F30"/>
<path d="M72.6662 81.7987L71.8235 82.6414V81.4443C72.1245 81.5197 72.4079 81.6404 72.6662 81.7987Z" fill="#2F2F30"/>
<path d="M74.0222 83.6744H72.856L73.6886 82.8418C73.8387 83.0975 73.9525 83.3772 74.0222 83.6744Z" fill="#2F2F30"/>
<path d="M74.0021 85.1348C73.9267 85.4213 73.8098 85.6909 73.6584 85.9372L72.856 85.1348H74.0021Z" fill="#2F2F30"/>
<path d="M72.6153 86.9594C72.3714 87.1026 72.105 87.2132 71.8229 87.283V86.167L72.6153 86.9594Z" fill="#2F2F30"/>
<path d="M70.3626 86.1677V87.2837C70.0804 87.2133 69.8146 87.1034 69.5702 86.9601L70.3626 86.1677Z" fill="#2F2F30"/>
<path d="M69.3295 85.1348L68.5271 85.9372C68.3757 85.6909 68.2588 85.4213 68.1834 85.1348H69.3295Z" fill="#2F2F30"/>
<path d="M71.8229 81.4442V87.283C71.5891 87.3415 71.3447 87.3723 71.0927 87.3723C70.8407 87.3723 70.5963 87.3415 70.3625 87.283V81.4442C70.5963 81.3858 70.8407 81.355 71.0927 81.355C71.3447 81.355 71.5891 81.3858 71.8229 81.4442Z" fill="#D8DCDE"/>
<path d="M73.6578 85.937C73.3995 86.3574 73.0407 86.7093 72.6147 86.9594L71.8223 86.167L71.0921 85.4369L70.7899 85.1346L70.362 84.7067L70.0597 84.4044L69.3295 83.6743L68.4969 82.8417C68.747 82.4156 69.0996 82.0575 69.5193 81.7986L73.6578 85.937Z" fill="#D8DCDE"/>
<path d="M74.1014 84.3643C74.1014 84.6307 74.0668 84.889 74.0015 85.1353H68.1834C68.1187 84.889 68.0835 84.6307 68.0835 84.3643C68.0835 84.1267 68.1111 83.8961 68.1626 83.6743H74.0216C74.0744 83.8955 74.1014 84.1267 74.1014 84.3643Z" fill="#D8DCDE"/>
<path d="M73.6885 82.8418L72.8559 83.6744L72.1258 84.4046L71.8235 84.7068L71.3956 85.1347L70.3625 86.1678L69.5702 86.9601C69.1441 86.71 68.7853 86.3575 68.5271 85.9372L70.3619 84.1023L70.7898 83.6744L71.0921 83.3721L71.8223 82.642L72.6649 81.7993C73.0865 82.0569 73.4384 82.4158 73.6885 82.8418Z" fill="#D8DCDE"/>
<path d="M74.0021 85.1347H72.8559L73.6584 85.9371C73.4001 86.3575 73.0413 86.7094 72.6153 86.9595L71.8229 86.1671V87.2831C71.5891 87.3415 71.3447 87.3723 71.0927 87.3723C70.8408 87.3723 70.5963 87.3415 70.3626 87.2831V86.1671L69.5702 86.9595C69.1442 86.7094 68.7854 86.3569 68.5271 85.9365L69.3295 85.134H68.1834C68.1187 84.8877 68.0835 84.6295 68.0835 84.363C68.0835 84.1255 68.1111 83.8949 68.1626 83.6731H69.3289L68.4963 82.8405C68.7464 82.4145 69.0989 82.0563 69.5187 81.7974L70.3613 82.64V81.443C70.5951 81.3846 70.8395 81.3538 71.0915 81.3538C71.3435 81.3538 71.5879 81.3846 71.8216 81.443V82.64L72.6643 81.7974C73.0847 82.0557 73.4366 82.4145 73.6867 82.8399L72.8541 83.6725H74.0203C74.0725 83.8936 74.0995 84.1249 74.0995 84.3624C74.1014 84.6307 74.0668 84.889 74.0021 85.1347Z" fill="#C2C5C6"/>
<path d="M71.0928 85.7593C71.8635 85.7593 72.4884 85.1344 72.4884 84.3636C72.4884 83.5929 71.8635 82.968 71.0928 82.968C70.322 82.968 69.6971 83.5929 69.6971 84.3636C69.6971 85.1344 70.322 85.7593 71.0928 85.7593Z" fill="#E7EBEC"/>
<path d="M71.0928 84.8776C71.3766 84.8776 71.6068 84.6475 71.6068 84.3636C71.6068 84.0797 71.3766 83.8496 71.0928 83.8496C70.8089 83.8496 70.5788 84.0797 70.5788 84.3636C70.5788 84.6475 70.8089 84.8776 71.0928 84.8776Z" fill="#D6DADB"/>
<path d="M71.2769 83.4689C71.2769 83.5619 71.2015 83.6373 71.1085 83.6373C71.0155 83.6373 70.9401 83.5619 70.9401 83.4689C70.9401 83.3759 71.0155 83.3005 71.1085 83.3005C71.2015 83.3005 71.2769 83.3759 71.2769 83.4689Z" fill="#A3A3A3"/>
<path d="M71.2769 85.26C71.2769 85.353 71.2015 85.4284 71.1085 85.4284C71.0155 85.4284 70.9401 85.353 70.9401 85.26C70.9401 85.167 71.0155 85.0916 71.1085 85.0916C71.2015 85.0916 71.2769 85.167 71.2769 85.26Z" fill="#A3A3A3"/>
<path d="M70.3595 83.8452C70.4443 83.8829 70.4826 83.9828 70.4443 84.0677C70.4066 84.1525 70.3067 84.1908 70.2218 84.1525C70.137 84.1148 70.0987 84.0149 70.137 83.93C70.1747 83.8452 70.2746 83.8069 70.3595 83.8452Z" fill="#A3A3A3"/>
<path d="M71.9945 84.5762C72.0793 84.6139 72.1176 84.7138 72.0793 84.7986C72.041 84.8834 71.9417 84.9218 71.8569 84.8834C71.772 84.8457 71.7337 84.7458 71.772 84.661C71.8097 84.5762 71.909 84.5378 71.9945 84.5762Z" fill="#A3A3A3"/>
<path d="M70.2853 84.7552C70.3607 84.7005 70.4657 84.7169 70.521 84.7923C70.5763 84.8677 70.5593 84.9726 70.4839 85.0279C70.4085 85.0826 70.3036 85.0662 70.2483 84.9908C70.193 84.9154 70.2099 84.8099 70.2853 84.7552Z" fill="#A3A3A3"/>
<path d="M71.7325 83.7015C71.8079 83.6468 71.9128 83.6631 71.9681 83.7385C72.0228 83.8139 72.0065 83.9189 71.931 83.9742C71.8556 84.0295 71.7507 84.0125 71.6954 83.9371C71.6407 83.8611 71.6577 83.7561 71.7325 83.7015Z" fill="#A3A3A3"/>
<path d="M109.719 89.7563H109.211C109.173 89.7563 109.142 89.7255 109.142 89.6872V79.0413C109.142 79.003 109.173 78.9722 109.211 78.9722H109.719C109.758 78.9722 109.789 79.003 109.789 79.0413V89.6872C109.789 89.7255 109.758 89.7563 109.719 89.7563Z" fill="#464648"/>
<path d="M108.667 89.703L108.168 89.6037C108.13 89.5962 108.106 89.5597 108.113 89.5226L110.181 79.0797C110.188 79.042 110.225 79.0175 110.262 79.025L110.761 79.1243C110.799 79.1319 110.823 79.1683 110.816 79.2054L108.749 89.6483C108.741 89.686 108.705 89.7105 108.667 89.703Z" fill="#464648"/>
<path d="M107.597 89.4276L107.129 89.2291C107.094 89.214 107.077 89.1738 107.092 89.1386L111.243 79.3372C111.258 79.302 111.299 79.2857 111.334 79.3008L111.803 79.4993C111.838 79.5144 111.854 79.5546 111.839 79.5898L107.688 89.3912C107.672 89.4264 107.632 89.4427 107.597 89.4276Z" fill="#464648"/>
<path d="M106.549 88.9048L106.135 88.6095C106.104 88.5875 106.097 88.5441 106.119 88.5127L112.285 79.8399C112.307 79.8085 112.35 79.8016 112.381 79.8236L112.795 80.1189C112.827 80.1409 112.834 80.1843 112.812 80.2157L106.646 88.8885C106.623 88.9193 106.58 88.9268 106.549 88.9048Z" fill="#464648"/>
<path d="M105.654 88.1824L105.311 87.806C105.286 87.7777 105.288 87.7337 105.316 87.7079L113.178 80.5413C113.206 80.5156 113.25 80.5174 113.276 80.5457L113.619 80.9221C113.644 80.9504 113.642 80.9944 113.614 81.0201L105.752 88.1867C105.724 88.2131 105.68 88.2106 105.654 88.1824Z" fill="#464648"/>
<path d="M104.979 87.3584L104.717 86.9217C104.698 86.889 104.708 86.8463 104.741 86.8268L113.855 81.3462C113.888 81.3267 113.931 81.3374 113.95 81.37L114.212 81.8068C114.232 81.8394 114.221 81.8822 114.188 81.9016L105.074 87.3823C105.041 87.4018 104.999 87.3911 104.979 87.3584Z" fill="#464648"/>
<path d="M104.461 86.372L104.294 85.8907C104.282 85.8548 104.301 85.8152 104.337 85.8027L114.381 82.3139C114.418 82.3014 114.457 82.3202 114.469 82.3567L114.636 82.838C114.648 82.8738 114.629 82.9134 114.593 82.926L104.549 86.4147C104.513 86.4273 104.473 86.4078 104.461 86.372Z" fill="#464648"/>
<path d="M104.151 85.2747L104.089 84.7688C104.085 84.7311 104.112 84.6966 104.15 84.6915L114.702 83.3921C114.74 83.3877 114.774 83.4147 114.779 83.4524L114.841 83.9576C114.846 83.9953 114.819 84.0299 114.781 84.0349L104.229 85.3344C104.19 85.34 104.156 85.313 104.151 85.2747Z" fill="#464648"/>
<path d="M104.077 84.1796L104.119 83.6719C104.122 83.6335 104.155 83.6053 104.194 83.6084L114.79 84.4749C114.828 84.4781 114.856 84.5114 114.853 84.5497L114.812 85.0574C114.809 85.0958 114.775 85.124 114.737 85.1209L104.141 84.2544C104.102 84.2506 104.074 84.2173 104.077 84.1796Z" fill="#464648"/>
<path d="M114.607 85.8717L114.443 86.353C114.43 86.3894 114.391 86.4083 114.355 86.3964L104.279 82.9749C104.243 82.9623 104.223 82.9234 104.236 82.8869L104.4 82.4056C104.412 82.3691 104.451 82.3503 104.488 82.3622L114.564 85.7837C114.6 85.7956 114.62 85.8352 114.607 85.8717Z" fill="#464648"/>
<path d="M114.171 86.9362L113.909 87.3723C113.889 87.405 113.847 87.4156 113.814 87.3962L104.695 81.9174C104.662 81.8979 104.652 81.8552 104.671 81.8225L104.934 81.3864C104.953 81.3537 104.996 81.343 105.029 81.3625L114.148 86.8413C114.181 86.8608 114.192 86.9035 114.171 86.9362Z" fill="#464648"/>
<path d="M113.576 87.8189L113.233 88.1946C113.207 88.2229 113.163 88.2248 113.135 88.199L105.272 81.0369C105.244 81.0111 105.242 80.9671 105.267 80.9388L105.611 80.5631C105.636 80.5348 105.68 80.5329 105.709 80.5587L113.571 87.7208C113.599 87.7466 113.602 87.7906 113.576 87.8189Z" fill="#464648"/>
<path d="M112.779 88.5982L112.366 88.8961C112.335 88.9187 112.291 88.9112 112.269 88.8804L106.048 80.2566C106.025 80.2258 106.033 80.1825 106.064 80.1598L106.477 79.862C106.508 79.8394 106.551 79.8469 106.574 79.8777L112.795 88.5015C112.817 88.5329 112.81 88.5763 112.779 88.5982Z" fill="#464648"/>
<path d="M111.817 89.209L111.351 89.4132C111.316 89.4283 111.275 89.4126 111.26 89.3774L106.991 79.6402C106.976 79.605 106.992 79.5641 107.027 79.5491L107.493 79.3448C107.528 79.3297 107.569 79.3455 107.584 79.3806L111.853 89.1179C111.868 89.1531 111.852 89.1939 111.817 89.209Z" fill="#464648"/>
<path d="M110.788 89.5942L110.29 89.6997C110.252 89.7079 110.216 89.684 110.208 89.6463L108.001 79.2461C107.993 79.2084 108.017 79.172 108.054 79.1638L108.553 79.0582C108.59 79.0501 108.627 79.074 108.635 79.1117L110.842 89.5119C110.849 89.5496 110.825 89.586 110.788 89.5942Z" fill="#464648"/>
<path d="M113.203 88.1045C115.269 86.0386 115.269 82.689 113.203 80.623C111.137 78.5571 107.787 78.5571 105.721 80.623C103.655 82.689 103.655 86.0386 105.721 88.1045C107.787 90.1705 111.137 90.1705 113.203 88.1045Z" fill="#464648"/>
<path d="M109.463 89.2541C112.164 89.2541 114.354 87.0645 114.354 84.3635C114.354 81.6625 112.164 79.4729 109.463 79.4729C106.762 79.4729 104.572 81.6625 104.572 84.3635C104.572 87.0645 106.762 89.2541 109.463 89.2541Z" fill="#3E3E40"/>
<path d="M109.463 87.4958C111.193 87.4958 112.595 86.0934 112.595 84.3634C112.595 82.6334 111.193 81.231 109.463 81.231C107.733 81.231 106.331 82.6334 106.331 84.3634C106.331 86.0934 107.733 87.4958 109.463 87.4958Z" fill="#A9ACAE"/>
<path d="M107.7 83.6742H106.534C106.604 83.3769 106.718 83.0973 106.868 82.8416L107.7 83.6742Z" fill="#2F2F30"/>
<path d="M108.733 81.4441V82.6411L107.89 81.7985C108.148 81.6401 108.431 81.5195 108.733 81.4441Z" fill="#2F2F30"/>
<path d="M111.036 81.7985L110.194 82.6411V81.4441C110.495 81.5195 110.779 81.6401 111.036 81.7985Z" fill="#2F2F30"/>
<path d="M112.393 83.6742H111.226L112.059 82.8416C112.21 83.0973 112.323 83.3769 112.393 83.6742Z" fill="#2F2F30"/>
<path d="M112.372 85.1345C112.297 85.4211 112.18 85.6906 112.029 85.937L111.226 85.1345H112.372Z" fill="#2F2F30"/>
<path d="M110.986 86.9591C110.742 87.1024 110.475 87.213 110.193 87.2827V86.1667L110.986 86.9591Z" fill="#2F2F30"/>
<path d="M108.733 86.1675V87.2835C108.451 87.2131 108.185 87.1031 107.941 86.9599L108.733 86.1675Z" fill="#2F2F30"/>
<path d="M107.7 85.1345L106.898 85.937C106.747 85.6906 106.63 85.4211 106.554 85.1345H107.7Z" fill="#2F2F30"/>
<path d="M110.193 81.444V87.2828C109.959 87.3412 109.715 87.372 109.463 87.372C109.211 87.372 108.967 87.3412 108.733 87.2828V81.444C108.967 81.3855 109.211 81.3547 109.463 81.3547C109.715 81.3547 109.959 81.3855 110.193 81.444Z" fill="#D8DCDE"/>
<path d="M112.029 85.9368C111.77 86.3572 111.412 86.7091 110.986 86.9592L110.193 86.1668L109.463 85.4366L109.161 85.1344L108.733 84.7064L108.431 84.4042L107.7 83.674L106.868 82.8414C107.118 82.4154 107.47 82.0572 107.89 81.7983L112.029 85.9368Z" fill="#D8DCDE"/>
<path d="M112.472 84.364C112.472 84.6305 112.438 84.8887 112.372 85.135H106.554C106.49 84.8887 106.454 84.6305 106.454 84.364C106.454 84.1265 106.482 83.8959 106.534 83.6741H112.393C112.445 83.8953 112.472 84.1265 112.472 84.364Z" fill="#D8DCDE"/>
<path d="M112.059 82.8415L111.226 83.6741L110.496 84.4043L110.194 84.7066L109.766 85.1345L108.733 86.1675L107.94 86.9599C107.514 86.7098 107.156 86.3573 106.897 85.9369L108.732 84.1021L109.16 83.6741L109.462 83.3719L110.193 82.6417L111.035 81.7991C111.457 82.0567 111.809 82.4155 112.059 82.8415Z" fill="#D8DCDE"/>
<path d="M112.372 85.1344H111.226L112.029 85.9369C111.77 86.3572 111.412 86.7091 110.986 86.9592L110.193 86.1668V87.2828C109.959 87.3413 109.715 87.3721 109.463 87.3721C109.211 87.3721 108.967 87.3413 108.733 87.2828V86.1668L107.941 86.9592C107.514 86.7091 107.156 86.3566 106.897 85.9362L107.7 85.1338H106.554C106.489 84.8875 106.454 84.6292 106.454 84.3628C106.454 84.1253 106.481 83.8947 106.533 83.6728H107.699L106.867 82.8402C107.117 82.4142 107.469 82.056 107.889 81.7971L108.732 82.6398V81.4427C108.965 81.3843 109.21 81.3535 109.462 81.3535C109.714 81.3535 109.958 81.3843 110.192 81.4427V82.6398L111.035 81.7971C111.455 82.0554 111.807 82.4142 112.057 82.8396L111.224 83.6722H112.391C112.443 83.8934 112.47 84.1246 112.47 84.3622C112.472 84.6305 112.438 84.8887 112.372 85.1344Z" fill="#C2C5C6"/>
<path d="M109.463 85.759C110.234 85.759 110.859 85.1342 110.859 84.3634C110.859 83.5926 110.234 82.9678 109.463 82.9678C108.692 82.9678 108.067 83.5926 108.067 84.3634C108.067 85.1342 108.692 85.759 109.463 85.759Z" fill="#E7EBEC"/>
<path d="M109.463 84.8774C109.747 84.8774 109.977 84.6472 109.977 84.3634C109.977 84.0795 109.747 83.8494 109.463 83.8494C109.179 83.8494 108.949 84.0795 108.949 84.3634C108.949 84.6472 109.179 84.8774 109.463 84.8774Z" fill="#D6DADB"/>
<path d="M109.647 83.4687C109.647 83.5617 109.572 83.6371 109.479 83.6371C109.386 83.6371 109.31 83.5617 109.31 83.4687C109.31 83.3757 109.386 83.3003 109.479 83.3003C109.572 83.3003 109.647 83.3757 109.647 83.4687Z" fill="#A3A3A3"/>
<path d="M109.647 85.2597C109.647 85.3527 109.572 85.4281 109.479 85.4281C109.386 85.4281 109.31 85.3527 109.31 85.2597C109.31 85.1667 109.386 85.0913 109.479 85.0913C109.572 85.0913 109.647 85.1667 109.647 85.2597Z" fill="#A3A3A3"/>
<path d="M108.73 83.8452C108.815 83.8829 108.853 83.9828 108.815 84.0677C108.777 84.1525 108.677 84.1908 108.592 84.1525C108.507 84.1148 108.469 84.0149 108.507 83.93C108.546 83.8452 108.645 83.8069 108.73 83.8452Z" fill="#A3A3A3"/>
<path d="M110.365 84.5759C110.45 84.6136 110.488 84.7135 110.45 84.7984C110.412 84.8832 110.312 84.9215 110.227 84.8832C110.142 84.8455 110.104 84.7456 110.142 84.6607C110.181 84.5759 110.28 84.5376 110.365 84.5759Z" fill="#A3A3A3"/>
<path d="M108.656 84.7549C108.731 84.7003 108.836 84.7166 108.891 84.792C108.947 84.8674 108.93 84.9724 108.854 85.0276C108.779 85.0829 108.674 85.066 108.619 84.9906C108.563 84.9152 108.58 84.8096 108.656 84.7549Z" fill="#A3A3A3"/>
<path d="M110.103 83.7012C110.179 83.6466 110.284 83.6629 110.339 83.7383C110.394 83.8137 110.377 83.9186 110.302 83.9739C110.227 84.0286 110.121 84.0123 110.066 83.9369C110.012 83.8615 110.028 83.7559 110.103 83.7012Z" fill="#A3A3A3"/>
<path d="M78.9004 75.154C79.1895 74.865 79.1895 74.3963 78.9004 74.1072C78.6114 73.8181 78.1427 73.8181 77.8536 74.1072C77.5645 74.3963 77.5645 74.865 77.8536 75.154C78.1427 75.4431 78.6114 75.4431 78.9004 75.154Z" fill="#CF192C"/>
<path d="M79.4212 74.8438H77.1144C76.9919 74.8438 76.892 74.7439 76.892 74.6214C76.892 74.4988 76.9919 74.3989 77.1144 74.3989H79.4212C79.5437 74.3989 79.6436 74.4988 79.6436 74.6214C79.6436 74.7433 79.5437 74.8438 79.4212 74.8438Z" fill="#E2E2E2"/>
<path d="M77.423 74.6306C77.423 74.8505 77.2445 75.029 77.0246 75.029C76.8047 75.029 76.6262 74.8505 76.6262 74.6306C76.6262 74.4106 76.8047 74.2322 77.0246 74.2322C77.2451 74.2322 77.423 74.4106 77.423 74.6306Z" fill="#E2E2E2"/>
<path d="M77.269 74.6305C77.269 74.7656 77.1597 74.8743 77.0252 74.8743C76.8901 74.8743 76.7814 74.765 76.7814 74.6305C76.7814 74.4961 76.8907 74.3867 77.0252 74.3867C77.1597 74.3867 77.269 74.4961 77.269 74.6305Z" fill="#F0F0F0"/>
<path d="M88.7232 75.1545C89.0123 74.8654 89.0123 74.3968 88.7232 74.1077C88.4342 73.8186 87.9655 73.8186 87.6764 74.1077C87.3874 74.3968 87.3874 74.8654 87.6764 75.1545C87.9655 75.4436 88.4342 75.4436 88.7232 75.1545Z" fill="#CF192C"/>
<path d="M89.2445 74.8438H86.9378C86.8152 74.8438 86.7153 74.7439 86.7153 74.6214C86.7153 74.4988 86.8152 74.3989 86.9378 74.3989H89.2445C89.3671 74.3989 89.467 74.4988 89.467 74.6214C89.467 74.7433 89.3671 74.8438 89.2445 74.8438Z" fill="#E2E2E2"/>
<path d="M87.2463 74.6308C87.2463 74.8507 87.0679 75.0292 86.8479 75.0292C86.628 75.0292 86.4496 74.8507 86.4496 74.6308C86.4496 74.4109 86.628 74.2324 86.8479 74.2324C87.0679 74.2324 87.2463 74.4109 87.2463 74.6308Z" fill="#E2E2E2"/>
<path d="M86.8479 74.8746C86.9826 74.8746 87.0917 74.7654 87.0917 74.6308C87.0917 74.4961 86.9826 74.387 86.8479 74.387C86.7133 74.387 86.6041 74.4961 86.6041 74.6308C86.6041 74.7654 86.7133 74.8746 86.8479 74.8746Z" fill="#F0F0F0"/>
<path d="M94.6303 66.3369L94.4613 66.7636L94.4079 66.7422L94.5782 66.3105C94.597 66.32 94.6146 66.3281 94.6303 66.3369Z" fill="#A51E25"/>
<path d="M85.5843 66.0327H85.5265V66.7522H85.5843V66.0327Z" fill="#A51E25"/>
<path d="M64.4967 66.1238L63.7207 74.4698L63.7175 74.5006L63.7163 74.5276L63.4103 80.0849V80.0856L63.3933 80.0849L63.3757 80.0843L63.6817 74.5283L63.6836 74.4987L63.6861 74.4711L64.4609 66.1357C64.4728 66.1307 64.4848 66.1269 64.4967 66.1238Z" fill="#A51E25"/>
<path d="M75.3745 66.7351H64.4207V66.7697H75.3745V66.7351Z" fill="#A51E25"/>
<g opacity="0.2">
<path opacity="0.2" d="M109.171 74.6465L100.427 73.807C100.306 73.795 100.216 73.6863 100.227 73.565L100.235 73.4884C100.247 73.3671 100.355 73.2772 100.477 73.2886L109.221 74.1281C109.342 74.14 109.432 74.2487 109.42 74.37L109.413 74.4467C109.401 74.5686 109.292 74.6584 109.171 74.6465Z" fill="white"/>
</g>
<path d="M77.8465 82.7639L78.319 83.7536C78.319 83.7536 78.8374 84.6453 80.1306 84.6453C81.4238 84.6453 100.538 84.6453 100.538 84.6453C100.538 84.6453 101.801 84.7389 102.155 83.8309C102.395 83.2157 102.527 82.7645 102.527 82.7645H77.8465V82.7639Z" fill="#40403F"/>
<path d="M99.4456 82.7639H79.364V83.0743H99.4456V82.7639Z" fill="#383838"/>
<path d="M81.3491 82.5173H77.9389C77.827 82.5173 77.7353 82.6091 77.7353 82.7209V83.0967C77.7353 83.2085 77.827 83.3003 77.9389 83.3003H81.3491C81.4609 83.3003 81.5527 83.2085 81.5527 83.0967V82.7209C81.552 82.6091 81.4609 82.5173 81.3491 82.5173Z" fill="#575757"/>
<path d="M87.7553 82.5173H84.3451C84.2333 82.5173 84.1415 82.6091 84.1415 82.7209V83.0967C84.1415 83.2085 84.2333 83.3003 84.3451 83.3003H87.7553C87.8672 83.3003 87.9589 83.2085 87.9589 83.0967V82.7209C87.9589 82.6091 87.8672 82.5173 87.7553 82.5173Z" fill="#575757"/>
<path d="M102.327 82.5173H97.4404C97.3078 82.5173 97.1991 82.626 97.1991 82.7586V83.059C97.1991 83.1916 97.3078 83.3003 97.4404 83.3003H102.327C102.459 83.3003 102.568 83.1916 102.568 83.059V82.7586C102.567 82.626 102.459 82.5173 102.327 82.5173Z" fill="#575757"/>
<path d="M114.773 78.1466C114.773 78.3232 114.63 78.4658 114.454 78.4658C114.278 78.4658 114.134 78.3226 114.134 78.1466C114.134 77.97 114.278 77.8274 114.454 77.8274C114.63 77.8274 114.773 77.97 114.773 78.1466Z" fill="#FFC528"/>
<path d="M97.7276 74.5908C97.8192 74.2028 97.5789 73.8139 97.1909 73.7223C96.8028 73.6306 96.4139 73.871 96.3223 74.259C96.2307 74.6471 96.471 75.036 96.859 75.1276C97.2471 75.2192 97.636 74.9789 97.7276 74.5908Z" fill="#363635"/>
<path d="M96.9289 72.9241H96.403V74.2393H96.9289V72.9241Z" fill="#434343"/>
<path d="M97.6007 74.4799C97.6007 74.7275 97.5177 75.0367 97.0892 75.0605C97.4706 74.9889 97.4913 74.6477 97.4913 74.6477H96.4068C96.349 74.6477 96.3025 74.6012 96.3025 74.5434V74.1588C96.3025 74.0947 96.3546 74.0432 96.4181 74.0432H97.4606C97.4606 74.0432 97.6007 74.2223 97.6007 74.4799Z" fill="#4B4A4A"/>
<path d="M94.9483 71.3137V73.0166C94.9483 73.0166 95.0413 73.3408 95.4699 73.4338C95.5528 73.4514 95.6257 73.4671 95.6898 73.4803C95.9311 73.5293 96.1805 73.5142 96.4137 73.4376L96.9629 73.2566C97.0653 73.2227 97.1407 73.1353 97.1589 73.0291C97.213 72.7175 97.3022 72.0677 97.1727 71.7655C97.1727 71.7655 96.9987 71.3137 96.7323 71.2094L95.133 71.0007C95.1337 71.0007 94.9483 71.024 94.9483 71.3137Z" fill="#363635"/>
<path d="M97.4913 74.6477C97.4913 74.6477 97.4706 74.9889 97.0891 75.0605C97.0716 75.0618 97.054 75.0618 97.0357 75.0618C96.5601 75.0618 96.4759 74.6477 96.4759 74.6477H97.4913Z" fill="#434343"/>
<path d="M95.1425 71.2898L95.0979 72.3322C95.0979 72.3322 95.3706 71.8314 95.4208 71.5254C95.4208 71.5254 95.8594 71.4682 96.3439 71.2665L95.3153 71.1421C95.2261 71.132 95.1463 71.1999 95.1425 71.2898Z" fill="#434343"/>
<path d="M94.1534 85.6135H92.781V85.7449H94.1534V85.6135Z" fill="#434343"/>
<path d="M101.858 75.264L101.83 75.2722L101.803 75.2797L101.799 75.2703L101.139 72.988L101.201 72.9937L101.858 75.264Z" fill="#A51E25"/>
<path opacity="0.2" d="M72.2559 67.1016L68.8363 73.4381H67.5248L70.9438 67.1016H72.2559Z" fill="white"/>
<path opacity="0.2" d="M73.3555 67.1016L69.9359 73.4381H69.2805L72.6995 67.1016H73.3555Z" fill="white"/>
<path opacity="0.2" d="M82.3375 67.1016L78.9179 73.4381H77.6065L81.0255 67.1016H82.3375Z" fill="white"/>
<path opacity="0.2" d="M83.4372 67.1016L80.0182 73.4381H79.3622L82.7818 67.1016H83.4372Z" fill="white"/>
<path opacity="0.2" d="M92.5498 67.1016L89.1453 73.4104L87.8251 73.4255L91.2378 67.1016H92.5498Z" fill="white"/>
<path opacity="0.2" d="M93.6494 67.1016L90.2518 73.3979L89.592 73.4054L92.9941 67.1016H93.6494Z" fill="white"/>
<path d="M62.2195 75.8779L63.0119 75.9031L62.9717 76.6113L62.1806 76.566L62.2195 75.8779Z" fill="#EF3954"/>
<path opacity="0.2" d="M83.9191 66.4838H65.401C65.3319 66.4838 65.2753 66.4272 65.2753 66.3581C65.2753 66.289 65.3319 66.2324 65.401 66.2324H83.9197C83.9889 66.2324 84.0454 66.289 84.0454 66.3581C84.0448 66.4272 83.9882 66.4838 83.9191 66.4838Z" fill="white"/>
<path opacity="0.2" d="M93.1499 66.4838H86.7015C86.6324 66.4838 86.5759 66.4272 86.5759 66.3581C86.5759 66.289 86.6324 66.2324 86.7015 66.2324H93.1499C93.219 66.2324 93.2756 66.289 93.2756 66.3581C93.2756 66.4272 93.219 66.4838 93.1499 66.4838Z" fill="white"/>
<path d="M98.7022 72.6628C98.5853 72.6584 98.4867 72.6024 98.4867 72.6024C98.4867 72.6024 95.1161 66.8541 95.0979 66.7592C95.0903 66.7202 95.1016 66.6901 95.1173 66.6687C95.4384 66.8025 98.3566 71.9684 98.7022 72.6628Z" fill="#40403F"/>
<path opacity="0.2" d="M103.538 61.4813C104.353 60.6612 105.019 60.359 106.099 60.7693C107.18 61.1796 106.254 62.043 107.322 62.388C108.389 62.733 108.616 61.6761 109.528 62.2152C110.44 62.755 106.606 65.2798 107.951 66.3807C109.295 67.4816 106.458 70.0686 105.286 68.9803C104.115 67.8919 104.914 66.3354 104.223 65.4626C103.533 64.5898 102.432 64.9185 102.259 63.7717C102.086 62.6249 103.538 61.4813 103.538 61.4813Z" fill="#2B2B2B"/>
<path opacity="0.1" d="M106.803 59.8098C105.377 59.8915 103.493 59.0407 102.701 57.8405C101.908 56.6403 102.048 56.1282 99.6265 54.7181C97.2048 53.308 97.4235 51.1113 98.7305 50.2007C100.037 49.2902 101.395 48.8925 102.662 50.1322C103.928 51.3727 102.815 54.2889 104.473 55.4527C106.131 56.6158 108.356 56.0188 109.021 57.6545C109.686 59.2902 106.803 59.8098 106.803 59.8098Z" fill="#2B2B2B"/>
<path d="M76.2806 89.6744H22.9777C21.9101 89.6744 21.0366 88.801 21.0366 87.7334V18.9027C21.0366 17.8351 21.9101 16.9617 22.9777 16.9617H76.2806C77.3482 16.9617 78.2217 17.8351 78.2217 18.9027V87.7334C78.2223 88.801 77.3482 89.6744 76.2806 89.6744Z" fill="#CB362E"/>
<path d="M76.2806 89.0862H22.9777C21.9101 89.0862 21.0366 88.2128 21.0366 87.1451V18.3138C21.0366 17.2462 21.9101 16.3728 22.9777 16.3728H76.2806C77.3482 16.3728 78.2217 17.2462 78.2217 18.3138V87.1445C78.2223 88.2121 77.3482 89.0862 76.2806 89.0862Z" fill="#FF6C64"/>
<path opacity="0.1" d="M74.4188 22.1833V81.2579L70.3796 85.4894H26.5569V22.1833H74.4188Z" fill="black"/>
<path d="M73.5604 21.2222V80.2967L69.5206 84.5288H25.6985V21.2222H73.5604Z" fill="white"/>
<path d="M62.8705 18.623V23.3666H36.3884V18.623C36.3884 16.4231 38.1887 14.6228 40.3886 14.6228H48.548C48.5474 14.6303 48.5474 14.6379 48.5474 14.6454C48.5474 15.2939 49.0733 15.8192 49.7212 15.8192C50.3697 15.8192 50.895 15.2939 50.895 14.6454C50.895 14.6379 50.895 14.6303 50.8944 14.6228H58.869C61.0702 14.6222 62.8705 16.4225 62.8705 18.623Z" fill="#444545"/>
<path d="M49.6294 9.8855C47.0412 9.8855 44.943 11.9836 44.943 14.5719C44.943 14.5889 44.943 14.6058 44.9437 14.6222C44.9707 17.1872 47.0581 19.2583 49.6294 19.2583C52.2007 19.2583 54.2882 17.1872 54.3152 14.6222C54.3158 14.6052 54.3158 14.5882 54.3158 14.5719C54.3158 11.9836 52.2177 9.8855 49.6294 9.8855ZM50.8956 14.6454C50.8956 15.2939 50.3696 15.8192 49.7218 15.8192C49.0733 15.8192 48.548 15.2939 48.548 14.6454C48.548 14.6379 48.548 14.6303 48.5486 14.6228C48.5606 13.985 49.0815 13.4716 49.7224 13.4716C50.3634 13.4716 50.8843 13.985 50.8962 14.6228C50.8956 14.6303 50.8956 14.6379 50.8956 14.6454Z" fill="#444545"/>
<path d="M62.8705 22.1123H36.3884V23.3665H62.8705V22.1123Z" fill="#383838"/>
<path d="M73.5604 80.2965L71.3115 78.7017L69.5206 84.5286L73.5604 80.2965Z" fill="#DBE5F2"/>
<path d="M42.6797 48.0037H29.4443V48.9663H42.6797V48.0037Z" fill="#F0EFEF"/>
<path d="M51.6321 48.0037H43.2578V48.9663H51.6321V48.0037Z" fill="#F0EFEF"/>
<path d="M59.7419 48.0037H52.3541V48.9663H59.7419V48.0037Z" fill="#F0EFEF"/>
<path d="M69.175 48.0037H60.8007V48.9663H69.175V48.0037Z" fill="#F0EFEF"/>
<path d="M69.1957 36.6384H48.6172V37.6011H69.1957V36.6384Z" fill="#F0EFEF"/>
<path d="M69.1957 38.291H48.6172V39.2537H69.1957V38.291Z" fill="#F0EFEF"/>
<path d="M69.1957 39.9436H48.6172V40.9063H69.1957V39.9436Z" fill="#F0EFEF"/>
<path d="M69.1957 42.4409H48.6172V43.4036H69.1957V42.4409Z" fill="#F0EFEF"/>
<path d="M69.1957 44.1689H48.6172V45.1316H69.1957V44.1689Z" fill="#F0EFEF"/>
<path d="M37.0005 49.4717H29.4443V50.4343H37.0005V49.4717Z" fill="#F0EFEF"/>
<path d="M46.0729 49.4717H37.6986V50.4343H46.0729V49.4717Z" fill="#F0EFEF"/>
<path d="M50.7417 49.4717H46.8911V50.4343H50.7417V49.4717Z" fill="#F0EFEF"/>
<path d="M59.7174 49.4717H51.343V50.4343H59.7174V49.4717Z" fill="#F0EFEF"/>
<path d="M42.6797 68.2236H29.4443V69.1863H42.6797V68.2236Z" fill="#F0EFEF"/>
<path d="M54.5321 68.2236H43.2578V69.1863H54.5321V68.2236Z" fill="#F0EFEF"/>
<path d="M59.7419 68.2236H52.3541V69.1863H59.7419V68.2236Z" fill="#F0EFEF"/>
<path d="M69.175 68.2236H60.8007V69.1863H69.175V68.2236Z" fill="#F0EFEF"/>
<path d="M37.0005 69.6914H29.4443V70.6541H37.0005V69.6914Z" fill="#F0EFEF"/>
<path d="M46.0729 69.6914H37.6986V70.6541H46.0729V69.6914Z" fill="#F0EFEF"/>
<path d="M50.7417 69.6914H46.8911V70.6541H50.7417V69.6914Z" fill="#F0EFEF"/>
<path d="M46.891 36.6384H29.8709V45.2534H46.891V36.6384Z" fill="#F0EFEF"/>
<path d="M32.9845 30.6651L33.8586 30.9422C33.7247 31.4298 33.5016 31.7918 33.19 32.028C32.8783 32.2643 32.4831 32.3831 32.0036 32.3831C31.4104 32.3831 30.9234 32.1807 30.5414 31.7754C30.1593 31.3701 29.9689 30.8165 29.9689 30.114C29.9689 29.3706 30.1606 28.7938 30.5445 28.3822C30.9285 27.9712 31.433 27.7651 32.0583 27.7651C32.6043 27.7651 33.048 27.9266 33.3892 28.2496C33.5921 28.4406 33.7442 28.7146 33.846 29.0722L32.9537 29.2852C32.9009 29.0539 32.791 28.8711 32.6232 28.7366C32.4554 28.6028 32.2518 28.5355 32.0124 28.5355C31.6812 28.5355 31.4129 28.6543 31.2068 28.8918C31.0007 29.1293 30.8977 29.5145 30.8977 30.0461C30.8977 30.6104 30.9995 31.0126 31.2024 31.2526C31.4054 31.492 31.6693 31.612 31.9942 31.612C32.2336 31.612 32.4397 31.536 32.6125 31.3833C32.7853 31.2312 32.9091 30.9918 32.9845 30.6651Z" fill="#A8A7A7"/>
<path d="M34.6566 32.3069V27.8782H35.5583V31.5548H37.8003V32.3069H34.6566Z" fill="#A8A7A7"/>
<path d="M42.4698 32.307H41.4889L41.0993 31.2928H39.3141L38.9452 32.307H37.9889L39.7282 27.8418H40.6814L42.4698 32.307ZM40.8096 30.54L40.1944 28.883L39.5912 30.54H40.8096Z" fill="#A8A7A7"/>
<path d="M42.9203 32.307V27.8418H43.822V32.307H42.9203Z" fill="#A8A7A7"/>
<path d="M44.6684 32.307V27.8418H46.0175L46.8275 30.8875L47.6287 27.8418H48.9809V32.307H48.1433V28.7919L47.2567 32.307H46.3883L45.5048 28.7919V32.307H44.6684Z" fill="#A8A7A7"/>
<path d="M51.6164 32.307V27.8418H54.6778V28.5971H52.5181V29.654H54.3825V30.4093H52.5181V32.307H51.6164Z" fill="#A8A7A7"/>
<path d="M55.2383 30.1014C55.2383 29.6465 55.3062 29.2651 55.4425 28.9559C55.5443 28.7284 55.6826 28.5242 55.8585 28.3439C56.0338 28.1629 56.2267 28.0291 56.436 27.9417C56.7144 27.8242 57.0348 27.7651 57.3987 27.7651C58.0566 27.7651 58.5831 27.9694 58.9778 28.3772C59.373 28.7856 59.5703 29.353 59.5703 30.0801C59.5703 30.8008 59.3743 31.3651 58.9822 31.7723C58.5901 32.1795 58.0666 32.3831 57.4106 32.3831C56.7464 32.3831 56.2186 32.1807 55.8265 31.7754C55.4344 31.3701 55.2383 30.8121 55.2383 30.1014ZM56.1671 30.0713C56.1671 30.5771 56.2839 30.9604 56.5171 31.2212C56.7508 31.482 57.0468 31.6127 57.4062 31.6127C57.7656 31.6127 58.0603 31.4832 58.291 31.2243C58.5216 30.9654 58.6366 30.5771 58.6366 30.0593C58.6366 29.5478 58.5241 29.1658 58.2998 28.9138C58.0754 28.6618 57.7776 28.5361 57.4056 28.5361C57.0342 28.5361 56.7345 28.6637 56.507 28.9182C56.2808 29.1727 56.1671 29.5573 56.1671 30.0713Z" fill="#A8A7A7"/>
<path d="M60.2766 32.307V27.8418H62.1743C62.6512 27.8418 62.9981 27.882 63.2142 27.9618C63.4304 28.0422 63.6038 28.1849 63.7339 28.3897C63.864 28.5946 63.9287 28.8296 63.9287 29.0935C63.9287 29.4284 63.83 29.7056 63.6334 29.9236C63.4367 30.1416 63.142 30.2793 62.7499 30.3364C62.9447 30.4502 63.1055 30.5752 63.2325 30.7109C63.3594 30.8473 63.5303 31.0886 63.7458 31.4361L64.2913 32.307H63.213L62.5613 31.3355C62.3301 30.9881 62.1711 30.7694 62.0863 30.6789C62.0008 30.5884 61.9104 30.5268 61.8155 30.4929C61.72 30.4596 61.5685 30.4426 61.3618 30.4426H61.1789V32.307H60.2766ZM61.1777 29.7301H61.845C62.2773 29.7301 62.5475 29.7118 62.655 29.6754C62.7624 29.6389 62.8466 29.5761 62.9076 29.4862C62.9685 29.397 62.9987 29.2852 62.9987 29.1513C62.9987 29.0011 62.9585 28.8799 62.8787 28.7875C62.7982 28.6951 62.6851 28.6367 62.5387 28.6122C62.4658 28.6021 62.2465 28.5971 61.8808 28.5971H61.177V29.7301H61.1777Z" fill="#A8A7A7"/>
<path d="M64.7664 32.307V27.8418H66.1155L66.9254 30.8875L67.7266 27.8418H69.0789V32.307H68.2413V28.7919L67.3546 32.307H66.4868L65.6034 28.7919V32.307H64.7664Z" fill="#A8A7A7"/>
<path d="M32.1532 56.2877H29.5058V53.6404H32.1532V56.2877ZM29.8408 55.9522H31.8182V53.9747H29.8408V55.9522Z" fill="#FF6C64"/>
<path d="M47.8543 54.3311H33.2227V55.5683H47.8543V54.3311Z" fill="#F0EFEF"/>
<path d="M32.1532 60.5719H29.5058V57.9246H32.1532V60.5719ZM29.8408 60.237H31.8182V58.2601H29.8408V60.237Z" fill="#FF6C64"/>
<path d="M45.1184 58.6152H33.2227V59.8525H45.1184V58.6152Z" fill="#F0EFEF"/>
<path d="M32.1532 64.8568H29.5058V62.2095H32.1532V64.8568ZM29.8408 64.5219H31.8182V62.5444H29.8408V64.5219Z" fill="#FF6C64"/>
<path d="M47.8543 62.8999H33.2227V64.1372H47.8543V62.8999Z" fill="#F0EFEF"/>
<path d="M53.8232 56.2877H51.1759V53.6404H53.8232V56.2877ZM51.5108 55.9522H53.4883V53.9747H51.5108V55.9522Z" fill="#FF6C64"/>
<path d="M65.9816 54.3311H54.8927V55.5683H65.9816V54.3311Z" fill="#F0EFEF"/>
<path d="M53.8232 60.5719H51.1759V57.9246H53.8232V60.5719ZM51.5108 60.237H53.4883V58.2601H51.5108V60.237Z" fill="#FF6C64"/>
<path d="M69.1958 58.6152H54.8927V59.8525H69.1958V58.6152Z" fill="#F0EFEF"/>
<path d="M53.8232 64.8568H51.1759V62.2095H53.8232V64.8568ZM51.5108 64.5219H53.4883V62.5444H51.5108V64.5219Z" fill="#FF6C64"/>
<path d="M69.1958 62.8999H54.8927V64.1372H69.1958V62.8999Z" fill="#F0EFEF"/>
<path d="M31.4161 55.6079C31.3558 55.6079 31.2961 55.5853 31.2502 55.5394L30.236 54.5252L30.5678 54.1934L31.4161 55.0417L33.4037 53.0542L33.7354 53.386L31.582 55.5394C31.5361 55.5853 31.4758 55.6079 31.4161 55.6079Z" fill="#E1251B"/>
<path d="M31.4161 59.8926C31.3558 59.8926 31.2961 59.8699 31.2502 59.8241L30.236 58.8099L30.5678 58.4781L31.4161 59.3264L33.4037 57.3389L33.7354 57.6706L31.582 59.8241C31.5361 59.8699 31.4758 59.8926 31.4161 59.8926Z" fill="#E1251B"/>
<path d="M53.2106 59.8926C53.1502 59.8926 53.0906 59.8699 53.0447 59.8241L52.0305 58.8099L52.3623 58.4781L53.2106 59.3264L55.1981 57.3389L55.5299 57.6706L53.3765 59.8241C53.3312 59.8699 53.2709 59.8926 53.2106 59.8926Z" fill="#E1251B"/>
<path d="M53.2106 64.1775C53.1502 64.1775 53.0906 64.1549 53.0447 64.109L52.0305 63.0948L52.3623 62.763L53.2106 63.6113L55.1981 61.6238L55.5299 61.9556L53.3765 64.109C53.3312 64.1542 53.2709 64.1775 53.2106 64.1775Z" fill="#E1251B"/>
</g>
<defs>
<linearGradient id="paint0_linear" x1="70" y1="2.14453" x2="70" y2="90.1153" gradientUnits="userSpaceOnUse">
<stop stop-color="#F9E5EC"/>
<stop offset="1" stop-color="#FBF5F5"/>
</linearGradient>
<linearGradient id="paint1_linear" x1="35.6698" y1="78.24" x2="35.6698" y2="90.1154" gradientUnits="userSpaceOnUse">
<stop stop-color="#F9E5EC"/>
<stop offset="1" stop-color="#FBF5F5"/>
</linearGradient>
<linearGradient id="paint2_linear" x1="21.2888" y1="85.6851" x2="21.2888" y2="90.1153" gradientUnits="userSpaceOnUse">
<stop stop-color="#F9E5EC"/>
<stop offset="1" stop-color="#FBF5F5"/>
</linearGradient>
<linearGradient id="paint3_linear" x1="116.011" y1="59.8545" x2="116.011" y2="90.1149" gradientUnits="userSpaceOnUse">
<stop stop-color="#F1CEDA"/>
<stop offset="1" stop-color="#FBF5F5"/>
</linearGradient>
<clipPath id="clip0">
<rect width="97.9268" height="80" fill="white" transform="translate(21.0366 9.8855)"/>
</clipPath>
</defs>
</svg>
