<svg width="140" height="92" viewBox="0 0 140 92" fill="none" xmlns="http://www.w3.org/2000/svg">
<path opacity="0.5" d="M135.212 90.1153H0.00256348C0.00256348 77.6864 16.9887 74.7613 11.5242 64.8088C5.48933 53.8176 6.62277 39.1955 22.0138 42.4289C23.4704 42.7351 24.6723 42.9309 25.6667 42.9586C38.4365 43.3145 16.5626 20.0474 31.5191 8.95324C47.643 -3.00518 49.0415 2.73663 58.6542 11.2936C68.2669 19.8506 86.7518 8.4491 114.489 13.9194C119.556 14.9191 123.081 16.8194 124.604 19.8506C130.168 30.9218 121.116 50.9805 131.905 61.5263C144.981 74.3068 139.221 87.289 135.212 90.1153Z" fill="url(#paint0_linear)"/>
<path d="M122.077 40.1039C120.756 38.5467 120.533 36.2276 121.409 33.2162C122.606 29.0999 122.459 25.9294 121.663 23.6814C122.693 22.8897 123.805 21.8281 124.963 20.4143C124.848 20.2234 124.729 20.0345 124.603 19.8505C123.48 21.245 122.409 22.2916 121.421 23.0721C120.815 21.6888 119.952 20.719 119.038 20.1508C117.203 19.0118 115.012 19.2887 113.322 20.8715C112.381 21.7534 112.051 22.8491 112.413 23.8809C112.829 25.0604 114.067 25.8606 115.642 25.97C116.508 26.0302 118.524 25.9075 121.13 24.0761C121.825 26.1871 121.921 29.1639 120.795 33.0359C119.852 36.2682 120.12 38.7867 121.589 40.52C122.677 41.8025 124.253 42.4656 125.779 42.7958C125.809 42.5813 125.843 42.3648 125.875 42.1482C124.474 41.8414 123.042 41.2407 122.077 40.1039ZM115.687 25.3266C114.369 25.2364 113.347 24.5995 113.018 23.6643C112.743 22.8875 113.014 22.0404 113.758 21.3431C114.634 20.5237 115.658 20.1055 116.675 20.1055C117.371 20.1055 118.062 20.3007 118.705 20.6998C119.554 21.2252 120.352 22.1455 120.905 23.4648C118.412 25.2599 116.502 25.3847 115.687 25.3266Z" fill="white"/>
<g opacity="0.5">
<path d="M19.5154 28.6208C19.5841 28.1953 19.2967 27.7944 18.8734 27.7253C18.4502 27.6563 18.0514 27.9452 17.9828 28.3707C17.9141 28.7962 18.2015 29.1971 18.6247 29.2661C19.0479 29.3352 19.4467 29.0463 19.5154 28.6208Z" fill="#FFBED1"/>
<path d="M24.9941 28.6208C25.0628 28.1953 24.7754 27.7944 24.3522 27.7253C23.929 27.6563 23.5302 27.9452 23.4615 28.3707C23.3928 28.7962 23.6802 29.1971 24.1035 29.2661C24.5267 29.3352 24.9254 29.0463 24.9941 28.6208Z" fill="#FFBED1"/>
<path d="M30.4755 28.5722C30.5177 28.1432 30.2061 27.7611 29.7795 27.7186C29.3528 27.6762 28.9727 27.9895 28.9305 28.4184C28.8882 28.8473 29.1999 29.2295 29.6265 29.2719C30.0532 29.3144 30.4333 29.0011 30.4755 28.5722Z" fill="#FFBED1"/>
<path d="M35.954 28.5724C35.9963 28.1435 35.6846 27.7613 35.258 27.7189C34.8313 27.6764 34.4512 27.9897 34.409 28.4187C34.3668 28.8476 34.6784 29.2297 35.105 29.2722C35.5317 29.3146 35.9118 29.0013 35.954 28.5724Z" fill="#FFBED1"/>
<path d="M41.4386 28.537C41.4623 28.1066 41.1345 27.7384 40.7064 27.7145C40.2782 27.6907 39.912 28.0203 39.8883 28.4507C39.8646 28.8811 40.1924 29.2493 40.6205 29.2731C41.0486 29.297 41.4149 28.9674 41.4386 28.537Z" fill="#FFBED1"/>
<path d="M46.9084 28.6208C46.9771 28.1953 46.6897 27.7944 46.2665 27.7253C45.8433 27.6563 45.4445 27.9452 45.3758 28.3707C45.3071 28.7962 45.5946 29.1971 46.0178 29.2661C46.441 29.3352 46.8398 29.0463 46.9084 28.6208Z" fill="#FFBED1"/>
<path d="M19.0437 23.7101C19.4404 23.5466 19.6302 23.0907 19.4676 22.6919C19.3049 22.293 18.8515 22.1022 18.4548 22.2657C18.0581 22.4292 17.8683 22.8851 18.0309 23.2839C18.1935 23.6828 18.647 23.8736 19.0437 23.7101Z" fill="#FFBED1"/>
<path d="M24.5221 23.7108C24.9188 23.5473 25.1086 23.0915 24.9459 22.6926C24.7833 22.2938 24.3299 22.103 23.9332 22.2665C23.5364 22.43 23.3467 22.8858 23.5093 23.2847C23.6719 23.6835 24.1254 23.8743 24.5221 23.7108Z" fill="#FFBED1"/>
<path d="M29.8826 23.7488C30.3001 23.6504 30.5591 23.2304 30.4612 22.8107C30.3633 22.3911 29.9456 22.1306 29.5282 22.229C29.1107 22.3275 28.8517 22.7474 28.9496 23.1671C29.0475 23.5868 29.4652 23.8472 29.8826 23.7488Z" fill="#FFBED1"/>
<path d="M35.361 23.7488C35.7785 23.6504 36.0375 23.2304 35.9396 22.8107C35.8417 22.3911 35.424 22.1306 35.0066 22.229C34.5891 22.3275 34.3301 22.7474 34.428 23.1671C34.5259 23.5868 34.9436 23.8472 35.361 23.7488Z" fill="#FFBED1"/>
<path d="M40.7601 23.7615C41.1857 23.709 41.4883 23.3196 41.4361 22.8917C41.3839 22.4639 40.9966 22.1596 40.571 22.2121C40.1454 22.2646 39.8427 22.654 39.895 23.0818C39.9472 23.5097 40.3345 23.814 40.7601 23.7615Z" fill="#FFBED1"/>
<path d="M46.4368 23.7101C46.8335 23.5466 47.0233 23.0907 46.8606 22.6919C46.698 22.293 46.2446 22.1022 45.8478 22.2657C45.4511 22.4292 45.2614 22.8851 45.424 23.2839C45.5866 23.6828 46.04 23.8736 46.4368 23.7101Z" fill="#FFBED1"/>
<path d="M18.7485 18.2599C19.1772 18.2599 19.5248 17.9105 19.5248 17.4795C19.5248 17.0484 19.1772 16.699 18.7485 16.699C18.3197 16.699 17.9722 17.0484 17.9722 17.4795C17.9722 17.9105 18.3197 18.2599 18.7485 18.2599Z" fill="#FFBED1"/>
<path d="M24.2266 18.2599C24.6554 18.2599 25.003 17.9105 25.003 17.4795C25.003 17.0484 24.6554 16.699 24.2266 16.699C23.7979 16.699 23.4503 17.0484 23.4503 17.4795C23.4503 17.9105 23.7979 18.2599 24.2266 18.2599Z" fill="#FFBED1"/>
<path d="M29.7056 18.2599C30.1344 18.2599 30.482 17.9105 30.482 17.4795C30.482 17.0484 30.1344 16.699 29.7056 16.699C29.2769 16.699 28.9293 17.0484 28.9293 17.4795C28.9293 17.9105 29.2769 18.2599 29.7056 18.2599Z" fill="#FFBED1"/>
<path d="M35.1838 18.2599C35.6125 18.2599 35.9601 17.9105 35.9601 17.4795C35.9601 17.0484 35.6125 16.699 35.1838 16.699C34.755 16.699 34.4075 17.0484 34.4075 17.4795C34.4075 17.9105 34.755 18.2599 35.1838 18.2599Z" fill="#FFBED1"/>
<path d="M40.6627 18.2599C41.0914 18.2599 41.439 17.9105 41.439 17.4795C41.439 17.0484 41.0914 16.699 40.6627 16.699C40.2339 16.699 39.8864 17.0484 39.8864 17.4795C39.8864 17.9105 40.2339 18.2599 40.6627 18.2599Z" fill="#FFBED1"/>
<path d="M46.1409 18.2599C46.5697 18.2599 46.9173 17.9105 46.9173 17.4795C46.9173 17.0484 46.5697 16.699 46.1409 16.699C45.7122 16.699 45.3646 17.0484 45.3646 17.4795C45.3646 17.9105 45.7122 18.2599 46.1409 18.2599Z" fill="#FFBED1"/>
<path d="M18.7485 12.7526C19.1772 12.7526 19.5248 12.4032 19.5248 11.9721C19.5248 11.5411 19.1772 11.1917 18.7485 11.1917C18.3197 11.1917 17.9722 11.5411 17.9722 11.9721C17.9722 12.4032 18.3197 12.7526 18.7485 12.7526Z" fill="#FFBED1"/>
<path d="M24.2266 12.7526C24.6554 12.7526 25.003 12.4032 25.003 11.9721C25.003 11.5411 24.6554 11.1917 24.2266 11.1917C23.7979 11.1917 23.4503 11.5411 23.4503 11.9721C23.4503 12.4032 23.7979 12.7526 24.2266 12.7526Z" fill="#FFBED1"/>
<path d="M29.7056 12.7526C30.1344 12.7526 30.482 12.4032 30.482 11.9721C30.482 11.5411 30.1344 11.1917 29.7056 11.1917C29.2769 11.1917 28.9293 11.5411 28.9293 11.9721C28.9293 12.4032 29.2769 12.7526 29.7056 12.7526Z" fill="#FFBED1"/>
<path d="M35.1838 12.7526C35.6125 12.7526 35.9601 12.4032 35.9601 11.9721C35.9601 11.5411 35.6125 11.1917 35.1838 11.1917C34.755 11.1917 34.4075 11.5411 34.4075 11.9721C34.4075 12.4032 34.755 12.7526 35.1838 12.7526Z" fill="#FFBED1"/>
<path d="M40.6627 12.7526C41.0914 12.7526 41.439 12.4032 41.439 11.9721C41.439 11.5411 41.0914 11.1917 40.6627 11.1917C40.2339 11.1917 39.8864 11.5411 39.8864 11.9721C39.8864 12.4032 40.2339 12.7526 40.6627 12.7526Z" fill="#FFBED1"/>
<path d="M46.1409 12.7526C46.5697 12.7526 46.9173 12.4032 46.9173 11.9721C46.9173 11.5411 46.5697 11.1917 46.1409 11.1917C45.7122 11.1917 45.3646 11.5411 45.3646 11.9721C45.3646 12.4032 45.7122 12.7526 46.1409 12.7526Z" fill="#FFBED1"/>
<path d="M19.5152 6.58454C19.5811 6.15863 19.291 5.75968 18.8674 5.69347C18.4437 5.62727 18.0469 5.91887 17.9811 6.34478C17.9152 6.7707 18.2052 7.16964 18.6289 7.23585C19.0525 7.30206 19.4494 7.01046 19.5152 6.58454Z" fill="#FFBED1"/>
<path d="M24.9938 6.58527C25.0597 6.15935 24.7697 5.76041 24.346 5.6942C23.9224 5.62799 23.5256 5.91959 23.4597 6.34551C23.3938 6.77142 23.6839 7.17037 24.1075 7.23658C24.5312 7.30279 24.928 7.01119 24.9938 6.58527Z" fill="#FFBED1"/>
<path d="M30.4803 6.49501C30.4973 6.06431 30.1638 5.70129 29.7354 5.68417C29.307 5.66706 28.9459 6.00234 28.9289 6.43304C28.9119 6.86374 29.2454 7.22676 29.6738 7.24388C30.1022 7.26099 30.4633 6.92571 30.4803 6.49501Z" fill="#FFBED1"/>
<path d="M35.9586 6.49525C35.9756 6.06455 35.6421 5.70153 35.2137 5.68441C34.7853 5.6673 34.4242 6.00258 34.4072 6.43328C34.3901 6.86398 34.7236 7.22701 35.152 7.24412C35.5805 7.26123 35.9415 6.92595 35.9586 6.49525Z" fill="#FFBED1"/>
<path d="M41.4381 6.47513C41.4449 6.04413 41.1029 5.68917 40.6742 5.68232C40.2455 5.67546 39.8925 6.01931 39.8856 6.45031C39.8788 6.88131 40.2208 7.23627 40.6495 7.24312C41.0782 7.24998 41.4313 6.90613 41.4381 6.47513Z" fill="#FFBED1"/>
<path d="M46.9083 6.58576C46.9741 6.15985 46.6841 5.76091 46.2604 5.6947C45.8368 5.62849 45.44 5.92009 45.3741 6.346C45.3083 6.77192 45.5983 7.17086 46.022 7.23707C46.4456 7.30328 46.8424 7.01168 46.9083 6.58576Z" fill="#FFBED1"/>
<path d="M18.7485 1.73698C19.1772 1.73698 19.5248 1.38755 19.5248 0.956503C19.5248 0.525457 19.1772 0.176025 18.7485 0.176025C18.3197 0.176025 17.9722 0.525457 17.9722 0.956503C17.9722 1.38755 18.3197 1.73698 18.7485 1.73698Z" fill="#FFBED1"/>
<path d="M24.2266 1.73698C24.6554 1.73698 25.003 1.38755 25.003 0.956503C25.003 0.525457 24.6554 0.176025 24.2266 0.176025C23.7979 0.176025 23.4503 0.525457 23.4503 0.956503C23.4503 1.38755 23.7979 1.73698 24.2266 1.73698Z" fill="#FFBED1"/>
<path d="M30.4784 1.01665C30.5123 0.586937 30.1933 0.210984 29.7658 0.176932C29.3384 0.142879 28.9645 0.463622 28.9306 0.893331C28.8967 1.32304 29.2158 1.69899 29.6432 1.73304C30.0706 1.7671 30.4445 1.44635 30.4784 1.01665Z" fill="#FFBED1"/>
<path d="M35.9566 1.01665C35.9904 0.586937 35.6714 0.210984 35.244 0.176931C34.8166 0.142879 34.4426 0.463621 34.4087 0.89333C34.3749 1.32304 34.6939 1.69899 35.1213 1.73304C35.5487 1.7671 35.9227 1.44635 35.9566 1.01665Z" fill="#FFBED1"/>
<path d="M41.44 0.975706C41.4505 0.54479 41.1114 0.186972 40.6828 0.176497C40.2542 0.166023 39.8983 0.506859 39.8879 0.937775C39.8775 1.36869 40.2165 1.72651 40.6451 1.73698C41.0737 1.74746 41.4296 1.40662 41.44 0.975706Z" fill="#FFBED1"/>
<path d="M46.1409 1.73698C46.5697 1.73698 46.9173 1.38755 46.9173 0.956503C46.9173 0.525457 46.5697 0.176025 46.1409 0.176025C45.7122 0.176025 45.3646 0.525457 45.3646 0.956503C45.3646 1.38755 45.7122 1.73698 46.1409 1.73698Z" fill="#FFBED1"/>
</g>
<g opacity="0.5">
<path d="M109.234 71.2802C109.32 70.9164 109.095 70.5517 108.733 70.4658C108.372 70.3799 108.009 70.6052 107.923 70.9691C107.838 71.333 108.062 71.6976 108.424 71.7835C108.786 71.8694 109.149 71.6441 109.234 71.2802Z" fill="#FFBED1"/>
<path d="M113.998 71.2242C114.057 70.8551 113.808 70.5074 113.441 70.4475C113.074 70.3876 112.728 70.6382 112.668 71.0073C112.609 71.3764 112.858 71.7241 113.225 71.784C113.592 71.8439 113.938 71.5933 113.998 71.2242Z" fill="#FFBED1"/>
<path d="M118.557 71.5949C118.82 71.3305 118.82 70.9019 118.557 70.6375C118.294 70.3731 117.868 70.3731 117.605 70.6375C117.342 70.9019 117.342 71.3305 117.605 71.5949C117.868 71.8593 118.294 71.8593 118.557 71.5949Z" fill="#FFBED1"/>
<path d="M123.492 71.281C123.577 70.9171 123.353 70.5525 122.991 70.4665C122.629 70.3806 122.267 70.6059 122.181 70.9698C122.096 71.3337 122.32 71.6983 122.682 71.7842C123.044 71.8702 123.406 71.6448 123.492 71.281Z" fill="#FFBED1"/>
<path d="M128.255 71.2239C128.314 70.8549 128.065 70.5071 127.698 70.4472C127.331 70.3873 126.985 70.638 126.926 71.007C126.866 71.3761 127.115 71.7238 127.482 71.7837C127.849 71.8436 128.195 71.593 128.255 71.2239Z" fill="#FFBED1"/>
<path d="M132.814 71.5949C133.077 71.3305 133.077 70.9019 132.814 70.6375C132.551 70.3731 132.125 70.3732 131.862 70.6375C131.599 70.9019 131.599 71.3305 131.862 71.5949C132.125 71.8593 132.551 71.8593 132.814 71.5949Z" fill="#FFBED1"/>
<path d="M109.052 66.8166C109.315 66.5522 109.315 66.1236 109.052 65.8592C108.789 65.5948 108.363 65.5948 108.1 65.8592C107.837 66.1236 107.837 66.5522 108.1 66.8166C108.363 67.081 108.789 67.081 109.052 66.8166Z" fill="#FFBED1"/>
<path d="M113.591 66.963C113.934 66.8199 114.097 66.4239 113.955 66.0785C113.813 65.7331 113.419 65.569 113.075 65.7121C112.732 65.8552 112.569 66.2512 112.711 66.5967C112.853 66.9421 113.247 67.1061 113.591 66.963Z" fill="#FFBED1"/>
<path d="M118.739 66.5026C118.825 66.1388 118.6 65.7742 118.238 65.6882C117.877 65.6023 117.514 65.8276 117.428 66.1915C117.343 66.5554 117.567 66.92 117.929 67.0059C118.291 67.0918 118.654 66.8665 118.739 66.5026Z" fill="#FFBED1"/>
<path d="M123.309 66.8166C123.572 66.5522 123.572 66.1236 123.309 65.8592C123.046 65.5948 122.62 65.5948 122.357 65.8592C122.094 66.1236 122.094 66.5522 122.357 66.8166C122.62 67.081 123.046 67.081 123.309 66.8166Z" fill="#FFBED1"/>
<path d="M127.848 66.9625C128.192 66.8194 128.355 66.4234 128.213 66.078C128.07 65.7326 127.676 65.5685 127.333 65.7116C126.989 65.8547 126.826 66.2507 126.968 66.5962C127.111 66.9416 127.505 67.1056 127.848 66.9625Z" fill="#FFBED1"/>
<path d="M132.997 66.5036C133.082 66.1398 132.858 65.7751 132.496 65.6892C132.134 65.6033 131.772 65.8286 131.686 66.1925C131.601 66.5564 131.825 66.921 132.187 67.0069C132.549 67.0928 132.911 66.8675 132.997 66.5036Z" fill="#FFBED1"/>
<path d="M109.052 62.0387C109.315 61.7744 109.315 61.3457 109.052 61.0814C108.789 60.817 108.363 60.817 108.1 61.0814C107.837 61.3457 107.837 61.7744 108.1 62.0387C108.363 62.3031 108.789 62.3031 109.052 62.0387Z" fill="#FFBED1"/>
<path d="M113.591 62.1847C113.934 62.0416 114.097 61.6456 113.955 61.3002C113.813 60.9547 113.419 60.7907 113.075 60.9338C112.732 61.0769 112.569 61.4729 112.711 61.8183C112.853 62.1638 113.247 62.3278 113.591 62.1847Z" fill="#FFBED1"/>
<path d="M118.739 61.7248C118.825 61.361 118.601 60.9963 118.239 60.9104C117.877 60.8245 117.514 61.0498 117.429 61.4137C117.343 61.7775 117.567 62.1422 117.929 62.2281C118.291 62.314 118.654 62.0887 118.739 61.7248Z" fill="#FFBED1"/>
<path d="M123.309 62.0392C123.572 61.7749 123.572 61.3462 123.309 61.0819C123.046 60.8175 122.62 60.8175 122.357 61.0819C122.094 61.3462 122.094 61.7749 122.357 62.0392C122.62 62.3036 123.046 62.3036 123.309 62.0392Z" fill="#FFBED1"/>
<path d="M127.848 62.1847C128.192 62.0416 128.355 61.6456 128.213 61.3002C128.07 60.9547 127.676 60.7907 127.333 60.9338C126.989 61.0769 126.826 61.4729 126.968 61.8183C127.111 62.1638 127.505 62.3278 127.848 62.1847Z" fill="#FFBED1"/>
<path d="M132.997 61.7258C133.083 61.3619 132.858 60.9973 132.497 60.9114C132.135 60.8254 131.772 61.0508 131.686 61.4146C131.601 61.7785 131.825 62.1431 132.187 62.2291C132.549 62.315 132.912 62.0897 132.997 61.7258Z" fill="#FFBED1"/>
<path d="M109.234 56.946C109.32 56.5821 109.096 56.2175 108.734 56.1316C108.372 56.0457 108.009 56.271 107.924 56.6349C107.838 56.9987 108.062 57.3634 108.424 57.4493C108.786 57.5352 109.149 57.3099 109.234 56.946Z" fill="#FFBED1"/>
<path d="M113.997 56.8905C114.056 56.5214 113.807 56.1737 113.44 56.1138C113.073 56.0539 112.727 56.3045 112.667 56.6735C112.608 57.0426 112.857 57.3904 113.224 57.4503C113.591 57.5101 113.937 57.2595 113.997 56.8905Z" fill="#FFBED1"/>
<path d="M118.557 57.2614C118.82 56.997 118.82 56.5684 118.557 56.304C118.294 56.0397 117.868 56.0397 117.605 56.304C117.342 56.5684 117.342 56.997 117.605 57.2614C117.868 57.5258 118.294 57.5258 118.557 57.2614Z" fill="#FFBED1"/>
<path d="M123.492 56.947C123.578 56.5831 123.353 56.2185 122.992 56.1326C122.63 56.0466 122.267 56.272 122.181 56.6358C122.096 56.9997 122.32 57.3643 122.682 57.4503C123.044 57.5362 123.407 57.3108 123.492 56.947Z" fill="#FFBED1"/>
<path d="M128.254 56.8904C128.314 56.5214 128.065 56.1737 127.697 56.1138C127.33 56.0539 126.984 56.3045 126.925 56.6735C126.865 57.0426 127.115 57.3904 127.482 57.4502C127.849 57.5101 128.195 57.2595 128.254 56.8904Z" fill="#FFBED1"/>
<path d="M132.814 57.2614C133.077 56.997 133.077 56.5684 132.814 56.304C132.551 56.0397 132.125 56.0397 131.862 56.304C131.599 56.5684 131.599 56.997 131.862 57.2614C132.125 57.5258 132.551 57.5258 132.814 57.2614Z" fill="#FFBED1"/>
<path d="M109.052 52.4836C109.315 52.2192 109.315 51.7906 109.052 51.5262C108.789 51.2618 108.363 51.2618 108.1 51.5262C107.837 51.7906 107.837 52.2192 108.1 52.4836C108.363 52.7479 108.789 52.7479 109.052 52.4836Z" fill="#FFBED1"/>
<path d="M113.591 52.6288C113.934 52.4857 114.097 52.0897 113.955 51.7443C113.813 51.3988 113.419 51.2348 113.075 51.3779C112.732 51.521 112.569 51.917 112.711 52.2624C112.853 52.6079 113.247 52.7719 113.591 52.6288Z" fill="#FFBED1"/>
<path d="M118.74 52.1687C118.825 51.8048 118.601 51.4402 118.239 51.3542C117.877 51.2683 117.515 51.4936 117.429 51.8575C117.344 52.2214 117.568 52.586 117.93 52.6719C118.292 52.7578 118.654 52.5325 118.74 52.1687Z" fill="#FFBED1"/>
<path d="M123.309 52.4836C123.572 52.2192 123.572 51.7906 123.309 51.5262C123.046 51.2618 122.62 51.2618 122.357 51.5262C122.094 51.7906 122.094 52.2192 122.357 52.4836C122.62 52.7479 123.046 52.748 123.309 52.4836Z" fill="#FFBED1"/>
<path d="M127.848 52.6288C128.192 52.4857 128.355 52.0897 128.212 51.7443C128.07 51.3988 127.676 51.2348 127.333 51.3779C126.989 51.521 126.826 51.917 126.968 52.2624C127.11 52.6079 127.504 52.7719 127.848 52.6288Z" fill="#FFBED1"/>
<path d="M132.998 52.1694C133.083 51.8055 132.859 51.4409 132.497 51.355C132.135 51.2691 131.773 51.4944 131.687 51.8583C131.602 52.2221 131.826 52.5867 132.188 52.6727C132.55 52.7586 132.912 52.5333 132.998 52.1694Z" fill="#FFBED1"/>
<path d="M109.052 47.7057C109.315 47.4414 109.315 47.0127 109.052 46.7483C108.789 46.484 108.363 46.484 108.1 46.7484C107.837 47.0127 107.837 47.4414 108.1 47.7057C108.363 47.9701 108.789 47.9701 109.052 47.7057Z" fill="#FFBED1"/>
<path d="M113.59 47.851C113.934 47.7079 114.097 47.3119 113.955 46.9664C113.813 46.621 113.419 46.457 113.075 46.6001C112.731 46.7431 112.568 47.1392 112.711 47.4846C112.853 47.83 113.247 47.9941 113.59 47.851Z" fill="#FFBED1"/>
<path d="M118.74 47.3903C118.825 47.0265 118.601 46.6619 118.239 46.5759C117.878 46.49 117.515 46.7153 117.429 47.0792C117.344 47.4431 117.568 47.8077 117.93 47.8936C118.292 47.9795 118.655 47.7542 118.74 47.3903Z" fill="#FFBED1"/>
<path d="M123.309 47.706C123.572 47.4416 123.572 47.013 123.309 46.7486C123.046 46.4842 122.62 46.4842 122.357 46.7486C122.094 47.013 122.094 47.4416 122.357 47.706C122.62 47.9704 123.046 47.9704 123.309 47.706Z" fill="#FFBED1"/>
<path d="M127.848 47.8507C128.192 47.7076 128.355 47.3116 128.212 46.9662C128.07 46.6208 127.676 46.4567 127.333 46.5998C126.989 46.7429 126.826 47.1389 126.968 47.4843C127.11 47.8298 127.504 47.9938 127.848 47.8507Z" fill="#FFBED1"/>
<path d="M132.998 47.3916C133.083 47.0277 132.859 46.6631 132.497 46.5771C132.135 46.4912 131.773 46.7166 131.687 47.0804C131.602 47.4443 131.826 47.8089 132.188 47.8948C132.55 47.9807 132.912 47.7554 132.998 47.3916Z" fill="#FFBED1"/>
</g>
<path d="M42.2567 86.8601C42.2466 86.962 42.2376 87.0666 42.2269 87.1685C42.1208 88.2877 41.9844 89.3653 41.8831 90.1154H34.018C33.6991 89.7094 33.3579 89.2666 33.0082 88.8009L33.0077 88.7982C32.9456 88.7182 32.8867 88.6371 32.8241 88.5544C32.4914 88.1069 32.155 87.6411 31.8265 87.1711C31.5421 86.7652 31.263 86.3554 30.9976 85.9479C30.9425 85.8636 30.8878 85.7793 30.8331 85.695C30.5153 85.1999 30.2197 84.7081 29.9597 84.2359C29.8998 84.1298 29.843 84.0241 29.7857 83.918C29.766 83.8785 29.7427 83.8364 29.7252 83.7964C29.7252 83.7964 29.7252 83.7964 29.7252 83.7937C28.4543 81.3066 28.8088 79.1279 30.1407 78.4536C30.2197 78.4141 30.3025 78.3783 30.3895 78.3501C30.9318 78.1655 31.6068 78.205 32.3799 78.5299C32.6681 78.6499 32.9509 78.8403 33.2231 79.0852C33.3781 79.2218 33.5298 79.3722 33.6779 79.5408C33.7453 79.6171 33.8127 79.6982 33.8806 79.7798C34.4675 80.5021 35.0077 81.4357 35.4889 82.4221H35.4916C35.5303 82.5069 35.5707 82.5896 35.612 82.6745C36.0631 83.6262 36.4563 84.6131 36.7789 85.4949C36.8118 85.5808 36.8426 85.6683 36.8728 85.7531C37.4173 87.2789 37.7319 88.4307 37.7319 88.4307C37.7319 88.4307 37.6444 87.6891 37.5977 86.6622C37.594 86.5715 37.5892 86.4781 37.5844 86.3827C37.5494 85.4469 37.5526 84.3245 37.6736 83.3093V83.3066C37.6842 83.1962 37.7012 83.0895 37.7181 82.9801C37.8121 82.3362 37.9644 81.7537 38.1931 81.3114C38.5894 80.5427 39.2586 80.3101 39.9441 80.4445C40.0354 80.4626 40.1299 80.4883 40.2227 80.5197C41.2591 80.867 42.262 82.0065 42.3755 83.3674C42.3776 83.3781 42.3808 83.3914 42.3808 83.4026C42.3867 83.4923 42.3914 83.5851 42.3946 83.6838L42.3952 83.6865C42.4291 84.5571 42.3617 85.7147 42.2567 86.8601Z" fill="url(#paint1_linear)"/>
<path d="M23.6419 87.9451C23.6419 87.9461 23.6419 87.9461 23.6419 87.9461C23.6339 87.9616 23.6233 87.9782 23.6138 87.9936C23.5888 88.0342 23.5634 88.0752 23.5363 88.1158C23.4196 88.2977 23.289 88.4871 23.1484 88.6765C23.1245 88.709 23.1001 88.741 23.0762 88.7736C22.9595 88.9299 22.8369 89.0857 22.7128 89.2409C22.569 89.4207 22.422 89.5983 22.2776 89.7685C22.2506 89.8 22.224 89.8309 22.1975 89.8613L22.197 89.8624C22.1227 89.9494 22.0489 90.0336 21.9773 90.1153H18.6078C18.5876 89.8149 18.5627 89.3977 18.5505 88.9662C18.5489 88.9251 18.5478 88.8824 18.5462 88.8419C18.5335 88.3809 18.5377 87.9152 18.5733 87.5679L18.5738 87.5668C18.577 87.5274 18.5818 87.49 18.5865 87.4548C18.5871 87.45 18.5881 87.4452 18.5897 87.4409C18.6704 86.8995 19.1018 86.4695 19.5258 86.3575C19.5634 86.3479 19.6017 86.3398 19.6388 86.335C19.9163 86.2988 20.1779 86.4097 20.3169 86.7282C20.3965 86.9112 20.4427 87.1486 20.4634 87.4089C20.4676 87.4532 20.4719 87.4959 20.473 87.5407V87.5412C20.4947 87.9515 20.4666 88.4001 20.4279 88.7741C20.4236 88.8125 20.4194 88.8499 20.4151 88.8856C20.3695 89.2953 20.3154 89.5898 20.3154 89.5898C20.3154 89.5898 20.4714 89.1374 20.7293 88.541C20.7436 88.5084 20.7584 88.4743 20.7738 88.4401C20.9256 88.0961 21.1092 87.7114 21.3145 87.3417C21.3331 87.3092 21.3517 87.2772 21.3692 87.2446H21.3703C21.5889 86.8627 21.8293 86.5026 22.0834 86.2294C22.1126 86.199 22.1418 86.1681 22.1705 86.1398C22.2341 86.0763 22.2989 86.0198 22.3647 85.9691C22.4803 85.8784 22.5987 85.8096 22.717 85.769C23.0349 85.6597 23.306 85.6613 23.5183 85.7498C23.5522 85.7632 23.5846 85.7797 23.6154 85.7978C24.1306 86.1019 24.2155 86.9832 23.6419 87.9451Z" fill="url(#paint2_linear)"/>
<path d="M123.678 79.7932C123.454 80.0098 123.087 79.806 123.155 79.4992C123.597 77.5174 124.361 73.6838 124.043 72.0172C123.782 70.6553 122.993 71.0756 122.392 71.6417C122.172 71.8497 121.815 71.663 121.867 71.3648C122.148 69.6726 122.522 66.5944 121.656 65.8694C120.934 65.2645 120.215 66.6286 119.75 67.8321C119.628 68.1431 119.172 68.0764 119.146 67.7419C118.933 65.0153 118.235 59.8545 116.01 59.8545C113.784 59.8545 113.088 65.0153 112.875 67.7419C112.85 68.0764 112.391 68.1431 112.271 67.8321C111.806 66.6286 111.085 65.2645 110.364 65.8694C109.5 66.5944 109.871 69.6726 110.155 71.3648C110.203 71.663 109.847 71.8497 109.628 71.6417C109.028 71.0751 108.236 70.6547 107.978 72.0172C107.661 73.6838 108.422 77.5168 108.866 79.4992C108.935 79.806 108.567 80.0098 108.341 79.7932C107.678 79.1541 106.843 78.6969 106.803 80.396C106.735 83.2341 113.225 90.1149 113.225 90.1149H118.796C118.796 90.1149 125.284 83.2336 125.218 80.396C125.177 78.6974 124.341 79.1541 123.678 79.7932ZM109.997 75.8188C109.997 75.8188 108.452 74.317 109.017 73.3285C109.583 72.3394 110.549 74.3517 109.997 75.8188ZM111.679 69.7932C111.679 69.7932 110.599 68.7422 110.993 68.0514C111.388 67.361 112.064 68.7678 111.679 69.7932ZM120.33 69.7932C119.946 68.7678 120.62 67.3605 121.015 68.0514C121.41 68.7422 120.33 69.7932 120.33 69.7932ZM122.052 75.8188C121.5 74.3517 122.466 72.3394 123.031 73.3285C123.597 74.317 122.052 75.8188 122.052 75.8188Z" fill="url(#paint3_linear)"/>
<path d="M116.376 71.4364V90.1155H115.642V71.4364C115.642 71.2326 115.807 71.0693 116.009 71.0693C116.212 71.0693 116.376 71.2326 116.376 71.4364Z" fill="white"/>
<path d="M70.8022 90.1155C109.018 90.1155 139.997 89.955 139.997 89.757C139.997 89.559 109.018 89.3984 70.8022 89.3984C32.5867 89.3984 1.60693 89.559 1.60693 89.757C1.60693 89.955 32.5867 90.1155 70.8022 90.1155Z" fill="#E1E4E5"/>
<g clip-path="url(#clip0)">
<path d="M49.9932 22.2002L50.0952 22.8431L50.0803 22.8452L49.9932 22.2002Z" fill="#FFBED1"/>
<path d="M50.1695 24.1719C50.1631 24.6156 50.127 25.0615 50.059 25.5009L49.9803 25.4879C50.059 25.0528 50.1057 24.6134 50.1206 24.1719H50.1695Z" fill="#FFBED1"/>
<path d="M49.7615 26.7998C49.6297 27.224 49.4682 27.6396 49.2769 28.0422L49.1643 27.9859C49.3577 27.592 49.5235 27.1851 49.6595 26.7673L49.7615 26.7998Z" fill="#FFBED1"/>
<path d="M48.6139 29.2001C48.3652 29.5681 48.0868 29.9166 47.7829 30.2391L47.666 30.1244C47.9678 29.8105 48.2441 29.4729 48.4949 29.1157L48.6139 29.2001Z" fill="#FFBED1"/>
<path d="M46.7968 31.1286C46.4419 31.3949 46.0657 31.6308 45.6704 31.8299L45.5875 31.6611C45.9722 31.4685 46.342 31.2412 46.6884 30.9814L46.7968 31.1286Z" fill="#FFBED1"/>
<path d="M44.4378 32.3148C44.0127 32.436 43.5792 32.5182 43.1414 32.5637L43.1201 32.3646C43.5473 32.3213 43.9723 32.2433 44.3868 32.1265L44.4378 32.3148Z" fill="#FFBED1"/>
<path d="M41.8237 32.6093C41.3838 32.5941 40.946 32.5487 40.5125 32.4751L40.5465 32.2651C40.9715 32.3387 41.4008 32.3842 41.8301 32.4015L41.8237 32.6093Z" fill="#FFBED1"/>
<path d="M39.231 32.1679C38.8102 32.0337 38.3979 31.8713 38.0048 31.6679L38.0961 31.4839C38.4787 31.6809 38.8804 31.8367 39.2926 31.9644L39.231 32.1679Z" fill="#FFBED1"/>
<path d="M36.9124 30.8886C36.7551 30.7241 36.6127 30.5358 36.5235 30.3128C36.4278 30.0921 36.4151 29.8366 36.4512 29.6094L36.6403 29.6375C36.6106 29.8475 36.6233 30.0509 36.7041 30.2371C36.7827 30.4254 36.9102 30.5964 37.0548 30.7479L36.9124 30.8886Z" fill="#FFBED1"/>
<path d="M37.0908 28.3994C37.1907 28.3301 37.3225 28.276 37.4585 28.2911C37.5902 28.3041 37.705 28.3626 37.8028 28.4318C37.9962 28.5768 38.1364 28.776 38.2193 29.0033L38.0493 29.0639C37.9813 28.8756 37.8559 28.7002 37.6965 28.5833C37.6179 28.5249 37.5286 28.4838 37.4436 28.4773C37.3586 28.4665 37.2757 28.4989 37.1971 28.553L37.0908 28.3994Z" fill="#FFBED1"/>
<path d="M37.9325 30.3323C37.6817 30.7111 37.3565 31.0293 36.9952 31.2869L36.9124 31.1657C37.2588 30.9124 37.5669 30.5986 37.7986 30.2393L37.9325 30.3323Z" fill="#FFBED1"/>
<path d="M35.7648 31.7888C35.3206 31.8407 34.8722 31.7714 34.4535 31.6329L34.4854 31.5269C34.8955 31.6546 35.327 31.7152 35.7478 31.6589L35.7648 31.7888Z" fill="#FFBED1"/>
<path d="M33.2719 31.0442C32.9063 30.7996 32.5663 30.5161 32.2496 30.2109L32.2815 30.1763C32.6024 30.4728 32.9467 30.7455 33.3122 30.9771L33.2719 31.0442Z" fill="#FFBED1"/>
<path d="M31.3783 29.224L31 28.7002L31.3889 29.2132L31.3783 29.224Z" fill="#FFBED1"/>
<path d="M101.861 9.09424L102.454 9.33233L102.448 9.34749L101.861 9.09424Z" fill="#FFBED1"/>
<path d="M103.615 9.94482C103.987 10.1764 104.344 10.4362 104.679 10.7197L104.628 10.7803C104.301 10.4903 103.953 10.224 103.589 9.98379L103.615 9.94482Z" fill="#FFBED1"/>
<path d="M105.627 11.644C105.918 11.9774 106.188 12.3302 106.428 12.7025L106.322 12.7739C106.088 12.4038 105.829 12.051 105.547 11.7176L105.627 11.644Z" fill="#FFBED1"/>
<path d="M107.066 13.8735C107.249 14.2805 107.402 14.7004 107.521 15.1311L107.364 15.1744C107.253 14.7502 107.109 14.3346 106.934 13.9341L107.066 13.8735Z" fill="#FFBED1"/>
<path d="M107.767 16.4492C107.812 16.8951 107.818 17.3453 107.784 17.7934L107.599 17.7782C107.633 17.3432 107.629 16.9038 107.589 16.4665L107.767 16.4492Z" fill="#FFBED1"/>
<path d="M107.565 19.1201C107.451 19.5552 107.298 19.9772 107.115 20.3842L106.936 20.2998C107.117 19.9015 107.268 19.4902 107.383 19.0703L107.565 19.1201Z" fill="#FFBED1"/>
<path d="M106.482 21.5596C106.244 21.9362 105.982 22.2977 105.7 22.6397L105.54 22.5011C105.819 22.1656 106.076 21.815 106.312 21.447L106.482 21.5596Z" fill="#FFBED1"/>
<path d="M104.786 23.6072C104.458 23.9081 104.112 24.1851 103.738 24.4254L103.63 24.2501C103.991 24.0163 104.329 23.7436 104.646 23.4492L104.786 23.6072Z" fill="#FFBED1"/>
<path d="M102.522 24.9837C102.303 25.0378 102.072 25.066 101.838 25.0313C101.602 25.001 101.381 24.882 101.207 24.737L101.328 24.5854C101.489 24.7175 101.668 24.8106 101.868 24.8365C102.067 24.8647 102.276 24.8387 102.478 24.7889L102.522 24.9837Z" fill="#FFBED1"/>
<path d="M100.512 23.5574C100.503 23.434 100.527 23.2912 100.608 23.1808C100.686 23.0704 100.792 23.0011 100.903 22.9514C101.124 22.854 101.364 22.8345 101.598 22.8778L101.564 23.0574C101.37 23.0206 101.158 23.0423 100.977 23.1224C100.888 23.1613 100.807 23.2198 100.758 23.2912C100.707 23.3604 100.693 23.4492 100.697 23.5466L100.512 23.5574Z" fill="#FFBED1"/>
<path d="M102.573 23.8086C102.765 24.222 102.869 24.6679 102.901 25.1181L102.756 25.1289C102.718 24.696 102.612 24.2675 102.427 23.88L102.573 23.8086Z" fill="#FFBED1"/>
<path d="M102.697 26.4492C102.514 26.8647 102.227 27.2219 101.898 27.5184L101.825 27.4362C102.142 27.1418 102.414 26.7933 102.582 26.3972L102.697 26.4492Z" fill="#FFBED1"/>
<path d="M100.797 28.2523C100.403 28.4471 99.9912 28.6008 99.5704 28.722L99.5576 28.6744C99.972 28.5445 100.378 28.3822 100.76 28.1787L100.797 28.2523Z" fill="#FFBED1"/>
<path d="M98.2932 28.9839L97.6577 29.0466L98.291 28.9666L98.2932 28.9839Z" fill="#FFBED1"/>
<path d="M47.6767 14.4666C47.6767 14.4666 43.6111 29.8583 44.0319 30.5769C44.4527 31.2977 54.4115 34.9536 57.6418 32.3302C57.6418 32.3302 57.3974 29.9254 57.729 27.9947C58.0605 26.064 60.2325 16.7263 60.2325 16.7263L47.6767 14.4666Z" fill="white"/>
<path d="M55.4613 32.6571C55.7886 32.3778 56.0904 32.0965 56.3581 31.7804C56.4942 31.6246 56.6217 31.4623 56.7407 31.2913C56.864 31.1224 56.9681 30.9406 57.0892 30.7588C57.051 30.9731 56.9851 31.1852 56.8831 31.38C56.7874 31.577 56.6599 31.7588 56.5175 31.9255C56.373 32.09 56.2136 32.2393 56.0351 32.3649C55.8587 32.4882 55.6675 32.5965 55.4613 32.6571Z" fill="#ABBAC2"/>
<path d="M48.7839 17.0854L49.9061 17.3171L51.026 17.5573L53.2639 18.0313C54.0099 18.1915 54.7579 18.3365 55.506 18.4816C56.2562 18.6201 57.0064 18.75 57.7673 18.817C57.576 18.817 57.3847 18.8192 57.1934 18.8127L56.6196 18.7781C56.2392 18.7391 55.8588 18.698 55.4805 18.6439C54.7218 18.5378 53.9695 18.3993 53.2214 18.2413C52.4733 18.0811 51.7274 17.9123 50.9878 17.7153C50.2482 17.5248 49.5108 17.3214 48.7839 17.0854Z" fill="#ABBAC2"/>
<path d="M48.5183 18.8818L49.6404 19.1134L50.7604 19.3537L52.9983 19.8277C53.7442 19.9879 54.4923 20.1329 55.2404 20.2779C55.9885 20.4165 56.7408 20.5463 57.5016 20.6134C57.3104 20.6134 57.1191 20.6156 56.9278 20.6091L56.354 20.5745C55.9736 20.5355 55.5932 20.4944 55.2149 20.4403C54.4562 20.3342 53.7039 20.1957 52.9558 20.0377C52.2077 19.8775 51.4617 19.7087 50.7222 19.5117C49.9847 19.3212 49.2473 19.1178 48.5183 18.8818Z" fill="#ABBAC2"/>
<path d="M48.2548 20.6763L49.3769 20.9079L50.4969 21.1481L52.7347 21.6222C53.4807 21.7823 54.2288 21.9274 54.9768 22.0724C55.727 22.2109 56.4773 22.3408 57.2381 22.4079C57.0468 22.4079 56.8555 22.41 56.6643 22.4035L56.0905 22.3689C55.71 22.3299 55.3296 22.2888 54.9513 22.2347C54.1926 22.1286 53.4403 21.9901 52.6922 21.8321C51.9442 21.6719 51.1982 21.5031 50.4586 21.3061C49.719 21.1157 48.9816 20.9122 48.2548 20.6763Z" fill="#ABBAC2"/>
<path d="M47.989 22.4707L49.1111 22.7023L50.2311 22.9426L52.469 23.4166C53.2149 23.5768 53.963 23.7218 54.7111 23.8668C55.4613 24.0053 56.2115 24.1352 56.9723 24.2023C56.7811 24.2023 56.5898 24.2045 56.3985 24.198L55.8247 24.1633C55.4443 24.1244 55.0639 24.0833 54.6856 24.0291C53.9269 23.9231 53.1746 23.7846 52.4265 23.6265C51.6784 23.4664 50.9324 23.2975 50.1929 23.1006C49.4554 22.9101 48.718 22.7088 47.989 22.4707Z" fill="#ABBAC2"/>
<path d="M47.7256 24.2673L48.8477 24.4989L49.9677 24.7392L52.2056 25.2132C52.9515 25.3734 53.6996 25.5184 54.4477 25.6634C55.1958 25.802 55.9481 25.9318 56.7089 25.9989C56.5176 25.9989 56.3264 26.0011 56.1351 25.9946L55.5613 25.96C55.1809 25.921 54.8005 25.8799 54.4222 25.8258C53.6635 25.7197 52.9111 25.5812 52.1631 25.4232C51.415 25.263 50.669 25.0942 49.9294 24.8972C49.1899 24.7067 48.4524 24.5033 47.7256 24.2673Z" fill="#ABBAC2"/>
<path d="M47.4598 26.0618L48.582 26.2934L49.702 26.5336L51.9398 27.0077C52.6858 27.1678 53.4338 27.3128 54.1819 27.4579C54.9321 27.5964 55.6823 27.7263 56.4432 27.7934C56.2519 27.7934 56.0606 27.7955 55.8694 27.789L55.2955 27.7544C54.9151 27.7154 54.5347 27.6743 54.1564 27.6202C53.3977 27.5141 52.6454 27.3756 51.8973 27.2176C51.1492 27.0574 50.4033 26.8886 49.6637 26.6916C48.9262 26.5012 48.1888 26.2977 47.4598 26.0618Z" fill="#ABBAC2"/>
<path d="M47.1942 27.8582L48.3163 28.0898L49.4363 28.33L51.6742 28.804C52.4201 28.9642 53.1682 29.1092 53.9163 29.2543C54.6644 29.3928 55.4167 29.5227 56.1775 29.5898C55.9863 29.5898 55.795 29.5919 55.6037 29.5854L55.0299 29.5508C54.6495 29.5118 54.2691 29.4707 53.8908 29.4166C53.1321 29.3105 52.3798 29.172 51.6317 29.014C50.8836 28.8538 50.1377 28.685 49.3981 28.488C48.6606 28.2975 47.9232 28.0941 47.1942 27.8582Z" fill="#ABBAC2"/>
<path d="M75.585 15.2566H68.7992V21.2804H75.585V15.2566Z" fill="#FF756D"/>
<path d="M76.7157 18.6807H67.6665V12.4686C70.5547 11.6179 73.8254 11.6179 76.7157 12.4686V18.6807Z" fill="#E1251B"/>
<path d="M68.2382 12.8474C68.5591 12.9361 68.8821 13.0054 69.2073 13.0573C69.5324 13.1158 69.8576 13.1612 70.1849 13.1894C70.8394 13.2521 71.4961 13.2803 72.1549 13.2716C72.4822 13.2586 72.8116 13.2586 73.1389 13.2283L73.632 13.1937C73.7956 13.1742 73.9593 13.1569 74.1229 13.1418C74.7796 13.0747 75.4278 12.9556 76.0824 12.8452C75.7657 12.9405 75.4448 13.0314 75.1239 13.1136C74.7987 13.1785 74.4757 13.2608 74.1463 13.3063C73.4896 13.4231 72.8244 13.4664 72.1592 13.4881C71.494 13.4902 70.8267 13.4556 70.1679 13.3539C69.509 13.25 68.8523 13.105 68.2382 12.8474Z" fill="#A20800"/>
<path d="M68.2403 13.96C68.2913 14.6548 68.2998 15.3431 68.3254 16.0292C68.3339 16.3734 68.3487 16.7154 68.3657 17.0574C68.3891 17.3994 68.404 17.7435 68.4635 18.0855C68.3232 17.7652 68.251 17.4188 68.2 17.0747C68.1468 16.7305 68.1235 16.382 68.1128 16.0357C68.0958 15.3431 68.1256 14.6483 68.2403 13.96Z" fill="#A20800"/>
<path d="M69.4602 14.1936C69.5367 14.8451 69.558 15.4966 69.575 16.146L69.5899 17.12L69.5984 17.607C69.6048 17.7672 69.6026 17.9317 69.6473 18.0897C69.4942 17.7932 69.4645 17.4555 69.422 17.133C69.3859 16.8062 69.3689 16.4793 69.3603 16.1546C69.3518 15.4988 69.371 14.8451 69.4602 14.1936Z" fill="#A20800"/>
<path d="M70.8352 14.4187C70.8904 15.001 70.9032 15.5767 70.9287 16.1525C70.9372 16.4403 70.9499 16.7261 70.9669 17.0139C70.9882 17.2997 71.0009 17.5875 71.052 17.8754C70.9223 17.6113 70.8522 17.3235 70.8033 17.0334C70.7523 16.7434 70.7289 16.4533 70.7162 16.1611C70.697 15.5767 70.7247 14.9923 70.8352 14.4187Z" fill="#A20800"/>
<path d="M75.9762 13.96C76.0931 14.6461 76.1207 15.3409 76.1037 16.0357C76.091 16.382 76.0676 16.7305 76.0166 17.0747C75.9656 17.4188 75.8933 17.7652 75.7531 18.0855C75.8126 17.7435 75.8274 17.3994 75.8508 17.0574C75.8699 16.7154 75.8827 16.3712 75.8912 16.0292C75.9167 15.3431 75.9252 14.6548 75.9762 13.96Z" fill="#A20800"/>
<path d="M74.7563 14.1936C74.8456 14.8451 74.8647 15.4966 74.852 16.1503C74.8435 16.4772 74.8265 16.804 74.7903 17.1287C74.7499 17.4512 74.7181 17.791 74.5651 18.0854C74.6118 17.9295 74.6076 17.765 74.6139 17.6027L74.6224 17.1157L74.6373 16.1417C74.6586 15.4966 74.6798 14.8473 74.7563 14.1936Z" fill="#A20800"/>
<path d="M73.3812 14.4187C73.4917 14.9945 73.5193 15.5767 73.5002 16.1611C73.4875 16.4533 73.4641 16.7455 73.4131 17.0334C73.3642 17.3213 73.2941 17.6113 73.1644 17.8754C73.2154 17.5875 73.2282 17.2997 73.2494 17.0139C73.2664 16.7282 73.2792 16.4403 73.2877 16.1525C73.3132 15.5767 73.3238 15.001 73.3812 14.4187Z" fill="#A20800"/>
<path d="M72.1273 14.4187C72.2166 14.9945 72.2378 15.5724 72.2357 16.1481C72.2315 16.436 72.223 16.7261 72.1996 17.0139C72.1762 17.3018 72.1465 17.594 72.0636 17.8733C72.0657 17.5832 72.0381 17.2975 72.0338 17.0096C72.0232 16.7217 72.0232 16.4339 72.0232 16.146C72.0317 15.5702 72.0487 14.9945 72.1273 14.4187Z" fill="#A20800"/>
<path opacity="0.11" d="M73.4895 83.4038C88.1365 83.4038 100.01 83.1587 100.01 82.8562C100.01 82.5538 88.1365 82.3086 73.4895 82.3086C58.8426 82.3086 46.9689 82.5538 46.9689 82.8562C46.9689 83.1587 58.8426 83.4038 73.4895 83.4038Z" fill="#344C82"/>
<path d="M72.7159 79.2394C87.7655 79.2394 99.9656 66.8139 99.9656 51.4862C99.9656 36.1585 87.7655 23.7329 72.7159 23.7329C57.6664 23.7329 45.4663 36.1585 45.4663 51.4862C45.4663 66.8139 57.6664 79.2394 72.7159 79.2394Z" fill="#FCF3F6"/>
<path d="M78.7324 50.1807C84.4121 50.1807 89.0164 45.4913 89.0164 39.7067C89.0164 33.922 84.4121 29.2327 78.7324 29.2327C73.0528 29.2327 68.4485 33.922 68.4485 39.7067C68.4485 45.4913 73.0528 50.1807 78.7324 50.1807Z" fill="white"/>
<path d="M48.5691 68.2976C48.5691 68.2976 43.7512 82.4383 45.2134 82.8431C46.6777 83.2478 57.1317 74.2954 57.1317 74.2954L48.5691 68.2976Z" fill="#E1251B"/>
<path d="M96.6864 68.2976C96.6864 68.2976 101.504 82.4383 100.042 82.8431C98.5779 83.2478 88.1239 74.2954 88.1239 74.2954L96.6864 68.2976Z" fill="#4C649E"/>
<path d="M72.716 20.3994C55.8587 20.3994 42.1935 34.3172 42.1935 51.486C42.1935 68.6548 55.8587 82.5726 72.716 82.5726C89.5732 82.5726 103.238 68.6548 103.238 51.486C103.238 34.3172 89.5732 20.3994 72.716 20.3994ZM72.716 79.2392C57.6672 79.2392 45.4663 66.8128 45.4663 51.486C45.4663 36.1592 57.6672 23.7327 72.716 23.7327C87.7647 23.7327 99.9656 36.1592 99.9656 51.486C99.9656 66.815 87.7647 79.2392 72.716 79.2392Z" fill="#E1251B"/>
<path opacity="0.23" d="M71.6555 52.7957H73.4641L72.5587 36.4451L71.6555 52.7957Z" fill="#94C8E3"/>
<path d="M71.3877 52.419H73.1963L72.2909 36.0706L71.3877 52.419Z" fill="#E1251B"/>
<path opacity="0.23" d="M71.7086 52.3215L73.0773 53.5271L86.2898 36.5466L71.7086 52.3215Z" fill="#94C8E3"/>
<path d="M71.4408 51.947L72.8094 53.1504L86.022 36.1699L71.4408 51.947Z" fill="#E1251B"/>
<path opacity="0.23" d="M72.2909 54.2284C73.5398 54.2284 74.5521 53.1973 74.5521 51.9253C74.5521 50.6534 73.5398 49.6223 72.2909 49.6223C71.0421 49.6223 70.0297 50.6534 70.0297 51.9253C70.0297 53.1973 71.0421 54.2284 72.2909 54.2284Z" fill="#94C8E3"/>
<path opacity="0.23" d="M72.2909 55.1029C73.5398 55.1029 74.5521 54.0718 74.5521 52.7999C74.5521 51.5279 73.5398 50.4968 72.2909 50.4968C71.0421 50.4968 70.0297 51.5279 70.0297 52.7999C70.0297 54.0718 71.0421 55.1029 72.2909 55.1029Z" fill="#94C8E3"/>
<path d="M72.2909 54.7218C73.5398 54.7218 74.5521 53.6907 74.5521 52.4188C74.5521 51.1468 73.5398 50.1157 72.2909 50.1157C71.0421 50.1157 70.0297 51.1468 70.0297 52.4188C70.0297 53.6907 71.0421 54.7218 72.2909 54.7218Z" fill="#E1251B"/>
<path opacity="0.23" d="M71.2836 53.1203C71.4599 53.7112 72.0954 54.0034 72.5842 53.8606C73.26 53.6658 73.5724 52.6701 73.158 52.1073C72.8923 51.7458 72.3504 51.5965 71.8956 51.7956C71.4068 52.0099 71.122 52.5813 71.2836 53.1203Z" fill="#94C8E3"/>
<path d="M72.716 25.1787C72.8478 25.3995 72.9158 25.6203 72.9668 25.841C73.0135 26.0618 73.0348 26.2826 73.0348 26.5034C73.0348 26.7242 73.0135 26.9449 72.9668 27.1657C72.9179 27.3865 72.8499 27.6073 72.716 27.8281C72.5842 27.6073 72.5141 27.3865 72.4652 27.1657C72.4185 26.9449 72.3972 26.7242 72.3972 26.5034C72.3972 26.2826 72.4185 26.0618 72.4652 25.841C72.5162 25.6203 72.5842 25.3995 72.716 25.1787Z" fill="#FF756D"/>
<path d="M59.801 28.7024C60.0241 28.8258 60.192 28.9838 60.3429 29.1504C60.4917 29.3171 60.6192 29.4989 60.7276 29.6894C60.836 29.8799 60.9252 30.0833 60.9932 30.2976C61.0591 30.5141 61.108 30.7414 61.1016 30.9989C60.8785 30.8756 60.7106 30.7175 60.5597 30.553C60.4109 30.3864 60.2834 30.2046 60.175 30.0141C60.0666 29.8214 59.9774 29.6201 59.9094 29.4037C59.8435 29.1872 59.7946 28.9621 59.801 28.7024Z" fill="#FF756D"/>
<path d="M50.3459 38.3324C50.5988 38.3259 50.822 38.3756 51.0345 38.4427C51.2449 38.512 51.4447 38.6029 51.6338 38.7133C51.823 38.8237 51.9994 38.9536 52.163 39.1051C52.3267 39.2588 52.4797 39.4298 52.6008 39.657C52.3458 39.6635 52.1248 39.6137 51.9122 39.5466C51.7018 39.4774 51.5021 39.3865 51.315 39.2761C51.128 39.1657 50.9495 39.0358 50.7859 38.8843C50.6201 38.7306 50.4671 38.5596 50.3459 38.3324Z" fill="#FF756D"/>
<path d="M46.8839 51.4861C47.1007 51.3519 47.3175 51.2826 47.5342 51.2306C47.751 51.183 47.9678 51.1614 48.1845 51.1614C48.4013 51.1614 48.6181 51.183 48.8349 51.2306C49.0516 51.2804 49.2684 51.3497 49.4852 51.4861C49.2684 51.6203 49.0516 51.6917 48.8349 51.7415C48.6181 51.7891 48.4013 51.8107 48.1845 51.8107C47.9678 51.8107 47.751 51.7891 47.5342 51.7415C47.3196 51.6917 47.1007 51.6224 46.8839 51.4861Z" fill="#FF756D"/>
<path d="M50.3459 64.6419C50.4671 64.4146 50.6222 64.2436 50.7859 64.0899C50.9495 63.9384 51.128 63.8086 51.315 63.6982C51.5021 63.5878 51.7018 63.4969 51.9122 63.4276C52.1248 63.3605 52.3479 63.3107 52.6008 63.3172C52.4797 63.5445 52.3267 63.7155 52.163 63.8692C51.9994 64.0207 51.8209 64.1505 51.6338 64.2609C51.4447 64.3713 51.247 64.4622 51.0345 64.5315C50.822 64.5964 50.5988 64.6484 50.3459 64.6419Z" fill="#FF756D"/>
<path d="M59.801 74.2719C59.7946 74.0143 59.8435 73.787 59.9094 73.5706C59.9774 73.3563 60.0666 73.1528 60.175 72.9602C60.2834 72.7675 60.4109 72.5879 60.5597 72.4212C60.7106 72.2546 60.8785 72.0987 61.1016 71.9753C61.108 72.2351 61.0591 72.4602 60.9932 72.6766C60.9252 72.8909 60.836 73.0944 60.7276 73.2849C60.6192 73.4753 60.4917 73.6572 60.3429 73.8238C60.1899 73.9905 60.0241 74.1463 59.801 74.2719Z" fill="#FF756D"/>
<path d="M72.716 77.7956C72.5842 77.5748 72.5162 77.354 72.4652 77.1332C72.4185 76.9125 72.3972 76.6917 72.3972 76.4709C72.3972 76.2501 72.4185 76.0294 72.4652 75.8086C72.5141 75.5878 72.5821 75.367 72.716 75.1462C72.8478 75.367 72.9179 75.5878 72.9668 75.8086C73.0135 76.0294 73.0348 76.2501 73.0348 76.4709C73.0348 76.6917 73.0135 76.9125 72.9668 77.1332C72.9158 77.354 72.8478 77.5748 72.716 77.7956Z" fill="#FF756D"/>
<path d="M85.631 74.2719C85.4079 74.1485 85.24 73.9905 85.0891 73.8238C84.9403 73.6572 84.8128 73.4753 84.7044 73.2849C84.596 73.0944 84.5068 72.8909 84.4388 72.6766C84.3729 72.4602 84.324 72.2329 84.3304 71.9753C84.5535 72.0987 84.7214 72.2546 84.8723 72.4212C85.0211 72.5879 85.1486 72.7697 85.257 72.9602C85.3654 73.1528 85.4546 73.3541 85.5227 73.5706C85.5885 73.787 85.6374 74.0121 85.631 74.2719Z" fill="#FF756D"/>
<path d="M95.0862 64.6419C94.8333 64.6484 94.6101 64.5986 94.3976 64.5315C94.1872 64.4622 93.9874 64.3713 93.7983 64.2609C93.6091 64.1505 93.4327 64.0207 93.2691 63.8692C93.1055 63.7155 92.9524 63.5445 92.8313 63.3172C93.0863 63.3107 93.3073 63.3605 93.5199 63.4276C93.7303 63.4969 93.93 63.5878 94.1171 63.6982C94.3041 63.8086 94.4826 63.9384 94.6462 64.0899C94.812 64.2436 94.965 64.4146 95.0862 64.6419Z" fill="#FF756D"/>
<path d="M98.5482 51.4861C98.3314 51.6203 98.1146 51.6895 97.8978 51.7415C97.6811 51.7891 97.4643 51.8107 97.2475 51.8107C97.0308 51.8107 96.814 51.7891 96.5972 51.7415C96.3804 51.6917 96.1637 51.6224 95.9469 51.4861C96.1637 51.3519 96.3804 51.2804 96.5972 51.2306C96.814 51.183 97.0308 51.1614 97.2475 51.1614C97.4643 51.1614 97.6811 51.183 97.8978 51.2306C98.1146 51.2826 98.3314 51.3519 98.5482 51.4861Z" fill="#FF756D"/>
<path d="M95.0862 38.3323C94.965 38.5596 94.8099 38.7306 94.6462 38.8843C94.4826 39.0358 94.3041 39.1657 94.1171 39.2761C93.93 39.3864 93.7303 39.4774 93.5199 39.5466C93.3073 39.6137 93.0842 39.6635 92.8313 39.657C92.9524 39.4297 93.1055 39.2587 93.2691 39.1051C93.4327 38.9535 93.6113 38.8237 93.7983 38.7133C93.9874 38.6029 94.1851 38.512 94.3976 38.4427C94.6101 38.3778 94.8333 38.3258 95.0862 38.3323Z" fill="#FF756D"/>
<path d="M85.631 28.7024C85.6374 28.96 85.5885 29.1872 85.5227 29.4037C85.4546 29.618 85.3654 29.8214 85.257 30.0141C85.1486 30.2067 85.0211 30.3864 84.8723 30.553C84.7214 30.7197 84.5535 30.8756 84.3304 30.9989C84.324 30.7392 84.3729 30.5141 84.4388 30.2976C84.5068 30.0833 84.596 29.8799 84.7044 29.6894C84.8128 29.4989 84.9403 29.3171 85.0891 29.1504C85.2421 28.9838 85.41 28.8279 85.631 28.7024Z" fill="#FF756D"/>
<path opacity="0.23" d="M72.7159 25.1745C87.5203 25.1745 99.566 37.1983 99.9549 52.1788C99.9613 51.9494 99.9656 51.7178 99.9656 51.4862C99.9656 36.1593 87.7647 23.7329 72.7159 23.7329C57.6672 23.7329 45.4663 36.1593 45.4663 51.4862C45.4663 51.7178 45.4706 51.9472 45.4769 52.1788C45.8659 37.1983 57.9116 25.1745 72.7159 25.1745Z" fill="#E1251B"/>
<path d="M71.2836 52.7499C71.4599 53.3408 72.0954 53.633 72.5842 53.4902C73.26 53.2954 73.5724 52.2997 73.158 51.7369C72.8923 51.3755 72.3504 51.2261 71.8956 51.4253C71.4068 51.6395 71.122 52.211 71.2836 52.7499Z" fill="white"/>
<path d="M78.7325 21.8367C80.7536 22.1808 82.7152 22.8388 84.6003 23.6613C86.4854 24.486 88.2748 25.5358 89.9516 26.7436C90.7826 27.3583 91.5774 28.0228 92.3404 28.722C93.0948 29.4319 93.8195 30.1743 94.4868 30.9687C95.8236 32.5553 96.9648 34.3085 97.8851 36.17C97.3729 35.2674 96.8586 34.367 96.2571 33.525C95.6812 32.6657 95.0351 31.8605 94.3636 31.0769C93.6814 30.3042 92.9652 29.5639 92.2107 28.867C91.4478 28.1787 90.6551 27.5228 89.8283 26.9189C88.1749 25.7046 86.3961 24.6657 84.5344 23.8129C83.6057 23.3843 82.6536 23.0012 81.6866 22.67C80.7175 22.3345 79.7335 22.0445 78.7325 21.8367Z" fill="#94C8E3"/>
<path d="M72.2527 80.5249C70.204 80.5596 68.1574 80.2738 66.1575 79.8128C64.1556 79.3496 62.2089 78.6483 60.3472 77.7695C59.4206 77.3193 58.5216 76.8106 57.646 76.2652C56.7789 75.7067 55.9331 75.1093 55.1361 74.4513C53.5401 73.1375 52.1034 71.6245 50.8687 69.9622C51.5317 70.7565 52.199 71.5444 52.9407 72.263C53.6591 73.0011 54.439 73.6743 55.2381 74.3215C56.0478 74.9557 56.8809 75.5509 57.748 76.0985C58.6215 76.6353 59.5162 77.1331 60.4385 77.5747C62.2811 78.4622 64.2151 79.157 66.1958 79.6505C67.1861 79.9015 68.1892 80.1028 69.2008 80.2479C70.2103 80.4015 71.2283 80.5033 72.2527 80.5249Z" fill="#A10800"/>
<path d="M81.8269 41.5641C81.9056 41.642 81.9332 41.6312 81.9842 41.7091C82.1478 41.958 82.6855 42.155 82.9915 42.2718C83.5207 42.7026 84.3644 43.5662 84.5515 42.7199C84.7172 41.971 84.8554 41.5987 84.7236 41.1593C84.7151 41.116 84.4027 40.9125 84.3751 40.8628C84.1222 40.3844 83.8735 39.8887 83.5781 39.4667C83.1424 38.8454 82.5708 39.1939 82.6643 39.3801C82.694 39.4385 83.712 39.8866 83.5165 39.761C83.2848 39.4039 83.2997 39.4645 83.0426 39.2697C82.5219 38.8757 81.9502 39.3 82.3922 39.5879C82.4602 39.6312 82.7301 39.6268 82.8534 39.6636C82.8768 39.6701 82.8938 39.6788 82.9023 39.6918C82.9129 39.7069 82.6898 39.5489 82.5665 39.471C82.0182 39.1225 81.6484 39.6615 81.8057 39.8736C81.8631 39.9515 82.2732 39.8281 82.3391 39.8952C82.3986 39.9537 81.9056 39.5857 81.7483 39.7026C81.3487 39.9991 81.4741 40.7675 81.5868 40.958L81.9927 40.5684C81.9736 40.5381 82.1521 40.8303 82.218 40.9775C82.2881 41.1831 82.2796 41.1593 82.1903 41.0857" fill="#EDBDA3"/>
<path d="M81.8269 39.6831C81.9162 39.6593 82.0118 39.668 82.1032 39.694C82.1946 39.7199 82.2796 39.7697 82.3497 39.8368C82.422 39.9061 82.4687 39.9905 82.5091 40.0684C82.5516 40.1485 82.592 40.2308 82.6217 40.3174C82.5537 40.2546 82.4963 40.1853 82.4411 40.1139C82.3816 40.0425 82.3391 39.9689 82.2774 39.9148C82.1584 39.7979 82.0033 39.7264 81.8269 39.6831Z" fill="#CC8972"/>
<path d="M82.2583 39.3606C82.3476 39.3693 82.4368 39.3887 82.524 39.4104C82.6132 39.4364 82.694 39.4472 82.7875 39.5013C82.8682 39.5662 82.9214 39.6398 82.9681 39.7177C83.0149 39.7957 83.0574 39.8779 83.085 39.9667C83.0191 39.9017 82.9618 39.8346 82.9022 39.7675C82.8427 39.7048 82.7854 39.6333 82.7259 39.5879C82.7046 39.5684 82.6536 39.5554 82.6153 39.5381C82.575 39.5208 82.5346 39.5056 82.4942 39.4861C82.4156 39.4493 82.3369 39.4104 82.2583 39.3606Z" fill="#CC8972"/>
<path d="M82.7642 39.1333C82.8428 39.1485 82.9129 39.1766 82.9852 39.2047C83.0553 39.2329 83.1254 39.2675 83.1892 39.2978L83.2105 39.3086L83.2211 39.313C83.2296 39.3173 83.2423 39.3216 83.2487 39.3259C83.2721 39.3433 83.2848 39.3627 83.2976 39.3801C83.3231 39.4147 83.3422 39.4493 83.3571 39.4861C83.3911 39.5575 83.4187 39.6311 83.4379 39.7091C83.3847 39.6506 83.338 39.5878 83.2933 39.5272L83.2232 39.4428C83.2126 39.4298 83.1977 39.419 83.1913 39.4125C83.1892 39.4125 83.1935 39.4147 83.1935 39.4125C83.1935 39.4125 83.1828 39.4082 83.1765 39.4082L83.1467 39.3974C83.0723 39.3649 83.0086 39.3259 82.9427 39.2827C82.8832 39.2372 82.8194 39.1917 82.7642 39.1333Z" fill="#CC8972"/>
<path opacity="0.11" d="M106.677 90.367C106.677 90.67 102.99 90.9146 98.4441 90.9146C93.8961 90.9146 90.2109 90.67 90.2109 90.367C90.2109 90.0639 93.8982 89.8193 98.4441 89.8193C102.99 89.8193 106.677 90.0639 106.677 90.367Z" fill="#344C82"/>
<path d="M103.047 65.969C103.005 66.3542 102.884 66.9105 102.794 67.3542C102.68 67.9278 102.393 67.9127 102.414 67.6768C102.423 67.5902 102.588 66.2417 102.61 66.1573C102.627 66.0837 102.542 66.0945 102.512 66.3845C102.512 66.3867 102.431 66.7287 102.376 67.0361C102.236 67.7828 101.974 67.6161 101.972 67.4192C101.972 67.3456 102.068 66.1551 102.07 66.0837C102.07 66.0512 102.04 65.5382 102.021 65.3954C101.968 65.1529 101.925 65.1205 101.891 65.2482C101.821 65.8413 101.696 66.2179 101.526 66.1075C101.388 66.0166 101.49 65.391 101.507 64.9581C101.517 64.6919 101.719 64.1162 101.898 63.8802C102.102 63.3023 102.461 62.4192 102.99 62.969C103.46 63.456 103.774 64.1465 103.874 64.5404C103.889 64.5772 103.904 64.6897 103.906 64.7395C103.931 65.2222 103.91 65.5123 103.88 65.9733C103.836 66.6529 103.606 66.8239 103.591 66.64C103.587 66.5815 103.651 65.5144 103.562 65.7027C103.549 66.0837 103.415 66.5426 103.364 66.9841C103.298 67.5685 103.022 67.5209 103.024 67.285C103.024 67.1984 103.126 66.1291 103.128 66.0447C103.128 66.0296 103.132 65.9213 103.086 65.9149C103.064 65.9127 103.049 65.943 103.047 65.969Z" fill="#EDBDA3"/>
<path d="M84.4474 41.1572L89.9389 45.8304L89.2695 45.4603L94.4614 46.7243L93.8876 50.9256L88.5852 48.3715L88.1559 48.2655L87.9136 47.9992L83.0532 42.6507L84.4474 41.1572Z" fill="#FCC858"/>
<path d="M100.144 61.0122C100.144 61.0122 101.978 68.7351 102.41 75.2958C102.41 75.2958 100.746 76.7178 99.1836 76.9429C99.1836 76.9429 96.4825 70.8261 94.4061 64.9646L100.144 61.0122Z" fill="#233561"/>
<path d="M98.4441 62.6743C98.4441 62.6743 96.7354 70.3323 93.9704 76.8474C93.9704 76.8474 92.0726 77.1591 90.5743 76.6505C90.5743 76.6505 91.1397 67.2132 92.1088 60.6072L98.4441 62.6743Z" fill="#233561"/>
<path d="M95.0203 46.1485C95.4453 45.8649 95.2774 44.8758 95.2392 44.3455L97.7575 42.3779C97.7682 42.445 97.7682 44.5013 97.7788 44.5684C97.9233 45.5165 99.5406 46.5554 99.7042 46.6485C100.688 47.2113 99.2601 52.313 94.2658 49.5121C94.2445 49.5013 94.2233 49.4883 94.202 49.4753C93.2032 48.8974 94.1638 46.7199 95.0203 46.1485Z" fill="#EDBDA3"/>
<path d="M91.6454 51.2111C91.6688 50.7739 91.8324 48.1137 93.3817 47.0141C93.9555 46.6072 95.0203 46.1483 95.0203 46.1505C95.1223 46.46 95.2115 47.0141 96.1254 47.0293C98.0594 47.0617 98.5694 45.7695 98.5694 45.7695C99.836 46.7825 100.227 46.6505 100.603 46.9838C101.8 48.0466 102.635 48.5466 101.092 52.5812L100.117 57.2977L100.603 61.5163C96.255 63.618 93.4816 63.5314 91.9599 61.5639C91.9621 61.5639 91.401 55.9275 91.6454 51.2111Z" fill="#FCC858"/>
<path d="M97.2476 47.2393L95.7897 48.8626L94.8759 47.2631L97.2476 47.2393Z" fill="white"/>
<path d="M96.5079 47.3324C96.5079 47.3324 95.9851 48.1895 95.2158 47.2263L95.932 47.0164L96.5079 47.3324Z" fill="#233561"/>
<path d="M103.681 63.9816C103.687 63.9491 103.696 63.908 103.705 63.8625C103.694 63.9123 103.685 63.9513 103.681 63.9816Z" fill="#FCC858"/>
<path d="M103.666 64.0515C103.666 64.0471 103.668 64.036 103.672 64.0205C103.668 64.036 103.668 64.0471 103.666 64.0515Z" fill="#FCC858"/>
<path d="M103.704 63.8627C103.708 63.841 103.713 63.8172 103.719 63.7891C103.713 63.815 103.708 63.8388 103.704 63.8627Z" fill="#FCC858"/>
<path d="M103.672 64.0216C103.674 64.0105 103.676 63.9972 103.681 63.9817C103.676 63.9972 103.674 64.0105 103.672 64.0216Z" fill="#FCC858"/>
<path d="M103.717 63.7891C103.719 63.7739 103.723 63.7588 103.725 63.7415C103.723 63.7588 103.721 63.7761 103.717 63.7891Z" fill="#FCC858"/>
<path d="M104.777 55.7608C104.233 54.3691 103.396 51.2479 102.325 48.8604C101.336 46.6548 98.4801 45.2046 99.5066 50.0033C99.8275 51.5011 100.984 54.6158 101.991 56.5141L101.815 63.5422C102.293 63.5812 103.772 63.5033 103.772 63.5033C104.018 62.2608 104.777 55.7608 104.777 55.7608Z" fill="#FCC858"/>
<path d="M103.768 63.5315C103.766 63.5445 103.761 63.5596 103.759 63.5791C103.761 63.564 103.766 63.5488 103.768 63.5315Z" fill="#FCC858"/>
<path d="M103.727 63.7434C103.736 63.7044 103.745 63.6611 103.753 63.6113C103.745 63.6503 103.736 63.6957 103.727 63.7434Z" fill="#FCC858"/>
<path d="M103.774 63.501C103.772 63.5121 103.77 63.5209 103.768 63.532C103.772 63.5121 103.774 63.501 103.774 63.501Z" fill="#FCC858"/>
<path d="M101.725 63.549C101.725 63.549 103.241 63.4342 103.851 63.3C103.851 63.3 103.982 63.9278 103.744 64.155C103.506 64.3801 102.029 64.4732 101.849 64.2741C101.685 64.0944 101.725 63.549 101.725 63.549Z" fill="#F2F2F2"/>
<path d="M101.97 63.9731C102.019 63.9947 102.074 63.9709 102.093 63.9212C102.114 63.8714 102.091 63.8151 102.042 63.7956C101.993 63.774 101.938 63.7978 101.919 63.8476C101.9 63.8952 101.923 63.9536 101.97 63.9731Z" fill="#FCC858"/>
<path d="M85.0743 41.3693C85.0743 41.3693 83.848 42.7112 83.423 43.3303C83.423 43.3303 82.8109 42.8931 82.8386 42.5013C82.8683 42.1095 84.0776 40.8151 84.3921 40.8389C84.679 40.8606 85.0743 41.3693 85.0743 41.3693Z" fill="#F2F2F2"/>
<path d="M83.3124 42.5036C83.255 42.5252 83.2232 42.5901 83.2444 42.6507C83.2657 42.7092 83.3294 42.7417 83.3889 42.72C83.4463 42.6984 83.4782 42.6334 83.4569 42.5728C83.4357 42.5122 83.3698 42.4819 83.3124 42.5036Z" fill="#FCC858"/>
<path d="M96.5441 70.4645C96.4336 70.2978 96.3337 70.1268 96.2296 69.9558C96.1297 69.7848 96.0319 69.6095 95.9363 69.4364C95.7493 69.0857 95.5665 68.7329 95.3965 68.3714L95.4411 68.4169C94.9183 68.1268 94.4019 67.8216 93.9088 67.4731C94.4699 67.6918 95.0076 67.9537 95.5389 68.2286L95.5665 68.2437L95.5835 68.274C95.7641 68.629 95.9342 68.9883 96.0978 69.3519C96.1786 69.5338 96.2572 69.7177 96.3316 69.9017C96.4038 70.0879 96.4782 70.274 96.5441 70.4645Z" fill="#0D1017"/>
<path d="M105 85.0014L99.1433 76.8628L101.436 73.8499C101.436 73.8499 103.483 75.5706 104.218 77.2936C105.693 80.746 106.571 82.6204 107.085 83.6356C106.486 84.1745 105.738 84.7373 105 85.0014Z" fill="#233561"/>
<path d="M106.014 86.4104L105 85.0035C105.736 84.7394 106.486 84.1745 107.085 83.6377C107.67 84.7892 107.789 84.839 107.789 84.839C107.789 84.839 107.408 85.9342 106.014 86.4104Z" fill="#EDBDA3"/>
<path d="M89.5712 87.0749L90.6593 76.1506L94.0596 75.7156C94.0596 75.7156 94.2339 80.2134 93.6558 81.997C92.8164 84.59 92.3339 86.2697 92.0577 87.3584C91.3011 87.3476 90.349 87.2827 89.5712 87.0749Z" fill="#233561"/>
<path d="M91.7283 88.8996C91.7283 88.8996 90.6848 89.7308 89.3735 89.0555L89.5712 87.075C90.3469 87.2827 91.3011 87.3477 92.0577 87.3607C91.7177 88.8347 91.7283 88.8996 91.7283 88.8996Z" fill="#EDBDA3"/>
<path d="M95.1733 38.8455C95.1733 38.8455 94.2105 39.432 94.2382 40.5186C94.2445 40.7935 93.913 42.1831 93.913 42.1831C93.7451 43.9039 94.7822 45.0489 95.1839 45.0641C96.1487 45.0987 96.9351 44.6095 97.4132 44.1463C98.291 43.2935 98.818 40.3952 98.1316 39.4429C97.2071 38.1615 95.6408 38.2719 95.1733 38.8455Z" fill="#EDBDA3"/>
<path d="M93.9046 42.8063C93.9046 42.8063 94.1639 42.9643 94.71 42.789C95.0565 42.6764 95.5729 42.3063 95.6834 42.5422C96.1871 43.6072 96.1658 44.9059 95.2668 45.0639C94.3636 45.2219 93.7792 43.1937 93.9046 42.8063Z" fill="#233561"/>
<path d="M97.6811 42.1873C97.6513 41.9665 97.5302 40.7306 97.6045 40.4795C97.5663 40.4535 97.4962 40.4406 97.409 40.4341C96.984 40.4059 96.6524 40.051 96.6354 39.6181C96.6354 39.6181 95.8151 39.6375 94.9841 39.4709C93.9109 39.2566 94.1914 38.0142 94.2127 38.0077C94.4975 37.9341 96.797 37.5661 98.1061 38.4362C99.3919 39.2912 98.7713 41.38 98.6565 41.7284C98.6459 41.7587 98.6183 41.7782 98.5864 41.7804L97.7597 42.2566C97.7214 42.2566 97.6874 42.2284 97.6811 42.1873Z" fill="#233561"/>
<path d="M98.614 38.9709C98.614 38.9709 99.632 39.5489 98.8286 41.5554C98.8286 41.5554 98.1677 40.893 98.614 38.9709Z" fill="#233561"/>
<path d="M94.3976 40.6982C94.3976 40.6982 93.9938 41.5272 93.4157 42.0662C93.2223 42.248 93.8068 42.8411 94.0639 42.8671C94.6313 42.9255 94.3976 40.6982 94.3976 40.6982Z" fill="#EDBDA3"/>
<path d="M98.7352 42.4837C98.4716 42.9534 97.9935 43.1569 97.6683 42.9404C97.3431 42.724 97.2921 42.1677 97.5557 41.698C97.8192 41.2283 98.2974 41.0249 98.6225 41.2413C98.9477 41.4578 98.9987 42.014 98.7352 42.4837Z" fill="#EDBDA3"/>
<path d="M97.4494 43.6289C97.4006 43.841 97.2986 44.038 97.1689 44.2155C97.0393 44.3908 96.8799 44.5467 96.6971 44.6657C96.5122 44.7804 96.3146 44.88 96.102 44.9233C95.9979 44.9557 95.8895 44.9601 95.7854 44.9796C95.6791 44.986 95.5707 44.986 95.4645 44.9839C95.6749 44.9471 95.881 44.9125 96.0787 44.8432C96.2784 44.7826 96.4633 44.6852 96.6376 44.5748C96.814 44.4644 96.9649 44.3194 97.1052 44.1635C97.2433 44.0055 97.3602 43.8259 97.4494 43.6289Z" fill="#CC8972"/>
<path d="M95.2647 42.9644C95.2031 43.1267 95.0713 43.2609 94.9141 43.341C94.7568 43.4211 94.5613 43.4319 94.4061 43.3605C94.4911 43.3496 94.5719 43.3453 94.6484 43.3237C94.7249 43.3042 94.7993 43.2804 94.8673 43.2414C95.0097 43.1743 95.1351 43.0769 95.2647 42.9644Z" fill="#EDBDA3"/>
<path d="M94.7334 41.395C94.727 41.488 94.7737 41.566 94.8332 41.5681C94.8928 41.5725 94.948 41.4989 94.9523 41.408C94.9586 41.3149 94.9119 41.237 94.8524 41.2348C94.7908 41.2305 94.7376 41.3019 94.7334 41.395Z" fill="#233561"/>
<path d="M98.4503 41.512C98.3292 41.5055 98.2059 41.5293 98.1145 41.5942C98.0699 41.6267 98.0338 41.6678 98.0062 41.7176C97.9764 41.7652 97.9615 41.8194 97.9467 41.8756L97.9148 41.815C97.9722 41.8388 98.0232 41.8648 98.072 41.9038C98.1167 41.9406 98.1804 42.0033 98.1634 42.0964C98.1549 42.1397 98.1294 42.17 98.1061 42.1938L98.0423 42.2523C98.021 42.2717 97.9977 42.2891 97.9743 42.3064C97.9445 42.3237 97.9382 42.3388 97.8829 42.3561L97.9148 42.3237C97.9042 42.4341 97.9169 42.5639 97.9998 42.6549C97.9467 42.6245 97.9063 42.5704 97.8787 42.5098C97.8531 42.4492 97.8425 42.3865 97.8425 42.3172L97.8744 42.2847C97.8702 42.2826 97.9063 42.2587 97.9212 42.2436L97.9785 42.1873C98.0168 42.1484 98.0635 42.1051 98.0614 42.0813C98.0699 42.0596 98.0423 42.0228 98.004 41.9925C97.9658 41.9622 97.919 41.9362 97.8744 41.9168L97.8701 41.9146C97.8468 41.9038 97.8361 41.8778 97.8425 41.854C97.8595 41.7891 97.885 41.7263 97.9233 41.67C97.9594 41.6116 98.0147 41.5661 98.072 41.5358C98.1974 41.4687 98.3356 41.4709 98.4503 41.512Z" fill="#CC8972"/>
<path d="M95.3433 40.9774C95.3921 40.9125 95.3666 40.709 95.101 40.5835C94.9522 40.5142 94.8183 40.5554 94.7992 40.5662C94.7588 40.5922 94.7397 40.6506 94.7567 40.6982C94.7886 40.7826 94.9118 40.7523 95.0712 40.8627C95.1839 40.9406 95.1392 40.9601 95.2519 40.9969C95.2604 40.9991 95.3135 41.0164 95.3433 40.9774Z" fill="#233561"/>
<path d="M97.9553 45.0337C97.9553 45.0337 97.0605 46.5835 95.9299 47.0142C95.9299 47.0142 96.6568 47.3865 97.1817 47.7501C97.1817 47.7501 98.7289 46.2523 98.8287 45.9688C98.8287 45.9688 98.7182 45.2631 97.9553 45.0337Z" fill="white"/>
<path d="M95.2477 45.7957L95.0884 46.3606L95.9299 47.0143C95.9299 47.0143 95.2541 47.3195 94.9438 47.5121C94.9438 47.5121 94.5825 47.103 94.5762 46.4169C94.5762 46.4169 94.7164 45.9428 95.2477 45.7957Z" fill="white"/>
<path d="M98.0742 38.7891C98.0742 38.7891 97.5387 37.9277 94.8567 37.4385C94.8567 37.4406 94.4125 38.7329 98.0742 38.7891Z" fill="#233561"/>
<path d="M98.4334 38.7198C98.4334 38.7198 97.9276 38.0164 96.3188 37.5488C96.3188 37.5488 96.1976 38.4536 98.4334 38.7198Z" fill="#233561"/>
<path d="M98.2018 38.9038C98.2018 38.9038 98.1997 38.5251 98.7203 38.116C98.7225 38.116 98.9987 38.5813 98.2018 38.9038Z" fill="#233561"/>
<path d="M98.1932 38.8477C98.1932 38.8477 98.4589 38.5836 99.1113 38.681C99.1092 38.681 98.9753 39.2091 98.1932 38.8477Z" fill="#233561"/>
<path d="M94.4274 41.3953C94.4274 41.7416 94.6356 42.0209 94.8907 42.0209C95.1457 42.0209 95.354 41.7416 95.354 41.3953C95.354 41.049 95.1457 40.7698 94.8907 40.7698C94.6356 40.7698 94.4274 41.049 94.4274 41.3953Z" stroke="#F2F2F2" stroke-width="0.366" stroke-miterlimit="10"/>
<path d="M94.4423 41.2329C94.4423 41.2329 94.3743 41.0425 94.1448 41.0814" stroke="#F2F2F2" stroke-width="0.366" stroke-miterlimit="10"/>
<path d="M95.7216 42.6592C95.7216 42.6592 96.1722 43.1916 96.1424 43.6722C96.1424 43.6722 95.66 43.1613 95.7216 42.6592Z" fill="#233561"/>
<path d="M94.1448 42.9037C94.1448 42.9037 94.7483 42.2306 95.2031 42.5011C95.2031 42.5011 94.6144 43.2457 94.1448 42.9037Z" fill="#233561"/>
<path d="M95.8343 42.9927C95.8343 42.9927 96.2487 43.6377 96.0383 44.0879C96.0383 44.0879 95.5772 43.4559 95.8343 42.9927Z" fill="#233561"/>
<path d="M95.8661 47.512L96.508 48.0639L95.7896 48.8626L95.252 47.9232L95.8661 47.512Z" fill="#233561"/>
<path d="M88.8785 89.0985C89.295 88.9015 89.142 88.2565 89.6457 88.6201C89.9708 88.8539 90.1408 89.2717 90.4787 89.3171C91.2247 89.2976 91.7284 88.8994 91.7284 88.8994L91.8113 88.8929C91.8113 88.8929 92.1725 89.5422 92.0705 90.8171C92.0642 90.8885 92.0068 90.9448 91.9367 90.9492L90.6275 91.0249C89.3864 90.5963 89.6733 91.3929 86.1688 90.9556C86.1072 90.947 86.054 90.8994 86.0455 90.8366C85.9882 90.4751 86.0307 89.2846 88.8785 89.0985Z" fill="#233561"/>
<path d="M105.419 86.5771C105.419 86.5771 105.419 86.5749 105.419 86.5771C105.629 86.1615 105.121 85.7481 105.74 85.7199C106.137 85.7026 106.524 85.9277 106.817 85.7546C107.398 85.274 107.555 84.6442 107.555 84.6442L107.617 84.5879C107.617 84.5879 108.294 84.8758 108.977 85.9494C109.015 86.01 109.004 86.09 108.951 86.1377L107.961 87.0143C106.722 87.4472 107.427 87.8996 104.39 89.7372C104.337 89.7697 104.267 89.7654 104.22 89.7199C103.959 89.4667 103.279 88.497 105.419 86.5771Z" fill="#233561"/>
<path d="M95.3328 41.4016L97.6471 41.5553" stroke="#F2F2F2" stroke-width="0.366" stroke-miterlimit="10"/>
<path d="M100.756 53.7869C100.571 53.3994 100.431 52.999 100.301 52.5942C100.178 52.1873 100.066 51.7782 99.9996 51.3518C100.187 51.7371 100.325 52.1397 100.454 52.5444C100.578 52.9514 100.69 53.3605 100.756 53.7869Z" fill="#B58C40"/>
<path d="M92.2256 48.5444C92.1661 48.7847 92.1023 49.0098 92.0365 49.2392C91.9684 49.4665 91.9047 49.6959 91.8069 49.9232C91.7793 49.6743 91.8176 49.4297 91.8834 49.1916C91.9557 48.9579 92.0535 48.7263 92.2256 48.5444Z" fill="#B58C40"/>
<path d="M97.883 50.3452C97.7215 50.9318 97.5259 51.5076 97.3177 52.0768C97.1073 52.6482 96.8714 53.2067 96.6227 53.763C96.3613 54.3106 96.0851 54.856 95.7493 55.3647C95.5814 55.6179 95.3965 55.8625 95.184 56.0833C94.9714 56.2933 94.7122 56.5054 94.4061 56.514C94.7058 56.4686 94.9374 56.2521 95.1287 56.0292C95.3242 55.8041 95.4921 55.5552 95.6473 55.2976C95.9575 54.7824 96.2296 54.2435 96.4803 53.6937C96.7396 53.1482 96.9734 52.5898 97.2072 52.0314C97.4367 51.4729 97.6598 50.9101 97.883 50.3452Z" fill="#B58C40"/>
<path d="M92.8313 53.1504C92.9248 53.7997 93.0204 54.4491 93.1288 55.0941C93.2372 55.7391 93.3435 56.3863 93.4837 57.0227C93.6113 57.6634 93.7664 58.2976 93.964 58.9188C94.0618 59.2283 94.1744 59.5357 94.3147 59.8257C94.4528 60.1179 94.6229 60.3993 94.8758 60.6071C94.5995 60.4296 94.4082 60.1461 94.2446 59.8625C94.0873 59.5725 93.9598 59.2673 93.8472 58.9577C93.624 58.3365 93.4689 57.6958 93.3265 57.0551C93.199 56.4101 93.0885 55.7629 93.0056 55.1093C92.9248 54.4621 92.8611 53.8084 92.8313 53.1504Z" fill="#B58C40"/>
<path d="M99.5173 57.1894C99.3792 57.2262 99.2431 57.2674 99.105 57.2977C98.969 57.3301 98.8308 57.3583 98.6927 57.3864L98.2847 57.4665C98.2188 57.4816 98.1465 57.4968 98.0998 57.5228C98.0913 57.5293 98.087 57.5249 98.087 57.5249C98.087 57.5314 98.0976 57.5444 98.1125 57.5531C98.1401 57.5726 98.172 57.5877 98.2039 57.605C98.1678 57.605 98.1316 57.6029 98.0934 57.592C98.0743 57.5855 98.0551 57.5791 98.036 57.5552C98.0105 57.5228 98.0339 57.4795 98.0488 57.4643C98.1146 57.4016 98.1805 57.3756 98.2485 57.3453C98.3845 57.2912 98.5248 57.2565 98.663 57.2262C98.9435 57.1764 99.2283 57.1418 99.5173 57.1894Z" fill="#B58C40"/>
<path d="M99.3473 57.3972C99.2304 57.5531 99.0944 57.6743 98.9647 57.7977C98.901 57.8583 98.8351 57.9189 98.7862 57.9795C98.7628 58.0098 98.7437 58.0401 98.7437 58.0661C98.7395 58.0964 98.7777 58.1288 98.816 58.157C98.7692 58.1613 98.7118 58.1548 98.6715 58.0964C98.6353 58.0314 98.6566 57.9643 98.6778 57.9167C98.7203 57.8171 98.7884 57.7457 98.8585 57.6764C98.9987 57.5487 99.1581 57.447 99.3473 57.3972Z" fill="#B58C40"/>
<path opacity="0.23" d="M85.5694 27.0121C86.1262 27.3151 86.6703 27.6398 87.2037 27.9796C87.9709 27.6918 89.2312 27.0705 90.5424 26.2524C88.0835 24.4472 85.3505 23.0056 82.4198 22.0056C83.5568 23.8887 84.7575 25.826 85.5694 27.0121Z" fill="#4C649E"/>
<path d="M81.2977 17.1201C81.2977 17.1201 87.9051 28.4837 88.5681 28.6461C89.2312 28.8084 97.1243 24.9102 97.4664 21.4405C97.4664 21.4405 95.9256 20.1959 94.9927 18.8777C94.0597 17.5595 89.8794 10.8452 89.8794 10.8452L81.2977 17.1201Z" fill="white"/>
<path d="M96.3931 22.9448C96.4059 22.5812 96.4123 22.2392 96.3846 21.8972C96.374 21.7262 96.3528 21.5552 96.3251 21.3842C96.3018 21.211 96.2592 21.0444 96.2295 20.8625C96.34 21.0054 96.4293 21.1699 96.4845 21.3431C96.5483 21.5162 96.5802 21.698 96.595 21.882C96.6078 22.066 96.6014 22.25 96.5674 22.4296C96.5377 22.6093 96.4845 22.7868 96.3931 22.9448Z" fill="#ABBAC2"/>
<path d="M83.4634 17.9665L84.2433 17.4145L85.0275 16.8734L86.5981 15.7933C87.123 15.4362 87.6416 15.0682 88.158 14.7024C88.6744 14.3323 89.1866 13.9578 89.6712 13.5422C89.5628 13.6591 89.4544 13.7782 89.3396 13.8907L88.9911 14.2219C88.7488 14.4297 88.5044 14.6375 88.2558 14.8366C87.7585 15.237 87.2399 15.6093 86.7171 15.973C86.19 16.3323 85.6609 16.6829 85.1168 17.0141C84.5727 17.3453 84.0266 17.6699 83.4634 17.9665Z" fill="#ABBAC2"/>
<path d="M84.356 19.1657L85.1359 18.6137L85.9201 18.0726L87.4907 16.9925C88.0156 16.6354 88.5341 16.2674 89.0506 15.9016C89.567 15.5315 90.0792 15.157 90.5637 14.7415C90.4553 14.8583 90.3469 14.9774 90.2322 15.0899L89.8837 15.4211C89.6414 15.6289 89.397 15.8367 89.1483 16.0358C88.651 16.4363 88.1325 16.8086 87.6097 17.1722C87.0826 17.5315 86.5534 17.8821 86.0094 18.2133C85.4653 18.5445 84.9191 18.8692 84.356 19.1657Z" fill="#ABBAC2"/>
<path d="M85.2465 20.3647L86.0264 19.8127L86.8106 19.2716L88.3812 18.1915C88.9061 17.8344 89.4246 17.4664 89.9411 17.1006C90.4575 16.7305 90.9697 16.356 91.4542 15.9404C91.3458 16.0573 91.2375 16.1764 91.1227 16.2889L90.7742 16.6201C90.5319 16.8279 90.2875 17.0357 90.0388 17.2348C89.5415 17.6352 89.023 18.0075 88.5002 18.3712C87.9731 18.7305 87.4439 19.0811 86.8999 19.4123C86.358 19.7435 85.8096 20.0681 85.2465 20.3647Z" fill="#ABBAC2"/>
<path d="M86.139 21.5639L86.919 21.0119L87.7032 20.4708L89.2737 19.3907C89.7987 19.0336 90.3172 18.6656 90.8337 18.2998C91.3501 17.9297 91.8623 17.5552 92.3468 17.1396C92.2384 17.2565 92.1301 17.3756 92.0153 17.4881L91.6667 17.8193C91.4245 18.0271 91.1801 18.2349 90.9314 18.434C90.4341 18.8345 89.9156 19.2067 89.3928 19.5704C88.8657 19.9297 88.3365 20.2803 87.7925 20.6115C87.2484 20.9427 86.7022 21.2674 86.139 21.5639Z" fill="#ABBAC2"/>
<path d="M87.0316 22.7609L87.8116 22.209L88.5958 21.6678L90.1663 20.5878C90.6913 20.2306 91.2098 19.8626 91.7262 19.4968C92.2427 19.1267 92.7548 18.7523 93.2394 18.3367C93.131 18.4536 93.0226 18.5726 92.9079 18.6852L92.5593 19.0163C92.317 19.2241 92.0726 19.4319 91.824 19.631C91.3267 20.0315 90.8081 20.4038 90.2853 20.7674C89.7583 21.1267 89.2291 21.4774 88.685 21.8085C88.141 22.1397 87.5948 22.4665 87.0316 22.7609Z" fill="#ABBAC2"/>
<path d="M87.9242 23.9601L88.7041 23.4082L89.4884 22.8671L91.0589 21.787C91.5838 21.4298 92.1024 21.0619 92.6188 20.6961C93.1352 20.3259 93.6474 19.9515 94.132 19.5359C94.0236 19.6528 93.9152 19.7718 93.8004 19.8844L93.4519 20.2155C93.2096 20.4233 92.9652 20.6311 92.7166 20.8303C92.2193 21.2307 91.7007 21.603 91.1779 21.9666C90.6509 22.3259 90.1217 22.6766 89.5776 23.0078C89.0336 23.3389 88.4874 23.6636 87.9242 23.9601Z" fill="#ABBAC2"/>
<path d="M88.8147 25.1591L89.5947 24.6072L90.3789 24.066L91.9494 22.9859C92.4743 22.6288 92.9929 22.2608 93.5093 21.895C94.0257 21.5249 94.5379 21.1504 95.0225 20.7349C94.9141 20.8517 94.8057 20.9708 94.6909 21.0833L94.3424 21.4145C94.1001 21.6223 93.8557 21.8301 93.6071 22.0292C93.1098 22.4297 92.5912 22.802 92.0684 23.1656C91.5414 23.5249 91.0122 23.8756 90.4681 24.2067C89.9262 24.5379 89.3779 24.8626 88.8147 25.1591Z" fill="#ABBAC2"/>
</g>
<defs>
<linearGradient id="paint0_linear" x1="70" y1="2.14453" x2="70" y2="90.1153" gradientUnits="userSpaceOnUse">
<stop stop-color="#F9E5EC"/>
<stop offset="1" stop-color="#FBF5F5"/>
</linearGradient>
<linearGradient id="paint1_linear" x1="35.6699" y1="78.24" x2="35.6699" y2="90.1154" gradientUnits="userSpaceOnUse">
<stop stop-color="#F9E5EC"/>
<stop offset="1" stop-color="#FBF5F5"/>
</linearGradient>
<linearGradient id="paint2_linear" x1="21.2888" y1="85.6851" x2="21.2888" y2="90.1153" gradientUnits="userSpaceOnUse">
<stop stop-color="#F9E5EC"/>
<stop offset="1" stop-color="#FBF5F5"/>
</linearGradient>
<linearGradient id="paint3_linear" x1="116.011" y1="59.8545" x2="116.011" y2="90.1149" gradientUnits="userSpaceOnUse">
<stop stop-color="#F1CEDA"/>
<stop offset="1" stop-color="#FBF5F5"/>
</linearGradient>
<clipPath id="clip0">
<rect width="78" height="82" fill="white" transform="translate(31 9.09424)"/>
</clipPath>
</defs>
</svg>
