<svg width="16" height="16" viewBox="0 0 16 16" fill="none" xmlns="http://www.w3.org/2000/svg">
<path d="M4.25421 15.107V5.3851H1.16544V15.107H4.25421ZM2.71022 4.05695C3.78734 4.05695 4.45779 3.31042 4.45779 2.37751C4.43772 1.42356 3.78738 0.697754 2.73066 0.697754C1.67412 0.697754 0.9832 1.42358 0.9832 2.37751C0.9832 3.31046 1.65348 4.05695 2.69006 4.05695H2.71013H2.71022ZM5.96384 15.107H9.05262V9.67782C9.05262 9.38725 9.07269 9.09699 9.15425 8.88929C9.37755 8.30875 9.88578 7.70748 10.739 7.70748C11.8567 7.70748 12.3039 8.59901 12.3039 9.90593V15.1069H15.3925V9.53248C15.3925 6.5463 13.8686 5.15686 11.8364 5.15686C10.1701 5.15686 9.43851 6.13124 9.03207 6.79489H9.05269V5.3849H5.96391C6.00445 6.29715 5.96391 15.1068 5.96391 15.1068L5.96384 15.107Z" fill="#EFF9FC"/>
</svg>
