<svg width="132" height="101" viewBox="0 0 132 101" fill="none" xmlns="http://www.w3.org/2000/svg">
<path d="M128.398 3.75195H128.082H6.82784H6.51178C4.61742 3.75195 3.08209 5.58868 3.08209 7.85493V8.23303V24.0722V96.468C3.08209 98.9431 4.75892 100.949 6.82784 100.949H128.082C130.151 100.949 131.828 98.9431 131.828 96.468V24.0715V8.23303V7.85493C131.827 5.58868 130.292 3.75195 128.398 3.75195Z" fill="#FFBED1"/>
<path d="M125.173 97.1963H3.91847C1.84955 97.1963 0.172729 95.1903 0.172729 92.7152V4.48108C0.172729 2.006 1.84955 0 3.91847 0H125.173C127.242 0 128.919 2.006 128.919 4.48108V92.7152C128.918 95.1895 127.241 97.1963 125.173 97.1963Z" fill="#FFFAFA"/>
<path d="M125.489 0H3.60242C1.70806 0 0.172729 1.53041 0.172729 3.41871V16.9314H128.918V3.41871C128.918 1.53041 127.383 0 125.489 0Z" fill="#E1251B"/>
<path d="M119.846 25.2402H58.6461V29.9112H119.846V25.2402Z" fill="#FDE0E0"/>
<path d="M119.846 33.3354H58.6461V38.0064H119.846V33.3354Z" fill="#FDE0E0"/>
<path d="M101.561 41.2837H58.6461V45.9547H101.561V41.2837Z" fill="#FDE0E0"/>
<path d="M119.846 49.186H58.6461V53.8571H119.846V49.186Z" fill="#FDE0E0"/>
<path d="M119.846 57.7759H58.6461V62.4469H119.846V57.7759Z" fill="#FDE0E0"/>
<path d="M95.806 66.3643H58.6461V71.0352H95.806V66.3643Z" fill="#FDE0E0"/>
<path d="M51.6518 25.2402H8.3645V71.0253H51.6518V25.2402Z" fill="#FDE0E0"/>
<path d="M46.2597 60.192C44.8791 58.6484 41.3019 57.3006 38.6578 56.6863C37.0444 56.3113 35.4026 56.0707 33.7503 55.9547L32.2678 55.8506C30.8522 56.1762 29.3387 56.3119 27.7551 55.8506L27.6989 55.8545C24.9436 56.0477 22.2234 56.5888 19.611 57.4812C18.4175 57.8885 17.15 58.3723 16.0001 58.9147C14.0859 59.817 12.6756 61.5366 12.1949 63.5923C11.5886 66.1865 11.3975 69.4312 11.3975 71.0248C26.5517 71.0248 30.0118 71.0248 30.0118 71.0248C30.0118 71.0248 33.3787 71.0248 48.5336 71.0248C48.5329 69.1095 48.1805 62.3387 46.2597 60.192Z" fill="#263742"/>
<path d="M34.381 51.0867C29.539 51.6265 29.8729 51.5065 25.4091 51.0953C25.4944 52.0944 25.5235 54.9997 25.2636 55.6977C25.2173 55.8216 24.494 56.2203 23.3686 56.6975C25.3377 57.9847 27.5778 58.9153 30.0197 58.9153C32.4642 58.9153 34.912 57.843 36.7541 56.6448C35.6922 56.192 35.0138 55.9185 34.9695 55.7992C34.6931 55.0577 34.75 52.9012 34.8584 51.8479C35.0495 50.568 34.4015 51.0847 34.381 51.0867Z" fill="#E5BC7F"/>
<path d="M36.3262 56.1694L30.013 56.8733L23.6998 56.2558L29.2394 71.0254H30.7535L36.3262 56.1694Z" fill="#F2F2F2"/>
<path d="M29.9965 56.6401L28.4479 57.7711L29.9998 59.2805L31.5523 57.7791L29.9965 56.6401Z" fill="#C34431"/>
<path d="M25.3971 55.7495L20.1207 57.3228L23.6998 61.9502L21.3677 62.7425L28.3058 71.0253H29.4596L25.3971 55.7495Z" fill="#1C2B33"/>
<path d="M36.3263 62.1231L40.1362 57.0929L34.5966 55.749L31.5524 67.1941L30.5334 71.0248H31.6873L38.626 62.742L36.3263 62.1231Z" fill="#1C2B33"/>
<path d="M31.5522 67.1939L30.5499 58.1353H29.3689L28.4479 67.2196L29.4595 71.0245H30.5333L31.5522 67.1939Z" fill="#C34431"/>
<path d="M30.5334 71.025L31.5524 67.1943L30.5334 71.025Z" fill="#C34431"/>
<path d="M23.3568 56.3586L24.9522 54.6489L29.9966 56.64L26.0776 60.547L23.3568 56.3586Z" fill="white"/>
<path d="M36.5458 56.2221L35.3351 54.3384L29.9965 56.6393L33.9162 60.5464L36.5458 56.2221Z" fill="white"/>
<path d="M38.6068 42.1613C38.55 42.1448 38.4904 42.1376 38.4303 42.1356L38.4329 42.1244C38.4329 42.1244 38.0712 42.1033 37.6679 42.1989C37.732 37.3374 36.3653 32.3573 30.6935 32.2617H29.3658C23.5947 32.3586 22.3973 37.4349 22.5203 42.3755C22.0998 42.2667 21.7103 42.2905 21.7103 42.2905C21.6105 42.2819 21.5053 42.2892 21.3949 42.3221C20.3323 42.6372 20.7648 46.5271 23.0704 47.15C23.2185 48.1861 23.7574 49.5135 23.9075 49.9195C24.1746 50.6418 26.5338 53.1418 27.4912 53.6816C28.6556 54.3387 30.0667 54.0935 30.0673 54.0935C30.068 54.0935 31.5259 54.3387 32.6969 53.6552C33.6464 53.1016 35.8926 50.5113 36.159 49.789C36.3091 49.3836 36.9141 48.1933 37.0629 47.1592L37.0669 47.1631C39.4168 46.5845 39.5371 42.4328 38.6068 42.1613Z" fill="#FFDA9E"/>
<path d="M36.854 35.156C36.854 35.156 37.2011 31.0565 30.7716 30.7454C25.4032 30.4857 22.6499 32.6132 21.9993 36.7648C21.3487 40.9165 22.1983 42.3144 22.1983 42.3144C22.1983 42.3144 22.7802 42.4212 22.8066 43.3551C22.8324 44.289 22.7809 44.9896 22.7809 44.9896H23.37C23.37 44.9896 23.6662 43.0954 23.7958 41.9288C23.8269 41.6507 23.8606 41.6197 23.9783 41.4345C24.4716 40.6568 24.2567 39.6952 24.1172 38.9418C23.9809 38.203 24.0371 37.4147 24.8888 37.387C26.5028 37.335 30.3292 39.0993 33.661 37.5689C33.661 37.5689 35.4218 38.342 35.5911 38.9451C35.6255 39.1244 35.6394 39.3531 35.6136 39.6444C35.5799 40.1776 35.4794 40.5546 35.5356 40.8901C35.6513 41.5821 36.0077 41.9288 36.0077 41.9288L36.1082 44.6785L36.7191 44.666C36.7191 44.666 36.653 42.4627 37.9285 42.1516C38.4264 40.258 39.0724 36.8057 36.854 35.156Z" fill="#333333"/>
<path d="M24.0716 5.81445H26.5644C29.1503 5.81445 30.443 7.0753 30.443 9.0038V9.02226C30.443 10.9508 29.1219 12.3045 26.4896 12.3045H24.0716V5.81445ZM26.2483 7.70605V10.4136H26.6113C27.6157 10.4136 28.2484 10.0056 28.2484 9.06905V9.0506C28.2484 8.11403 27.6157 7.70605 26.6113 7.70605H26.2483Z" fill="white"/>
<path d="M31.0381 5.81396H34.2192C35.3816 5.81396 36.1076 6.10133 36.5631 6.55544C36.9632 6.95419 37.1582 7.42676 37.1582 8.09442V8.11287C37.1582 9.0679 36.665 9.7171 35.8748 10.0967L37.391 12.3034H34.9075L33.6796 10.4493H33.2148V12.3034H31.0381V5.81396ZM34.1544 8.9018C34.6754 8.9018 34.9915 8.6698 34.9915 8.27105V8.2526C34.9915 7.8354 34.6754 7.63174 34.1636 7.63174H33.2148V8.9018H34.1544Z" fill="white"/>
<path d="M37.707 5.81396H39.8837V12.304H37.707V5.81396Z" fill="white"/>
<path d="M40.1714 5.81396H42.6086L43.8735 9.45743L45.1384 5.81396H47.5379L44.8964 12.3502H42.8129L40.1714 5.81396Z" fill="white"/>
<path d="M47.8077 5.81396H53.3605V7.59417H49.9467V8.25261H53.1278V9.81927H49.9467V10.5238H53.4068V12.304H47.8077V5.81396Z" fill="white"/>
<path d="M53.9926 5.81396H57.1736C58.336 5.81396 59.062 6.10133 59.5176 6.55544C59.9176 6.95419 60.1127 7.42676 60.1127 8.09442V8.11287C60.1127 9.0679 59.6194 9.7171 58.8293 10.0967L60.3454 12.3034H57.8619L56.6341 10.4493H56.1692V12.3034H53.9926V5.81396ZM57.1082 8.9018C57.6292 8.9018 57.9453 8.6698 57.9453 8.27105V8.2526C57.9453 7.8354 57.6292 7.63174 57.1174 7.63174H56.1686V8.9018H57.1082Z" fill="white"/>
<path d="M63.4326 5.81396H65.6093V10.45H68.6695V12.304H63.4326V5.81396Z" fill="white"/>
<path d="M69.162 5.81396H71.3387V12.304H69.162V5.81396Z" fill="white"/>
<path d="M71.9523 9.07752V9.05907C71.9523 7.12134 73.4685 5.67529 75.4124 5.67529C76.8539 5.67529 77.812 6.37063 78.3608 7.36257L76.5656 8.41052C76.3143 7.93795 75.9798 7.62225 75.384 7.62225C74.6494 7.62225 74.1654 8.26223 74.1654 9.04061V9.05907C74.1654 9.90271 74.6679 10.4959 75.384 10.4959C76.0075 10.4959 76.3421 10.1624 76.6119 9.67993L78.407 10.6903C77.8582 11.6546 76.9372 12.4428 75.3285 12.4428C73.524 12.4428 71.9523 11.0897 71.9523 9.07752Z" fill="white"/>
<path d="M78.8255 5.81396H84.3783V7.59417H80.9645V8.25261H84.1456V9.81927H80.9645V10.5238H84.4246V12.304H78.8255V5.81396Z" fill="white"/>
<path d="M85.0104 5.81396H87.0477L89.3639 8.67904V5.81396H91.5221V12.304H89.5874L87.1693 9.30913V12.304H85.0111V5.81396H85.0104Z" fill="white"/>
<path d="M91.7257 11.3304L92.8881 9.94894C93.595 10.496 94.3951 10.7095 95.1667 10.7095C95.5668 10.7095 95.7248 10.6074 95.7248 10.4314V10.4129C95.7248 10.2277 95.5205 10.1256 94.8229 9.98651C93.3622 9.68992 92.0788 9.27271 92.0788 7.90049V7.88203C92.0788 6.64887 93.0554 5.69385 94.8414 5.69385C96.1063 5.69385 97.0274 5.99044 97.7805 6.58362L96.7199 8.04878C96.0971 7.6039 95.371 7.4088 94.7667 7.4088C94.4414 7.4088 94.2926 7.52019 94.2926 7.67771V7.69617C94.2926 7.87214 94.4599 7.99276 95.1575 8.11337C96.8224 8.40996 97.9386 8.91087 97.9386 10.2086V10.2271C97.9386 11.5901 96.8132 12.4245 95.0642 12.4245C93.7345 12.4245 92.5536 12.0633 91.7257 11.3304Z" fill="white"/>
<path d="M98.441 5.81396H103.994V7.59417H100.58V8.25261H103.761V9.81927H100.58V10.5238H104.04V12.304H98.441V5.81396Z" fill="white"/>
</svg>
