<svg width="174" height="40" viewBox="0 0 174 40" fill="none" xmlns="http://www.w3.org/2000/svg">
<g clip-path="url(#clip0)">
<path d="M41.504 19.315C41.504 20.5747 42.1622 21.3563 43.2289 21.3563C44.2955 21.3563 44.9537 20.5747 44.9537 19.315V10.9688H49.783V19.315C49.783 23.0962 47.4933 25.9192 43.2289 25.9192C38.9622 25.9192 36.6747 23.0984 36.6747 19.315V10.9688H41.504V19.315Z" fill="#010101"/>
<path d="M61.2947 10.8506V15.2326H57.7189V19.1344C57.7189 20.8161 58.3468 21.1154 60.2911 21.1757C60.6365 21.1757 61.0123 21.1456 61.3577 21.1154V25.5577H58.5358C54.7101 25.5577 52.8896 23.0965 52.8896 20.3338V7.36865H57.7515V10.8506H61.2947Z" fill="#010101"/>
<path d="M71.4876 10.6089C75.6912 10.6089 79.3604 14.0607 79.3604 18.2639C79.3604 22.4672 75.6912 25.919 71.4876 25.919C67.284 25.919 63.6147 22.4672 63.6147 18.2639C63.6147 14.0607 67.284 10.6089 71.4876 10.6089ZM71.4876 21.3561C73.2429 21.3561 74.529 19.9457 74.529 18.2639C74.529 16.5822 73.2429 15.1718 71.4876 15.1718C69.7301 15.1718 68.4462 16.5822 68.4462 18.2639C68.444 19.9457 69.7301 21.3561 71.4876 21.3561Z" fill="#010101"/>
<path d="M82.1194 31.8646V17.6957C82.1194 13.0123 86.323 10.6113 90.7765 10.6113C95.6383 10.6113 99.1511 13.9124 99.1511 18.2965C99.1511 23.3094 95.0105 25.9214 91.0285 25.9214C89.838 25.9214 89.0537 25.7405 88.5823 25.5618V21.1174C88.9581 21.3284 89.586 21.5373 90.6852 21.5373C92.6295 21.5373 94.135 20.1871 94.135 18.2642C94.135 16.3413 92.6295 14.9933 90.6852 14.9933C88.3021 14.9933 87.1398 16.6148 87.1398 18.865V31.8646H82.1194Z" fill="#E1251B"/>
<path d="M102.473 25.5596V4.54541H107.491V25.5596H102.473Z" fill="#E1251B"/>
<path d="M122.828 25.5594V18.8346C122.828 16.2527 121.575 14.993 119.285 14.993C117.467 14.993 115.835 16.3432 115.835 18.1756C115.835 20.3979 117.53 21.537 119.159 21.537C120.163 21.537 121.01 21.3259 121.575 21.1171V25.0792C120.634 25.7101 119.568 25.919 118.155 25.919C114.958 25.919 110.817 23.307 110.817 18.2941C110.817 13.9121 114.33 10.6089 119.192 10.6089C123.928 10.6089 127.849 13.0701 127.849 17.6933V25.5594H122.828Z" fill="#E1251B"/>
<path d="M131.044 25.5594V17.2131C131.044 13.4297 133.334 10.6089 137.598 10.6089C141.863 10.6089 144.153 13.4297 144.153 17.2131V25.5594H139.323V17.2131C139.323 15.9513 138.665 15.1718 137.598 15.1718C136.532 15.1718 135.874 15.9513 135.874 17.2131V25.5594H131.044Z" fill="#E1251B"/>
<path d="M154.598 20.2453L152.684 17.3641L156.792 14.7823C156.038 14.3323 155.443 14.272 154.847 14.272C152.777 14.272 151.647 16.2832 151.647 18.0252C151.647 19.8254 152.997 21.7181 155.034 21.7181C156.916 21.7181 158.766 20.1268 159.518 18.4451L163.124 20.2173C161.682 23.5183 158.482 25.9214 154.687 25.9214C150.483 25.9214 146.814 22.4696 146.814 18.2664C146.814 14.0631 150.483 10.6113 154.687 10.6113C158.199 10.6113 160.52 12.4115 162.151 15.2646L154.598 20.2453Z" fill="#E1251B"/>
<path d="M173.73 10.8506V15.2326H170.154V19.1344C170.154 20.8161 170.782 21.1154 172.726 21.1757C173.072 21.1757 173.448 21.1456 173.793 21.1154V25.5577H170.969C167.143 25.5577 165.323 23.0965 165.323 20.3338V7.36865H170.185V10.8506H173.73Z" fill="#E1251B"/>
<path d="M34.1424 1.67179C29.9584 -2.4755 19.3005 1.36387 10.3393 10.2463C1.37591 19.1309 -2.49751 29.695 1.68656 33.8423C5.27322 37.3975 13.624 35.0783 21.5837 28.739C22.6004 27.9315 23.6106 27.0572 24.6034 26.1205C24.6034 26.1205 29.1502 22.0142 32.6456 16.0732C32.7217 15.944 32.7977 15.8255 32.8781 15.7114C36.1715 9.80056 36.8688 4.3742 34.1424 1.67179ZM29.815 16.562C29.6281 16.8613 29.4326 17.1606 29.2284 17.4599C29.2262 17.4642 29.2241 17.4707 29.2176 17.475C29.1741 17.5417 29.1263 17.6128 29.0764 17.6795C29.0742 17.6882 29.0677 17.6946 29.0633 17.7032C29.0155 17.7721 28.9677 17.8432 28.9178 17.9121C28.9156 17.9143 28.9134 17.9207 28.9091 17.9229C28.7527 18.1468 28.5919 18.3751 28.4268 18.599V18.6012C28.3747 18.6744 28.3225 18.7433 28.2682 18.8165C28.2639 18.8273 28.2552 18.838 28.2465 18.8445C28.1987 18.9091 28.1531 18.9715 28.1053 19.0361C28.0944 19.0469 28.0879 19.0598 28.077 19.0727C28.0293 19.1352 27.9815 19.1998 27.9337 19.2622C27.925 19.273 27.9185 19.2838 27.9098 19.2924C27.7403 19.5142 27.5687 19.736 27.3906 19.9556C27.3862 19.9664 27.3775 19.9728 27.3732 19.9814C27.321 20.0439 27.2711 20.1085 27.2189 20.1709C27.2059 20.1882 27.1929 20.2054 27.1798 20.2205C27.1364 20.2764 27.0886 20.3324 27.0451 20.3884L26.9974 20.4422C26.9539 20.4982 26.9061 20.5542 26.8627 20.608C26.8475 20.6253 26.8344 20.6447 26.8214 20.6597C26.7693 20.7222 26.7171 20.7846 26.665 20.8449C26.6563 20.8535 26.6498 20.8621 26.6411 20.8729C26.5194 21.0172 26.3934 21.1615 26.2696 21.3057C26.2566 21.3208 26.2435 21.3359 26.2305 21.3531C26.1805 21.4091 26.1349 21.4651 26.0849 21.5189C26.0676 21.5426 26.0458 21.562 26.0285 21.5835C25.985 21.633 25.9416 21.6826 25.8981 21.7299C25.8764 21.7558 25.8568 21.7795 25.8351 21.8031C25.7917 21.8505 25.7482 21.8979 25.7048 21.9474C25.683 21.9711 25.6635 21.9948 25.6418 22.0142C25.594 22.068 25.5484 22.1197 25.5006 22.1714C25.4832 22.1886 25.4658 22.208 25.4484 22.2252C25.3203 22.3652 25.1899 22.5073 25.0574 22.6451C25.04 22.6666 25.0183 22.686 25.0009 22.7075C24.9531 22.7571 24.9075 22.8066 24.8619 22.8518C24.8358 22.8776 24.8119 22.9035 24.788 22.9293C24.7446 22.9724 24.7011 23.0176 24.6598 23.0607C24.6338 23.0865 24.6077 23.1145 24.5816 23.1403C24.5404 23.1834 24.4947 23.2286 24.4535 23.2717C24.4274 23.2975 24.4035 23.3234 24.3774 23.3492C24.3296 23.3966 24.284 23.4418 24.2362 23.4913C24.2145 23.5129 24.1949 23.5323 24.1732 23.5559C24.1037 23.6227 24.0342 23.6938 23.9668 23.7605C23.8713 23.8552 23.7735 23.95 23.6779 24.0447C23.6627 24.0598 23.6475 24.0749 23.6279 24.0921C23.5345 24.1826 23.4411 24.273 23.3455 24.3634C23.3325 24.3764 23.3173 24.3914 23.3021 24.4043C23.1044 24.596 22.9045 24.7812 22.7025 24.9642C22.6938 24.9728 22.6873 24.9793 22.6786 24.9879C22.5765 25.0805 22.4722 25.1731 22.3723 25.2678C22.3679 25.2721 22.3614 25.2786 22.3571 25.2807C22.0356 25.5693 21.7162 25.8492 21.3925 26.1227C13.9455 32.4341 5.91625 34.9018 2.58377 31.5964C-1.13975 27.9056 2.39911 18.4181 10.4848 10.4013C18.5727 2.38669 28.1466 -1.12322 31.8679 2.56757C34.5139 5.18385 33.5059 10.7114 29.815 16.562Z" fill="#E1251B"/>
<path d="M24.5004 8.93647C24.079 8.33139 23.5685 7.82536 22.9667 7.41623C22.365 7.00925 21.6155 6.80469 20.7183 6.80469C19.782 6.80469 19.0086 7.02217 18.3981 7.45714C17.7855 7.89211 17.2815 8.38522 16.8796 8.93432L4.58374 26.1199H11.605L20.6031 13.508L24.0421 18.536C24.3657 18.9903 24.7046 19.4791 25.0587 19.9981C25.263 20.2995 25.452 20.5687 25.6279 20.8099C27.0443 19.1819 28.2848 17.5067 29.3123 15.8378L24.5004 8.93647Z" fill="#010101"/>
<path d="M17.7703 21.2273L14.1836 26.1196H20.1273C21.2396 25.2216 22.3367 24.2419 23.3968 23.1889C24.0377 22.5537 24.672 21.8819 25.2607 21.2251L17.7703 21.2273Z" fill="#010101"/>
<path d="M36.4791 26.122H24.6025C24.6025 26.122 29.1494 22.0156 32.6448 16.0746C32.7208 15.9454 32.7969 15.827 32.8773 15.7129C32.3667 16.6302 31.7932 17.5561 31.1611 18.4885L36.4791 26.122Z" fill="#E1251B"/>
<path d="M24.6025 26.1221C23.6097 27.0588 22.5996 27.933 21.5829 28.7405L24.6025 26.1221Z" fill="#E1251B"/>
<path d="M99.1294 34.6427H100.409V38.2172H99.1294V37.821C98.8579 38.1591 98.4907 38.3292 98.0258 38.3292C97.763 38.3292 97.5218 38.2818 97.3024 38.1871C97.083 38.0923 96.8897 37.9588 96.7267 37.7866C96.5638 37.6143 96.4356 37.4119 96.3444 37.1793C96.2531 36.9468 96.2075 36.6948 96.2075 36.4192C96.2075 36.163 96.251 35.9218 96.34 35.6914C96.4291 35.461 96.5529 35.2607 96.7115 35.0885C96.8701 34.9162 97.0613 34.7805 97.2807 34.6815C97.5001 34.5824 97.7434 34.5308 98.0106 34.5308C98.4603 34.5308 98.834 34.6858 99.1273 34.998V34.6427H99.1294ZM97.5262 36.4192C97.5262 36.5355 97.5479 36.6432 97.5892 36.7422C97.6326 36.8413 97.6891 36.9296 97.7608 37.0028C97.8325 37.0781 97.9194 37.1341 98.0215 37.1772C98.1214 37.2181 98.2322 37.2396 98.3474 37.2396C98.4603 37.2396 98.5668 37.2181 98.6667 37.1772C98.7666 37.1363 98.8535 37.0781 98.9274 37.0028C98.9991 36.9296 99.0577 36.8434 99.1034 36.7444C99.1468 36.6475 99.1707 36.542 99.1707 36.43C99.1707 36.318 99.149 36.2125 99.1034 36.1134C99.0577 36.0144 98.9991 35.9261 98.9274 35.8529C98.8557 35.7797 98.7688 35.7215 98.6667 35.6785C98.5668 35.6376 98.4582 35.616 98.3474 35.616C98.23 35.616 98.1214 35.6376 98.0215 35.6785C97.9216 35.7194 97.8347 35.7775 97.7608 35.8529C97.6891 35.9283 97.6305 36.0122 97.5892 36.107C97.5479 36.206 97.5262 36.3094 97.5262 36.4192Z" fill="#010101"/>
<path d="M101.271 34.6425H102.544V35.0947C102.718 34.8858 102.894 34.7458 103.072 34.6726C103.25 34.6015 103.459 34.5649 103.698 34.5649C103.95 34.5649 104.167 34.6059 104.347 34.6877C104.528 34.7695 104.682 34.8836 104.808 35.0322C104.91 35.1528 104.982 35.2885 105.019 35.437C105.056 35.5856 105.075 35.7557 105.075 35.9452V38.217H103.802V36.4125C103.802 36.2359 103.789 36.0938 103.763 35.984C103.737 35.8742 103.691 35.788 103.626 35.7234C103.57 35.6674 103.507 35.6287 103.437 35.605C103.368 35.5813 103.292 35.5705 103.211 35.5705C102.996 35.5705 102.831 35.6351 102.716 35.7622C102.601 35.8892 102.544 36.0723 102.544 36.3091V38.217H101.271V34.6425Z" fill="#010101"/>
<path d="M107.104 37.7283L105.362 34.6426H106.837L107.8 36.475L108.734 34.6426H110.196L107.3 40H105.873L107.104 37.7283Z" fill="#010101"/>
<path d="M111.619 34.6426L112.483 36.5224L113.383 34.6426H114.184L115.084 36.5784L115.99 34.6426H117.402L115.518 38.2171H114.669L113.769 36.2597L112.911 38.2171H112.047L110.198 34.6426H111.619Z" fill="#010101"/>
<path d="M117.838 32.4355H119.111V35.097C119.285 34.8882 119.461 34.7482 119.639 34.675C119.817 34.6018 120.026 34.5673 120.265 34.5673C120.719 34.5673 121.062 34.6922 121.295 34.9399C121.527 35.1875 121.642 35.5234 121.642 35.9454V38.2172H120.369V36.4127C120.369 36.2318 120.354 36.0854 120.326 35.9734C120.297 35.8615 120.252 35.7753 120.184 35.715C120.071 35.6181 119.937 35.5686 119.776 35.5686C119.561 35.5686 119.396 35.6332 119.281 35.7603C119.166 35.8873 119.109 36.0703 119.109 36.3072V38.215H117.836V32.4355H117.838Z" fill="#010101"/>
<path d="M123.649 36.6432C123.649 37.1858 123.908 37.4572 124.423 37.4572C124.699 37.4572 124.907 37.3452 125.049 37.1234H126.278C126.03 37.9417 125.409 38.3486 124.416 38.3486C124.112 38.3486 123.832 38.3034 123.58 38.213C123.328 38.1225 123.111 37.9933 122.93 37.8254C122.75 37.6574 122.611 37.4593 122.511 37.2268C122.413 36.9942 122.363 36.7337 122.363 36.4473C122.363 36.1501 122.409 35.8809 122.505 35.6419C122.598 35.4029 122.733 35.2005 122.904 35.0325C123.078 34.8646 123.287 34.7375 123.532 34.6449C123.778 34.5545 124.056 34.5093 124.364 34.5093C124.668 34.5093 124.942 34.5545 125.188 34.6449C125.431 34.7354 125.637 34.8667 125.807 35.039C125.976 35.2113 126.104 35.4201 126.193 35.6699C126.282 35.9175 126.326 36.1975 126.326 36.5097V36.6411H123.649V36.6432ZM125.14 35.9111C125.096 35.7345 125.012 35.5924 124.879 35.4869C124.749 35.3792 124.588 35.3275 124.401 35.3275C124.203 35.3275 124.045 35.3792 123.919 35.4804C123.793 35.5816 123.717 35.7259 123.684 35.9132H125.14V35.9111Z" fill="#010101"/>
<path d="M127.052 34.6428H128.325V35.2285C128.461 35.0153 128.626 34.8516 128.824 34.7375C129.022 34.6234 129.25 34.5674 129.513 34.5674C129.545 34.5674 129.582 34.5674 129.621 34.5674C129.661 34.5674 129.706 34.5717 129.758 34.5825V35.7883C129.589 35.7043 129.406 35.6634 129.211 35.6634C128.915 35.6634 128.694 35.7496 128.546 35.924C128.398 36.0984 128.325 36.3525 128.325 36.6862V38.2194H127.052V34.6428Z" fill="#010101"/>
<path d="M131.514 36.6432C131.514 37.1858 131.772 37.4572 132.287 37.4572C132.563 37.4572 132.771 37.3452 132.913 37.1234H134.142C133.895 37.9417 133.273 38.3486 132.28 38.3486C131.976 38.3486 131.696 38.3034 131.444 38.213C131.192 38.1225 130.975 37.9933 130.795 37.8254C130.614 37.6574 130.475 37.4593 130.375 37.2268C130.278 36.9942 130.228 36.7337 130.228 36.4473C130.228 36.1501 130.273 35.8809 130.369 35.6419C130.462 35.4029 130.597 35.2005 130.768 35.0325C130.942 34.8646 131.151 34.7375 131.396 34.6449C131.642 34.5545 131.92 34.5093 132.228 34.5093C132.532 34.5093 132.806 34.5545 133.052 34.6449C133.295 34.7354 133.501 34.8667 133.671 35.039C133.84 35.2113 133.968 35.4201 134.057 35.6699C134.147 35.9175 134.19 36.1975 134.19 36.5097V36.6411H131.514V36.6432ZM133.004 35.9111C132.96 35.7345 132.876 35.5924 132.743 35.4869C132.613 35.3792 132.452 35.3275 132.265 35.3275C132.068 35.3275 131.909 35.3792 131.783 35.4804C131.657 35.5816 131.581 35.7259 131.548 35.9132H133.004V35.9111Z" fill="#010101"/>
<path d="M135.309 36.8867H136.504L135.211 39.1929H134.396L135.309 36.8867Z" fill="#010101"/>
<path d="M142.478 34.6427H143.757V38.2172H142.478V37.821C142.206 38.1591 141.839 38.3292 141.374 38.3292C141.111 38.3292 140.87 38.2818 140.651 38.1871C140.431 38.0923 140.238 37.9588 140.075 37.7866C139.912 37.6143 139.784 37.4119 139.693 37.1793C139.602 36.9468 139.556 36.6948 139.556 36.4192C139.556 36.163 139.599 35.9218 139.688 35.6914C139.777 35.461 139.901 35.2607 140.06 35.0885C140.218 34.9162 140.41 34.7805 140.629 34.6815C140.848 34.5824 141.092 34.5308 141.359 34.5308C141.809 34.5308 142.182 34.6858 142.476 34.998V34.6427H142.478ZM140.875 36.4192C140.875 36.5355 140.896 36.6432 140.938 36.7422C140.981 36.8413 141.037 36.9296 141.109 37.0028C141.181 37.0781 141.268 37.1341 141.37 37.1772C141.47 37.2181 141.581 37.2396 141.696 37.2396C141.809 37.2396 141.915 37.2181 142.015 37.1772C142.115 37.1363 142.202 37.0781 142.276 37.0028C142.347 36.9296 142.406 36.8434 142.452 36.7444C142.495 36.6475 142.519 36.542 142.519 36.43C142.519 36.318 142.497 36.2125 142.452 36.1134C142.406 36.0144 142.347 35.9261 142.276 35.8529C142.204 35.7797 142.117 35.7215 142.015 35.6785C141.915 35.6376 141.807 35.616 141.696 35.616C141.578 35.616 141.47 35.6376 141.37 35.6785C141.27 35.7194 141.183 35.7775 141.109 35.8529C141.037 35.9283 140.979 36.0122 140.938 36.107C140.896 36.206 140.875 36.3094 140.875 36.4192Z" fill="#010101"/>
<path d="M144.622 34.6425H145.895V35.0947C146.069 34.8858 146.245 34.7458 146.423 34.6726C146.601 34.6015 146.81 34.5649 147.049 34.5649C147.301 34.5649 147.518 34.6059 147.698 34.6877C147.878 34.7695 148.033 34.8836 148.159 35.0322C148.261 35.1528 148.332 35.2885 148.369 35.437C148.406 35.5856 148.426 35.7557 148.426 35.9452V38.217H147.153V36.4125C147.153 36.2359 147.14 36.0938 147.114 35.984C147.088 35.8742 147.042 35.788 146.977 35.7234C146.92 35.6674 146.857 35.6287 146.788 35.605C146.718 35.5813 146.642 35.5705 146.562 35.5705C146.347 35.5705 146.182 35.6351 146.067 35.7622C145.951 35.8892 145.895 36.0723 145.895 36.3091V38.217H144.622V34.6425Z" fill="#010101"/>
<path d="M150.455 37.7283L148.713 34.6426H150.188L151.15 36.475L152.084 34.6426H153.546L150.65 40H149.223L150.455 37.7283Z" fill="#010101"/>
<path d="M155.402 35.6959V38.2175H154.128V35.6959H153.707V34.6451H154.128V33.5728H155.402V34.6451H156.125V35.6959H155.402Z" fill="#010101"/>
<path d="M156.618 33.2711C156.618 33.1742 156.637 33.0816 156.674 32.9955C156.711 32.9094 156.763 32.834 156.829 32.7694C156.894 32.7048 156.97 32.6531 157.057 32.6165C157.144 32.5799 157.235 32.5605 157.335 32.5605C157.435 32.5605 157.526 32.5799 157.613 32.6165C157.7 32.6531 157.776 32.7048 157.841 32.7694C157.906 32.834 157.958 32.9094 157.995 32.9955C158.032 33.0816 158.052 33.1721 158.052 33.2711C158.052 33.368 158.032 33.4606 157.995 33.5468C157.958 33.6329 157.906 33.7083 157.841 33.7729C157.776 33.8375 157.7 33.8891 157.613 33.9257C157.526 33.9624 157.435 33.9817 157.335 33.9817C157.235 33.9817 157.144 33.9624 157.057 33.9257C156.97 33.8891 156.894 33.8375 156.829 33.7729C156.763 33.7083 156.711 33.6329 156.674 33.5468C156.637 33.4606 156.618 33.368 156.618 33.2711ZM157.974 34.6428V38.2173H156.7V34.6428H157.974Z" fill="#010101"/>
<path d="M158.845 34.6425H160.118V35.0818C160.465 34.7523 160.854 34.5865 161.284 34.5865C161.819 34.5865 162.225 34.8105 162.507 35.2562C162.794 34.8062 163.2 34.5801 163.73 34.5801C163.9 34.5801 164.059 34.6038 164.208 34.6533C164.358 34.7028 164.486 34.7782 164.595 34.8837C164.704 34.9892 164.788 35.1249 164.851 35.2907C164.914 35.4586 164.947 35.6589 164.947 35.8958V38.2149H163.674V36.4535C163.674 36.2726 163.661 36.124 163.635 36.0077C163.609 35.8914 163.572 35.801 163.522 35.7364C163.472 35.6718 163.415 35.6266 163.35 35.6051C163.285 35.5814 163.213 35.5706 163.14 35.5706C162.731 35.5706 162.529 35.8656 162.529 36.4556V38.217H161.256V36.4556C161.256 36.2747 161.245 36.124 161.221 36.0056C161.197 35.8871 161.163 35.7924 161.119 35.7235C161.076 35.6546 161.017 35.6072 160.948 35.5814C160.876 35.5555 160.796 35.5426 160.702 35.5426C160.622 35.5426 160.548 35.5534 160.478 35.5771C160.409 35.6008 160.346 35.646 160.292 35.7127C160.237 35.7795 160.196 35.8721 160.166 35.9905C160.135 36.1089 160.12 36.264 160.12 36.4535V38.2149H158.847V34.6425H158.845Z" fill="#010101"/>
<path d="M166.963 36.6432C166.963 37.1858 167.222 37.4572 167.736 37.4572C168.012 37.4572 168.221 37.3452 168.362 37.1234H169.592C169.344 37.9417 168.723 38.3486 167.73 38.3486C167.426 38.3486 167.146 38.3034 166.894 38.213C166.642 38.1225 166.424 37.9933 166.244 37.8254C166.064 37.6574 165.925 37.4593 165.825 37.2268C165.727 36.9942 165.677 36.7337 165.677 36.4473C165.677 36.1501 165.723 35.8809 165.818 35.6419C165.912 35.4029 166.046 35.2005 166.22 35.0325C166.394 34.8646 166.602 34.7375 166.848 34.6449C167.093 34.5545 167.371 34.5093 167.68 34.5093C167.984 34.5093 168.258 34.5545 168.503 34.6449C168.747 34.7354 168.953 34.8667 169.122 35.039C169.292 35.2113 169.42 35.4201 169.509 35.6699C169.598 35.9175 169.642 36.1975 169.642 36.5097V36.6411H166.963V36.6432ZM168.453 35.9111C168.41 35.7345 168.325 35.5924 168.193 35.4869C168.062 35.3792 167.902 35.3275 167.715 35.3275C167.517 35.3275 167.358 35.3792 167.232 35.4804C167.106 35.5816 167.03 35.7259 166.998 35.9132H168.453V35.9111Z" fill="#010101"/>
</g>
<defs>
<clipPath id="clip0">
<rect width="173.793" height="40" fill="white"/>
</clipPath>
</defs>
</svg>
