<svg width="608" height="401" viewBox="0 0 608 401" fill="none" xmlns="http://www.w3.org/2000/svg">
<g opacity="0.3">
<g opacity="0.3">
<g opacity="0.5">
<path d="M207.465 156.063C229.641 140.426 235.977 111.349 221.632 91.1397C207.288 70.9301 174.316 73.0521 152.141 88.7146C129.965 104.352 126.974 127.593 141.319 147.802C155.689 167.987 185.29 171.7 207.465 156.063Z" fill="#B0848D"/>
</g>
<path d="M604.107 394.738C610.385 369.17 609.28 341.507 599.257 314.999C583.683 273.826 557.036 260.371 543.968 225.859C534.591 201.07 533.136 175.287 538.094 151.115C538.013 151.034 537.932 150.954 537.852 150.9C540.277 130.139 538.013 108.546 530.119 87.6778C503.687 17.7411 425.387 -17.5763 355.252 8.77077C282.908 35.9505 272.157 99.1459 271.968 99.1728C263.535 136.048 237.345 168.143 199.166 182.458C160.42 197.014 134.716 189.253 102.787 201.258C24.2723 230.747 -16.7903 315.912 7.7287 394.738H604.107Z" fill="url(#paint0_linear)"/>
</g>
</g>
<path opacity="0.7" d="M592.382 394.107C592.382 397.391 463.409 400.044 304.328 400.044C145.222 400.044 16.2741 397.366 16.2741 394.107C16.2741 390.823 145.222 388.171 304.328 388.171C463.409 388.171 592.382 390.823 592.382 394.107Z" fill="#FCE8E8"/>
<path d="M301.414 56.8069C274.651 69.2611 221.683 103.769 216.488 182.915C210.811 176.574 202.904 172.659 194.059 172.659C185.949 172.659 178.32 175.943 172.77 181.475C181.666 116.122 235.267 64.2339 301.414 56.8069Z" fill="#FFA9A9"/>
<path d="M307.547 58.5261C293.557 72.7739 267.58 109.252 266.262 183.598C260.611 176.803 252.146 172.711 243.022 172.711C234.279 172.711 226.372 176.525 220.695 182.79C226.321 101.421 283.673 68.6815 307.547 58.5261Z" fill="#FFA9A9"/>
<path d="M293.253 172.761C284.357 172.71 276.07 176.575 270.419 183.017C272.142 99.324 306.33 64.5635 315.935 56.4543L315.885 183.017C310.081 176.525 301.946 172.761 293.253 172.761Z" fill="#FFA9A9"/>
<path d="M320.092 56.7581C330.026 65.3472 363.404 100.209 365.026 182.816C359.425 176.652 351.492 172.787 342.876 172.787C334.132 172.787 325.921 176.601 320.142 183.27L319.965 183.22L320.092 56.7581Z" fill="#FFA9A9"/>
<path d="M369.258 184.003C368.092 109.429 342.141 72.8245 328.151 58.5767C352.025 68.732 409.402 101.573 414.826 183.017C409.149 176.727 401.115 172.812 392.498 172.812C383.349 172.837 374.91 177.106 369.258 184.003Z" fill="#FFA9A9"/>
<path d="M463.029 181.703C457.479 176.171 449.901 172.887 441.74 172.887C432.896 172.887 424.684 176.929 419.007 183.446C414.091 103.972 361.022 69.3126 334.183 56.8079C400.583 64.1844 454.26 116.224 463.029 181.703Z" fill="#FFA9A9"/>
<path d="M463.029 181.704C454.26 116.225 400.583 64.1847 334.208 56.8082C361.047 69.3129 414.116 103.947 419.033 183.447C424.71 176.929 432.921 172.887 441.766 172.887C449.926 172.887 457.479 176.171 463.029 181.704ZM365.026 182.815C363.404 100.208 330.052 65.3468 320.092 56.7577L319.965 183.219L320.142 183.27C325.921 176.576 334.132 172.786 342.876 172.786C351.492 172.761 359.425 176.651 365.026 182.815ZM328.126 58.6018C342.115 72.8496 368.067 109.429 369.233 184.028C374.91 177.106 383.349 172.837 392.473 172.837C401.09 172.837 409.123 176.752 414.8 183.043C409.377 101.598 352.025 68.7319 328.126 58.6018ZM216.488 182.916C221.683 103.77 274.651 69.2624 301.439 56.8082C235.292 64.2353 181.691 116.124 172.77 181.476C178.32 175.944 185.949 172.66 194.059 172.66C202.878 172.66 210.811 176.576 216.488 182.916ZM266.262 183.624C267.605 109.277 293.557 72.7738 307.547 58.5513C283.673 68.7067 226.296 101.421 220.695 182.815C226.372 176.525 234.279 172.736 243.022 172.736C252.146 172.71 260.611 176.803 266.262 183.624ZM315.935 56.4546C306.33 64.5889 272.167 99.3242 270.419 183.017C276.07 176.55 284.357 172.685 293.253 172.761C301.92 172.761 310.081 176.5 315.859 183.017L315.935 56.4546ZM312.058 187.994C307.369 182.234 300.552 178.9 293.253 178.9C283.496 178.9 274.752 184.659 270.925 193.653C269.988 195.901 266.237 195.901 265.248 193.653C261.498 184.659 252.703 178.9 242.997 178.9C233.696 178.849 225.358 184.078 221.252 192.566C220.72 193.552 219.732 194.234 218.591 194.234C218.591 194.234 218.54 194.234 218.464 194.234C217.299 194.234 216.209 193.602 215.702 192.516C211.647 184.104 203.334 178.849 194.008 178.849C183.997 178.849 174.874 185.19 171.402 194.638C170.869 196.078 169.374 196.886 167.879 196.608C166.384 196.255 165.344 194.941 165.446 193.451C169.323 115.416 233.899 52.4632 312.666 49.8106C312.844 49.7601 313.021 49.6843 313.249 49.6843C313.249 49.6843 313.376 49.6843 313.426 49.6843C313.426 49.6843 314.694 26.519 317.988 26.519C321.334 26.519 322.55 49.6843 322.55 49.6843C322.601 49.6843 322.651 49.6843 322.727 49.6843C322.956 49.6843 323.234 49.7349 323.488 49.8106C402.179 52.64 466.602 115.694 470.353 193.729C470.404 195.219 469.314 196.608 467.87 196.886C467.642 196.937 467.413 196.937 467.236 196.937C465.969 196.937 464.803 196.128 464.347 194.916C460.875 185.392 451.802 179.001 441.74 179.001C432.439 179.001 423.873 184.483 419.869 192.945C419.337 193.981 418.247 194.688 417.081 194.688C415.865 194.688 414.775 194.006 414.319 192.945C410.315 184.483 401.774 179.001 392.447 179.001C383.02 179.001 374.352 184.533 370.424 193.173C369.968 194.259 368.853 194.966 367.661 194.966C366.445 194.966 365.355 194.284 364.823 193.173C360.895 184.533 352.253 178.925 342.85 178.925C335.501 178.925 328.633 182.335 323.995 188.196C323.412 188.954 322.499 189.358 321.562 189.358H321.156L321.562 297.404C323.184 298.515 324.349 300.233 324.349 302.355L324.273 352.45C324.273 363.009 315.935 371.573 305.722 371.523C295.483 371.523 287.221 362.934 287.221 352.374V329.79C287.221 326.506 289.933 323.803 293.304 323.803C296.649 323.803 299.386 326.506 299.386 329.79L299.335 352.374C299.335 356.29 302.225 359.473 305.747 359.473C309.346 359.473 312.235 356.29 312.235 352.374L312.286 302.355C312.286 300.233 313.376 298.49 315.074 297.404L314.618 189.358C313.578 189.383 312.59 188.802 312.058 187.994Z" fill="#F78484"/>
<path d="M315.048 297.429C313.401 298.516 312.261 300.284 312.261 302.381L312.21 352.45C312.21 356.366 309.321 359.523 305.773 359.523C302.225 359.523 299.361 356.366 299.361 352.45L299.386 329.866C299.386 326.556 296.674 323.853 293.329 323.828C290.009 323.828 287.272 326.531 287.272 329.84L287.247 352.425C287.247 362.984 295.534 371.573 305.747 371.573C315.986 371.573 324.299 362.984 324.299 352.45L324.349 302.381C324.349 300.284 323.184 298.516 321.587 297.429L321.156 189.384H314.592L315.048 297.429Z" fill="#292F61"/>
<path d="M322.601 49.6594C322.601 49.6594 321.384 26.4941 318.039 26.4941C314.694 26.4941 313.426 49.6594 313.426 49.6594H322.753C322.702 49.6594 322.651 49.6594 322.601 49.6594Z" fill="#292F61"/>
<path d="M194.587 229.518C194.587 232.358 192.275 234.662 189.427 234.662H126.412C123.564 234.662 121.252 232.358 121.252 229.518V137.592C121.252 134.753 123.564 132.426 126.412 132.426H189.404C192.252 132.426 194.563 134.73 194.563 137.592V229.518H194.587Z" fill="#2B2161"/>
<path d="M190.338 213.274L175.349 227.029H125.758V136.056H190.338V213.274Z" fill="white"/>
<path d="M166.313 125.327C165.753 121.255 162.297 118.09 158.048 118.09C153.799 118.09 150.343 121.231 149.783 125.327H138.786V138.244H177.286V125.327H166.313ZM158.048 131.704C155.13 131.704 152.771 129.353 152.771 126.468C152.771 123.559 155.13 121.208 158.048 121.208C160.943 121.208 163.324 123.559 163.324 126.468C163.324 129.353 160.943 131.704 158.048 131.704Z" fill="#E1251B"/>
<path d="M190.338 213.274H175.302L175.348 227.028L190.338 213.274Z" fill="#AEB7C0"/>
<path d="M149.97 198.822C149.386 198.822 148.896 199.31 148.896 199.892C148.896 200.474 149.386 200.963 149.97 200.963H168.158C168.741 200.963 169.231 200.497 169.231 199.892C169.231 199.31 168.741 198.822 168.158 198.822H149.97Z" fill="#F8A29E"/>
<path d="M171.987 198.822C171.403 198.822 170.913 199.31 170.913 199.892C170.913 200.474 171.403 200.963 171.987 200.963H183.123C183.707 200.963 184.197 200.497 184.197 199.892C184.197 199.31 183.707 198.822 183.123 198.822H171.987Z" fill="#F8A29E"/>
<path d="M149.316 204.524C148.732 204.524 148.242 205.013 148.242 205.594C148.242 206.2 148.732 206.665 149.316 206.665H156.507C157.091 206.665 157.581 206.176 157.581 205.594C157.581 205.013 157.091 204.524 156.507 204.524H149.316Z" fill="#F8A29E"/>
<path d="M161.153 204.524C160.57 204.524 160.079 205.013 160.079 205.594C160.079 206.2 160.57 206.665 161.153 206.665H183.123C183.707 206.665 184.197 206.176 184.197 205.594C184.197 205.013 183.707 204.524 183.123 204.524H161.153Z" fill="#F8A29E"/>
<path d="M142.732 194.423C142.732 194.423 137.572 201.731 135.868 204.174C134.817 202.638 133.463 200.684 133.463 200.684C133.019 200.032 132.132 199.869 131.479 200.311C130.825 200.753 130.661 201.638 131.105 202.289L134.677 207.456C134.934 207.851 135.378 208.061 135.845 208.084C136.311 208.084 136.755 207.851 137.035 207.479L145.09 196.076C145.534 195.424 145.394 194.54 144.74 194.074C144.086 193.632 143.199 193.772 142.732 194.423Z" fill="#F8A29E"/>
<path d="M149.97 176.224C149.386 176.224 148.896 176.713 148.896 177.295C148.896 177.877 149.386 178.365 149.97 178.365H168.158C168.741 178.365 169.231 177.877 169.231 177.295C169.231 176.713 168.741 176.224 168.158 176.224H149.97Z" fill="#F8A29E"/>
<path d="M171.987 176.224C171.403 176.224 170.913 176.713 170.913 177.295C170.913 177.877 171.403 178.365 171.987 178.365H183.123C183.707 178.365 184.197 177.877 184.197 177.295C184.197 176.713 183.707 176.224 183.123 176.224H171.987Z" fill="#F8A29E"/>
<path d="M149.316 181.926C148.732 181.926 148.242 182.415 148.242 182.997C148.242 183.578 148.732 184.067 149.316 184.067H156.507C157.091 184.067 157.581 183.578 157.581 182.997C157.581 182.415 157.091 181.926 156.507 181.926H149.316Z" fill="#F8A29E"/>
<path d="M161.153 181.926C160.57 181.926 160.079 182.415 160.079 182.997C160.079 183.578 160.57 184.067 161.153 184.067H183.123C183.707 184.067 184.197 183.578 184.197 182.997C184.197 182.415 183.707 181.926 183.123 181.926H161.153Z" fill="#F8A29E"/>
<path d="M142.732 171.826C142.732 171.826 137.572 179.133 135.868 181.577C134.817 180.041 133.463 178.086 133.463 178.086C133.019 177.435 132.132 177.272 131.479 177.714C130.825 178.156 130.661 179.04 131.105 179.692L134.677 184.858C134.934 185.231 135.378 185.464 135.845 185.487C136.311 185.487 136.755 185.254 137.035 184.882L145.09 173.455C145.534 172.803 145.394 171.919 144.74 171.453C144.086 171.035 143.199 171.174 142.732 171.826Z" fill="#F8A29E"/>
<path d="M149.97 154.581C149.386 154.581 148.896 155.07 148.896 155.652C148.896 156.233 149.386 156.722 149.97 156.722H168.158C168.741 156.722 169.231 156.233 169.231 155.652C169.231 155.07 168.741 154.581 168.158 154.581H149.97Z" fill="#F8A29E"/>
<path d="M171.987 154.581C171.403 154.581 170.913 155.07 170.913 155.652C170.913 156.233 171.403 156.722 171.987 156.722H183.123C183.707 156.722 184.197 156.233 184.197 155.652C184.197 155.07 183.707 154.581 183.123 154.581H171.987Z" fill="#F8A29E"/>
<path d="M149.316 160.283C148.732 160.283 148.242 160.771 148.242 161.353C148.242 161.935 148.732 162.424 149.316 162.424H156.507C157.091 162.424 157.581 161.935 157.581 161.353C157.581 160.771 157.091 160.283 156.507 160.283H149.316Z" fill="#F8A29E"/>
<path d="M161.153 160.283C160.57 160.283 160.079 160.771 160.079 161.353C160.079 161.935 160.57 162.424 161.153 162.424H183.123C183.707 162.424 184.197 161.935 184.197 161.353C184.197 160.771 183.707 160.283 183.123 160.283H161.153Z" fill="#F8A29E"/>
<path d="M142.732 150.182C142.732 150.182 137.572 157.49 135.868 159.934C134.817 158.398 133.463 156.443 133.463 156.443C133.019 155.791 132.132 155.628 131.479 156.07C130.825 156.513 130.661 157.397 131.105 158.049L134.677 163.215C134.934 163.611 135.378 163.82 135.845 163.843C136.311 163.843 136.755 163.611 137.035 163.238L145.09 151.812C145.534 151.16 145.394 150.276 144.74 149.833C144.086 149.391 143.199 149.531 142.732 150.182Z" fill="#F8A29E"/>
<path d="M422.53 143.306L422.505 137.419L420.275 136.409C415.485 134.236 398.352 127.163 379.573 127.163C360.793 127.163 343.661 134.236 338.871 136.384L336.641 137.394L336.616 148.686C336.616 167.077 337.401 186.175 346.931 200.044C357.271 215.1 371.919 224.144 377.748 227.352L379.573 228.363L381.398 227.352C387.201 224.169 401.85 215.1 412.19 200.044C421.719 186.2 422.53 167.077 422.53 148.712V143.306Z" fill="white"/>
<path d="M340.443 139.87C340.443 141.184 340.417 148.737 340.417 148.737C340.417 166.521 341.152 184.988 350.073 197.922C360.109 212.523 374.58 221.315 379.573 224.068C384.566 221.315 399.037 212.523 409.073 197.922C417.994 184.963 418.729 166.521 418.729 148.712V143.28C418.729 143.28 418.729 141.209 418.729 139.845C414.395 137.899 397.744 130.952 379.573 130.952C361.427 130.978 344.751 137.925 340.443 139.87Z" fill="#FC5148"/>
<path d="M391.003 155.987C391.003 155.987 379.75 170.21 374.758 176.525C371.666 173.317 368.32 169.831 368.32 169.831C366.293 167.709 362.897 167.633 360.768 169.679C358.639 171.725 358.563 175.085 360.616 177.207L371.311 188.323C372.375 189.434 373.896 190.04 375.442 189.965C376.988 189.889 378.407 189.156 379.37 187.944L399.417 162.631C401.242 160.307 400.861 156.972 398.53 155.153C396.198 153.309 392.828 153.714 391.003 155.987Z" fill="white"/>
<path d="M239.905 226.115C239.905 230.561 243.529 234.198 248.015 234.198C252.475 234.198 256.125 230.586 256.125 226.115C256.125 221.668 252.501 218.031 248.015 218.031C243.529 218.056 239.905 221.668 239.905 226.115ZM242.997 226.115C242.997 223.361 245.227 221.138 247.99 221.138C250.752 221.138 252.982 223.361 252.982 226.115C252.982 228.868 250.752 231.091 247.99 231.091C245.227 231.091 242.997 228.868 242.997 226.115Z" fill="#FF7F78"/>
<path d="M79.4554 266.206C79.4554 270.652 83.0796 274.29 87.5654 274.29C92.0258 274.29 95.6753 270.677 95.6753 266.206C95.6753 261.76 92.0512 258.122 87.5654 258.122C83.1049 258.122 79.4554 261.734 79.4554 266.206ZM82.5727 266.206C82.5727 263.452 84.8029 261.229 87.5654 261.229C90.3278 261.229 92.558 263.452 92.558 266.206C92.558 268.959 90.3278 271.182 87.5654 271.182C84.8029 271.182 82.5727 268.934 82.5727 266.206Z" fill="#FF7F78"/>
<path d="M70.1544 178.95C69.2927 178.95 68.6085 179.657 68.6085 180.491C68.6085 181.35 69.2927 182.032 70.1544 182.032H85.69C86.5516 182.032 87.2359 181.35 87.2359 180.491C87.2359 179.632 86.5516 178.95 85.69 178.95H70.1544Z" fill="#F6C1C1"/>
<path d="M92.3553 178.95C91.4936 178.95 90.8093 179.657 90.8093 180.491C90.8093 181.35 91.4936 182.032 92.3553 182.032H95.1937C96.0554 182.032 96.7397 181.35 96.7397 180.491C96.7397 179.632 96.0554 178.95 95.1937 178.95H92.3553Z" fill="#F6C1C1"/>
<path d="M438.877 315.416C438.015 315.416 437.331 316.123 437.331 316.957C437.331 317.816 438.04 318.498 438.877 318.498H454.412C455.274 318.498 455.984 317.816 455.984 316.957C455.984 316.098 455.299 315.416 454.412 315.416H438.877Z" fill="#F6C1C1"/>
<path d="M461.078 315.416C460.216 315.416 459.506 316.123 459.506 316.957C459.506 317.816 460.191 318.498 461.078 318.498H463.916C464.778 318.498 465.462 317.816 465.462 316.957C465.462 316.098 464.778 315.416 463.916 315.416H461.078Z" fill="#F6C1C1"/>
<path d="M479.502 126.229C478.641 126.229 477.956 126.911 477.956 127.769C477.956 128.628 478.641 129.31 479.502 129.31H495.038C495.9 129.31 496.609 128.628 496.609 127.769C496.609 126.911 495.9 126.229 495.038 126.229H479.502Z" fill="#F6C1C1"/>
<path d="M501.703 126.229C500.842 126.229 500.132 126.911 500.132 127.769C500.132 128.628 500.842 129.31 501.703 129.31H504.542C505.403 129.31 506.088 128.628 506.088 127.769C506.088 126.911 505.378 126.229 504.542 126.229H501.703Z" fill="#F6C1C1"/>
<path d="M353.216 228.717H349.237V224.75C349.237 223.892 348.553 223.209 347.691 223.209C346.829 223.209 346.145 223.917 346.145 224.75V228.717H342.166C341.304 228.717 340.62 229.424 340.62 230.258C340.62 231.117 341.304 231.799 342.166 231.799H346.145V235.765C346.145 236.624 346.829 237.306 347.691 237.306C348.553 237.306 349.237 236.624 349.237 235.765V231.799H353.216C354.077 231.799 354.762 231.117 354.762 230.258C354.762 229.399 354.077 228.717 353.216 228.717Z" fill="#F5C9C9"/>
<path d="M172.872 95.3831H168.893V91.417C168.893 90.558 168.208 89.876 167.347 89.876C166.485 89.876 165.801 90.558 165.801 91.417V95.3831H161.822C160.96 95.3831 160.276 96.0652 160.276 96.9241C160.276 97.783 160.96 98.4651 161.822 98.4651H165.801V102.431C165.801 103.29 166.485 103.972 167.347 103.972C168.208 103.972 168.893 103.265 168.893 102.431V98.4651H172.872C173.733 98.4651 174.418 97.7577 174.418 96.9241C174.418 96.0652 173.733 95.3831 172.872 95.3831Z" fill="#F5C9C9"/>
<path d="M494.176 367.607L505.758 367.304C511.384 359.523 516.25 349.696 518.962 337.47L509.889 336.838L519.722 333.402C520.711 327.794 521.344 321.782 521.294 315.188C521.294 315.188 505.15 316.502 488.651 324.99L487.84 332.67L486.32 326.253C476.385 331.76 466.704 340.021 460.495 352.223L463.409 364.626L458.341 356.719C456.288 361.797 454.792 367.43 454.108 373.822C453.677 386.074 454.108 393.526 454.108 393.526H472.989C472.989 393.526 489.513 387.488 503.249 370.487L494.176 367.607Z" fill="#FDE0E0"/>
<path d="M457.808 379.556C457.048 372.331 454.843 366.37 451.802 361.418L449.039 367.228L449.952 358.766C444.148 350.808 436.114 345.806 428.739 342.749L428.182 347.979L426.737 341.966C417.664 338.531 410.087 337.899 410.087 337.899C410.011 347.145 411.607 354.901 414.066 361.519L418.881 363.035L414.8 363.439C418.577 372.584 424.076 379.253 429.322 383.927L438.775 384.432L432.642 386.655C439.079 391.556 444.402 393.501 444.402 393.501H457.808C457.808 393.551 458.112 388.272 457.808 379.556Z" fill="#F3BFBF"/>
<path d="M424.203 352.172C421.263 349.393 415.105 342.901 415.105 342.901C415.105 342.901 422.403 347.701 425.293 350.429C449.724 373.443 454.843 392.414 455.071 393.299L454.108 393.551H453.069C452.359 391.252 446.505 373.367 424.203 352.172Z" fill="#DBA0A0"/>
<path d="M460.951 393.551H458.797C460.621 387.413 471.899 353.789 506.341 326.556C509.23 324.283 515.997 320.67 515.997 320.67C515.997 320.67 510.675 325.773 507.912 327.946C474.738 354.016 463.232 386.2 460.951 393.551Z" fill="#F1B3B3"/>
<g clip-path="url(#clip0)">
<path d="M394.73 375.425C393.584 375.062 393.734 371.763 393.855 366.679C397.354 368.071 394.006 350.7 390.899 343.346C385.409 330.363 377.959 314.263 291.784 311.509C260.444 293.048 223.615 274.164 182.895 281.639C142.145 289.114 91.2297 308.361 73.5844 315.05C55.9692 321.738 50.8716 317.804 47.3426 333.904C43.8135 350.004 35.9711 357.479 39.5002 367.315C43.0292 377.15 56.7232 380.298 79.074 382.235C101.425 384.172 254.954 383.021 293.744 381.841C332.534 380.691 413.944 381.72 394.73 375.425Z" fill="#E05A01"/>
<path d="M102.571 333.54C120.97 333.54 135.871 348.49 135.871 366.951C135.871 367.98 136.082 375.001 136.293 383.324C108.664 383.263 86.5243 382.961 79.074 382.295C75.545 381.992 72.227 381.629 69.1202 381.236C69.1806 374.093 69.2711 368.283 69.2711 366.951C69.3012 348.49 84.2017 333.54 102.571 333.54Z" fill="#191919"/>
<path d="M315.673 333.54C334.072 333.54 348.973 348.49 348.973 366.951C348.973 367.889 349.033 374.184 349.244 381.236C331.599 381.78 311.45 381.357 293.744 381.901C290.607 381.992 286.716 382.083 282.222 382.174C282.282 374.638 282.403 368.343 282.403 366.951C282.373 348.49 297.273 333.54 315.673 333.54Z" fill="#191919"/>
<path d="M343.668 374.046C347.289 358.726 337.846 343.363 322.577 339.73C307.308 336.098 291.996 345.572 288.376 360.892C284.755 376.211 294.198 391.575 309.467 395.207C324.736 398.84 340.048 389.365 343.668 374.046Z" fill="#070000"/>
<path d="M303.698 375.697C309.58 381.598 308.795 371.218 314.677 365.316C320.559 359.415 330.935 360.202 325.023 354.301C319.141 348.399 309.58 348.399 303.668 354.301C297.816 360.202 297.816 369.795 303.698 375.697Z" fill="#E05A01"/>
<path d="M294.076 367.465C294.076 379.631 303.909 389.467 316.004 389.467C328.13 389.467 337.933 379.601 337.933 367.465C337.933 355.329 328.1 345.463 316.004 345.463C303.909 345.463 294.076 355.299 294.076 367.465ZM298.118 374.153L300.893 373.699L298.6 375.364C298.419 374.97 298.269 374.547 298.118 374.153ZM297.243 371.066C297.032 369.886 296.911 368.706 296.911 367.465C296.911 366.254 297.032 365.104 297.243 363.954L306.563 365.437L309.399 367.495L306.563 369.553L297.243 371.066ZM333.318 375.636L330.694 373.729L333.921 374.244C333.74 374.698 333.529 375.152 333.318 375.636ZM325.023 369.583L322.188 367.525L325.023 365.468L334.826 363.894C335.037 365.044 335.158 366.254 335.158 367.495C335.158 368.766 335.037 369.977 334.796 371.157L325.023 369.583ZM333.951 360.807L330.694 361.321L333.348 359.385C333.559 359.839 333.77 360.323 333.951 360.807ZM298.57 359.627L300.893 361.321L298.088 360.868C298.238 360.444 298.389 360.05 298.57 359.627ZM305.085 351.728L310.696 359.506L311.239 362.986L307.77 362.441L300.078 356.842C301.436 354.845 303.125 353.12 305.085 351.728ZM307.86 350.124C308.283 349.912 308.705 349.731 309.127 349.579L309.61 352.575L307.86 350.124ZM316.035 348.278C317.181 348.278 318.297 348.399 319.383 348.581L317.844 358.235L315.793 361.079L313.742 358.235L312.234 348.641C313.44 348.429 314.707 348.278 316.035 348.278ZM322.459 349.428C322.912 349.609 323.394 349.761 323.847 349.973L321.977 352.575L322.459 349.428ZM331.78 356.6L323.756 362.441L320.287 362.986L320.83 359.506L326.622 351.516C328.643 352.878 330.392 354.603 331.78 356.6ZM326.592 383.444L320.861 375.515L320.318 372.035L323.786 372.579L331.749 378.39C330.362 380.387 328.612 382.112 326.592 383.444ZM323.786 384.988C323.334 385.169 322.882 385.351 322.429 385.532L321.946 382.476L323.786 384.988ZM316.035 386.652C314.738 386.652 313.471 386.531 312.234 386.259L313.742 376.756L315.793 373.911L317.844 376.756L319.352 386.349C318.267 386.531 317.151 386.652 316.035 386.652ZM309.157 385.351C308.735 385.199 308.313 385.018 307.921 384.806L309.64 382.445L309.157 385.351ZM300.139 378.178L307.8 372.61L311.269 372.065L310.726 375.545L305.146 383.262C303.185 381.87 301.466 380.145 300.139 378.178Z" fill="#757575"/>
<path d="M310.967 382.567L308.584 381.568L311.842 377.029L310.967 382.567ZM320.589 382.567L319.714 377.059L322.972 381.598L320.589 382.567ZM312.596 375.243L313.441 369.856L308.072 370.703L312.475 367.496L308.072 364.288L313.441 365.135L312.596 359.748L315.793 364.167L318.99 359.748L318.146 365.135L323.515 364.288L319.111 367.496L323.515 370.703L318.146 369.856L318.99 375.243L315.793 370.825L312.596 375.243ZM301.767 374.759L300.772 372.368L306.262 371.49L301.767 374.759ZM329.789 374.729L325.264 371.46L330.754 372.338L329.789 374.729ZM325.295 363.561L329.819 360.293L330.814 362.684L325.295 363.561ZM306.292 363.561L300.802 362.684L301.798 360.293L306.292 363.561ZM311.842 357.993L308.584 353.453L310.967 352.455L311.842 357.993ZM319.714 357.993L320.589 352.485L322.972 353.484L319.714 357.993Z" fill="#999999"/>
<path d="M316.035 343.012C301.436 343.012 289.551 354.513 288.797 368.948C288.767 368.464 288.737 367.98 288.737 367.465C288.737 352.334 300.953 340.047 316.065 340.047C331.146 340.047 343.392 352.303 343.392 367.465C343.392 367.95 343.332 368.464 343.332 368.948C342.488 354.513 330.603 343.012 316.035 343.012Z" fill="#262626"/>
<path d="M316.035 389.588C327.828 389.588 337.45 380.297 338.084 368.615C338.114 369.009 338.144 369.402 338.144 369.796C338.144 382.052 328.251 391.979 316.035 391.979C303.818 391.979 293.925 382.052 293.925 369.796C293.925 369.402 293.955 369.009 293.985 368.615C294.589 380.297 304.211 389.588 316.035 389.588Z" fill="#262626"/>
<path d="M129.002 374.049C132.622 358.73 123.179 343.366 107.91 339.734C92.6418 336.102 77.3293 345.576 73.7091 360.896C70.0888 376.215 79.5318 391.579 94.8004 395.211C110.069 398.843 125.382 389.369 129.002 374.049Z" fill="#070000"/>
<path d="M89.0278 375.697C94.9096 381.599 94.1253 371.218 100.007 365.317C105.889 359.416 116.265 360.202 110.353 354.301C104.471 348.4 94.9096 348.4 88.9976 354.301C83.146 360.202 83.146 369.796 89.0278 375.697Z" fill="#E05A01"/>
<path d="M79.436 367.466C79.436 379.632 89.2691 389.467 101.364 389.467C113.46 389.467 123.293 379.601 123.293 367.466C123.293 355.33 113.46 345.464 101.364 345.464C89.2691 345.464 79.436 355.3 79.436 367.466ZM83.4477 374.154L86.2226 373.7L83.9303 375.364C83.7794 374.971 83.5985 374.547 83.4477 374.154ZM82.5729 371.067C82.3618 369.887 82.211 368.706 82.211 367.466C82.211 366.255 82.3316 365.105 82.5428 363.955L91.8631 365.438L94.6985 367.496L91.8631 369.554L82.5729 371.067ZM118.648 375.637L116.024 373.73L119.251 374.245C119.07 374.699 118.859 375.153 118.648 375.637ZM110.353 369.584L107.518 367.526L110.353 365.468L120.156 363.895C120.367 365.045 120.488 366.255 120.488 367.496C120.488 368.767 120.367 369.978 120.126 371.158L110.353 369.584ZM119.281 360.808L116.024 361.322L118.678 359.385C118.889 359.839 119.1 360.323 119.281 360.808ZM83.9001 359.627L86.2226 361.322L83.4175 360.868C83.5683 360.445 83.7493 360.051 83.9001 359.627ZM90.4455 351.729L96.0558 359.506L96.5987 362.987L93.13 362.442L85.4384 356.843C86.7656 354.846 88.4849 353.121 90.4455 351.729ZM93.1903 350.125C93.6126 349.913 94.0349 349.731 94.4873 349.58L94.9699 352.576L93.1903 350.125ZM101.364 348.279C102.511 348.279 103.627 348.4 104.713 348.581L103.174 358.235L101.123 361.08L99.0721 358.235L97.5639 348.642C98.7705 348.43 100.067 348.279 101.364 348.279ZM107.789 349.429C108.242 349.61 108.724 349.762 109.177 349.973L107.307 352.576L107.789 349.429ZM117.11 356.601L109.086 362.442L105.617 362.987L106.16 359.506L111.952 351.517C114.003 352.879 115.752 354.604 117.11 356.601ZM111.922 383.445L106.191 375.516L105.648 372.035L109.116 372.58L117.079 378.391C115.692 380.388 113.942 382.113 111.922 383.445ZM109.116 384.988C108.664 385.17 108.211 385.351 107.759 385.533L107.276 382.476L109.116 384.988ZM101.364 386.653C100.067 386.653 98.8006 386.532 97.5639 386.259L99.0721 376.757L101.123 373.912L103.174 376.757L104.682 386.35C103.627 386.532 102.511 386.653 101.364 386.653ZM94.4873 385.351C94.065 385.2 93.6427 385.019 93.2506 384.807L94.9699 382.446L94.4873 385.351ZM85.4987 378.179L93.1601 372.61L96.6289 372.066L96.0859 375.546L90.5058 383.263C88.515 381.871 86.8259 380.146 85.4987 378.179Z" fill="#757575"/>
<path d="M96.3273 382.567L93.9444 381.569L97.202 377.029L96.3273 382.567ZM105.949 382.567L105.075 377.059L108.332 381.599L105.949 382.567ZM97.9259 375.243L98.7705 369.857L93.4015 370.704L97.8053 367.496L93.4015 364.288L98.7705 365.135L97.9259 359.749L101.123 364.167L104.32 359.749L103.476 365.135L108.845 364.288L104.441 367.496L108.845 370.704L103.476 369.857L104.32 375.243L101.123 370.825L97.9259 375.243ZM87.1276 374.759L86.1322 372.368L91.6219 371.491L87.1276 374.759ZM115.149 374.729L110.625 371.461L116.114 372.338L115.149 374.729ZM110.625 363.562L115.149 360.293L116.144 362.684L110.625 363.562ZM91.6219 363.562L86.1322 362.684L87.1276 360.293L91.6219 363.562ZM97.202 357.993L93.9444 353.454L96.3273 352.455L97.202 357.993ZM105.075 357.993L105.949 352.485L108.332 353.484L105.075 357.993Z" fill="#999999"/>
<path d="M101.365 343.013C86.7656 343.013 74.8814 354.513 74.1273 368.949C74.0972 368.464 74.067 367.98 74.067 367.466C74.067 352.334 86.283 340.047 101.395 340.047C116.506 340.047 128.722 352.304 128.722 367.466C128.722 367.95 128.662 368.464 128.662 368.949C127.848 354.513 115.963 343.013 101.365 343.013Z" fill="#262626"/>
<path d="M101.364 389.589C113.158 389.589 122.78 380.298 123.414 368.616C123.444 369.009 123.474 369.403 123.474 369.796C123.474 382.053 113.58 391.979 101.364 391.979C89.1485 391.979 79.255 382.053 79.255 369.796C79.255 369.403 79.2852 369.009 79.3153 368.616C79.9488 380.298 89.5707 389.589 101.364 389.589Z" fill="#262626"/>
<path d="M383.811 347.189C381.307 335.84 371.565 330.332 353.949 330.332C349.033 330.332 344.207 330.756 340.316 331.059L339.139 331.149L339.049 331.906C348.973 334.963 356.785 346.947 356.845 347.068L356.966 347.25H357.177C357.207 347.25 361.551 347.159 366.92 347.159C371.866 347.159 378.743 347.25 383.389 347.643L383.931 347.704L383.811 347.189Z" fill="#191919"/>
<path d="M383.449 347.28C374.43 346.493 357.207 346.886 357.207 346.886C357.207 346.886 349.365 334.69 339.2 331.573C353.286 330.393 379.136 327.639 383.449 347.28Z" fill="#96BCBB"/>
<path d="M366.467 346.795C361.43 341.378 356.212 336.112 351.084 330.786C353.135 330.726 355.246 330.726 357.328 330.816C363.089 335.84 368.578 341.227 373.736 346.856C371.263 346.795 368.759 346.795 366.467 346.795Z" fill="#FFF48D"/>
<path d="M360.977 331.059C371.384 332.088 380.975 335.992 383.449 347.28C381.518 347.098 379.226 347.007 376.783 346.917C371.776 341.348 366.527 336.052 360.977 331.059Z" fill="#FFF48D"/>
<path d="M382.484 344.435C382.514 344.435 382.574 344.435 382.604 344.435C382.936 345.313 383.238 346.251 383.449 347.28C374.43 346.493 357.207 346.886 357.207 346.886C357.207 346.886 349.365 334.69 339.2 331.573C341.402 331.391 343.905 331.149 346.59 330.998C357.509 337.717 369.875 341.953 382.484 344.435Z" fill="#EDF1F4"/>
<path d="M371.746 366.679H393.855C394.157 369.584 394.428 372.52 394.73 375.425L367.915 376.545C366.799 376.605 366.527 375.576 367.281 374.275L371.746 366.679Z" fill="#2B2B2B"/>
<path d="M372.168 364.53L376.542 357.115C377.296 355.814 378.834 354.724 379.95 354.694L392.226 354.18C392.166 357.66 392.437 361.11 392.769 364.53H372.168Z" fill="#2B2B2B"/>
<path d="M131.166 312.174C131.166 312.053 124.228 311.841 124.107 311.841C113.942 311.841 164.315 285.724 203.768 285.724C227.536 285.724 268.256 308.785 272.178 310.994C272.268 311.054 272.178 311.236 272.147 311.327L131.166 312.174Z" fill="#2B2B2B"/>
<path d="M166.848 293.865C166.637 293.29 166.426 292.745 166.215 292.17C178.431 288.659 191.823 286.026 204.13 286.026C227.325 286.026 267.05 308.512 270.881 310.691C270.971 310.752 270.881 310.903 270.85 311.024L174.238 311.599C171.614 305.758 169.141 299.887 166.848 293.865Z" fill="#80C2DC"/>
<path d="M163.078 285.936C162.867 286.329 162.746 286.874 162.324 287.026C147.242 292.261 117.984 301.249 94.7286 310.813H84.8653C103.476 303.913 134.061 293.108 163.078 285.936Z" fill="#80C2DC"/>
<path d="M227.174 283C250.098 288.236 272.781 300.25 291.995 311.538L283.82 311.417C257.82 292.079 224.671 284.816 227.174 283Z" fill="#80C2DC"/>
<path d="M194.236 377.755H267.864C275.495 377.755 275.586 367.889 275.676 354.21C275.707 350.609 275.737 346.886 275.888 342.982C276.672 323.916 276.642 320.496 271.001 310.933L270.669 311.145C276.28 320.587 276.31 324.007 275.526 342.982C275.375 346.916 275.345 350.639 275.315 354.21C275.224 367.647 275.134 377.361 267.894 377.361H194.236C185.942 377.361 178.25 370.946 171.313 358.295C165.28 347.31 161.841 335.114 160.936 331.633C159.187 324.975 159.639 319.861 162.233 316.471C164.586 313.415 168.718 311.78 174.238 311.78V311.387C168.628 311.387 164.375 313.052 161.932 316.229C159.247 319.71 158.795 324.945 160.574 331.724C161.479 335.204 164.948 347.461 170.981 358.477C177.979 371.248 185.821 377.755 194.236 377.755Z" fill="#231F20"/>
<path d="M59.498 319.771L88.0925 330.786L70.8694 341.802L46.5882 338.262C46.558 338.231 47.7344 320.164 59.498 319.771Z" fill="#BE5041"/>
<path d="M54.5817 332.3C52.2893 332.239 49.9668 332.179 47.6744 332.027C48.8809 327.669 51.2939 322.313 56.12 320.436C60.011 324.582 63.7814 328.88 67.3105 333.359C63.0877 332.905 58.8347 332.451 54.5817 332.3Z" fill="#711814"/>
<path d="M55.6072 334.539C60.1317 334.812 64.6561 335.296 69.1504 335.75C70.357 337.354 71.5333 338.958 72.6795 340.592L70.8396 341.772L46.5583 338.231C46.5583 338.231 46.679 336.537 47.1616 334.146C49.9668 334.358 52.7719 334.388 55.6072 334.539Z" fill="#D77C7B"/>
<path d="M84.5638 330L58.2918 319.892C58.6839 319.831 59.076 319.801 59.4983 319.771L88.0928 330.786L72.4684 340.773L84.5638 330Z" fill="#1C171D"/>
<g opacity="0.5">
<path opacity="0.5" d="M390.899 348.4C385.409 337.081 374.671 317.743 283.187 319.68C283.187 313.475 229.135 278.672 188.385 285.179C147.635 291.716 129.175 302.339 102.993 314.262C86.102 321.949 70.5379 320.164 55.9994 332.33C47.4331 339.502 39.3795 357.388 38.716 363.683C37.9317 355.451 44.2961 347.976 47.3727 333.903C50.9018 317.803 55.9994 321.707 73.6145 315.049C91.2297 308.361 142.175 289.113 182.895 281.638C223.645 274.163 260.444 293.048 291.784 311.508C377.959 314.262 385.409 330.363 390.899 343.346C393.976 350.639 396.6 364.863 394.911 366.376C394.76 360.626 393.644 354.089 390.899 348.4Z" fill="white"/>
</g>
<g opacity="0.5">
<path opacity="0.5" d="M282.403 320.073C282.403 320.073 182.262 320.103 107.699 329.243C96.4781 322.918 74.5194 325.429 74.5194 325.429C74.5194 325.429 122.871 306.878 275.978 313.748C277.607 316.895 282.403 320.073 282.403 320.073Z" fill="white"/>
</g>
<g opacity="0.5">
<path opacity="0.5" d="M312.083 327.276C326.411 326.277 354.553 333.419 363.783 361.897L349.335 359.083C339.833 333.54 323.183 332.511 312.566 333.237C295.856 334.387 284.484 348.097 282.312 361.746C281.045 344.738 295.403 328.426 312.083 327.276Z" fill="white"/>
</g>
<g opacity="0.5">
<path opacity="0.5" d="M280.02 368.101L137.047 358.689L178.19 369.796L280.02 368.101Z" fill="white"/>
</g>
<g opacity="0.5">
<path opacity="0.5" d="M371.685 365.619L349.244 361.171L349.968 367.768L371.685 365.619Z" fill="white"/>
</g>
<g opacity="0.5">
<path opacity="0.5" d="M394.73 375.425L349.214 376.635L360.736 379.51L397.203 376.514L394.73 375.425Z" fill="white"/>
</g>
<g opacity="0.5">
<path opacity="0.5" d="M393.192 364.591L369.634 364.561L375.094 366.437L394.85 365.771L393.192 364.591Z" fill="white"/>
</g>
<path d="M171.916 328.123C177.613 328.123 182.232 327.188 182.232 326.035C182.232 324.881 177.613 323.947 171.916 323.947C166.219 323.947 161.6 324.881 161.6 326.035C161.6 327.188 166.219 328.123 171.916 328.123Z" fill="#231F20"/>
<path d="M162.867 325.581C162.867 326.337 166.939 326.973 171.946 326.973C176.953 326.973 181.025 326.337 181.025 325.581C181.025 324.824 176.953 324.189 171.946 324.189C166.909 324.189 162.867 324.794 162.867 325.581Z" fill="#E05A01"/>
<path d="M275.978 314.262C275.164 318.348 266.628 320.103 262.586 319.286C258.544 318.499 255.92 314.534 256.704 310.449C257.518 306.363 261.44 303.7 265.481 304.517C269.523 305.304 276.762 310.177 275.978 314.262Z" fill="#200000"/>
<g opacity="0.5">
<path opacity="0.5" d="M258.966 307.816C259.75 309.783 261.47 311.357 263.702 311.781C266.235 312.265 270.76 311.629 273.354 309.904C271.423 307.544 267.894 305.546 265.542 305.062C262.948 304.548 260.384 305.698 258.966 307.816Z" fill="white"/>
</g>
<path opacity="0.7" d="M228.894 311.266L251.003 311.145L258.182 303.943C253.838 301.764 248.711 299.282 243.221 296.891L228.894 311.266Z" fill="white"/>
<path opacity="0.7" d="M201.596 311.448L210.042 311.387L229.799 291.565C227.687 290.808 225.576 290.112 223.464 289.477C216.165 296.8 208.896 304.124 201.596 311.448Z" fill="white"/>
<path opacity="0.7" d="M204.13 286.026C198.097 286.026 191.793 286.662 185.519 287.721L170.438 302.853C171.674 305.788 172.911 308.694 174.208 311.599L187.962 311.508L212.545 286.843C209.589 286.329 206.754 286.026 204.13 286.026Z" fill="white"/>
<path d="M53.5863 364.561C53.1641 363.259 51.7464 362.2 50.4494 362.2H38.6255C38.6255 363.864 38.8668 365.559 39.5002 367.314C41.7624 373.64 48.2475 377.18 58.5331 379.45L53.5863 364.561Z" fill="#191919"/>
<g opacity="0.5">
<path opacity="0.5" d="M50.4494 362.23C51.7464 362.23 53.164 363.289 53.5863 364.591L58.5331 379.48C59.2268 379.662 55.0643 363.138 55.0643 363.138C54.642 361.837 53.2244 360.778 51.9274 360.778C51.9274 360.778 38.9271 361.746 38.9573 362.26H50.4494V362.23Z" fill="white"/>
</g>
</g>
<path d="M392.169 386.579V391.202H387.379V386.352L392.169 386.579Z" fill="#FFAD97"/>
<path d="M392.169 389.636C392.169 389.636 393.436 390.318 393.436 391.96C393.436 393.602 393.436 395.295 393.436 395.295H374.276C374.276 395.295 373.921 393.324 376.557 393.324C379.193 393.324 383.805 391.733 384.667 390.975C385.757 390.015 386.568 389.636 387.404 389.636C388.24 389.636 392.169 389.636 392.169 389.636Z" fill="url(#paint1_linear)"/>
<path d="M420.579 386.579V391.202H415.814V386.352L420.579 386.579Z" fill="#FFAD97"/>
<path d="M420.579 389.636C420.579 389.636 421.846 390.318 421.846 391.96C421.846 393.602 421.846 395.295 421.846 395.295H402.661C402.661 395.295 402.306 393.324 404.942 393.324C407.577 393.324 412.19 391.733 413.052 390.975C414.167 390.015 414.952 389.636 415.789 389.636C416.65 389.636 420.579 389.636 420.579 389.636Z" fill="url(#paint2_linear)"/>
<path d="M359.78 262.214C360.54 264.614 359.932 266.761 358.436 267.039C356.941 267.292 355.116 265.574 354.356 263.174C353.596 260.774 354.179 258.627 355.699 258.374C357.195 258.096 359.019 259.814 359.78 262.214Z" fill="#FFAD97"/>
<path d="M392.473 264.942C392.473 264.942 384.743 274.34 379.573 278.634C377.241 280.706 368.092 271.157 362.466 264.437C362.466 264.437 359.425 265.7 358.436 269.868C358.436 269.868 363.328 275.451 370.576 284.066C376.836 291.518 382.589 291.392 389.837 283.055C397.085 274.719 392.473 264.942 392.473 264.942Z" fill="#C75C9E"/>
<path opacity="0.6" d="M384.54 287.224C386.34 277.624 391.789 265.978 391.789 265.978L391.358 276.033L390.8 282.778C388.646 284.9 386.568 286.365 384.54 287.224Z" fill="#AD458A"/>
<path d="M383.704 305.791L385.529 389.686C385.529 389.686 390.496 390.52 393.816 389.686C396.578 377.207 397.212 347.776 401.191 329.689C405.17 311.601 408.059 307.862 408.059 299.753C408.059 291.644 383.704 305.791 383.704 305.791Z" fill="#2B2161"/>
<path d="M389.685 304.528C389.685 304.528 402.61 353.132 406.462 362.277C410.315 371.422 414.496 389.913 414.496 389.913C414.496 389.913 418.475 390.646 422.251 389.534C422.251 389.534 415.409 343.608 413.508 333.63C411.582 323.651 410.847 301.825 408.439 297.656C406.032 293.513 389.685 304.528 389.685 304.528Z" fill="#FFBF00"/>
<path d="M389.685 304.528C389.685 304.528 402.61 353.132 406.462 362.277C410.315 371.422 414.496 389.913 414.496 389.913C414.496 389.913 418.475 390.646 422.251 389.534C422.251 389.534 415.409 343.608 413.508 333.63C411.582 323.651 410.847 301.825 408.439 297.656C406.032 293.513 389.685 304.528 389.685 304.528Z" fill="#3B3687"/>
<path d="M389.685 304.528C389.685 304.528 402.61 353.132 406.462 362.277C410.315 371.422 414.496 389.913 414.496 389.913C414.496 389.913 418.475 390.646 422.251 389.534C422.251 389.534 415.409 343.608 413.508 333.63C411.582 323.651 410.847 301.825 408.439 297.656C406.032 293.513 389.685 304.528 389.685 304.528Z" fill="#444199"/>
<path d="M394.88 252.665C394.323 246.754 397.516 241.424 397.516 241.424C398.504 241.828 400.963 242.181 402.661 242.586C404.384 243.015 403.877 245.162 403.751 246.173C403.649 247.209 404.029 249.608 404.587 249.886C405.144 248.8 406.006 245.112 407.653 246.754C409.275 248.371 408.515 248.851 407.907 250.998C407.299 253.12 410.315 253.246 410.315 253.246C408.16 258.223 408.769 259.739 407.679 260.774C405.195 263.124 398.707 264.463 399.518 260.219C400.659 257.844 401.52 256.151 401.52 256.151C396.984 257.642 395.235 255.899 394.88 252.665Z" fill="#FFAD97"/>
<path d="M394.83 243.066C392.143 242.106 391.51 234.577 400.101 234.249C404.207 234.097 412.976 235.638 414.674 240.388C414.674 240.388 417.005 242.131 415.915 246.855C415.257 249.76 411.48 254.913 409.529 255.798C409.529 255.798 407.324 253.12 407.932 250.973C408.541 248.825 409.301 248.371 407.679 246.729C406.032 245.086 405.195 248.775 404.612 249.861C404.029 249.583 403.649 247.183 403.776 246.147C403.903 245.112 404.41 242.964 402.686 242.56C400.963 242.181 397.491 244.051 394.83 243.066Z" fill="#2A375E"/>
<path d="M413.33 318.523C411.582 310.793 410.289 304.857 410.365 304.275C413.229 279.519 421.263 271.485 418.957 267.166C416.65 262.846 408.236 259.915 408.236 259.915C408.236 259.915 404.511 258.93 399.848 259.562C392.878 262.34 391.231 265.22 388.823 274.517C385.731 286.516 383.425 303.694 381.752 319.584C386.365 320.721 401.394 323.677 413.33 318.523Z" fill="#AD458A"/>
<path opacity="0.3" d="M410.467 272.849L415.637 280.756C415.637 280.756 415.637 280.756 415.637 280.782C415.155 282.146 414.674 283.662 414.192 285.304C411.05 278.407 410.467 272.849 410.467 272.849Z" fill="#AD458A"/>
<path d="M408.236 259.89C406.614 261.229 402.534 264.387 400.861 264.462C399.239 264.538 399.316 261.279 399.442 259.738C399.569 259.688 399.721 259.637 399.848 259.562C403.928 259.006 407.425 259.688 408.236 259.89Z" fill="#FFAD97"/>
<path d="M411.176 298.566C410.948 299.955 410.745 301.421 410.543 302.936L407.223 306.675L411.176 298.566Z" fill="#D9D9D9"/>
<path d="M418.957 267.165C422.15 271.03 425.115 284.798 425.445 290.634C425.774 296.469 412.824 309.353 410.264 311.045C410.264 311.045 407.071 309.631 406.944 307.054C406.944 307.054 416.169 294.246 416.904 290.305C417.664 286.339 411.024 276.79 410.441 272.824C410.036 269.894 414.75 262.113 418.957 267.165Z" fill="#C75C9E"/>
<path d="M402.914 312.435C404.359 310.54 406.665 309.656 408.059 310.439C409.428 311.222 409.402 313.42 407.958 315.315C406.513 317.209 404.207 318.119 402.813 317.31C401.419 316.502 401.47 314.304 402.914 312.435Z" fill="#FFAD97"/>
<path d="M473.42 258.879C468.022 258.879 463.637 254.484 463.637 249.128C463.637 243.773 468.022 239.402 473.42 239.402C478.793 239.402 483.177 243.747 483.177 249.128C483.177 254.484 478.818 258.879 473.42 258.879ZM473.42 241.827C469.365 241.827 466.07 245.112 466.07 249.128C466.07 253.17 469.365 256.454 473.42 256.454C477.449 256.454 480.744 253.195 480.744 249.128C480.769 245.086 477.475 241.827 473.42 241.827Z" fill="#F5ADAD"/>
<path d="M478.539 283.131H468.275C467.616 283.131 467.059 282.6 467.059 281.918V273.253C464.93 272.698 462.826 271.813 460.799 270.626L454.64 276.765C454.184 277.219 453.373 277.219 452.942 276.765L445.669 269.54C445.187 269.06 445.187 268.302 445.669 267.822L451.802 261.658C450.661 259.738 449.8 257.641 449.192 255.418H440.524C439.865 255.418 439.308 254.888 439.308 254.206V244.025C439.308 243.368 439.84 242.813 440.524 242.813H449.192C449.774 240.615 450.661 238.493 451.802 236.573L445.669 230.434C445.187 229.954 445.187 229.196 445.669 228.716L452.917 221.517C453.399 221.037 454.159 221.037 454.615 221.517L460.773 227.655C462.776 226.493 464.879 225.609 467.033 225.028V216.414C467.033 215.732 467.591 215.201 468.25 215.201H478.514C479.173 215.201 479.73 215.732 479.73 216.414V225.028C481.91 225.609 484.013 226.468 486.016 227.655L492.149 221.517C492.63 221.037 493.416 221.037 493.872 221.517L501.12 228.716C501.323 228.944 501.475 229.247 501.475 229.575C501.475 229.904 501.374 230.207 501.12 230.434L494.936 236.573C496.102 238.518 496.989 240.615 497.547 242.813H506.24C506.899 242.813 507.456 243.368 507.456 244.025V254.256C507.456 254.938 506.924 255.469 506.24 255.469H497.547C496.989 257.692 496.102 259.763 494.936 261.709L501.12 267.873C501.602 268.352 501.602 269.11 501.12 269.59L493.847 276.815C493.391 277.27 492.58 277.27 492.123 276.815L485.99 270.677C483.937 271.864 481.834 272.723 479.705 273.304V281.969C479.756 282.575 479.224 283.131 478.539 283.131ZM469.517 280.706H477.348V272.319C477.348 271.738 477.728 271.258 478.311 271.131C480.795 270.601 483.228 269.59 485.585 268.1C486.066 267.797 486.674 267.873 487.105 268.277L493.061 274.213L498.586 268.706L492.605 262.744C492.199 262.34 492.149 261.709 492.453 261.229C493.872 259.056 494.886 256.631 495.469 254.004C495.57 253.448 496.077 253.044 496.66 253.044H505.074V245.238H496.66C496.077 245.238 495.595 244.834 495.469 244.278C494.886 241.676 493.872 239.251 492.453 237.028C492.149 236.548 492.199 235.916 492.605 235.512L498.586 229.55L493.061 224.068L487.105 230.03C486.674 230.434 486.066 230.51 485.585 230.207C483.304 228.742 480.845 227.731 478.311 227.15C477.754 227.024 477.348 226.544 477.348 225.963V217.576H469.517V225.963C469.517 226.519 469.137 227.024 468.554 227.15C466.02 227.706 463.561 228.742 461.28 230.207C460.799 230.51 460.165 230.434 459.76 230.03L453.804 224.068L448.254 229.55L454.21 235.512C454.615 235.916 454.691 236.548 454.362 237.028C452.942 239.251 451.929 241.676 451.346 244.278C451.219 244.859 450.712 245.238 450.155 245.238H441.766V253.044H450.155C450.712 253.044 451.219 253.448 451.346 253.978C451.929 256.58 452.968 259.031 454.362 261.203C454.666 261.683 454.59 262.315 454.21 262.719L448.254 268.681L453.804 274.188L459.76 268.251C460.191 267.847 460.799 267.771 461.28 268.075C463.637 269.565 466.07 270.576 468.554 271.106C469.111 271.207 469.517 271.712 469.517 272.293V280.706Z" fill="#F5ADAD"/>
<path d="M279.694 389.888C279.694 389.888 284.56 392.869 285.853 393.324C287.145 393.779 286.233 394.89 286.233 394.89H274.93L274.6 389.585L279.694 389.888Z" fill="#4575ED"/>
<path d="M266.972 297.354L272.421 307.585L270.216 311.349L262.816 299.425L266.972 297.354Z" fill="#FFAD97"/>
<path d="M271.001 305.008C271.001 305.008 266.592 314.203 267.377 329.865C268.163 345.528 274.651 389.888 274.651 389.888H279.72C279.72 389.888 284.256 339.187 282.178 327.263C282.431 323.373 284.205 331.002 286.512 339.01C288.843 347.17 289.375 347.296 288.843 353.157C288.032 362.403 287.272 389.231 287.272 389.231H292.391C292.391 389.231 303.036 352.121 302.225 340.93C301.414 329.588 297.283 315.163 292.771 304.856C285.929 302.355 271.001 305.008 271.001 305.008Z" fill="#2F2F47"/>
<path d="M292.341 389.181C292.341 389.181 297.207 392.869 298.499 393.324C299.792 393.778 298.879 394.89 298.879 394.89H287.576L287.272 389.256L292.341 389.181Z" fill="#5D8AFF"/>
<path d="M288.666 269.515C288.666 269.515 287.373 267.064 289.325 265.751C291.276 264.462 293.228 266.13 293.735 269.641C295.813 273.279 306.204 286.213 306.33 289.194C306.457 292.175 302.554 291.644 302.554 291.644L291.378 279.594L288.666 269.515Z" fill="#FFAD97"/>
<path d="M280.429 268.656C280.429 268.656 288.058 268.302 289.705 269.616C291.352 270.904 292.138 275.224 292.645 284.899C293.152 294.574 291.961 302.077 292.822 305.008C292.442 305.008 292.29 305.008 292.29 305.008H270.976C270.976 305.008 271.23 298.01 270.317 292.048C269.405 286.086 266.161 275.855 268.239 273.026C270.343 270.171 280.429 268.656 280.429 268.656Z" fill="#5D8AFF"/>
<path d="M269.709 284.798C269.709 284.798 268.138 297.606 266.465 299.172C264.767 300.713 261.143 302.532 261.523 294.12C261.903 285.708 265.02 276.386 265.02 276.386L267.479 274.694L269.709 284.798Z" fill="#5D8AFF"/>
<path d="M287.956 262.568C289.629 257.541 287.906 252.261 287.906 252.261C286.968 252.438 284.763 252.236 283.192 252.261C281.62 252.286 281.62 254.256 281.544 255.191C281.443 256.126 280.632 258.122 280.074 258.248C279.796 257.187 279.796 253.802 278.047 254.913C276.298 256 276.856 256.581 276.983 258.551C277.084 260.521 274.423 260.041 274.423 260.041C275.31 264.816 274.474 266.003 275.234 267.115C276.932 269.641 279.897 269.767 282.305 268.681C281.772 266.382 281.519 264.286 281.519 264.286C285.143 266.483 287.019 265.296 287.956 262.568Z" fill="#FFAD97"/>
<path d="M287.069 245.465C283.521 244.505 275.563 244.126 273.156 247.941C273.156 247.941 270.799 249.002 270.799 253.347C270.799 256 272.446 262.138 265.553 270.424C265.553 270.424 262.74 274.946 264.488 278.937C267.048 284.748 274.093 287.855 277.591 284.116C281.088 280.352 282.431 271.738 280.759 264.993C280.15 262.568 280.176 260.9 281.544 257.818C281.925 256.985 281.62 252.286 283.192 252.261C284.763 252.235 287.399 254.534 289.933 254.206C292.442 253.877 294.52 247.461 287.069 245.465Z" fill="#2A375E"/>
<path d="M289.705 269.616C289.705 269.616 296.294 276.613 301.211 282.474C306.153 288.335 308.687 293.589 306.153 295.08C305.114 295.686 302.529 296.292 292.037 283.762C288.59 278.331 289.705 269.616 289.705 269.616Z" fill="#5D8AFF"/>
<defs>
<linearGradient id="paint0_linear" x1="304.329" y1="0.0437012" x2="304.329" y2="394.738" gradientUnits="userSpaceOnUse">
<stop stop-color="#E8B4C5"/>
<stop offset="1" stop-color="#FBF5F5"/>
</linearGradient>
<linearGradient id="paint1_linear" x1="374.243" y1="392.472" x2="393.424" y2="392.472" gradientUnits="userSpaceOnUse">
<stop stop-color="#3D342B"/>
<stop offset="1" stop-color="#291C17"/>
</linearGradient>
<linearGradient id="paint2_linear" x1="402.652" y1="392.472" x2="421.842" y2="392.472" gradientUnits="userSpaceOnUse">
<stop stop-color="#3D342B"/>
<stop offset="1" stop-color="#291C17"/>
</linearGradient>
<clipPath id="clip0">
<rect width="359" height="116" fill="white" transform="translate(38.6255 279.974)"/>
</clipPath>
</defs>
</svg>
