<svg width="36" height="36" viewBox="0 0 36 36" fill="none" xmlns="http://www.w3.org/2000/svg">
<g clip-path="url(#clip0)">
<path d="M17.7958 15.2254H17.8104L24.9562 12.79C24.9854 12.6587 24.9854 12.5275 24.9854 12.4108C24.9854 12.2796 24.9708 12.1629 24.9271 12.0462C24.8104 11.7108 24.5917 11.3462 24.2854 11.0837V7.88997C24.2854 5.52747 23.4396 4.59414 22.5646 4.05456C22.1125 2.68372 20.2312 0.744141 16.5417 0.744141C12.1667 0.744141 8.87083 5.07539 8.87083 7.88997C8.87083 9.05664 8.82708 9.97539 8.78333 10.6754C8.78333 10.8212 8.76875 10.9525 8.76875 11.0691C8.44791 11.3608 8.22916 11.7546 8.12708 12.1337C8.1125 12.2212 8.09791 12.3087 8.09791 12.4108C8.09791 13.5483 8.73958 15.1962 8.82708 15.3858C8.91458 15.6337 9.10416 15.8379 9.35208 15.9546C9.36666 16.0129 9.38125 16.1004 9.38125 16.2754C9.38125 17.8212 10.7083 19.2796 11.4375 19.9796C11.3646 21.5837 10.9125 22.6921 10.2708 22.9691L4.55416 24.865C2.93541 25.4046 1.725 26.7171 1.30208 28.3796L0.529163 31.4712C0.456246 31.7921 0.529163 32.1421 0.73333 32.4046C0.937496 32.6671 1.25833 32.8275 1.59375 32.8275H17.9417C17.5042 32.2733 17.0958 31.6608 16.7167 31.0046C15.7542 29.2983 15.0833 27.2275 15.0833 24.8796V19.0316C15.0833 17.3108 16.1771 15.7941 17.7958 15.2254V15.2254Z" fill="#E1251B"/>
<path d="M34.7577 17.9904L27.1015 15.3858C26.874 15.3071 26.626 15.3071 26.3985 15.3858L18.7423 17.9904C18.2975 18.1406 18 18.5563 18 19.0258V24.8854C18 32.0371 25.9829 35.5138 26.3227 35.6581C26.5969 35.7733 26.9031 35.7733 27.1773 35.6581C27.5171 35.5123 35.5 32.0371 35.5 24.8854V19.0258C35.5 18.5563 35.2025 18.1406 34.7577 17.9904ZM31.5421 23.5204L27.5317 28.6246C27.0212 29.2765 26.0646 29.3713 25.436 28.8317L22.884 26.6442C22.2715 26.1206 22.2 25.199 22.7265 24.5879C23.25 23.9769 24.1717 23.9069 24.7812 24.4304L26.1783 25.6277L29.2481 21.7208C29.7454 21.0879 30.6613 20.9756 31.2956 21.4758C31.93 21.9702 32.0408 22.8875 31.5421 23.5204V23.5204Z" fill="#E1251B"/>
</g>
<defs>
<clipPath id="clip0">
<rect width="35" height="35" fill="white" transform="translate(0.5 0.744141)"/>
</clipPath>
</defs>
</svg>
