<svg width="32" height="36" viewBox="0 0 32 36" fill="none" xmlns="http://www.w3.org/2000/svg">
<path d="M14.9746 0.882324H17.0254V3.00146H14.9746V0.882324Z" fill="#E1251B"/>
<path d="M14.9746 29.6616H17.0254V33.7632H31.3809V3.00146H17.0254V7.10303H14.9746V3.00146H0.619141V33.7632H14.9746V29.6616ZM27.1031 28.0354L25.6531 29.4854L24.2031 28.0354L22.7532 29.4854L21.3032 28.0354L22.7532 26.5854L21.3032 25.1355L22.7532 23.6855L24.2031 25.1355L25.6531 23.6855L27.1031 25.1355L25.6531 26.5854L27.1031 28.0354ZM21.8519 9.45425L23.1777 10.78L26.5543 7.4034L28.0043 8.85337L23.1777 13.68L20.402 10.9042L21.8519 9.45425ZM21.8519 17.6574L23.1777 18.9831L26.5543 15.6065L28.0043 17.0565L23.1777 21.8831L20.402 19.1073L21.8519 17.6574ZM14.9746 9.15381H17.0254V13.2554H14.9746V9.15381ZM14.9746 15.3062H17.0254V21.4585H14.9746V15.3062ZM14.9746 23.5093H17.0254V27.6108H14.9746V23.5093ZM10.6968 28.0354L9.24685 29.4854L7.79688 28.0354L6.3469 29.4854L4.89693 28.0354L6.3469 26.5854L4.89693 25.1355L6.3469 23.6855L7.79688 25.1355L9.24685 23.6855L10.6968 25.1355L9.24685 26.5854L10.6968 28.0354ZM10.6968 19.8323L9.24685 21.2823L7.79688 19.8323L6.3469 21.2823L4.89693 19.8323L6.3469 18.3823L4.89693 16.9324L6.3469 15.4824L7.79688 16.9324L9.24685 15.4824L10.6968 16.9324L9.24685 18.3823L10.6968 19.8323ZM6.77148 13.68L3.99575 10.9042L5.44572 9.45425L6.77148 10.78L10.1481 7.4034L11.5981 8.85337L6.77148 13.68Z" fill="#E1251B"/>
<path d="M14.9746 33.7632H17.0254V35.8823H14.9746V33.7632Z" fill="#E1251B"/>
</svg>
