<svg width="13" height="18" viewBox="0 0 13 18" fill="none" xmlns="http://www.w3.org/2000/svg">
<path d="M7.0905 0.710449C3.72151 0.710449 0.392456 2.95626 0.392456 6.59107C0.392456 8.90255 1.69266 10.2159 2.48067 10.2159C2.80585 10.2159 2.99287 9.30968 2.99287 9.05384C2.99287 8.74862 2.21485 8.09826 2.21485 6.82747C2.21485 4.18765 4.22426 2.31588 6.82468 2.31588C9.06051 2.31588 10.7153 3.58667 10.7153 5.92126C10.7153 7.66485 10.0161 10.9351 7.75032 10.9351C6.9329 10.9351 6.23315 10.3441 6.23315 9.49723C6.23315 8.25586 7.09995 7.05441 7.09995 5.77364C7.09995 3.60033 4.01675 3.99433 4.01675 6.62101C4.01675 7.17261 4.08557 7.78305 4.33195 8.2858C3.87859 10.2364 2.95295 13.142 2.95295 15.1514C2.95295 15.7718 3.04173 16.3828 3.10057 17.0032C3.21194 17.1283 3.15625 17.1151 3.32699 17.0526C4.9818 14.7868 4.92296 14.344 5.67156 11.379C6.07555 12.1476 7.11939 12.561 7.94679 12.561C11.4335 12.561 13 9.16259 13 6.09935C13 2.83911 10.1826 0.7115 7.08997 0.7115L7.0905 0.710449Z" fill="#EFF9FC"/>
</svg>
