<svg width="116" height="101" viewBox="0 0 116 101" fill="none" xmlns="http://www.w3.org/2000/svg">
<path opacity="0.6" d="M99.6014 3.41355L30.0374 16.625L45.6722 98.4381L115.236 85.2267L99.6014 3.41355Z" fill="#FFEBEB"/>
<path d="M77.6604 101H6.86425C4.60071 101 2.76385 99.1822 2.76385 96.9357V13.0225C2.76385 10.779 4.60071 8.9585 6.86425 8.9585H77.6604C79.924 8.9585 81.7608 10.779 81.7608 13.0225V96.9357C81.7638 99.1822 79.927 101 77.6604 101Z" fill="#F098B2"/>
<path d="M75.6604 99.2272H4.86425C2.60071 99.2272 0.763855 97.4097 0.763855 95.1633V11.25C0.763855 9.00658 2.60071 7.18604 4.86425 7.18604H75.6604C77.924 7.18604 79.7608 9.00658 79.7608 11.25V95.1633C79.7638 97.4097 77.927 99.2272 75.6604 99.2272Z" fill="#FFBED1"/>
<path d="M73.3303 95.9041H7.19436C5.73274 95.9041 4.54953 94.7314 4.54953 93.2828V13.1306C4.54953 11.682 5.73274 10.5093 7.19436 10.5093H73.3303C74.7919 10.5093 75.9751 11.682 75.9751 13.1306V93.2798C75.9782 94.7284 74.7919 95.9041 73.3303 95.9041Z" fill="#FFFAFA"/>
<path d="M13.8251 88.4235H14.2235C14.6119 89.9916 15.9729 91.0259 17.5879 91.0259C19.2032 91.0259 20.5642 89.9916 20.9526 88.4235H31.4558C31.8442 89.9916 33.2052 91.0259 34.8205 91.0259C36.4355 91.0259 37.7965 89.9916 38.1849 88.4235H38.9349C39.6568 88.4299 40.3515 88.1484 40.8648 87.641C41.3781 87.1332 41.6678 86.4419 41.669 85.72V83.6849C41.6684 82.612 41.0421 81.6384 40.066 81.1927L37.6073 80.0748L35.4398 76.622C34.8125 75.6168 33.7091 75.0091 32.5244 75.0162H23.3075C22.2352 75.0159 21.2239 75.5139 20.5704 76.3641L17.7805 80.0231L13.1053 81.2987C11.9167 81.6252 11.0925 82.7051 11.091 83.9372V85.72C11.0925 86.4419 11.3819 87.1332 11.8952 87.641C12.4085 88.1484 13.1032 88.4302 13.8251 88.4235ZM17.5879 89.8054C16.3613 89.8051 15.3668 88.8103 15.3668 87.5837C15.3671 86.3568 16.3616 85.3623 17.5885 85.3626C18.8151 85.3626 19.8096 86.3571 19.8096 87.584C19.8084 88.8103 18.8145 89.8041 17.5879 89.8054ZM34.8205 89.8054C33.5936 89.8054 32.5991 88.8106 32.5991 87.584C32.5991 86.3571 33.5936 85.3626 34.8205 85.3626C36.0471 85.3626 37.0419 86.3571 37.0419 87.584C37.0404 88.81 36.0465 89.8038 34.8205 89.8054ZM12.3455 83.9372C12.3458 83.2696 12.792 82.6843 13.4358 82.5069L18.3168 81.1731C18.4497 81.1367 18.5667 81.0577 18.65 80.948L21.5685 77.1239C21.9841 76.5846 22.6267 76.2691 23.3075 76.2707H32.5244C33.2769 76.2648 33.9783 76.6498 34.3773 77.2878L36.6453 80.9048C36.7108 81.0087 36.8055 81.0907 36.9175 81.141L39.5475 82.336C40.0755 82.5771 40.4145 83.1042 40.4145 83.6849V85.72C40.4136 86.1093 40.2562 86.4817 39.9781 86.7543C39.7 87.0266 39.3242 87.176 38.9349 87.169H38.2749C38.0808 85.4073 36.5923 84.0741 34.8205 84.0741C33.0484 84.0741 31.56 85.4073 31.3658 87.169H21.0426C20.8484 85.4073 19.36 84.0741 17.5879 84.0741C15.8158 84.0741 14.3276 85.4073 14.1335 87.169H13.8251C13.4358 87.176 13.06 87.0266 12.7819 86.7543C12.5038 86.4817 12.3467 86.1093 12.3455 85.72V83.9372Z" fill="#E7685F"/>
<path d="M67.1964 30.9702H23.015V33.8495H67.1964V30.9702Z" fill="#FDE0E0"/>
<path d="M67.1964 36.2041H23.015V39.0834H67.1964V36.2041Z" fill="#FDE0E0"/>
<path d="M67.1964 41.4375H11.5157V44.3168H67.1964V41.4375Z" fill="#FDE0E0"/>
<path d="M27.5814 10.5093C27.5995 11.3131 28.2592 11.9609 29.0733 11.9609H49.9384C50.7524 11.9609 51.4151 11.3131 51.4303 10.5093H27.5814Z" fill="#E01A0F"/>
<path d="M49.9414 3.19721H42.7332C42.7332 1.43065 41.2897 0 39.5073 0C37.7249 0 36.2815 1.43065 36.2815 3.19721H29.0732C28.2471 3.19721 27.5753 3.86004 27.5753 4.68184V9.6906C27.5753 10.5094 28.2441 11.1752 29.0732 11.1752H49.9384C50.7645 11.1752 51.4363 10.5124 51.4363 9.6906V4.68184C51.4363 3.86004 50.7675 3.19721 49.9414 3.19721ZM39.5073 4.4539C38.8083 4.4539 38.2394 3.89004 38.2394 3.19721C38.2394 2.50438 38.8083 1.94052 39.5073 1.94052C40.2064 1.94052 40.7753 2.50438 40.7753 3.19721C40.7753 3.89004 40.2064 4.4539 39.5073 4.4539Z" fill="#E1251B"/>
<path d="M27.5784 8.36523V9.69091C27.5784 10.5097 28.2471 11.1755 29.0763 11.1755H49.9414C50.7676 11.1755 51.4394 10.5127 51.4394 9.69091V8.36523H27.5784Z" fill="#FF4A41"/>
<path d="M18.8813 32.4698V37.5836H13.0287V32.4698H18.8813ZM20.3943 30.9702H11.5157V39.0832H20.3943V30.9702Z" fill="#FDE0E0"/>
<path d="M67.1964 49.1577H23.015V52.037H67.1964V49.1577Z" fill="#FDE0E0"/>
<path d="M67.1964 54.3916H23.015V57.2709H67.1964V54.3916Z" fill="#FDE0E0"/>
<path d="M67.1964 59.6255H11.5157V62.5048H67.1964V59.6255Z" fill="#FDE0E0"/>
<path d="M18.8813 50.6573V55.7711H13.0287V50.6573H18.8813ZM20.3943 49.1577H11.5157V57.2707H20.3943V49.1577Z" fill="#FDE0E0"/>
<path d="M66.3248 27.4197H12.487C12.0543 27.4197 11.7003 26.976 11.7003 26.4251V17.5806C11.7003 17.0335 12.0513 16.5859 12.487 16.5859H66.3218C66.7545 16.5859 67.1086 17.0297 67.1086 17.5806V26.4289C67.1086 26.976 66.7576 27.4197 66.3248 27.4197Z" fill="#FDE0E0"/>
<path d="M67.1964 67.3452H11.5157V70.1765H67.1964V67.3452Z" fill="#FDE0E0"/>
<path d="M67.1964 82.3477H46.4674V85.227H67.1964V82.3477Z" fill="#FDE0E0"/>
<path d="M57.8154 87.3979H46.4674V90.2772H57.8154V87.3979Z" fill="#FDE0E0"/>
<path d="M65.5955 73.6857V78.7994H47.8292V73.6857H65.5955ZM67.1086 72.186H46.3161V80.299H67.1086V72.186Z" fill="#FDE0E0"/>
<path d="M21.172 31.2583L15.9368 36.444L13.2073 33.7387" stroke="#FD5950" stroke-width="2" stroke-miterlimit="10" stroke-linecap="round" stroke-linejoin="round"/>
<path d="M21.172 49.1577L15.9368 54.3464L13.2073 51.6411" stroke="#FD5950" stroke-width="2" stroke-miterlimit="10" stroke-linecap="round" stroke-linejoin="round"/>
<path d="M17.3744 24.2525L16.4948 22.9908H16.4417H15.5223V24.2525H14.4659V19.7314H16.4417C16.8484 19.7314 17.1976 19.7972 17.4937 19.933C17.7899 20.0688 18.0197 20.2572 18.1833 20.5025C18.3468 20.7478 18.4264 21.037 18.4264 21.3743C18.4264 21.7116 18.3468 22.0008 18.1833 22.2417C18.0197 22.487 17.7899 22.671 17.4893 22.8025L18.5148 24.2569H17.3744V24.2525ZM17.1092 20.7872C16.9456 20.6514 16.7025 20.5813 16.3843 20.5813H15.5223V22.1585H16.3843C16.7025 22.1585 16.9412 22.0884 17.1092 21.9526C17.2727 21.8124 17.3567 21.6196 17.3567 21.3699C17.3567 21.1158 17.2727 20.9231 17.1092 20.7872Z" fill="#E1251B"/>
<path d="M22.7934 23.4158V24.2569H19.2573V19.7314H22.7095V20.5726H20.3093V21.5539H22.431V22.3688H20.3093V23.4158H22.7934Z" fill="#E1251B"/>
<path d="M26.7097 21.9217H27.6733V23.7573C27.4258 23.9413 27.1385 24.0858 26.8114 24.1822C26.4843 24.283 26.1572 24.3312 25.8257 24.3312C25.3527 24.3312 24.924 24.2304 24.5483 24.0289C24.1681 23.8273 23.872 23.5514 23.6598 23.1965C23.4432 22.8416 23.3372 22.4386 23.3372 21.9917C23.3372 21.5449 23.4432 21.1419 23.6598 20.787C23.8764 20.4321 24.1726 20.1518 24.5571 19.9546C24.9417 19.7531 25.3704 19.6523 25.8478 19.6523C26.25 19.6523 26.6125 19.7181 26.9352 19.8539C27.2623 19.9897 27.5363 20.1824 27.7573 20.4365L27.081 21.0586C26.7539 20.7169 26.3605 20.546 25.9008 20.546C25.6091 20.546 25.3527 20.6074 25.1229 20.7257C24.8975 20.8483 24.7207 21.0148 24.5925 21.2382C24.4643 21.4573 24.4024 21.7114 24.4024 21.9961C24.4024 22.2765 24.4643 22.5262 24.5925 22.7453C24.7207 22.9643 24.8931 23.1352 25.1185 23.2578C25.3439 23.3805 25.5959 23.4418 25.8832 23.4418C26.1882 23.4418 26.4622 23.3761 26.7053 23.2491V21.9217H26.7097Z" fill="#E1251B"/>
<path d="M28.6502 19.7314H29.7066V24.2569H28.6502V19.7314Z" fill="#E1251B"/>
<path d="M31.2448 24.1866C30.9089 24.0902 30.6393 23.9632 30.4315 23.8099L30.7896 23.0213C30.984 23.1615 31.2183 23.2798 31.4879 23.363C31.7576 23.4506 32.0272 23.4944 32.2968 23.4944C32.5974 23.4944 32.8184 23.4506 32.9643 23.363C33.1101 23.2754 33.1809 23.1571 33.1809 23.0125C33.1809 22.903 33.1367 22.8154 33.0527 22.7453C32.9687 22.6752 32.8582 22.6182 32.7256 22.5744C32.593 22.5306 32.4117 22.4824 32.1863 22.4342C31.8371 22.351 31.5542 22.2722 31.3332 22.1889C31.1122 22.1057 30.9222 21.9743 30.763 21.7946C30.6039 21.615 30.5243 21.3741 30.5243 21.0718C30.5243 20.8089 30.5951 20.5724 30.7409 20.3577C30.8868 20.143 31.099 19.9766 31.3907 19.8495C31.678 19.7225 32.0316 19.6611 32.4515 19.6611C32.7433 19.6611 33.0261 19.6962 33.3046 19.7663C33.5831 19.8364 33.8262 19.9327 34.0339 20.0642L33.7069 20.8615C33.2869 20.6249 32.8626 20.5066 32.4427 20.5066C32.1465 20.5066 31.9299 20.5548 31.7885 20.6468C31.6471 20.7432 31.5763 20.8659 31.5763 21.0236C31.5763 21.1769 31.6559 21.2952 31.8194 21.3697C31.983 21.4442 32.2305 21.5186 32.5665 21.5931C32.9156 21.6763 33.1985 21.7552 33.4195 21.8384C33.6405 21.9217 33.8306 22.0487 33.9897 22.2283C34.1489 22.408 34.2284 22.6445 34.2284 22.9468C34.2284 23.2053 34.1577 23.4419 34.0118 23.6565C33.866 23.8712 33.6494 24.0377 33.3577 24.1647C33.0659 24.2918 32.7123 24.3531 32.2924 24.3531C31.93 24.3312 31.5808 24.283 31.2448 24.1866Z" fill="#E1251B"/>
<path d="M35.8329 20.5813H34.3699V19.7314H38.348V20.5857H36.8849V24.2569H35.8285V20.5813H35.8329Z" fill="#E1251B"/>
<path d="M41.8267 24.2525L40.9471 22.9908H40.894H39.9746V24.2525H38.9182V19.7314H40.894C41.3007 19.7314 41.6499 19.7972 41.946 19.933C42.2422 20.0688 42.472 20.2572 42.6356 20.5025C42.7947 20.7478 42.8787 21.037 42.8787 21.3743C42.8787 21.7116 42.7991 22.0008 42.6356 22.2417C42.472 22.487 42.2422 22.671 41.9416 22.8025L42.9671 24.2569H41.8267V24.2525ZM41.5615 20.7872C41.3979 20.6514 41.1548 20.5813 40.8366 20.5813H39.9746V22.1585H40.8366C41.1548 22.1585 41.3935 22.0884 41.5615 21.9526C41.725 21.8124 41.809 21.6196 41.809 21.3699C41.809 21.1158 41.725 20.9231 41.5615 20.7872Z" fill="#E1251B"/>
<path d="M46.7198 23.2843H44.5981L44.1959 24.2525H43.1129L45.1462 19.7271H46.1893L48.2315 24.2525H47.122L46.7198 23.2843ZM46.3838 22.4914L45.6589 20.7609L44.934 22.4914H46.3838Z" fill="#E1251B"/>
<path d="M49.4249 20.5813H47.9619V19.7314H51.94V20.5857H50.4769V24.2569H49.4205V20.5813H49.4249Z" fill="#E1251B"/>
<path d="M52.5101 19.7314H53.5665V24.2569H52.5101V19.7314Z" fill="#E1251B"/>
<path d="M55.5778 24.0289C55.1976 23.8273 54.9015 23.547 54.6849 23.1921C54.4683 22.8373 54.3622 22.4386 54.3622 21.9917C54.3622 21.5493 54.4683 21.1462 54.6849 20.7914C54.9015 20.4365 55.1976 20.1561 55.5778 19.9546C55.9579 19.7531 56.3866 19.6523 56.8596 19.6523C57.3326 19.6523 57.7613 19.7531 58.137 19.9546C58.5172 20.1561 58.8133 20.4365 59.0299 20.7914C59.2465 21.1462 59.357 21.5449 59.357 21.9917C59.357 22.4342 59.2465 22.8373 59.0299 23.1921C58.8133 23.547 58.5127 23.8273 58.137 24.0289C57.7569 24.2304 57.3326 24.3312 56.8596 24.3312C56.3866 24.3312 55.9579 24.2304 55.5778 24.0289ZM57.5933 23.2578C57.8099 23.1352 57.9823 22.9643 58.1061 22.7453C58.2299 22.5262 58.2917 22.2765 58.2917 21.9961C58.2917 21.7158 58.2299 21.466 58.1061 21.247C57.9823 21.028 57.8099 20.8571 57.5933 20.7344C57.3768 20.6118 57.1337 20.5504 56.864 20.5504C56.5944 20.5504 56.3513 20.6118 56.1347 20.7344C55.9181 20.8571 55.7457 21.028 55.622 21.247C55.4982 21.466 55.4363 21.7158 55.4363 21.9961C55.4363 22.2765 55.4982 22.5262 55.622 22.7453C55.7457 22.9643 55.9181 23.1352 56.1347 23.2578C56.3513 23.3805 56.5944 23.4418 56.864 23.4418C57.1292 23.4418 57.3723 23.3805 57.5933 23.2578Z" fill="#E1251B"/>
<path d="M64.3429 19.7314V24.2569H63.4766L61.2002 21.5101V24.2569H60.157V19.7314H61.0322L63.2997 22.4783V19.7314H64.3429Z" fill="#E1251B"/>
</svg>
