<svg width="130" height="109" viewBox="0 0 130 109" fill="none" xmlns="http://www.w3.org/2000/svg">
<path opacity="0.6" d="M113.85 6.41355L44.2855 19.625L59.9203 101.438L129.484 88.2267L113.85 6.41355Z" fill="#FFEBEB"/>
<path d="M89.5563 18.1372H8.51599C5.75457 18.1372 3.51599 20.3758 3.51599 23.1372V103.32C3.51599 106.081 5.75457 108.32 8.51599 108.32H89.5563C92.3177 108.32 94.5563 106.081 94.5563 103.32V23.1372C94.5563 20.3758 92.3177 18.1372 89.5563 18.1372Z" fill="#FFBED1"/>
<path d="M86.5563 15.1372H5.51599C2.75457 15.1372 0.515991 17.3758 0.515991 20.1372V100.32C0.515991 103.081 2.75457 105.32 5.51599 105.32H86.5563C89.3177 105.32 91.5563 103.081 91.5563 100.32V20.1372C91.5563 17.3758 89.3177 15.1372 86.5563 15.1372Z" fill="#FFFAFA"/>
<path opacity="0.3" d="M64.2932 10.937V10.7628C64.2932 10.728 64.2908 10.6955 64.2862 10.663C64.2862 10.6584 64.2862 10.6537 64.2838 10.6468C64.2792 10.6235 64.2769 10.6026 64.2722 10.5771C64.2582 10.5098 64.235 10.4448 64.2047 10.3798C64.1768 10.3356 64.1442 10.2962 64.1116 10.2567V10.2544C63.9626 10.0849 63.7578 9.96417 63.5296 9.93166L62.0259 9.72038L60.1892 9.46035L60.0403 9.43946L57.5402 9.08423L55.4429 8.78937L55.2939 8.76848L54.0508 8.59203L52.738 8.40861L52.6402 8.39468V8.29252L52.5797 8.28324V7.30347C52.5797 6.398 52.3934 5.53199 52.0559 4.74725C52.0117 4.64974 51.9698 4.5499 51.9232 4.45471C51.886 4.3781 51.8487 4.30612 51.8068 4.23183C51.8068 4.22951 51.8045 4.2295 51.8045 4.2295C51.7999 4.22022 51.7952 4.20861 51.7905 4.19932C51.7836 4.19236 51.7789 4.18075 51.7719 4.17146C51.4879 3.67693 51.1434 3.22652 50.743 2.82718C50.7337 2.8179 50.7197 2.80629 50.7081 2.79468C50.2146 2.30479 49.6466 1.89385 49.0181 1.58042C48.9786 1.56184 48.9413 1.54327 48.9041 1.5247C48.1312 1.15786 47.2746 0.937299 46.3714 0.900151C46.2806 0.89783 46.1922 0.895508 46.1014 0.895508C45.6079 0.895508 45.1284 0.951229 44.6675 1.05106C44.6 1.06499 44.5325 1.08125 44.4673 1.09982C44.3253 1.13697 44.1856 1.17644 44.0459 1.22519C43.9645 1.25073 43.883 1.28324 43.8039 1.3111C43.7247 1.33896 43.6502 1.37146 43.5734 1.40397C41.2177 2.38838 39.5649 4.7101 39.5649 7.41491V8.39468L38.7409 8.51077L34.893 9.05405L33.1472 9.30015L32.947 9.32801L30.2584 9.70413L28.6708 9.92934C28.6429 9.93398 28.6149 9.93863 28.587 9.94559C28.5661 9.95256 28.5451 9.9572 28.5242 9.96649C28.1424 10.0895 27.8538 10.4657 27.8538 10.872V17.9068C27.8538 18.0252 27.8794 18.139 27.9259 18.2434C27.9795 18.3618 28.0609 18.4663 28.161 18.5476C28.2169 18.5917 28.2774 18.6288 28.3449 18.659C28.4473 18.7055 28.5614 18.7333 28.6825 18.7333H63.5227C63.9812 18.7333 64.3514 18.3618 64.3514 17.9091V10.937H64.2932ZM46.0432 3.60728C46.2853 3.60728 46.5204 3.63282 46.7485 3.67693C47.4399 3.82088 48.0567 4.16682 48.5316 4.65438C48.7691 4.89816 48.9762 5.17677 49.1322 5.48091C49.1368 5.48788 49.1392 5.49252 49.1415 5.49949C49.3068 5.7897 49.4278 6.10778 49.5 6.44211C49.5093 6.48854 49.5186 6.53962 49.5256 6.58606C49.5605 6.78108 49.5791 6.98075 49.5791 7.18506C49.5791 7.25936 49.5768 7.33133 49.5698 7.40098C49.4837 8.81259 48.5526 9.99203 47.2746 10.4517C47.2304 10.468 47.1861 10.4819 47.1419 10.4935C47.1093 10.5028 47.0791 10.5121 47.0465 10.5191C47.0325 10.526 47.0185 10.5283 47.0023 10.5307C46.9604 10.54 46.9231 10.5492 46.8812 10.5585C46.6973 10.6003 46.5088 10.6282 46.3179 10.6398C46.2457 10.6491 46.1759 10.6491 46.1014 10.6491C45.8965 10.6491 45.694 10.6305 45.5008 10.5957C45.4543 10.5887 45.4054 10.5771 45.3588 10.5678C44.7303 10.4355 44.1693 10.1267 43.7154 9.70413C43.4361 9.44178 43.201 9.13299 43.0217 8.78937C43.0147 8.78009 43.0124 8.77312 43.0101 8.76383C42.8355 8.45969 42.7098 8.12768 42.6376 7.77246C42.5911 7.54725 42.5655 7.31276 42.5655 7.0713C42.5678 5.16052 44.1251 3.60728 46.0432 3.60728Z" fill="black"/>
<path d="M64.2884 10.6631C64.2884 10.6585 64.2884 10.6538 64.286 10.6469C64.2814 10.6236 64.279 10.6028 64.2744 10.5772C64.2604 10.5099 64.2371 10.4449 64.2069 10.3799C64.1976 10.359 64.1859 10.3381 64.1766 10.3195C64.1673 10.2986 64.1533 10.28 64.1417 10.2615C64.1138 10.2197 64.0858 10.1825 64.0556 10.1477V10.1454C63.9066 9.97589 63.6994 9.85516 63.4736 9.82265L61.9699 9.60906L60.1332 9.34902L57.4819 8.97522L55.3845 8.68037L53.9925 8.48302L52.6796 8.2996L52.64 8.29264L52.5795 8.28335V7.30358C52.5795 6.39811 52.3933 5.53211 52.0558 4.74736C52.0115 4.64985 51.9696 4.55002 51.9231 4.45483C51.8858 4.37821 51.8486 4.30624 51.8067 4.23194C51.8067 4.22962 51.8044 4.22962 51.8044 4.22962C51.7997 4.22033 51.795 4.20872 51.7904 4.19944C51.7834 4.19015 51.7788 4.17854 51.7741 4.16925C51.4808 3.63526 51.113 3.14537 50.6847 2.71585C50.6754 2.70657 50.6614 2.69496 50.6498 2.68335C50.1563 2.19347 49.5883 1.78252 48.9598 1.46909C48.1567 1.06975 47.2605 0.828292 46.3107 0.788823C46.2246 0.786501 46.1362 0.78418 46.0431 0.78418C42.4326 0.78418 39.5066 3.70491 39.5066 7.30358V8.28335L38.6825 8.39944L34.8347 8.94272L33.0888 9.18882L30.2 9.59513L28.6125 9.82033C28.1609 9.88534 27.7931 10.3056 27.7931 10.763V17.7978C27.7931 17.9626 27.8396 18.1159 27.9234 18.2435C27.97 18.3178 28.0305 18.3829 28.1004 18.4386C28.1562 18.4827 28.2168 18.5198 28.2819 18.55C28.3844 18.5965 28.4984 18.6243 28.6195 18.6243H63.4597C63.9182 18.6243 64.2884 18.2528 64.2884 17.8001V10.7653C64.293 10.7281 64.2907 10.6956 64.2884 10.6631ZM42.5676 7.07373C42.5676 5.15831 44.1249 3.6074 46.0431 3.6074C46.2851 3.6074 46.5203 3.63294 46.7484 3.67705C47.4397 3.821 48.0566 4.16693 48.5315 4.65449C48.7689 4.89828 48.9761 5.17688 49.132 5.48103C49.1367 5.48799 49.139 5.49264 49.1414 5.4996C49.2973 5.80375 49.409 6.13111 49.4672 6.47473C49.5022 6.66975 49.5208 6.86942 49.5208 7.07373C49.5208 7.14803 49.5185 7.22 49.5138 7.28965C49.4091 9.03327 48.0077 10.4286 46.2619 10.5331C46.1897 10.5424 46.1199 10.5424 46.0454 10.5424C45.8405 10.5424 45.638 10.5238 45.4448 10.489C44.7581 10.3729 44.1459 10.0525 43.6617 9.59513C43.4103 9.36063 43.1985 9.08899 43.0262 8.78949C43.0192 8.7802 43.0169 8.77323 43.0146 8.76395C42.84 8.4598 42.7143 8.1278 42.6421 7.77257C42.5933 7.54969 42.5676 7.31519 42.5676 7.07373Z" fill="#D3D3D3"/>
<path d="M64.2884 10.6633C64.2884 10.6586 64.2884 10.654 64.286 10.647C64.2814 10.6238 64.2791 10.6029 64.2744 10.5774C64.2604 10.51 64.2371 10.445 64.2069 10.38C64.1976 10.3591 64.1859 10.3382 64.1766 10.3196C64.1673 10.2988 64.1533 10.2802 64.1417 10.2616C64.1138 10.2198 64.0858 10.1827 64.0556 10.1478V10.1455C63.9206 10.0271 63.753 9.94585 63.5761 9.92031L61.9 9.68349L60.0611 9.42578L57.4074 9.04966L55.3124 8.75248L53.9227 8.55514L52.682 8.38101V8.29742L52.6424 8.29046L52.5819 8.28117V7.3014C52.5819 6.39593 52.3956 5.52993 52.0581 4.74519C52.0139 4.64767 51.972 4.54784 51.9254 4.45265C51.8882 4.37603 51.8509 4.30406 51.809 4.22976C51.809 4.22744 51.8067 4.22744 51.8067 4.22744C51.802 4.21815 51.7974 4.20655 51.7927 4.19726C51.7857 4.18797 51.7811 4.17636 51.7764 4.16708C51.4831 3.63308 51.1153 3.1432 50.687 2.71368C50.6777 2.70439 50.6637 2.69278 50.6521 2.68117C50.147 2.20058 49.565 1.79892 48.9295 1.49941C48.1055 1.11169 47.1883 0.893445 46.2223 0.881836H46.1455C45.638 0.881836 45.1445 0.939879 44.672 1.049C44.6045 1.06293 44.537 1.07918 44.4718 1.09776C44.3251 1.13723 44.1855 1.17669 44.0458 1.22545C43.9643 1.25099 43.8829 1.28349 43.8037 1.31135C43.7246 1.33922 43.6501 1.37172 43.5733 1.40422C41.2385 2.40257 39.6044 4.71268 39.6044 7.40356V8.38333L39.5648 8.39029L38.5522 8.53424L34.7043 9.0752L32.9585 9.32131L30.0697 9.72993L28.7103 9.92263C28.6684 9.9296 28.6265 9.93656 28.5869 9.95049C28.5659 9.95746 28.545 9.9621 28.524 9.97139C28.1632 10.106 27.8909 10.4729 27.8909 10.8629V17.8978C27.8909 18.1067 27.9677 18.2971 28.1004 18.4434C28.1562 18.4875 28.2168 18.5246 28.2819 18.5548C28.3844 18.6012 28.4984 18.6291 28.6195 18.6291H63.4597C63.9182 18.6291 64.2884 18.2576 64.2884 17.8049V10.7701C64.293 10.7283 64.2907 10.6958 64.2884 10.6633ZM46.0431 3.60754C46.2852 3.60754 46.5203 3.63308 46.7484 3.67719C47.4397 3.82114 48.0566 4.16708 48.5315 4.65464C49.025 5.11666 49.3811 5.72263 49.5348 6.40754C49.593 6.65364 49.6209 6.91136 49.6209 7.17371V7.183C49.6162 8.69908 48.6386 9.98532 47.2768 10.452C47.2326 10.4682 47.1883 10.4822 47.1441 10.4938C47.1115 10.5031 47.0813 10.5124 47.0487 10.5193C47.0347 10.5263 47.0207 10.5286 47.0044 10.5309C46.9625 10.5402 46.9253 10.5495 46.8834 10.5588C46.8438 10.5681 46.8043 10.5727 46.7624 10.582C46.5645 10.6168 46.362 10.6377 46.1548 10.6377H46.1478C45.8848 10.6377 45.6264 10.6099 45.3796 10.5518C44.7116 10.4032 44.1203 10.0643 43.6617 9.59295C43.4103 9.35845 43.1985 9.08681 43.0262 8.78731C43.0192 8.77802 43.0169 8.77106 43.0146 8.76177C42.84 8.45762 42.7143 8.12562 42.6421 7.77039C42.5956 7.54519 42.57 7.31069 42.57 7.06923C42.5677 5.16077 44.125 3.60754 46.0431 3.60754Z" fill="#E1251B"/>
<path opacity="0.3" d="M48.9625 1.46909L46.7464 3.67937C46.5183 3.63526 46.2855 3.60972 46.0411 3.60972C44.1206 3.60972 42.5657 5.16295 42.5657 7.07605C42.5657 7.31519 42.5913 7.55201 42.6378 7.77722L31.7623 18.6243H28.6221C28.5034 18.6243 28.387 18.5988 28.2846 18.55C28.2194 18.5222 28.1566 18.485 28.103 18.4386C28.0332 18.3829 27.9727 18.3178 27.9261 18.2435C27.8423 18.1135 27.7958 17.9603 27.7958 17.7978V14.4707L33.0915 9.18882L34.8374 8.94272L38.6852 8.39944L39.5093 8.28335V7.30358C39.5069 3.70491 42.433 0.78418 46.0434 0.78418C46.1365 0.78418 46.225 0.786501 46.3158 0.788823C47.2632 0.828292 48.1617 1.06975 48.9625 1.46909Z" fill="#AD0900"/>
<path opacity="0.3" d="M55.3846 8.68054L45.4169 18.6222H37.2859L45.375 10.5542L45.4425 10.4892C45.638 10.524 45.8382 10.5426 46.0431 10.5426C46.1176 10.5426 46.1874 10.5426 46.2596 10.5333C48.0077 10.4288 49.4068 9.03345 49.5115 7.28983C49.5185 7.22018 49.5185 7.14821 49.5185 7.07391C49.5185 6.8696 49.4999 6.66761 49.4649 6.47491L51.7765 4.16943C51.7858 4.19033 51.7997 4.21122 51.8067 4.2298C51.8067 4.2298 51.809 4.2298 51.809 4.23212C51.8509 4.30642 51.8882 4.38071 51.9254 4.45501C51.972 4.5502 52.0162 4.65003 52.0581 4.74754C52.3957 5.53229 52.5819 6.39829 52.5819 7.30376V8.28353L52.6424 8.29282L52.682 8.29978L53.9949 8.4832L55.3846 8.68054Z" fill="#AD0900"/>
<path opacity="0.3" d="M64.2931 10.7631V13.3077L58.9671 18.6221H50.8361L60.131 9.34912L61.9676 9.60915L63.4714 9.82043C63.6972 9.85294 63.902 9.97367 64.0533 10.1432V10.1455C64.0836 10.1826 64.1115 10.2198 64.1395 10.2592C64.1511 10.2778 64.1651 10.2964 64.1744 10.3173C64.1837 10.3382 64.1953 10.3591 64.2046 10.3776C64.2349 10.4403 64.2582 10.5077 64.2721 10.575C64.2768 10.6005 64.2791 10.6214 64.2838 10.6446C64.2861 10.6516 64.2861 10.6563 64.2861 10.6609C64.2908 10.6957 64.2931 10.7282 64.2931 10.7631Z" fill="#AD0900"/>
<path d="M86.2024 72.082H5.87V73.5517H86.2024V72.082Z" fill="#FFE2EB"/>
<path d="M81.4094 75.6436H5.87V76.7464H81.4094V75.6436Z" fill="#FFE2EB"/>
<path d="M47.0535 79.0215H5.87V80.1243H47.0535V79.0215Z" fill="#FFE2EB"/>
<path d="M58.3619 90.2891H5.87V91.3222H58.3619V90.2891Z" fill="#FFE2EB"/>
<path d="M58.3619 93.5859H5.87V94.6191H58.3619V93.5859Z" fill="#FFE2EB"/>
<path d="M58.3619 96.8804H5.87V97.9135H58.3619V96.8804Z" fill="#FFE2EB"/>
<path d="M49.5954 86.8647H5.87V88.151H49.5954V86.8647Z" fill="#FFE2EB"/>
<path d="M84.7754 48.4727H41.8275V49.5058H84.7754V48.4727Z" fill="#FFE2EB"/>
<path d="M84.7754 51.7603H41.8275V52.7934H84.7754V51.7603Z" fill="#FFE2EB"/>
<path d="M84.7754 58.3306H41.8275V59.3637H84.7754V58.3306Z" fill="#FFE2EB"/>
<path d="M84.7754 61.6182H41.8275V62.6513H84.7754V61.6182Z" fill="#FFE2EB"/>
<path d="M68.1433 45.062H41.8275V46.3482H68.1433V45.062Z" fill="#FFE2EB"/>
<path d="M71.4651 54.9199H41.8275V56.2062H71.4651V54.9199Z" fill="#FFE2EB"/>
<path d="M30.4771 47.5393C30.5842 47.1098 30.7332 46.7151 30.9078 46.3622C31.4455 45.2663 32.2067 44.5327 32.621 44.189C32.7747 44.059 32.8817 43.9847 32.912 43.9638L32.8538 43.8942L32.1182 42.9934L32.1252 43.1791C32.1252 43.1791 32.1252 43.1791 32.1252 43.1768L32.1182 42.9934C32.0856 43.0398 31.7667 43.5157 31.1708 43.9847C30.6214 44.4166 29.8393 44.8438 28.829 44.9204C28.7196 44.9297 28.6056 44.9343 28.4892 44.9343C27.991 44.9343 27.4999 44.8368 27.0343 44.6789C26.9039 44.6348 26.7759 44.5884 26.6502 44.535C26.1497 44.3307 25.6865 44.066 25.2908 43.8013C24.4877 43.2696 23.9523 42.738 23.8964 42.6846C23.801 42.7798 22.2297 44.3376 20.3326 44.802C19.9974 44.8856 19.6528 44.932 19.306 44.932C18.8335 44.932 18.4051 44.8554 18.0234 44.7323C17.5741 44.5907 17.19 44.3818 16.8688 44.1612C16.1169 43.6411 15.7142 43.0421 15.677 42.9887L14.8832 43.9592C14.9577 44.0103 15.5187 44.4073 16.1029 45.1317C16.3543 45.4428 16.6081 45.8143 16.8292 46.2438C17.1458 46.8567 17.3949 47.5857 17.4694 48.4332C17.5532 49.3781 17.4205 50.467 16.9223 51.6952C16.2659 53.3111 15.7142 54.8876 15.4279 56.3154C15.2323 57.2836 15.1625 58.1844 15.2649 58.9808C15.2859 59.1572 15.3185 59.329 15.358 59.4939C15.4977 60.0766 15.7491 60.592 16.1355 61.0262C16.4009 61.3257 16.7291 61.5857 17.1272 61.804C17.4763 61.9944 17.8791 62.1499 18.3423 62.2706C18.3493 62.273 18.3586 62.2753 18.3656 62.2776C18.5052 62.3147 18.6426 62.3519 18.7753 62.3867C18.9592 62.4378 19.1361 62.4912 19.306 62.5423C19.7692 62.6839 20.1906 62.8279 20.57 62.9741C21.0425 63.1529 21.4522 63.334 21.8061 63.5081C22.26 63.731 22.6231 63.9469 22.9118 64.1396C23.6241 64.6179 23.8731 64.9662 23.8988 65.0033C23.9174 64.9778 24.0384 64.8083 24.341 64.5506C24.5785 64.3486 24.9253 64.0909 25.4235 63.8076C25.8145 63.5847 26.2941 63.3479 26.8853 63.1065C27.4906 62.8604 28.2122 62.6119 29.0665 62.3728C29.1922 62.338 29.3225 62.3031 29.4552 62.2683C31.8552 61.6438 32.6536 60.0371 32.5721 57.9244C32.5512 57.3741 32.4697 56.7914 32.3417 56.1831C32.2812 55.8952 32.209 55.6003 32.1275 55.3008C32.0856 55.1476 32.0414 54.992 31.9972 54.8365C31.8459 54.3257 31.6713 53.801 31.4804 53.2693C31.3175 52.8189 31.1429 52.3615 30.9566 51.8995C30.9287 51.8322 30.9031 51.7625 30.8752 51.6952C30.6959 51.2494 30.5632 50.8222 30.4701 50.4159C30.3212 49.7542 30.2816 49.139 30.3188 48.5748C30.3375 48.208 30.3956 47.862 30.4771 47.5393Z" fill="#F3C800"/>
<path d="M29.7682 58.1951C31.0849 54.9626 29.525 51.2774 26.2839 49.9642C23.0429 48.6509 19.3481 50.2068 18.0314 53.4394C16.7147 56.672 18.2747 60.3571 21.5157 61.6704C24.7568 62.9836 28.4515 61.4277 29.7682 58.1951Z" fill="#E6AA16"/>
<path d="M28.9582 56.6311C29.4084 53.8447 27.5087 51.2219 24.715 50.7729C21.9213 50.3239 19.2916 52.2187 18.8414 55.0051C18.3912 57.7915 20.291 60.4143 23.0847 60.8633C25.8784 61.3123 28.508 59.4175 28.9582 56.6311Z" fill="#F3C800"/>
<path d="M28.4729 54.5858C28.4729 54.7622 28.3309 54.9038 28.154 54.9038C28.0655 54.9038 27.9864 54.8667 27.9258 54.8087L26.024 56.6567L26.1474 57.3695L26.2126 57.741L26.2964 58.2286L26.4756 59.2664C26.4919 59.264 26.5105 59.2617 26.5292 59.2617C26.5711 59.2617 26.6106 59.271 26.6455 59.2849C26.7643 59.3314 26.8481 59.4451 26.8481 59.5798C26.8481 59.7539 26.7061 59.8979 26.5292 59.8979C26.3941 59.8979 26.2801 59.8143 26.2335 59.6982C26.2196 59.6611 26.2102 59.6216 26.2102 59.5821C26.2102 59.5287 26.2242 59.4776 26.2475 59.4335L25.4886 59.0365L25.1115 58.8392L24.8252 58.6906L23.8987 58.2053L23.8941 58.203L21.543 59.4359C21.5663 59.48 21.5803 59.531 21.5803 59.5844C21.5803 59.7586 21.4383 59.9025 21.2613 59.9025C21.1333 59.9025 21.0239 59.8282 20.9727 59.7191C20.9541 59.6796 20.9424 59.6332 20.9424 59.5868C20.9424 59.4103 21.0844 59.2687 21.2613 59.2687C21.28 59.2687 21.2963 59.271 21.3149 59.2733L21.6524 57.3045L21.7432 56.7798L21.7641 56.6637L20.9517 55.8743L19.8647 54.8179C19.8065 54.8783 19.7273 54.9131 19.6365 54.9131C19.6016 54.9131 19.569 54.9085 19.5364 54.8969C19.4084 54.8551 19.3176 54.7367 19.3176 54.5951C19.3176 54.4186 19.4596 54.277 19.6365 54.277C19.6458 54.277 19.6552 54.277 19.6668 54.2793C19.8134 54.2909 19.9298 54.4047 19.9508 54.5486L22.5789 54.1679L23.7544 51.7927C23.6497 51.7417 23.5752 51.6325 23.5752 51.5095C23.5752 51.333 23.7195 51.1914 23.8941 51.1914C24.071 51.1914 24.213 51.333 24.213 51.5095C24.213 51.6349 24.1408 51.7417 24.0338 51.7927L24.369 52.4684L24.9323 53.6037L25.0766 53.8939L25.2116 54.1679L26.3755 54.335L27.6046 54.5138L27.842 54.5486C27.863 54.3931 27.9957 54.2747 28.1563 54.2747C28.3309 54.2677 28.4729 54.4093 28.4729 54.5858Z" fill="#E6AA16"/>
<path d="M19.9088 47.0685C19.9088 47.2101 19.8762 47.3378 19.8111 47.4492C19.7459 47.5607 19.6528 47.6466 19.5317 47.7069C19.4107 47.7673 19.2687 47.7975 19.1011 47.7975H18.5564V48.5729H18.0931V46.3696H19.0848C19.3502 46.3696 19.5527 46.43 19.6947 46.5507C19.839 46.6738 19.9088 46.8456 19.9088 47.0685ZM19.4433 47.0754C19.4433 46.8433 19.3059 46.7295 19.0336 46.7295H18.5564V47.4446H19.0475C19.1756 47.4446 19.2733 47.4121 19.3432 47.3494C19.4107 47.2867 19.4433 47.1938 19.4433 47.0754Z" fill="#E6AA16"/>
<path d="M22.381 47.4632C22.381 47.693 22.3345 47.895 22.2437 48.0692C22.1529 48.2433 22.0226 48.3756 21.8526 48.4685C21.6827 48.5614 21.4848 48.6078 21.2614 48.6078C20.9145 48.6078 20.6422 48.5056 20.4466 48.3013C20.2488 48.097 20.151 47.8184 20.151 47.4655C20.151 47.1126 20.2488 46.8363 20.4466 46.639C20.6422 46.4416 20.9168 46.3418 21.266 46.3418C21.6152 46.3418 21.8899 46.4416 22.0854 46.6413C22.2833 46.8386 22.381 47.1126 22.381 47.4632ZM21.9085 47.4632C21.9085 47.2264 21.8526 47.0383 21.7386 46.9037C21.6268 46.769 21.4685 46.7017 21.2637 46.7017C21.0565 46.7017 20.8959 46.769 20.7842 46.9013C20.6724 47.036 20.6142 47.2217 20.6142 47.4609C20.6142 47.7023 20.6724 47.8927 20.7865 48.032C20.9029 48.1713 21.0588 48.241 21.259 48.241C21.4662 48.241 21.6245 48.1736 21.7386 48.0367C21.8526 47.9043 21.9085 47.7116 21.9085 47.4632Z" fill="#E6AA16"/>
<path d="M22.7301 48.5729V46.3696H23.1933V48.2154H24.3782V48.5706H22.7301V48.5729Z" fill="#E6AA16"/>
<path d="M24.6902 48.5729V46.3696H25.1534V48.5729H24.6902Z" fill="#E6AA16"/>
<path d="M26.6128 48.2431C26.8922 48.2431 27.0854 48.1037 27.1948 47.8251L27.5975 47.9761C27.5114 48.1896 27.3833 48.3475 27.2157 48.4497C27.0481 48.5542 26.8479 48.6052 26.6128 48.6052C26.2567 48.6052 25.982 48.5054 25.7888 48.3034C25.5956 48.1037 25.4978 47.8228 25.4978 47.4606C25.4978 47.0984 25.5909 46.8222 25.7795 46.6271C25.9657 46.4344 26.238 46.3369 26.5919 46.3369C26.8503 46.3369 27.0621 46.388 27.225 46.4925C27.388 46.5969 27.502 46.7479 27.5672 46.9498L27.1599 47.0613C27.1249 46.9499 27.0574 46.8639 26.9573 46.7989C26.8572 46.7339 26.7385 46.7014 26.6012 46.7014C26.3917 46.7014 26.2334 46.7664 26.1263 46.8941C26.0192 47.0241 25.9634 47.2122 25.9634 47.4606C25.9634 47.7137 26.0192 47.9064 26.131 48.0411C26.2427 48.1757 26.4033 48.2431 26.6128 48.2431Z" fill="#E6AA16"/>
<path d="M27.9001 48.5729V46.3696H29.6367V46.7249H28.3634V47.2774H29.5413V47.6326H28.3634V48.2131H29.7019V48.5683H27.9001V48.5729Z" fill="#E6AA16"/>
<path d="M83.0156 91.459H70.3966V92.116H83.0156V91.459Z" fill="#FFBED1"/>
<path d="M81.2325 92.5596H72.175V93.2166H81.2325V92.5596Z" fill="#FFBED1"/>
<path d="M86.2024 93.6602H67.2075V94.3172H86.2024V93.6602Z" fill="#FFBED1"/>
<path d="M84.9686 94.7632H68.4412V95.4202H84.9686V94.7632Z" fill="#FFBED1"/>
<path d="M77.5825 101.02C73.0177 101.259 69.1094 97.7488 68.8696 93.1959C68.6298 88.643 72.1495 84.7448 76.7143 84.5057C81.2791 84.2665 85.1875 87.777 85.4272 92.3299C85.667 96.8828 82.1474 100.781 77.5825 101.02ZM76.7655 85.4576C72.7268 85.6689 69.6145 89.1166 69.8263 93.1448C70.0381 97.173 73.4949 100.277 77.5337 100.066C81.5724 99.8546 84.6847 96.4068 84.4728 92.3786C84.261 88.3504 80.8042 85.2463 76.7655 85.4576Z" fill="#FFBED1"/>
<path d="M77.4289 98.1019C74.4772 98.2552 71.9493 95.9869 71.7956 93.0429C71.642 90.0989 73.9162 87.5776 76.8679 87.4243C79.8195 87.2711 82.3475 89.5394 82.5012 92.4834C82.6571 95.4273 80.3805 97.9487 77.4289 98.1019ZM76.9191 88.3762C74.4935 88.5039 72.6243 90.5749 72.7523 92.9918C72.8804 95.4111 74.9568 97.2754 77.38 97.1477C79.8056 97.02 81.6748 94.949 81.5468 92.5321C81.4187 90.1129 79.3423 88.2485 76.9191 88.3762Z" fill="#FFBED1"/>
<path d="M83.0599 94.3243C82.6013 96.0587 81.3885 97.5028 79.7753 98.2713L79.8033 98.7867C81.6748 97.9671 83.0832 96.2978 83.5627 94.3011L83.0599 94.3243ZM79.1562 86.5024L79.1818 87.0109C79.8848 87.257 80.5226 87.6285 81.0836 88.1021C81.2232 88.2135 81.3536 88.3366 81.4816 88.4689C82.0426 89.0262 82.4942 89.6971 82.8015 90.4401C82.862 90.5794 82.9109 90.721 82.9575 90.8673C82.9737 90.9044 82.9854 90.9462 82.997 90.9834L83.4882 90.9578C82.8806 88.8311 81.2326 87.1641 79.1562 86.5024ZM72.7407 97.6444C73.4298 98.2666 74.2445 98.7403 75.1407 99.0281L75.1128 98.5127C74.3865 98.2597 73.7231 97.8673 73.1504 97.3728L72.7407 97.6444ZM70.5619 93.1054C70.5945 93.7207 70.7109 94.3058 70.8971 94.8607L71.3091 94.582C71.1602 94.1084 71.0671 93.6046 71.0391 93.0822C70.9064 90.5469 72.3543 88.2902 74.5215 87.257L74.4936 86.7485C72.061 87.8096 70.4153 90.3031 70.5619 93.1054Z" fill="#FFBED1"/>
<path d="M81.193 88.0303L81.4839 88.4691C81.3582 88.3367 81.2255 88.2137 81.0859 88.1022L81.193 88.0303Z" fill="#FFBED1"/>
<path d="M83.0483 90.8091L82.9598 90.8671C82.9132 90.7209 82.8644 90.5816 82.8038 90.4399L83.0483 90.8091Z" fill="#FFBED1"/>
<path d="M77.9368 89.3011L73.8649 91.3999L74.2218 92.0888L78.2938 89.9901L77.9368 89.3011Z" fill="#FFBED1"/>
<path d="M79.6084 90.1849L73.6242 93.271L73.9813 93.9598L79.9655 90.8738L79.6084 90.1849Z" fill="#FFBED1"/>
<path d="M79.784 91.8391L74.8627 94.3765L75.2197 95.0653L80.141 92.5279L79.784 91.8391Z" fill="#FFBED1"/>
<path d="M79.4424 93.7613L76.6447 95.2041L77.0018 95.8929L79.7995 94.4501L79.4424 93.7613Z" fill="#FFBED1"/>
<path d="M84.7754 24.0806H7.29688V37.4189H84.7754V24.0806Z" fill="#FDE0E0"/>
<path d="M16.2543 33.4766H15.1383V28.0181H17.1938C17.8117 28.0181 18.2909 28.1627 18.6282 28.4488C18.9655 28.7381 19.1357 29.2035 19.1357 29.8481C19.1357 30.5052 18.9813 30.9926 18.6723 31.3102C18.3634 31.6278 17.859 31.7881 17.1654 31.7881H16.2575V33.4766H16.2543ZM16.7083 30.8197C17.1181 30.8197 17.3987 30.7914 17.5563 30.7348C17.7139 30.6782 17.8243 30.5838 17.8873 30.4486C17.9504 30.3134 17.9851 30.1185 17.9851 29.8575C17.9851 29.5494 17.8999 29.3293 17.7297 29.1909C17.5595 29.0557 17.2537 28.9865 16.8092 28.9865H16.2512V30.8197H16.7083Z" fill="#E1251B"/>
<path d="M22.4268 33.5932C21.5914 33.5932 20.983 33.3573 20.6015 32.8857C20.22 32.414 20.0309 31.7034 20.0309 30.7507C20.0309 29.7948 20.22 29.081 20.6015 28.6125C20.983 28.144 21.5914 27.9082 22.4268 27.9082C23.2686 27.9082 23.877 28.144 24.2553 28.6125C24.6336 29.081 24.8228 29.7948 24.8228 30.7507C24.8228 31.7537 24.621 32.4769 24.2206 32.9234C23.8171 33.3699 23.2181 33.5932 22.4268 33.5932ZM22.4268 32.6058C22.8903 32.6058 23.215 32.4706 23.3978 32.2002C23.5807 31.9298 23.6721 31.4456 23.6721 30.7475C23.6721 30.0495 23.5807 29.5653 23.3978 29.2949C23.215 29.0244 22.8903 28.8892 22.4268 28.8892C21.9634 28.8892 21.6387 29.0244 21.4558 29.2949C21.273 29.5653 21.1816 30.0495 21.1816 30.7475C21.1816 31.4456 21.273 31.9298 21.459 32.2002C21.645 32.4706 21.9666 32.6058 22.4268 32.6058Z" fill="#E1251B"/>
<path d="M29.4163 33.4766H25.9989V28.0181H27.1149V32.4579H29.4163V33.4766Z" fill="#E1251B"/>
<path d="M32.7769 33.4769H30.135V32.6216H30.8979V28.8767H30.135V28.0215H32.7769V28.8767H32.0171V32.6216H32.7769V33.4769Z" fill="#E1251B"/>
<path d="M36.2288 33.5932C34.5328 33.5932 33.6879 32.6467 33.6879 30.7507C33.6879 28.8546 34.5233 27.9082 36.191 27.9082C37.1809 27.9082 37.8745 28.2352 38.2717 28.8861L37.4047 29.5558C37.2786 29.3672 37.162 29.2288 37.058 29.1471C36.9539 29.0622 36.8341 28.9993 36.6986 28.9584C36.563 28.9175 36.4022 28.8955 36.2162 28.8955C35.7686 28.8955 35.4281 29.037 35.1916 29.3232C34.9583 29.6093 34.8385 30.0841 34.8385 30.7538C34.8385 31.3764 34.9489 31.8418 35.1696 32.1499C35.3902 32.4581 35.7402 32.6121 36.2225 32.6121C36.5472 32.6121 36.7994 32.5492 36.9791 32.4266C37.1588 32.304 37.3228 32.1373 37.4709 31.9329L38.3536 32.5807C38.1204 32.9297 37.8303 33.1875 37.4899 33.351C37.1462 33.5083 36.7269 33.5932 36.2288 33.5932Z" fill="#E1251B"/>
<path d="M42.8808 33.4766H39.3279V28.0181H42.8808L42.7074 28.9991H40.4407V30.1625H42.4962V31.1498H40.4407V32.4579H42.7137L42.8808 33.4766Z" fill="#E1251B"/>
<path d="M50.9482 33.4766H49.6714L48.2748 31.4108H47.7105V33.4766H46.5945V28.0181H48.5838C49.2868 28.0181 49.8006 28.1438 50.1285 28.3954C50.4532 28.6469 50.6172 29.062 50.6172 29.6374C50.6172 30.1028 50.5194 30.4738 50.324 30.7505C50.1285 31.0272 49.8479 31.2033 49.4885 31.2787L50.9482 33.4766ZM48.527 30.4423C48.7761 30.4423 48.9684 30.4172 49.1039 30.37C49.2395 30.3229 49.3341 30.2505 49.394 30.1499C49.4539 30.0493 49.4822 29.8952 49.4822 29.6877C49.4822 29.4079 49.4129 29.2223 49.271 29.128C49.1291 29.0337 48.8959 28.9865 48.5743 28.9865H47.7073V30.4423H48.527Z" fill="#E1251B"/>
<path d="M55.5446 33.4766H51.9917V28.0181H55.5446L55.3712 28.9991H53.1046V30.1625H55.16V31.1498H53.1046V32.4579H55.3775L55.5446 33.4766Z" fill="#E1251B"/>
<path d="M57.8019 33.4766H56.6859V28.0181H58.7414C59.3593 28.0181 59.8385 28.1627 60.1758 28.4488C60.5131 28.7381 60.6834 29.2035 60.6834 29.8481C60.6834 30.5052 60.5289 30.9926 60.2199 31.3102C59.911 31.6278 59.4066 31.7881 58.713 31.7881H57.8051V33.4766H57.8019ZM58.2559 30.8197C58.6657 30.8197 58.9463 30.7914 59.1039 30.7348C59.2616 30.6782 59.3719 30.5838 59.435 30.4486C59.498 30.3134 59.5327 30.1185 59.5327 29.8575C59.5327 29.5494 59.4476 29.3293 59.2773 29.1909C59.1071 29.0557 58.8013 28.9865 58.3568 28.9865H57.7988V30.8197H58.2559Z" fill="#E1251B"/>
<path d="M63.9744 33.5932C63.139 33.5932 62.5306 33.3573 62.1491 32.8857C61.7676 32.414 61.5785 31.7034 61.5785 30.7507C61.5785 29.7948 61.7676 29.081 62.1491 28.6125C62.5306 28.144 63.139 27.9082 63.9744 27.9082C64.8162 27.9082 65.4246 28.144 65.8029 28.6125C66.1812 29.081 66.3704 29.7948 66.3704 30.7507C66.3704 31.7537 66.1686 32.4769 65.7682 32.9234C65.3647 33.3699 64.7657 33.5932 63.9744 33.5932ZM63.9744 32.6058C64.4379 32.6058 64.7626 32.4706 64.9454 32.2002C65.1283 31.9298 65.2197 31.4456 65.2197 30.7475C65.2197 30.0495 65.1283 29.5653 64.9454 29.2949C64.7626 29.0244 64.4379 28.8892 63.9744 28.8892C63.511 28.8892 63.1863 29.0244 63.0034 29.2949C62.8206 29.5653 62.7292 30.0495 62.7292 30.7475C62.7292 31.4456 62.8206 31.9298 63.0066 32.2002C63.1926 32.4706 63.5142 32.6058 63.9744 32.6058Z" fill="#E1251B"/>
<path d="M71.9001 33.4766H70.6234L69.2268 31.4108H68.6625V33.4766H67.5464V28.0181H69.5357C70.2387 28.0181 70.7526 28.1438 71.0805 28.3954C71.4052 28.6469 71.5691 29.062 71.5691 29.6374C71.5691 30.1028 71.4714 30.4738 71.2759 30.7505C71.0805 31.0272 70.7999 31.2033 70.4405 31.2787L71.9001 33.4766ZM69.4821 30.4423C69.7312 30.4423 69.9235 30.4172 70.059 30.37C70.1946 30.3229 70.2892 30.2505 70.3491 30.1499C70.409 30.0493 70.4374 29.8952 70.4374 29.6877C70.4374 29.4079 70.368 29.2223 70.2261 29.128C70.0843 29.0337 69.851 28.9865 69.5294 28.9865H68.6625V30.4423H69.4821Z" fill="#E1251B"/>
<path d="M75.248 33.4766H74.132V29.0368H72.4485V28.0181H76.9315V29.0368H75.248V33.4766Z" fill="#E1251B"/>
</svg>
