<svg width="146" height="91" viewBox="0 0 146 91" fill="none" xmlns="http://www.w3.org/2000/svg">
<path opacity="0.5" d="M138.212 90.1153H3.00256C3.00256 77.6864 19.9887 74.7613 14.5242 64.8088C8.48933 53.8176 9.62277 39.1955 25.0138 42.4289C26.4704 42.7351 27.6723 42.9309 28.6667 42.9586C41.4365 43.3145 19.5626 20.0474 34.5191 8.95324C50.643 -3.00518 52.0415 2.73663 61.6542 11.2936C71.2669 19.8506 89.7518 8.4491 117.489 13.9194C122.556 14.9191 126.081 16.8194 127.604 19.8506C133.168 30.9218 124.116 50.9805 134.905 61.5263C147.981 74.3068 142.221 87.289 138.212 90.1153Z" fill="url(#paint0_linear)"/>
<path d="M125.077 40.1039C123.756 38.5467 123.533 36.2276 124.409 33.2162C125.606 29.0999 125.459 25.9294 124.663 23.6814C125.693 22.8897 126.805 21.8281 127.963 20.4143C127.848 20.2234 127.729 20.0345 127.603 19.8505C126.48 21.245 125.409 22.2916 124.421 23.0721C123.815 21.6888 122.952 20.719 122.038 20.1508C120.203 19.0118 118.012 19.2887 116.322 20.8715C115.381 21.7534 115.051 22.8491 115.413 23.8809C115.829 25.0604 117.067 25.8606 118.642 25.97C119.508 26.0302 121.524 25.9075 124.13 24.0761C124.825 26.1871 124.921 29.1639 123.795 33.0359C122.852 36.2682 123.12 38.7867 124.589 40.52C125.677 41.8025 127.253 42.4656 128.779 42.7958C128.809 42.5813 128.843 42.3648 128.875 42.1482C127.474 41.8414 126.042 41.2407 125.077 40.1039ZM118.687 25.3266C117.369 25.2364 116.347 24.5995 116.018 23.6643C115.743 22.8875 116.014 22.0404 116.758 21.3431C117.634 20.5237 118.658 20.1055 119.675 20.1055C120.371 20.1055 121.062 20.3007 121.705 20.6998C122.554 21.2252 123.352 22.1455 123.905 23.4648C121.412 25.2599 119.502 25.3847 118.687 25.3266Z" fill="white"/>
<g opacity="0.5">
<path d="M22.5154 28.6208C22.5841 28.1953 22.2967 27.7944 21.8734 27.7253C21.4502 27.6563 21.0514 27.9452 20.9828 28.3707C20.9141 28.7962 21.2015 29.1971 21.6247 29.2661C22.0479 29.3352 22.4467 29.0463 22.5154 28.6208Z" fill="#FFBED1"/>
<path d="M27.994 28.6208C28.0627 28.1953 27.7753 27.7944 27.3521 27.7253C26.9289 27.6563 26.5301 27.9452 26.4614 28.3707C26.3927 28.7962 26.6801 29.1971 27.1033 29.2661C27.5266 29.3352 27.9253 29.0463 27.994 28.6208Z" fill="#FFBED1"/>
<path d="M33.4755 28.5722C33.5177 28.1432 33.2061 27.7611 32.7795 27.7186C32.3528 27.6762 31.9727 27.9895 31.9305 28.4184C31.8882 28.8473 32.1999 29.2295 32.6265 29.2719C33.0532 29.3144 33.4333 29.0011 33.4755 28.5722Z" fill="#FFBED1"/>
<path d="M38.954 28.5724C38.9962 28.1435 38.6846 27.7613 38.2579 27.7189C37.8313 27.6764 37.4512 27.9897 37.4089 28.4187C37.3667 28.8476 37.6783 29.2297 38.105 29.2722C38.5316 29.3146 38.9117 29.0013 38.954 28.5724Z" fill="#FFBED1"/>
<path d="M44.4385 28.537C44.4622 28.1066 44.1344 27.7384 43.7063 27.7145C43.2782 27.6907 42.9119 28.0203 42.8882 28.4507C42.8645 28.8811 43.1923 29.2493 43.6204 29.2731C44.0485 29.297 44.4148 28.9674 44.4385 28.537Z" fill="#FFBED1"/>
<path d="M49.9084 28.6208C49.9771 28.1953 49.6897 27.7944 49.2665 27.7253C48.8433 27.6563 48.4445 27.9452 48.3758 28.3707C48.3071 28.7962 48.5946 29.1971 49.0178 29.2661C49.441 29.3352 49.8398 29.0463 49.9084 28.6208Z" fill="#FFBED1"/>
<path d="M22.0436 23.7101C22.4404 23.5466 22.6301 23.0907 22.4675 22.6919C22.3049 22.293 21.8514 22.1022 21.4547 22.2657C21.058 22.4292 20.8682 22.8851 21.0308 23.2839C21.1935 23.6828 21.6469 23.8736 22.0436 23.7101Z" fill="#FFBED1"/>
<path d="M27.5221 23.7108C27.9188 23.5473 28.1086 23.0915 27.9459 22.6926C27.7833 22.2938 27.3299 22.103 26.9332 22.2665C26.5364 22.43 26.3467 22.8858 26.5093 23.2847C26.6719 23.6835 27.1254 23.8743 27.5221 23.7108Z" fill="#FFBED1"/>
<path d="M32.8826 23.7488C33.3 23.6504 33.559 23.2304 33.4612 22.8107C33.3633 22.3911 32.9455 22.1306 32.5281 22.229C32.1107 22.3275 31.8516 22.7474 31.9495 23.1671C32.0474 23.5868 32.4651 23.8472 32.8826 23.7488Z" fill="#FFBED1"/>
<path d="M38.361 23.7488C38.7785 23.6504 39.0375 23.2304 38.9396 22.8107C38.8417 22.3911 38.424 22.1306 38.0066 22.229C37.5891 22.3275 37.3301 22.7474 37.428 23.1671C37.5259 23.5868 37.9436 23.8472 38.361 23.7488Z" fill="#FFBED1"/>
<path d="M43.7601 23.7615C44.1857 23.709 44.4883 23.3196 44.4361 22.8917C44.3839 22.4639 43.9966 22.1596 43.571 22.2121C43.1454 22.2646 42.8427 22.654 42.895 23.0818C42.9472 23.5097 43.3345 23.814 43.7601 23.7615Z" fill="#FFBED1"/>
<path d="M49.4367 23.7101C49.8334 23.5466 50.0232 23.0907 49.8606 22.6919C49.698 22.293 49.2445 22.1022 48.8478 22.2657C48.4511 22.4292 48.2613 22.8851 48.4239 23.2839C48.5865 23.6828 49.04 23.8736 49.4367 23.7101Z" fill="#FFBED1"/>
<path d="M21.7484 18.2599C22.1772 18.2599 22.5247 17.9105 22.5247 17.4795C22.5247 17.0484 22.1772 16.699 21.7484 16.699C21.3197 16.699 20.9721 17.0484 20.9721 17.4795C20.9721 17.9105 21.3197 18.2599 21.7484 18.2599Z" fill="#FFBED1"/>
<path d="M27.2266 18.2599C27.6554 18.2599 28.003 17.9105 28.003 17.4795C28.003 17.0484 27.6554 16.699 27.2266 16.699C26.7979 16.699 26.4503 17.0484 26.4503 17.4795C26.4503 17.9105 26.7979 18.2599 27.2266 18.2599Z" fill="#FFBED1"/>
<path d="M32.7055 18.2599C33.1343 18.2599 33.4818 17.9105 33.4818 17.4795C33.4818 17.0484 33.1343 16.699 32.7055 16.699C32.2768 16.699 31.9292 17.0484 31.9292 17.4795C31.9292 17.9105 32.2768 18.2599 32.7055 18.2599Z" fill="#FFBED1"/>
<path d="M38.1838 18.2599C38.6125 18.2599 38.9601 17.9105 38.9601 17.4795C38.9601 17.0484 38.6125 16.699 38.1838 16.699C37.755 16.699 37.4075 17.0484 37.4075 17.4795C37.4075 17.9105 37.755 18.2599 38.1838 18.2599Z" fill="#FFBED1"/>
<path d="M43.6626 18.2599C44.0914 18.2599 44.4389 17.9105 44.4389 17.4795C44.4389 17.0484 44.0914 16.699 43.6626 16.699C43.2339 16.699 42.8863 17.0484 42.8863 17.4795C42.8863 17.9105 43.2339 18.2599 43.6626 18.2599Z" fill="#FFBED1"/>
<path d="M49.1409 18.2599C49.5696 18.2599 49.9172 17.9105 49.9172 17.4795C49.9172 17.0484 49.5696 16.699 49.1409 16.699C48.7121 16.699 48.3646 17.0484 48.3646 17.4795C48.3646 17.9105 48.7121 18.2599 49.1409 18.2599Z" fill="#FFBED1"/>
<path d="M21.7484 12.7526C22.1772 12.7526 22.5247 12.4032 22.5247 11.9721C22.5247 11.5411 22.1772 11.1917 21.7484 11.1917C21.3197 11.1917 20.9721 11.5411 20.9721 11.9721C20.9721 12.4032 21.3197 12.7526 21.7484 12.7526Z" fill="#FFBED1"/>
<path d="M27.2266 12.7526C27.6554 12.7526 28.003 12.4032 28.003 11.9721C28.003 11.5411 27.6554 11.1917 27.2266 11.1917C26.7979 11.1917 26.4503 11.5411 26.4503 11.9721C26.4503 12.4032 26.7979 12.7526 27.2266 12.7526Z" fill="#FFBED1"/>
<path d="M32.7055 12.7526C33.1343 12.7526 33.4818 12.4032 33.4818 11.9721C33.4818 11.5411 33.1343 11.1917 32.7055 11.1917C32.2768 11.1917 31.9292 11.5411 31.9292 11.9721C31.9292 12.4032 32.2768 12.7526 32.7055 12.7526Z" fill="#FFBED1"/>
<path d="M38.1838 12.7526C38.6125 12.7526 38.9601 12.4032 38.9601 11.9721C38.9601 11.5411 38.6125 11.1917 38.1838 11.1917C37.755 11.1917 37.4075 11.5411 37.4075 11.9721C37.4075 12.4032 37.755 12.7526 38.1838 12.7526Z" fill="#FFBED1"/>
<path d="M43.6626 12.7526C44.0914 12.7526 44.4389 12.4032 44.4389 11.9721C44.4389 11.5411 44.0914 11.1917 43.6626 11.1917C43.2339 11.1917 42.8863 11.5411 42.8863 11.9721C42.8863 12.4032 43.2339 12.7526 43.6626 12.7526Z" fill="#FFBED1"/>
<path d="M49.1409 12.7526C49.5696 12.7526 49.9172 12.4032 49.9172 11.9721C49.9172 11.5411 49.5696 11.1917 49.1409 11.1917C48.7121 11.1917 48.3646 11.5411 48.3646 11.9721C48.3646 12.4032 48.7121 12.7526 49.1409 12.7526Z" fill="#FFBED1"/>
<path d="M22.5151 6.58454C22.5809 6.15863 22.2909 5.75968 21.8673 5.69347C21.4436 5.62727 21.0468 5.91887 20.9809 6.34478C20.9151 6.7707 21.2051 7.16964 21.6288 7.23585C22.0524 7.30206 22.4492 7.01046 22.5151 6.58454Z" fill="#FFBED1"/>
<path d="M27.9938 6.58527C28.0596 6.15935 27.7696 5.76041 27.346 5.6942C26.9223 5.62799 26.5255 5.91959 26.4596 6.34551C26.3938 6.77142 26.6838 7.17037 27.1075 7.23658C27.5311 7.30279 27.9279 7.01119 27.9938 6.58527Z" fill="#FFBED1"/>
<path d="M33.4802 6.49501C33.4972 6.06431 33.1637 5.70129 32.7353 5.68417C32.3069 5.66706 31.9458 6.00234 31.9288 6.43304C31.9117 6.86374 32.2452 7.22676 32.6736 7.24388C33.1021 7.26099 33.4631 6.92571 33.4802 6.49501Z" fill="#FFBED1"/>
<path d="M38.9585 6.49525C38.9755 6.06455 38.642 5.70153 38.2136 5.68441C37.7852 5.6673 37.4241 6.00258 37.4071 6.43328C37.3901 6.86398 37.7236 7.22701 38.152 7.24412C38.5804 7.26123 38.9415 6.92595 38.9585 6.49525Z" fill="#FFBED1"/>
<path d="M44.4381 6.47513C44.4449 6.04413 44.1029 5.68917 43.6742 5.68232C43.2455 5.67546 42.8924 6.01931 42.8856 6.45031C42.8788 6.88131 43.2208 7.23627 43.6495 7.24312C44.0782 7.24998 44.4312 6.90613 44.4381 6.47513Z" fill="#FFBED1"/>
<path d="M49.9081 6.58576C49.974 6.15985 49.684 5.76091 49.2603 5.6947C48.8367 5.62849 48.4399 5.92009 48.374 6.346C48.3081 6.77192 48.5982 7.17086 49.0218 7.23707C49.4455 7.30328 49.8423 7.01168 49.9081 6.58576Z" fill="#FFBED1"/>
<path d="M21.7484 1.73698C22.1772 1.73698 22.5247 1.38755 22.5247 0.956503C22.5247 0.525457 22.1772 0.176025 21.7484 0.176025C21.3197 0.176025 20.9721 0.525457 20.9721 0.956503C20.9721 1.38755 21.3197 1.73698 21.7484 1.73698Z" fill="#FFBED1"/>
<path d="M27.2266 1.73698C27.6554 1.73698 28.003 1.38755 28.003 0.956503C28.003 0.525457 27.6554 0.176025 27.2266 0.176025C26.7979 0.176025 26.4503 0.525457 26.4503 0.956503C26.4503 1.38755 26.7979 1.73698 27.2266 1.73698Z" fill="#FFBED1"/>
<path d="M33.4784 1.01665C33.5122 0.586937 33.1932 0.210984 32.7658 0.176932C32.3384 0.142879 31.9644 0.463622 31.9305 0.893331C31.8967 1.32304 32.2157 1.69899 32.6431 1.73304C33.0705 1.7671 33.4445 1.44635 33.4784 1.01665Z" fill="#FFBED1"/>
<path d="M38.9566 1.01665C38.9904 0.586937 38.6714 0.210984 38.244 0.176931C37.8166 0.142879 37.4426 0.463621 37.4087 0.89333C37.3749 1.32304 37.6939 1.69899 38.1213 1.73304C38.5487 1.7671 38.9227 1.44635 38.9566 1.01665Z" fill="#FFBED1"/>
<path d="M44.44 0.975706C44.4504 0.54479 44.1114 0.186972 43.6828 0.176497C43.2542 0.166023 42.8982 0.506859 42.8878 0.937775C42.8774 1.36869 43.2164 1.72651 43.645 1.73698C44.0737 1.74746 44.4296 1.40662 44.44 0.975706Z" fill="#FFBED1"/>
<path d="M49.1409 1.73698C49.5696 1.73698 49.9172 1.38755 49.9172 0.956503C49.9172 0.525457 49.5696 0.176025 49.1409 0.176025C48.7121 0.176025 48.3646 0.525457 48.3646 0.956503C48.3646 1.38755 48.7121 1.73698 49.1409 1.73698Z" fill="#FFBED1"/>
</g>
<g opacity="0.5">
<path d="M112.234 71.2802C112.319 70.9164 112.095 70.5517 111.733 70.4658C111.371 70.3799 111.009 70.6052 110.923 70.9691C110.838 71.333 111.062 71.6976 111.424 71.7835C111.786 71.8694 112.149 71.6441 112.234 71.2802Z" fill="#FFBED1"/>
<path d="M116.998 71.2242C117.057 70.8551 116.808 70.5074 116.441 70.4475C116.074 70.3876 115.728 70.6382 115.668 71.0073C115.609 71.3764 115.858 71.7241 116.225 71.784C116.592 71.8439 116.938 71.5933 116.998 71.2242Z" fill="#FFBED1"/>
<path d="M121.557 71.5949C121.82 71.3305 121.82 70.9019 121.557 70.6375C121.294 70.3731 120.868 70.3731 120.605 70.6375C120.342 70.9019 120.342 71.3305 120.605 71.5949C120.868 71.8593 121.294 71.8593 121.557 71.5949Z" fill="#FFBED1"/>
<path d="M126.492 71.281C126.577 70.9171 126.353 70.5525 125.991 70.4665C125.629 70.3806 125.267 70.6059 125.181 70.9698C125.096 71.3337 125.32 71.6983 125.682 71.7842C126.044 71.8702 126.406 71.6448 126.492 71.281Z" fill="#FFBED1"/>
<path d="M131.255 71.2239C131.314 70.8549 131.065 70.5071 130.698 70.4472C130.331 70.3873 129.985 70.638 129.925 71.007C129.866 71.3761 130.115 71.7238 130.482 71.7837C130.849 71.8436 131.195 71.593 131.255 71.2239Z" fill="#FFBED1"/>
<path d="M135.814 71.5949C136.077 71.3305 136.077 70.9019 135.814 70.6375C135.551 70.3731 135.125 70.3732 134.862 70.6375C134.599 70.9019 134.599 71.3305 134.862 71.5949C135.125 71.8593 135.551 71.8593 135.814 71.5949Z" fill="#FFBED1"/>
<path d="M112.052 66.8166C112.315 66.5522 112.315 66.1236 112.052 65.8592C111.789 65.5948 111.363 65.5948 111.1 65.8592C110.837 66.1236 110.837 66.5522 111.1 66.8166C111.363 67.081 111.789 67.081 112.052 66.8166Z" fill="#FFBED1"/>
<path d="M116.591 66.963C116.934 66.8199 117.097 66.4239 116.955 66.0785C116.813 65.7331 116.419 65.569 116.075 65.7121C115.732 65.8552 115.569 66.2512 115.711 66.5967C115.853 66.9421 116.247 67.1061 116.591 66.963Z" fill="#FFBED1"/>
<path d="M121.739 66.5026C121.825 66.1388 121.6 65.7742 121.238 65.6882C120.877 65.6023 120.514 65.8276 120.428 66.1915C120.343 66.5554 120.567 66.92 120.929 67.0059C121.291 67.0918 121.654 66.8665 121.739 66.5026Z" fill="#FFBED1"/>
<path d="M126.309 66.8166C126.572 66.5522 126.572 66.1236 126.309 65.8592C126.046 65.5948 125.62 65.5948 125.357 65.8592C125.094 66.1236 125.094 66.5522 125.357 66.8166C125.62 67.081 126.046 67.081 126.309 66.8166Z" fill="#FFBED1"/>
<path d="M130.848 66.9625C131.192 66.8194 131.355 66.4234 131.213 66.078C131.07 65.7326 130.676 65.5685 130.333 65.7116C129.989 65.8547 129.826 66.2507 129.968 66.5962C130.111 66.9416 130.505 67.1056 130.848 66.9625Z" fill="#FFBED1"/>
<path d="M135.997 66.5036C136.082 66.1398 135.858 65.7751 135.496 65.6892C135.134 65.6033 134.772 65.8286 134.686 66.1925C134.601 66.5564 134.825 66.921 135.187 67.0069C135.549 67.0928 135.911 66.8675 135.997 66.5036Z" fill="#FFBED1"/>
<path d="M112.052 62.0387C112.315 61.7744 112.315 61.3457 112.052 61.0814C111.789 60.817 111.363 60.817 111.1 61.0814C110.837 61.3457 110.837 61.7744 111.1 62.0387C111.363 62.3031 111.789 62.3031 112.052 62.0387Z" fill="#FFBED1"/>
<path d="M116.591 62.1847C116.934 62.0416 117.097 61.6456 116.955 61.3002C116.813 60.9547 116.419 60.7907 116.075 60.9338C115.732 61.0769 115.569 61.4729 115.711 61.8183C115.853 62.1638 116.247 62.3278 116.591 62.1847Z" fill="#FFBED1"/>
<path d="M121.739 61.7248C121.825 61.361 121.601 60.9963 121.239 60.9104C120.877 60.8245 120.514 61.0498 120.429 61.4137C120.343 61.7775 120.567 62.1422 120.929 62.2281C121.291 62.314 121.654 62.0887 121.739 61.7248Z" fill="#FFBED1"/>
<path d="M126.309 62.0392C126.572 61.7749 126.572 61.3462 126.309 61.0819C126.046 60.8175 125.62 60.8175 125.357 61.0819C125.094 61.3462 125.094 61.7749 125.357 62.0392C125.62 62.3036 126.046 62.3036 126.309 62.0392Z" fill="#FFBED1"/>
<path d="M130.848 62.1847C131.192 62.0416 131.355 61.6456 131.213 61.3002C131.07 60.9547 130.676 60.7907 130.333 60.9338C129.989 61.0769 129.826 61.4729 129.968 61.8183C130.111 62.1638 130.505 62.3278 130.848 62.1847Z" fill="#FFBED1"/>
<path d="M135.997 61.7258C136.083 61.3619 135.858 60.9973 135.497 60.9114C135.135 60.8254 134.772 61.0508 134.686 61.4146C134.601 61.7785 134.825 62.1431 135.187 62.2291C135.549 62.315 135.912 62.0897 135.997 61.7258Z" fill="#FFBED1"/>
<path d="M112.234 56.946C112.32 56.5821 112.096 56.2175 111.734 56.1316C111.372 56.0457 111.009 56.271 110.924 56.6349C110.838 56.9987 111.062 57.3634 111.424 57.4493C111.786 57.5352 112.149 57.3099 112.234 56.946Z" fill="#FFBED1"/>
<path d="M116.997 56.8905C117.056 56.5214 116.807 56.1737 116.44 56.1138C116.073 56.0539 115.727 56.3045 115.667 56.6735C115.608 57.0426 115.857 57.3904 116.224 57.4503C116.591 57.5101 116.937 57.2595 116.997 56.8905Z" fill="#FFBED1"/>
<path d="M121.557 57.2614C121.82 56.997 121.82 56.5684 121.557 56.304C121.294 56.0397 120.867 56.0397 120.605 56.304C120.342 56.5684 120.342 56.997 120.605 57.2614C120.867 57.5258 121.294 57.5258 121.557 57.2614Z" fill="#FFBED1"/>
<path d="M126.492 56.947C126.578 56.5831 126.353 56.2185 125.991 56.1326C125.63 56.0466 125.267 56.272 125.181 56.6358C125.096 56.9997 125.32 57.3643 125.682 57.4503C126.044 57.5362 126.407 57.3108 126.492 56.947Z" fill="#FFBED1"/>
<path d="M131.254 56.8904C131.314 56.5214 131.065 56.1737 130.697 56.1138C130.33 56.0539 129.984 56.3045 129.925 56.6735C129.865 57.0426 130.115 57.3904 130.482 57.4502C130.849 57.5101 131.195 57.2595 131.254 56.8904Z" fill="#FFBED1"/>
<path d="M135.814 57.2614C136.077 56.997 136.077 56.5684 135.814 56.304C135.551 56.0397 135.125 56.0397 134.862 56.304C134.599 56.5684 134.599 56.997 134.862 57.2614C135.125 57.5258 135.551 57.5258 135.814 57.2614Z" fill="#FFBED1"/>
<path d="M112.052 52.4836C112.315 52.2192 112.315 51.7906 112.052 51.5262C111.789 51.2618 111.363 51.2618 111.1 51.5262C110.837 51.7906 110.837 52.2192 111.1 52.4836C111.363 52.7479 111.789 52.7479 112.052 52.4836Z" fill="#FFBED1"/>
<path d="M116.591 52.6288C116.934 52.4857 117.097 52.0897 116.955 51.7443C116.813 51.3988 116.419 51.2348 116.075 51.3779C115.732 51.521 115.569 51.917 115.711 52.2624C115.853 52.6079 116.247 52.7719 116.591 52.6288Z" fill="#FFBED1"/>
<path d="M121.74 52.1687C121.825 51.8048 121.601 51.4402 121.239 51.3542C120.877 51.2683 120.515 51.4936 120.429 51.8575C120.344 52.2214 120.568 52.586 120.93 52.6719C121.292 52.7578 121.654 52.5325 121.74 52.1687Z" fill="#FFBED1"/>
<path d="M126.309 52.4836C126.572 52.2192 126.572 51.7906 126.309 51.5262C126.046 51.2618 125.62 51.2618 125.357 51.5262C125.094 51.7906 125.094 52.2192 125.357 52.4836C125.62 52.7479 126.046 52.748 126.309 52.4836Z" fill="#FFBED1"/>
<path d="M130.848 52.6288C131.192 52.4857 131.355 52.0897 131.212 51.7443C131.07 51.3988 130.676 51.2348 130.333 51.3779C129.989 51.521 129.826 51.917 129.968 52.2624C130.11 52.6079 130.504 52.7719 130.848 52.6288Z" fill="#FFBED1"/>
<path d="M135.998 52.1694C136.083 51.8055 135.859 51.4409 135.497 51.355C135.135 51.2691 134.773 51.4944 134.687 51.8583C134.602 52.2221 134.826 52.5867 135.188 52.6727C135.55 52.7586 135.912 52.5333 135.998 52.1694Z" fill="#FFBED1"/>
<path d="M112.052 47.7057C112.315 47.4414 112.315 47.0127 112.052 46.7483C111.789 46.484 111.363 46.484 111.1 46.7484C110.837 47.0127 110.837 47.4414 111.1 47.7057C111.363 47.9701 111.789 47.9701 112.052 47.7057Z" fill="#FFBED1"/>
<path d="M116.59 47.851C116.934 47.7079 117.097 47.3119 116.955 46.9664C116.813 46.621 116.419 46.457 116.075 46.6001C115.731 46.7431 115.568 47.1392 115.711 47.4846C115.853 47.83 116.247 47.9941 116.59 47.851Z" fill="#FFBED1"/>
<path d="M121.74 47.3903C121.825 47.0265 121.601 46.6619 121.239 46.5759C120.878 46.49 120.515 46.7153 120.429 47.0792C120.344 47.4431 120.568 47.8077 120.93 47.8936C121.292 47.9795 121.655 47.7542 121.74 47.3903Z" fill="#FFBED1"/>
<path d="M126.309 47.706C126.572 47.4416 126.572 47.013 126.309 46.7486C126.046 46.4842 125.62 46.4842 125.357 46.7486C125.094 47.013 125.094 47.4416 125.357 47.706C125.62 47.9704 126.046 47.9704 126.309 47.706Z" fill="#FFBED1"/>
<path d="M130.848 47.8507C131.192 47.7076 131.355 47.3116 131.212 46.9662C131.07 46.6208 130.676 46.4567 130.333 46.5998C129.989 46.7429 129.826 47.1389 129.968 47.4843C130.11 47.8298 130.504 47.9938 130.848 47.8507Z" fill="#FFBED1"/>
<path d="M135.998 47.3916C136.083 47.0277 135.859 46.6631 135.497 46.5771C135.135 46.4912 134.773 46.7166 134.687 47.0804C134.602 47.4443 134.826 47.8089 135.188 47.8948C135.55 47.9807 135.912 47.7554 135.998 47.3916Z" fill="#FFBED1"/>
</g>
<path d="M45.2566 86.8601C45.2465 86.962 45.2375 87.0666 45.2269 87.1685C45.1208 88.2877 44.9844 89.3653 44.883 90.1154H37.018C36.699 89.7094 36.3578 89.2666 36.0082 88.8009L36.0076 88.7982C35.9455 88.7182 35.8866 88.6371 35.824 88.5544C35.4913 88.1069 35.1549 87.6411 34.8264 87.1711C34.542 86.7652 34.2629 86.3554 33.9976 85.9479C33.9424 85.8636 33.8877 85.7793 33.8331 85.695C33.5152 85.1999 33.2197 84.7081 32.9597 84.2359C32.8997 84.1298 32.8429 84.0241 32.7856 83.918C32.766 83.8785 32.7426 83.8364 32.7251 83.7964C32.7251 83.7964 32.7251 83.7964 32.7251 83.7937C31.4543 81.3066 31.8087 79.1279 33.1406 78.4536C33.2197 78.4141 33.3025 78.3783 33.3895 78.3501C33.9318 78.1655 34.6068 78.205 35.3799 78.5299C35.668 78.6499 35.9508 78.8403 36.2231 79.0852C36.378 79.2218 36.5298 79.3722 36.6778 79.5408C36.7452 79.6171 36.8126 79.6982 36.8805 79.7798C37.4674 80.5021 38.0076 81.4357 38.4889 82.4221H38.4915C38.5303 82.5069 38.5706 82.5896 38.612 82.6745C39.063 83.6262 39.4562 84.6131 39.7789 85.4949C39.8117 85.5808 39.8425 85.6683 39.8728 85.7531C40.4172 87.2789 40.7319 88.4307 40.7319 88.4307C40.7319 88.4307 40.6443 87.6891 40.5976 86.6622C40.5939 86.5715 40.5891 86.4781 40.5844 86.3827C40.5493 85.4469 40.5525 84.3245 40.6735 83.3093V83.3066C40.6841 83.1962 40.7011 83.0895 40.7181 82.9801C40.812 82.3362 40.9643 81.7537 41.193 81.3114C41.5894 80.5427 42.2585 80.3101 42.9441 80.4445C43.0354 80.4626 43.1298 80.4883 43.2227 80.5197C44.259 80.867 45.2619 82.0065 45.3755 83.3674C45.3776 83.3781 45.3808 83.3914 45.3808 83.4026C45.3866 83.4923 45.3914 83.5851 45.3946 83.6838L45.3951 83.6865C45.4291 84.5571 45.3617 85.7147 45.2566 86.8601Z" fill="url(#paint1_linear)"/>
<path d="M26.6419 87.9451C26.6419 87.9461 26.6419 87.9461 26.6419 87.9461C26.6339 87.9616 26.6233 87.9782 26.6138 87.9936C26.5888 88.0342 26.5634 88.0752 26.5363 88.1158C26.4196 88.2977 26.289 88.4871 26.1484 88.6765C26.1245 88.709 26.1001 88.741 26.0762 88.7736C25.9595 88.9299 25.8369 89.0857 25.7128 89.2409C25.569 89.4207 25.422 89.5983 25.2776 89.7685C25.2506 89.8 25.224 89.8309 25.1975 89.8613L25.197 89.8624C25.1227 89.9494 25.0489 90.0336 24.9773 90.1153H21.6078C21.5876 89.8149 21.5627 89.3977 21.5505 88.9662C21.5489 88.9251 21.5478 88.8824 21.5462 88.8419C21.5335 88.3809 21.5377 87.9152 21.5733 87.5679L21.5738 87.5668C21.577 87.5274 21.5818 87.49 21.5865 87.4548C21.5871 87.45 21.5881 87.4452 21.5897 87.4409C21.6704 86.8995 22.1018 86.4695 22.5258 86.3575C22.5634 86.3479 22.6017 86.3398 22.6388 86.335C22.9163 86.2988 23.1779 86.4097 23.3169 86.7282C23.3965 86.9112 23.4427 87.1486 23.4634 87.4089C23.4676 87.4532 23.4719 87.4959 23.473 87.5407V87.5412C23.4947 87.9515 23.4666 88.4001 23.4279 88.7741C23.4236 88.8125 23.4194 88.8499 23.4151 88.8856C23.3695 89.2953 23.3154 89.5898 23.3154 89.5898C23.3154 89.5898 23.4714 89.1374 23.7293 88.541C23.7436 88.5084 23.7584 88.4743 23.7738 88.4401C23.9256 88.0961 24.1092 87.7114 24.3145 87.3417C24.3331 87.3092 24.3517 87.2772 24.3692 87.2446H24.3703C24.5889 86.8627 24.8293 86.5026 25.0834 86.2294C25.1126 86.199 25.1418 86.1681 25.1705 86.1398C25.2341 86.0763 25.2989 86.0198 25.3647 85.9691C25.4803 85.8784 25.5987 85.8096 25.717 85.769C26.0349 85.6597 26.306 85.6613 26.5183 85.7498C26.5522 85.7632 26.5846 85.7797 26.6154 85.7978C27.1306 86.1019 27.2155 86.9832 26.6419 87.9451Z" fill="url(#paint2_linear)"/>
<path d="M126.678 79.7932C126.454 80.0098 126.087 79.806 126.155 79.4992C126.597 77.5174 127.361 73.6838 127.043 72.0172C126.782 70.6553 125.993 71.0756 125.392 71.6417C125.172 71.8497 124.815 71.663 124.867 71.3648C125.148 69.6726 125.522 66.5944 124.656 65.8694C123.934 65.2645 123.215 66.6286 122.75 67.8321C122.628 68.1431 122.172 68.0764 122.146 67.7419C121.933 65.0153 121.235 59.8545 119.01 59.8545C116.784 59.8545 116.088 65.0153 115.875 67.7419C115.85 68.0764 115.391 68.1431 115.271 67.8321C114.806 66.6286 114.085 65.2645 113.364 65.8694C112.5 66.5944 112.871 69.6726 113.155 71.3648C113.203 71.663 112.847 71.8497 112.628 71.6417C112.028 71.0751 111.236 70.6547 110.978 72.0172C110.661 73.6838 111.422 77.5168 111.866 79.4992C111.935 79.806 111.567 80.0098 111.341 79.7932C110.678 79.1541 109.843 78.6969 109.803 80.396C109.735 83.2341 116.225 90.1149 116.225 90.1149H121.796C121.796 90.1149 128.284 83.2336 128.218 80.396C128.177 78.6974 127.341 79.1541 126.678 79.7932ZM112.997 75.8188C112.997 75.8188 111.452 74.317 112.017 73.3285C112.583 72.3394 113.549 74.3517 112.997 75.8188ZM114.679 69.7932C114.679 69.7932 113.599 68.7422 113.993 68.0514C114.388 67.361 115.064 68.7678 114.679 69.7932ZM123.33 69.7932C122.946 68.7678 123.62 67.3605 124.015 68.0514C124.41 68.7422 123.33 69.7932 123.33 69.7932ZM125.052 75.8188C124.5 74.3517 125.466 72.3394 126.031 73.3285C126.597 74.317 125.052 75.8188 125.052 75.8188Z" fill="url(#paint3_linear)"/>
<path d="M119.376 71.4364V90.1155H118.642V71.4364C118.642 71.2326 118.807 71.0693 119.009 71.0693C119.212 71.0693 119.376 71.2326 119.376 71.4364Z" fill="white"/>
<g clip-path="url(#clip0)">
<path d="M47.7031 56.9006L47.6561 56.8016L47.5468 56.6212C47.7177 56.5206 65.6261 49.9274 69.2146 48.6067L69.328 48.9061C61.9834 51.6082 48.0133 56.7577 47.7031 56.9006Z" fill="#797D7F"/>
<path d="M79.0318 69.7086C78.6884 68.9796 70.6198 51.8503 70.2634 50.8833L70.5679 50.7739C70.9194 51.7281 79.2415 69.3956 79.3257 69.5737L79.0318 69.7086Z" fill="#797D7F"/>
<path d="M65.4699 53.1678C65.1945 53.2237 58.6492 70.159 58.6492 70.159L59.2753 70.4257L66.2789 52.5234L65.4699 53.1678Z" fill="#797D7F"/>
<path d="M48.3211 59.8073C48.3211 59.8073 68.8462 48.9206 70.0278 49.3734C71.2094 49.8261 71.0782 49.3734 71.2094 50.1503C71.3406 50.9272 49.5683 62.2962 49.5683 62.2962L48.3211 59.8073Z" fill="#797D7F"/>
<path d="M49.0232 55.9744H44.3633V57.5426H49.0232V55.9744Z" fill="#797D7F"/>
<path d="M45.3473 56.686L50.1854 77.6049L61.2457 77.2288L47.6449 56.4272L45.3473 56.686Z" fill="#797D7F"/>
<path d="M82.4899 73.4294L95.3278 76.5148L110.954 76.2345L126.485 83.0025L139.683 85.6208L141.504 82.573L137.685 76.0189L89.5179 65.7056L81.2767 69.6334L82.4899 73.4294Z" fill="#2B2A25"/>
<path d="M133.387 89.4392C136.46 89.4392 138.952 86.9828 138.952 83.9527C138.952 80.9227 136.46 78.4663 133.387 78.4663C130.314 78.4663 127.823 80.9227 127.823 83.9527C127.823 86.9828 130.314 89.4392 133.387 89.4392Z" fill="#777464"/>
<path d="M136.661 79.5537C137.994 80.8712 138.988 82.7493 138.572 84.7032C138.002 87.379 136.035 90.0891 131.518 88.8474C130.805 88.651 130.006 88.2701 129.442 87.8644C130.132 88.5464 131.25 89.0662 132.266 89.3169C135.247 90.0515 138.032 88.2557 138.777 85.3165C139.344 83.0855 138.435 80.8321 136.661 79.5537Z" fill="#424038"/>
<path d="M133.387 87.2992C135.262 87.2992 136.781 85.8009 136.781 83.9527C136.781 82.1045 135.262 80.6062 133.387 80.6062C131.513 80.6062 129.993 82.1045 129.993 83.9527C129.993 85.8009 131.513 87.2992 133.387 87.2992Z" fill="#B7B29E"/>
<path d="M135.591 86.1274C136.808 84.9268 136.808 82.9804 135.591 81.7798C134.373 80.5793 132.399 80.5793 131.181 81.7798C129.964 82.9804 129.964 84.9268 131.181 86.1274C132.399 87.3279 134.373 87.3279 135.591 86.1274Z" fill="#969283"/>
<path d="M135.133 85.2889C135.881 84.3381 135.706 82.9693 134.742 82.2314C133.777 81.4936 132.389 81.6661 131.641 82.6169C130.892 83.5676 131.067 84.9365 132.032 85.6744C132.996 86.4122 134.384 86.2396 135.133 85.2889Z" fill="#777464"/>
<path d="M133.341 85.4349C133.298 85.6034 133.125 85.7064 132.954 85.664C132.783 85.6217 132.679 85.4508 132.721 85.2824L133.434 82.4709C133.477 82.3024 133.65 82.1994 133.821 82.2417C133.992 82.284 134.097 82.4549 134.054 82.6234L133.341 85.4349Z" fill="#969283"/>
<path d="M134.898 83.968C135.069 84.0104 135.174 84.1812 135.131 84.3497C135.088 84.5182 134.915 84.6212 134.744 84.5789L131.892 83.8762C131.721 83.8339 131.617 83.663 131.66 83.4945C131.703 83.3261 131.876 83.223 132.047 83.2654L134.898 83.968Z" fill="#969283"/>
<path d="M134.426 85.0466C134.517 85.196 134.468 85.3892 134.317 85.4786C134.165 85.5681 133.97 85.5193 133.879 85.3708L132.367 82.8859C132.276 82.7366 132.325 82.5434 132.476 82.4539C132.628 82.3645 132.824 82.4124 132.914 82.5617L134.426 85.0466Z" fill="#969283"/>
<path d="M134.476 82.9234C134.627 82.834 134.823 82.8819 134.914 83.0312C135.004 83.1805 134.956 83.3738 134.804 83.4632L132.284 84.954C132.133 85.0434 131.937 84.9955 131.846 84.8462C131.755 84.6969 131.804 84.5036 131.955 84.4142L134.476 82.9234Z" fill="#969283"/>
<path d="M134.045 85.031C134.65 84.6729 134.847 83.8989 134.484 83.3022C134.12 82.7055 133.335 82.512 132.73 82.87C132.125 83.2281 131.929 84.0021 132.292 84.5988C132.655 85.1955 133.44 85.389 134.045 85.031Z" fill="#969283"/>
<path opacity="0.4" d="M128.566 82.4867L129.115 82.248C129.115 82.248 129.587 80.5999 131.559 79.7751C133.36 79.0221 135.165 79.6745 135.165 79.6745L135.433 79.3662C135.433 79.3662 133.18 78.5166 131.247 79.4038C128.918 80.4721 128.566 82.4867 128.566 82.4867Z" fill="#969283"/>
<path d="M133.901 82.5451C133.88 82.625 133.799 82.6737 133.717 82.6537C133.636 82.6337 133.586 82.5531 133.607 82.4724C133.627 82.3926 133.709 82.3439 133.791 82.3639C133.872 82.3838 133.921 82.4653 133.901 82.5451Z" fill="#B7B29E"/>
<path d="M134.82 83.1991C134.8 83.279 134.718 83.3277 134.636 83.3077C134.555 83.2878 134.506 83.2071 134.526 83.1265C134.546 83.0466 134.628 82.9979 134.71 83.0179C134.791 83.0387 134.84 83.1193 134.82 83.1991Z" fill="#B7B29E"/>
<path d="M135.046 84.3386C135.026 84.4184 134.944 84.4671 134.862 84.4472C134.781 84.4272 134.732 84.3465 134.752 84.2659C134.772 84.1861 134.854 84.1373 134.936 84.1573C135.018 84.1773 135.066 84.2587 135.046 84.3386Z" fill="#B7B29E"/>
<path d="M134.335 85.3261C134.314 85.406 134.233 85.4547 134.151 85.4347C134.07 85.4147 134.021 85.3341 134.041 85.2535C134.061 85.1736 134.143 85.1249 134.225 85.1449C134.306 85.1648 134.355 85.2463 134.335 85.3261Z" fill="#B7B29E"/>
<path d="M133.154 85.4365C133.134 85.5163 133.052 85.565 132.97 85.5451C132.889 85.5251 132.84 85.4444 132.86 85.3638C132.88 85.284 132.962 85.2352 133.044 85.2552C133.125 85.2752 133.174 85.3566 133.154 85.4365Z" fill="#B7B29E"/>
<path d="M132.244 84.7441C132.224 84.8239 132.142 84.8727 132.061 84.8527C131.98 84.8327 131.93 84.7521 131.95 84.6714C131.971 84.5916 132.053 84.5429 132.134 84.5628C132.215 84.5828 132.265 84.6642 132.244 84.7441Z" fill="#B7B29E"/>
<path d="M132.095 83.6237C132.074 83.7036 131.993 83.7523 131.911 83.7323C131.83 83.7123 131.78 83.6317 131.801 83.5511C131.821 83.4712 131.903 83.4225 131.985 83.4425C132.066 83.4632 132.115 83.5439 132.095 83.6237Z" fill="#B7B29E"/>
<path d="M132.764 82.6928C132.744 82.7727 132.662 82.8214 132.581 82.8014C132.5 82.7815 132.45 82.7008 132.47 82.6202C132.491 82.5403 132.572 82.4916 132.654 82.5116C132.736 82.5323 132.785 82.613 132.764 82.6928Z" fill="#B7B29E"/>
<path d="M133.748 84.5425C134.08 84.3461 134.188 83.9213 133.989 83.5938C133.79 83.2663 133.359 83.1601 133.027 83.3566C132.694 83.5531 132.587 83.9779 132.786 84.3054C132.985 84.6329 133.416 84.739 133.748 84.5425Z" fill="#B7B29E"/>
<path d="M93.1572 77.8133C95.3303 75.6707 95.3303 72.1969 93.1572 70.0544C90.9841 67.9118 87.4609 67.9118 85.2878 70.0544C83.1148 72.1969 83.1148 75.6707 85.2878 77.8133C87.4609 79.9559 90.9841 79.9559 93.1572 77.8133Z" fill="#777464"/>
<path d="M92.4958 69.5344C93.8288 70.8519 94.8233 72.73 94.407 74.6839C93.8369 77.3597 91.8705 80.0698 87.3531 78.8281C86.6396 78.6317 85.8411 78.2508 85.2774 77.8452C85.9674 78.5271 87.085 79.0469 88.1014 79.2976C91.0825 80.0322 93.8669 78.2364 94.6119 75.2972C95.1789 73.0662 94.2702 70.812 92.4958 69.5344Z" fill="#424038"/>
<path d="M92.0545 75.7736C93.0877 74.2314 92.6573 72.1554 91.0932 71.1367C89.5291 70.1179 87.4236 70.5423 86.3903 72.0844C85.3571 73.6266 85.7874 75.7026 87.3515 76.7213C88.9156 77.74 91.0212 77.3157 92.0545 75.7736Z" fill="#B7B29E"/>
<path d="M90.8277 76.5675C92.3043 75.694 92.7831 73.8056 91.8972 72.3497C91.0112 70.8938 89.0959 70.4217 87.6193 71.2953C86.1427 72.1688 85.6638 74.0572 86.5498 75.5131C87.4358 76.969 89.3511 77.4411 90.8277 76.5675Z" fill="#969283"/>
<path d="M90.3607 75.8001C91.4073 75.1809 91.7467 73.8424 91.1187 72.8104C90.4907 71.7784 89.1332 71.4438 88.0865 72.0629C87.0398 72.6821 86.7004 74.0207 87.3284 75.0527C87.9564 76.0846 89.314 76.4193 90.3607 75.8001Z" fill="#777464"/>
<path d="M89.177 75.4153C89.1341 75.5838 88.9608 75.6868 88.7899 75.6445C88.619 75.6022 88.5146 75.4313 88.5575 75.2628L89.2701 72.4513C89.3131 72.2828 89.4864 72.1798 89.6572 72.2222C89.8281 72.2645 89.9326 72.4353 89.8897 72.6038L89.177 75.4153Z" fill="#969283"/>
<path d="M90.7343 73.9485C90.9052 73.9908 91.0097 74.1617 90.9668 74.3302C90.9238 74.4987 90.7505 74.6017 90.5796 74.5593L87.7281 73.8567C87.5572 73.8144 87.4527 73.6435 87.4957 73.475C87.5386 73.3065 87.7119 73.2035 87.8828 73.2458L90.7343 73.9485Z" fill="#969283"/>
<path d="M90.2614 75.0271C90.3521 75.1764 90.3035 75.3697 90.1521 75.4591C90.0006 75.5485 89.8046 75.5006 89.7139 75.3513L88.2019 72.8664C88.1112 72.7171 88.1598 72.5238 88.3112 72.4344C88.4627 72.345 88.6587 72.3929 88.7494 72.5422L90.2614 75.0271Z" fill="#969283"/>
<path d="M90.3108 72.9039C90.4622 72.8145 90.6582 72.8624 90.7489 73.0117C90.8396 73.161 90.791 73.3542 90.6396 73.4437L88.1193 74.9344C87.9679 75.0239 87.7719 74.976 87.6812 74.8266C87.5905 74.6773 87.6391 74.4841 87.7905 74.3947L90.3108 72.9039Z" fill="#969283"/>
<path d="M89.881 75.0117C90.4862 74.6537 90.6825 73.8797 90.3194 73.2829C89.9562 72.6862 89.1712 72.4927 88.566 72.8507C87.9607 73.2088 87.7645 73.9828 88.1276 74.5795C88.4908 75.1762 89.2758 75.3697 89.881 75.0117Z" fill="#969283"/>
<path opacity="0.4" d="M84.4012 72.4672L84.9503 72.2285C84.9503 72.2285 85.4225 70.5804 87.3944 69.7555C89.1947 69.0026 90.9999 69.6549 90.9999 69.6549L91.268 69.3467C91.268 69.3467 89.015 68.4971 87.0818 69.3842C84.7527 70.4526 84.4012 72.4672 84.4012 72.4672Z" fill="#969283"/>
<path d="M89.7365 72.5256C89.7163 72.6054 89.6345 72.6541 89.5527 72.6342C89.4717 72.6142 89.4223 72.5336 89.4425 72.4529C89.4628 72.3731 89.5446 72.3244 89.6264 72.3443C89.7074 72.3643 89.7568 72.4449 89.7365 72.5256Z" fill="#B7B29E"/>
<path d="M90.6549 73.1796C90.6346 73.2595 90.5529 73.3082 90.4711 73.2882C90.3901 73.2683 90.3407 73.1876 90.361 73.107C90.3812 73.0271 90.463 72.9784 90.5448 72.9984C90.6257 73.0191 90.6751 73.0998 90.6549 73.1796Z" fill="#B7B29E"/>
<path d="M90.8817 74.3183C90.8615 74.3981 90.7797 74.4468 90.6979 74.4269C90.6169 74.4069 90.5675 74.3263 90.5878 74.2456C90.608 74.1658 90.6898 74.1171 90.7716 74.137C90.8525 74.1578 90.9019 74.2384 90.8817 74.3183Z" fill="#B7B29E"/>
<path d="M90.1698 75.3058C90.1496 75.3857 90.0678 75.4344 89.986 75.4144C89.9051 75.3945 89.8557 75.3138 89.8759 75.2332C89.8962 75.1533 89.978 75.1046 90.0597 75.1246C90.1415 75.1454 90.1901 75.226 90.1698 75.3058Z" fill="#B7B29E"/>
<path d="M88.9898 75.4162C88.9696 75.496 88.8878 75.5448 88.806 75.5248C88.725 75.5048 88.6756 75.4242 88.6958 75.3435C88.7161 75.2637 88.7979 75.215 88.8797 75.2349C88.9607 75.2557 89.0101 75.3363 88.9898 75.4162Z" fill="#B7B29E"/>
<path d="M88.0805 74.7238C88.0602 74.8037 87.9784 74.8524 87.8966 74.8324C87.8156 74.8125 87.7662 74.7318 87.7865 74.6512C87.8067 74.5713 87.8885 74.5226 87.9703 74.5426C88.0513 74.5633 88.1007 74.644 88.0805 74.7238Z" fill="#B7B29E"/>
<path d="M87.9306 73.6044C87.9103 73.6843 87.8285 73.733 87.7467 73.7131C87.6657 73.6931 87.6163 73.6124 87.6366 73.5318C87.6568 73.4519 87.7386 73.4032 87.8204 73.4232C87.9014 73.4431 87.9508 73.5246 87.9306 73.6044Z" fill="#B7B29E"/>
<path d="M88.6004 72.6735C88.5802 72.7534 88.4984 72.8021 88.4166 72.7821C88.3356 72.7622 88.2862 72.6815 88.3064 72.6009C88.3267 72.521 88.4085 72.4723 88.4903 72.4923C88.5713 72.5122 88.6207 72.5937 88.6004 72.6735Z" fill="#B7B29E"/>
<path d="M89.92 73.9878C89.9504 73.6071 89.6621 73.2742 89.2759 73.2442C88.8898 73.2142 88.5521 73.4985 88.5217 73.8793C88.4913 74.26 88.7796 74.5929 89.1658 74.6229C89.5519 74.6529 89.8896 74.3685 89.92 73.9878Z" fill="#B7B29E"/>
<path d="M82.4899 73.4295C82.4899 73.4295 78.5459 72.4569 78.3564 69.3907C78.1669 66.3245 78.7354 65.6697 78.7354 65.6697L79.7972 65.296L82.4899 61.6684C82.4899 61.6684 84.8985 61.0704 90.1512 61.6501C95.404 62.2298 98.1348 62.9029 98.1348 62.9029C98.1348 62.9029 108.546 59.6682 110.48 59.6682C112.413 59.6682 116.355 59.7033 119.051 60.192C131.226 62.3983 142.433 66.8299 142.433 66.8299C142.433 66.8299 145.353 70.5693 145.77 73.0558C146.187 75.5423 145.448 78.777 145.448 78.777C145.448 78.777 146.453 81.1701 145.751 82.6657C145.05 84.1612 143.343 85.8069 142.527 85.8445C141.712 85.882 139.683 85.6201 139.683 85.6201C139.683 85.6201 140.422 82.7032 139.038 80.5345C137.326 77.8523 132.807 76.4102 129.822 78.1039C127.186 79.5994 126.485 83.0026 126.485 83.0026L95.3287 76.514C95.3287 76.514 95.9344 73.2945 95.4323 71.2991C94.6233 68.0851 89.5479 66.0162 86.5627 67.4455C82.6171 69.3348 82.4899 73.4295 82.4899 73.4295Z" fill="#706D7C"/>
<path d="M103.369 64.8289C103.183 65.6642 106.251 66.1752 106.251 66.1752L116.719 68.1195C116.719 68.1195 117.174 66.9601 117.989 65.3336C118.805 63.707 120.341 62.0989 119.772 61.8002C119.203 61.5008 115.031 60.7901 112.149 61.3515C109.266 61.9128 103.907 62.4151 103.369 64.8289Z" fill="#97C1BF"/>
<path d="M103.937 65.4462C104.373 63.0124 109.683 62.4925 112.566 61.9312C115.108 61.4369 118.652 61.9304 119.844 62.2594C119.924 62.0366 119.916 61.8761 119.772 61.8002C119.203 61.5008 115.031 60.7901 112.149 61.3515C109.266 61.912 103.248 62.5181 103.009 64.9782C102.974 65.3344 103.336 65.6091 104.658 65.7759C104.644 65.7991 103.903 65.6346 103.937 65.4462Z" fill="#2B2A25"/>
<path d="M122.551 62.4813C121.824 62.3815 121.365 63.4651 121.365 63.4651L119.454 68.6577C119.454 68.6577 130.922 71.2241 131.472 70.6443C132.022 70.0646 132.193 65.2593 130.922 64.5494C129.651 63.8388 122.551 62.4813 122.551 62.4813Z" fill="#97C1BF"/>
<path d="M121.933 64.0816C121.933 64.0816 122.393 62.998 123.12 63.0979C123.12 63.0979 129.919 64.3978 131.401 65.1196C131.271 64.8561 131.113 64.6557 130.922 64.5487C129.651 63.8381 122.551 62.4806 122.551 62.4806C121.824 62.3808 121.365 63.4644 121.365 63.4644L119.454 68.657C119.454 68.657 119.727 68.7185 120.19 68.8191L121.933 64.0816Z" fill="#2B2A25"/>
<path d="M133.691 65.39C133.165 65.5889 133.083 65.9769 133.481 68.4331C133.702 69.7945 133.729 70.9619 134.468 71.2238C135.208 71.4858 140.669 71.8786 141.163 70.8877C141.656 69.8967 140.188 67.411 139.051 66.813C137.912 66.2141 134.582 65.0539 133.691 65.39Z" fill="#97C1BF"/>
<path d="M134.239 68.6202C133.841 66.1648 133.923 65.776 134.449 65.5772C134.74 65.467 135.294 65.5173 135.945 65.6554C134.982 65.3895 134.09 65.2386 133.69 65.3895C133.164 65.5883 133.082 65.9764 133.48 68.4326C133.701 69.794 133.728 70.9614 134.468 71.2233C134.578 71.2624 134.796 71.3048 135.085 71.3447C134.483 70.9902 134.445 69.8898 134.239 68.6202Z" fill="#2B2A25"/>
<path d="M85.1334 63.3164C85.1309 62.7375 81.6469 62.1331 81.6469 62.1331C81.6469 62.1331 80.5527 62.7359 80.2571 63.3108C79.8239 64.154 79.7696 65.216 79.7696 65.216L82.0599 65.7806C82.0607 65.7806 85.1358 63.8961 85.1334 63.3164Z" fill="#97C1BF"/>
<path d="M81.6169 62.4812C81.6169 62.4812 80.939 62.9403 80.7552 63.2318C80.5714 63.5232 80.2693 64.6651 80.2693 64.6651L80.7204 64.812C80.7204 64.812 80.9633 63.7867 81.2719 63.5033C81.8291 62.9906 83.0277 62.8405 83.0277 62.8405L81.6169 62.4812Z" fill="white"/>
<path d="M145.87 75.4865C145.87 75.4865 143.949 74.9651 143.747 74.9156C143.544 74.8661 143.186 75.0114 143.115 75.2869C143.046 75.5624 142.75 77.3622 142.745 77.5953C142.739 77.8285 142.987 78.1231 143.341 78.2102C143.695 78.2972 145.451 78.7891 145.451 78.7891L145.87 75.4865Z" fill="#B52C1A"/>
<path d="M143.647 75.2612L143.208 77.7493L143.933 77.9282L144.378 75.4153L143.647 75.2612Z" fill="#F23325"/>
<path opacity="0.14" d="M100.218 66.5376L97.3477 68.3206L132.342 74.192L137.387 72.5223L100.218 66.5376Z" fill="white"/>
<path opacity="0.14" d="M83.6667 61.8376L85.8744 62.7567C85.8744 62.7567 87.72 62.6713 91.8123 63.3157C96.7022 64.0862 99.9805 65.6129 99.9805 65.6129L97.8603 63.3795C97.8603 63.3795 95.0201 62.6681 91.2527 62.2688C87.4844 61.8704 83.6667 61.8376 83.6667 61.8376Z" fill="white"/>
<path d="M139.708 85.6623C139.708 85.6623 141.737 85.9242 142.552 85.8867C143.368 85.8492 145.074 84.2043 145.776 82.7079C145.802 82.6536 145.825 82.5977 145.846 82.541L141.749 81.9501C141.749 81.9501 140.636 77.8618 137.122 76.4653C135.128 75.6732 132.57 75.3434 129.966 76.2904C127.691 77.1177 126.021 79.5563 124.757 80.3044C123.492 81.0526 122.531 80.6039 122.531 80.6039L96.8666 75.4424C96.8666 75.4424 96.9176 73.1236 96.639 71.2543C96.3612 69.3842 95.2736 68.1625 93.2003 67.0159C91.1271 65.8693 88.7582 65.7447 86.4744 66.4178C84.7672 66.9209 82.5555 69.5839 82.5555 69.5839L78.3653 69.1359C78.3702 69.2325 78.375 69.3307 78.3815 69.4321C78.571 72.4984 82.515 73.4709 82.515 73.4709C82.515 73.4709 82.6422 69.3762 86.5862 67.4878C89.5722 66.0585 94.6467 68.1274 95.4558 71.3413C95.9579 73.3368 95.3521 76.5563 95.3521 76.5563L126.508 83.0449C126.508 83.0449 127.21 79.6417 129.846 78.1461C132.831 76.4525 137.35 77.8946 139.062 80.5767C140.448 82.7454 139.708 85.6623 139.708 85.6623Z" fill="#686866"/>
<path d="M98.4093 75.8467L98.4174 75.7772C98.4433 75.5432 99.071 70.0176 100.34 67.8705C101.411 66.0571 100.868 65.3057 100.508 64.8083C100.302 64.5248 100.125 64.2797 100.368 63.977C100.996 63.1985 105.863 61.8403 109.84 61.1072C115.874 59.9949 121.366 61.3196 121.421 61.3324L121.511 61.3548L118.297 68.5412C118.283 68.5588 116.879 70.3538 116.302 72.9417C115.957 74.49 115.659 79.2347 115.656 79.2826L115.65 79.3712L98.4093 75.8467ZM121.294 61.4618C120.557 61.2957 115.445 60.2313 109.869 61.2589C105.499 62.0638 101.029 63.4053 100.491 64.0728C100.327 64.2757 100.417 64.4178 100.635 64.7188C101.018 65.2482 101.598 66.0483 100.475 67.9479C99.2985 69.9386 98.6595 75.0649 98.581 75.7245L115.506 79.1844C115.549 78.5216 115.828 74.3503 116.149 72.909C116.715 70.3746 118.065 68.5883 118.168 68.455L121.294 61.4618Z" fill="#2B2A25"/>
<path d="M115.563 79.3535L115.595 79.2026C118.792 79.8438 123.688 80.7365 124.068 80.5664C124.797 80.2414 125.657 79.4286 126.489 78.642C127.307 77.8691 128.153 77.069 128.919 76.6785C131.292 75.4704 131.962 74.9873 132.511 73.6395C132.794 72.9456 132.922 70.6978 132.804 68.5211C132.665 65.9516 132.229 64.2532 131.64 63.9777C130.223 63.3157 121.475 61.5016 121.387 61.4832L121.419 61.3323C121.78 61.4065 130.273 63.1688 131.707 63.8387C132.632 64.2707 132.892 67.2515 132.96 68.5131C133.08 70.709 132.946 72.9863 132.656 73.697C132.065 75.1478 131.229 75.6764 128.991 76.8159C128.244 77.196 127.406 77.9881 126.597 78.7538C125.716 79.5859 124.885 80.3716 124.132 80.7069C123.583 80.9513 116.382 79.518 115.563 79.3535Z" fill="#2B2A25"/>
<path d="M115.491 71.3548C115.446 71.6926 115.132 71.9305 114.79 71.8866L112.309 71.5664C111.966 71.5225 111.725 71.2127 111.77 70.8749L111.796 70.6713C111.841 70.3335 112.155 70.0956 112.498 70.1395L114.978 70.4597C115.321 70.5036 115.562 70.8134 115.518 71.1512L115.491 71.3548Z" fill="#875F5C"/>
<path d="M115.862 70.6827C115.837 70.8656 115.667 70.9949 115.482 70.971L111.605 70.4727C111.42 70.4488 111.288 70.2811 111.313 70.0982C111.337 69.9154 111.507 69.786 111.693 69.81L115.569 70.3082C115.755 70.3322 115.886 70.4999 115.862 70.6827Z" fill="#2B2A25"/>
<path d="M131.282 73.2874C131.238 73.6252 130.924 73.8631 130.581 73.8192L128.1 73.499C127.758 73.4551 127.517 73.1453 127.561 72.8075L127.588 72.6039C127.632 72.2661 127.947 72.0282 128.289 72.0721L130.77 72.3923C131.112 72.4362 131.354 72.746 131.309 73.0838L131.282 73.2874Z" fill="#875F5C"/>
<path d="M131.652 72.6149C131.628 72.7977 131.458 72.9271 131.273 72.9031L127.396 72.4049C127.21 72.3809 127.079 72.2132 127.104 72.0304C127.128 71.8475 127.298 71.7182 127.483 71.7421L131.36 72.2404C131.546 72.2643 131.677 72.432 131.652 72.6149Z" fill="#2B2A25"/>
<path d="M67.9683 70.8729C67.9683 70.8729 73.6665 70.3611 75.4401 71.0382C78.7978 72.3214 79.7923 76.8728 79.7923 76.8728L68.6397 79.5238L67.9683 70.8729Z" fill="#CBD3D8"/>
<path d="M70.4926 83.4825H40.7659V66.9497H65.9809C68.4728 66.9497 70.4926 68.9412 70.4926 71.3981V83.4825Z" fill="#CBD3D8"/>
<path d="M70.772 90.1157C108.988 90.1157 139.967 89.9552 139.967 89.7572C139.967 89.5592 108.988 89.3987 70.772 89.3987C32.5565 89.3987 1.57672 89.5592 1.57672 89.7572C1.57672 89.9552 32.5565 90.1157 70.772 90.1157Z" fill="#E1E4E5"/>
<path d="M1.9064 79.2357H1.07629V75.858L2.9819 75.8005L1.9064 79.2357Z" fill="#ACB2B5"/>
<path d="M1.07627 76.1963C1.07627 76.1963 0.0501753 76.2354 0.00158363 77.4547C-0.0534869 78.8249 1.07627 78.9623 1.07627 78.9623V76.1963Z" fill="#DBE4EB"/>
<path d="M0.25426 77.0334C0.19919 77.1915 0.194331 77.3623 0.204859 77.5292C0.208908 77.5923 0.216197 77.657 0.245352 77.7129C0.274507 77.7688 0.331197 77.8151 0.395176 77.8159C0.48993 77.8159 0.554718 77.7241 0.596831 77.6402C0.629226 77.5755 0.65919 77.5101 0.689155 77.4438C0.725599 77.3639 0.761233 77.2841 0.797677 77.205C0.830881 77.1324 0.863275 77.0597 0.877043 76.9815C0.903768 76.821 0.786338 76.6062 0.592782 76.6501C0.43 76.6844 0.302852 76.8912 0.25426 77.0334Z" fill="white"/>
<path d="M40.0135 55.0194L32.6924 54.9292C29.9356 54.8956 27.3036 56.0606 25.5016 58.1176C22.6525 61.3706 18.9466 67.1709 15.2723 67.7586C12.8338 68.1482 4.9247 70.8352 3.67994 72.9344C1.5249 76.57 1.5249 83.4825 1.5249 83.4825H40.0135V55.0194Z" fill="#CBD3D8"/>
<path d="M15.2723 67.7595H22.5019C22.7586 67.7595 22.9911 67.6086 23.0923 67.3762L27.0047 58.4275C27.1878 58.0091 26.8768 57.542 26.4143 57.542H26.0531C25.862 57.7256 25.6782 57.9173 25.5024 58.1185C22.7521 61.2574 18.4777 65.8168 15.2723 67.7595Z" fill="#394458"/>
<path d="M29.0431 58.2039L26.1212 66.3558C25.8895 67.0018 26.3755 67.6797 27.0703 67.6797H37.379C37.9354 67.6797 38.3865 67.2349 38.3865 66.6863V58.5353C38.3865 57.9868 37.9354 57.542 37.379 57.542H29.9923C29.5655 57.542 29.1857 57.8071 29.0431 58.2039Z" fill="#394458"/>
<path d="M27.276 67.0209L30.198 58.869C30.3406 58.4722 30.7204 58.2071 31.1472 58.2071H38.3582C38.2205 57.8206 37.848 57.5427 37.409 57.5427H30.0215C29.5947 57.5427 29.214 57.8078 29.0723 58.2047L26.1503 66.3557C25.9187 67.0017 26.4046 67.6796 27.0995 67.6796H27.2744C27.2015 67.476 27.1951 67.2468 27.276 67.0209Z" fill="black"/>
<path d="M38.2904 70.4612C38.4215 69.914 38.0778 69.3657 37.5228 69.2365C36.9678 69.1073 36.4117 69.4461 36.2806 69.9933C36.1496 70.5405 36.4932 71.0889 37.0482 71.2181C37.6032 71.3473 38.1594 71.0084 38.2904 70.4612Z" fill="#CBD3D8"/>
<path d="M38.5591 70.1229C38.5591 70.2347 38.4676 70.3249 38.3542 70.3249H36.1214C36.008 70.3249 35.9165 70.2347 35.9165 70.1229C35.9165 70.0111 36.008 69.9209 36.1214 69.9209H38.3542C38.4676 69.9209 38.5591 70.0119 38.5591 70.1229Z" fill="#2B2A25"/>
<path opacity="0.23" d="M27.4494 62.6508L33.3363 57.542H34.7463L26.3399 65.8264L27.4494 62.6508Z" fill="white"/>
<path opacity="0.23" d="M27.7985 67.6796C27.8835 67.6796 38.3583 58.2063 38.3583 58.2063V58.798L29.0408 67.7595L27.7985 67.6796Z" fill="white"/>
<path opacity="0.23" d="M16.4749 67.7596L26.3398 59.8074L25.7332 61.3357L18.8875 67.7596H16.4749Z" fill="white"/>
<path opacity="0.25" d="M9.91105 70.8746C8.70678 71.3409 7.47985 71.8192 6.48534 72.6361C6.25696 72.8237 6.02777 73.0545 5.9978 73.3467C5.94678 73.841 6.52097 74.2147 7.02308 74.17C7.5252 74.1253 7.95118 73.8075 8.36016 73.5168C10.103 72.2767 12.0547 71.3233 14.1102 70.7069C15.2521 70.3643 16.5308 70.0569 17.2111 69.0891C17.2792 68.9917 15.5679 68.7258 15.41 68.7338C14.7961 68.7666 14.4374 68.9622 13.9377 69.2496C12.7115 69.9547 11.2344 70.3627 9.91105 70.8746Z" fill="white"/>
<path d="M35.9902 52.3925C35.9165 52.2472 34.5883 52.2655 34.4045 52.3925C34.2199 52.5195 34.036 54.138 34.036 54.138H36.268C36.2664 54.138 36.0639 52.5378 35.9902 52.3925Z" fill="#3F48EF"/>
<path d="M36.3737 54.9295V54.1382H33.8129V54.9295H36.3737Z" fill="#892121"/>
<path d="M34.3559 53.4264C34.3389 53.5007 34.3243 53.5861 34.3721 53.646C34.4012 53.682 34.4474 53.7003 34.4911 53.7171C34.5932 53.7554 34.7211 53.789 34.8005 53.7147C34.841 53.6772 34.8556 53.6205 34.8677 53.567C34.9203 53.3306 35.1139 52.715 34.7924 52.5904C34.4287 52.4507 34.4036 53.2156 34.3559 53.4264Z" fill="#3792ED"/>
<path d="M79.7922 83.5386H2.02945L1.73871 79.8663L2.25135 76.8735H79.7922V83.5386Z" fill="#ACB2B5"/>
<path d="M12.6014 77.3479C9.14977 77.3479 6.35089 80.1067 6.35089 83.5107H18.8519C18.8519 80.1067 16.053 77.3479 12.6014 77.3479Z" fill="#797D7F"/>
<path d="M12.5633 89.6174C15.7067 89.6174 18.255 87.1049 18.255 84.0056C18.255 80.9063 15.7067 78.3938 12.5633 78.3938C9.41984 78.3938 6.87158 80.9063 6.87158 84.0056C6.87158 87.1049 9.41984 89.6174 12.5633 89.6174Z" fill="#383F4C"/>
<path d="M15.9517 79.4966C17.1414 80.525 17.8922 82.0342 17.8922 83.7166C17.8922 86.8156 15.3443 89.3284 12.2005 89.3284C10.9314 89.3284 9.75874 88.9188 8.81201 88.2257C9.81381 89.0921 11.1258 89.6175 12.5633 89.6175C15.7064 89.6175 18.255 87.1054 18.255 84.0057C18.255 82.158 17.3488 80.5195 15.9517 79.4966Z" fill="black"/>
<path d="M12.5633 88.3934C15.0211 88.3934 17.0135 86.4289 17.0135 84.0056C17.0135 81.5824 15.0211 79.6179 12.5633 79.6179C10.1056 79.6179 8.11316 81.5824 8.11316 84.0056C8.11316 86.4289 10.1056 88.3934 12.5633 88.3934Z" fill="#4D5768"/>
<path d="M12.4337 87.3762C14.3927 87.3762 15.9808 85.8103 15.9808 83.8788C15.9808 81.9472 14.3927 80.3813 12.4337 80.3813C10.4746 80.3813 8.88647 81.9472 8.88647 83.8788C8.88647 85.8103 10.4746 87.3762 12.4337 87.3762Z" fill="#383F4C"/>
<path d="M12.5633 87.3762C14.4513 87.3762 15.9817 85.8672 15.9817 84.0057C15.9817 82.1443 14.4513 80.6353 12.5633 80.6353C10.6754 80.6353 9.1449 82.1443 9.1449 84.0057C9.1449 85.8672 10.6754 87.3762 12.5633 87.3762Z" fill="#677589"/>
<path d="M12.5633 87.1213C14.3085 87.1213 15.7233 85.7264 15.7233 84.0056C15.7233 82.2848 14.3085 80.8899 12.5633 80.8899C10.818 80.8899 9.4032 82.2848 9.4032 84.0056C9.4032 85.7264 10.818 87.1213 12.5633 87.1213Z" fill="#7A8BA0"/>
<path opacity="0.22" d="M10.6099 82.4654C10.2155 82.9541 10.0964 83.5913 10.1134 84.2157C10.1223 84.5679 10.2187 84.9352 10.469 85.1875C10.7184 85.4398 11.1468 85.5388 11.4457 85.3448C11.7137 85.1707 11.8069 84.8274 11.836 84.512C11.8644 84.1966 11.8522 83.8668 11.9899 83.5809C12.16 83.228 12.5284 83.0092 12.8985 82.8695C13.0937 82.7952 13.2994 82.7345 13.4663 82.61C14.2048 82.059 13.7206 81.5376 12.6062 81.5376C11.8101 81.5384 11.2165 81.7149 10.6099 82.4654Z" fill="white"/>
<path d="M60.0284 77.376C56.5768 77.376 53.7779 80.1348 53.7779 83.5388H66.2789C66.2789 80.1348 63.4808 77.376 60.0284 77.376Z" fill="#797D7F"/>
<path d="M65.6101 84.9329C66.1137 81.8736 64.0065 78.991 60.9036 78.4945C57.8007 77.998 54.8771 80.0755 54.3735 83.1349C53.87 86.1942 55.9771 89.0768 59.08 89.5733C62.1829 90.0698 65.1065 87.9923 65.6101 84.9329Z" fill="#383F4C"/>
<path d="M63.3788 79.5249C64.5684 80.5534 65.3192 82.0625 65.3192 83.7449C65.3192 86.8439 62.7714 89.3567 59.6275 89.3567C58.3584 89.3567 57.1857 88.9471 56.239 88.254C57.2408 89.1204 58.5528 89.6458 59.9903 89.6458C63.1334 89.6458 65.682 87.1337 65.682 84.034C65.682 82.1863 64.7758 80.5478 63.3788 79.5249Z" fill="black"/>
<path d="M64.3845 84.7368C64.7783 82.3448 63.1307 80.091 60.7047 79.7027C58.2786 79.3145 55.9927 80.9389 55.599 83.331C55.2052 85.723 56.8528 87.9768 59.2788 88.365C61.7049 88.7532 63.9908 87.1288 64.3845 84.7368Z" fill="#4D5768"/>
<path d="M59.8615 87.4042C61.8206 87.4042 63.4087 85.8384 63.4087 83.9068C63.4087 81.9753 61.8206 80.4094 59.8615 80.4094C57.9025 80.4094 56.3143 81.9753 56.3143 83.9068C56.3143 85.8384 57.9025 87.4042 59.8615 87.4042Z" fill="#383F4C"/>
<path d="M61.3004 87.1475C63.0446 86.4351 63.8729 84.4635 63.1504 82.7437C62.4279 81.0239 60.4282 80.2072 58.6839 80.9196C56.9396 81.632 56.1113 83.6036 56.8339 85.3234C57.5564 87.0432 59.5561 87.8599 61.3004 87.1475Z" fill="#677589"/>
<path d="M63.1111 84.5331C63.3907 82.8345 62.2208 81.2341 60.498 80.9584C58.7753 80.6828 57.152 81.8362 56.8725 83.5348C56.5929 85.2334 57.7628 86.8338 59.4855 87.1095C61.2083 87.3852 62.8315 86.2317 63.1111 84.5331Z" fill="#7A8BA0"/>
<path opacity="0.22" d="M58.0377 82.4935C57.6433 82.9822 57.5243 83.6194 57.5413 84.2438C57.5502 84.596 57.6466 84.9633 57.8968 85.2156C58.1463 85.4679 58.5747 85.5669 58.8735 85.3729C59.1416 85.1988 59.2347 84.8555 59.2639 84.5401C59.2922 84.2247 59.2801 83.8949 59.4177 83.609C59.5878 83.2561 59.9563 83.0373 60.3264 82.8976C60.5216 82.8233 60.7273 82.7626 60.8941 82.638C61.6327 82.0871 61.1484 81.5657 60.034 81.5657C59.2371 81.5665 58.6435 81.7429 58.0377 82.4935Z" fill="white"/>
<path d="M38.3874 82.5757H24.7817C24.674 82.5757 24.6675 82.4423 24.6643 81.3923C24.661 80.1866 24.6562 78.1696 24.3598 76.0903C23.8998 72.8636 22.4671 71.9158 22.4525 71.907C22.4307 71.8926 22.421 71.8655 22.4299 71.8407L28.0187 56.9584C28.0268 56.9368 28.0479 56.9216 28.0722 56.9216H38.5177C39.211 56.9216 39.7755 57.4782 39.7755 58.1617V81.2062C39.7755 81.9616 39.1527 82.5757 38.3874 82.5757ZM24.8092 82.4639H38.3874C39.0903 82.4639 39.6629 81.9001 39.6629 81.2062V58.1617C39.6629 57.5397 39.1494 57.0334 38.5177 57.0334H28.111L22.5513 71.8391C22.7903 72.0116 24.0399 73.0464 24.4715 76.0751C24.7687 78.1616 24.7744 80.1842 24.7768 81.3923C24.7785 81.9089 24.7801 82.3593 24.8092 82.4639Z" fill="#394458"/>
<path d="M3.78123 83.4826H1.09816C0.901364 83.4826 0.741821 83.3253 0.741821 83.1313V79.772C0.741821 79.578 0.901364 79.4207 1.09816 79.4207H3.78042C4.31817 79.4207 4.75306 79.8502 4.75306 80.3796V82.5228C4.75387 83.053 4.31817 83.4826 3.78123 83.4826Z" fill="#797D7F"/>
<path opacity="0.24" d="M6.9639 77.6993C6.8659 77.8702 6.78492 78.0602 6.79788 78.2559C6.81083 78.4515 6.94203 78.6511 7.13721 78.6894C7.30728 78.723 7.48059 78.6288 7.59478 78.5002C7.70897 78.3716 7.77781 78.2111 7.86041 78.061C8.33256 77.1931 9.27686 76.6189 10.2673 76.4912C10.3645 76.4784 10.4665 76.4688 10.5508 76.4177C10.6342 76.3666 10.6933 76.2604 10.6544 76.171C10.6204 76.0927 10.5281 76.0576 10.4439 76.0376C9.21531 75.7446 7.56481 76.6533 6.9639 77.6993Z" fill="white"/>
<path d="M40.7659 66.9497H40.0135V83.8778H40.7659V66.9497Z" fill="#797D7F"/>
<path opacity="0.51" d="M74.6845 71.4534H41.1036V72.4044H74.6845V71.4534Z" fill="white"/>
<path d="M71.7123 50.3847C71.9494 49.3946 71.3275 48.4024 70.3233 48.1686C69.3191 47.9348 68.3128 48.5479 68.0757 49.5381C67.8386 50.5282 68.4604 51.5203 69.4646 51.7541C70.4689 51.9879 71.4751 51.3748 71.7123 50.3847Z" fill="#ACB2B5"/>
</g>
<defs>
<linearGradient id="paint0_linear" x1="73" y1="2.14453" x2="73" y2="90.1153" gradientUnits="userSpaceOnUse">
<stop stop-color="#F9E5EC"/>
<stop offset="1" stop-color="#FBF5F5"/>
</linearGradient>
<linearGradient id="paint1_linear" x1="38.6698" y1="78.24" x2="38.6698" y2="90.1154" gradientUnits="userSpaceOnUse">
<stop stop-color="#F9E5EC"/>
<stop offset="1" stop-color="#FBF5F5"/>
</linearGradient>
<linearGradient id="paint2_linear" x1="24.2888" y1="85.6851" x2="24.2888" y2="90.1153" gradientUnits="userSpaceOnUse">
<stop stop-color="#F9E5EC"/>
<stop offset="1" stop-color="#FBF5F5"/>
</linearGradient>
<linearGradient id="paint3_linear" x1="119.011" y1="59.8545" x2="119.011" y2="90.1149" gradientUnits="userSpaceOnUse">
<stop stop-color="#F1CEDA"/>
<stop offset="1" stop-color="#FBF5F5"/>
</linearGradient>
<clipPath id="clip0">
<rect width="146" height="42" fill="white" transform="translate(0 48.1157)"/>
</clipPath>
</defs>
</svg>
