<svg width="36" height="36" viewBox="0 0 36 36" fill="none" xmlns="http://www.w3.org/2000/svg">
<g clip-path="url(#clip0)">
<path d="M11 28.1587C9.075 28.1587 7.5 29.7337 7.5 31.6587C7.5 33.5837 9.075 35.1587 11 35.1587C12.925 35.1587 14.5 33.5837 14.5 31.6587C14.5 29.7337 12.925 28.1587 11 28.1587ZM0.5 0.158691V3.65869H4L10.3 16.9587L7.85 21.1587C7.675 21.6837 7.5 22.3837 7.5 22.9087C7.5 24.8337 9.075 26.4087 11 26.4087H32V22.9087H11.7C11.525 22.9087 11.35 22.7337 11.35 22.5587V22.3836L12.925 19.4086H25.875C27.275 19.4086 28.325 18.7086 28.85 17.6586L35.15 6.28369C35.5 5.93369 35.5 5.75869 35.5 5.40869C35.5 4.35869 34.8 3.65869 33.75 3.65869H7.85L6.275 0.158691H0.5ZM28.5 28.1587C26.575 28.1587 25 29.7337 25 31.6587C25 33.5837 26.575 35.1587 28.5 35.1587C30.425 35.1587 32 33.5837 32 31.6587C32 29.7337 30.425 28.1587 28.5 28.1587Z" fill="#E1251B"/>
</g>
<defs>
<clipPath id="clip0">
<rect width="35" height="35" fill="white" transform="translate(0.5 0.158691)"/>
</clipPath>
</defs>
</svg>
