<svg width="38" height="36" viewBox="0 0 38 36" fill="none" xmlns="http://www.w3.org/2000/svg">
<path d="M24.6521 7.78447C22.5357 3.46303 18.1085 0.605957 13.1426 0.605957C6.03696 0.605957 0.256118 6.354 0.256118 13.4192C0.256118 15.3393 0.66834 17.1797 1.48195 18.8956L0.277425 24.9189C0.124105 25.6857 0.8005 26.3634 1.56739 26.2117L7.66498 25.0061C8.48598 25.3956 9.33532 25.6917 10.208 25.8958C8.25183 16.6306 15.2747 7.93369 24.6521 7.78447V7.78447Z" fill="#E1251B"/>
<path d="M36.5183 28.2675C36.7287 27.8238 36.9117 27.3716 37.0682 26.912H37.028C39.7699 18.864 34.0037 10.4054 25.4912 9.99359C25.491 9.99315 25.491 9.99271 25.4908 9.99227C18.1663 9.65473 12.0809 15.5193 12.0809 22.7912C12.0809 29.8505 17.8184 35.594 24.8754 35.6043C26.7896 35.6017 28.6243 35.1896 30.3352 34.3781C37.0132 35.6984 36.4924 35.6045 36.6458 35.6045C37.3399 35.6045 37.8583 34.9685 37.7228 34.2909L36.5183 28.2675Z" fill="#E1251B"/>
</svg>
