<svg width="16" height="14" viewBox="0 0 16 14" fill="none" xmlns="http://www.w3.org/2000/svg">
<path d="M15.9832 2.06714C15.4091 2.3148 14.7843 2.49304 14.1408 2.56246C14.8089 2.16552 15.3092 1.53843 15.5479 0.798832C14.921 1.1718 14.2341 1.43333 13.5179 1.57183C13.2185 1.2518 12.8565 0.996846 12.4543 0.822862C12.0521 0.648877 11.6183 0.559587 11.1801 0.560555C9.40711 0.560555 7.9812 1.99773 7.9812 3.76135C7.9812 4.00901 8.01122 4.25667 8.06 4.49495C5.40517 4.35611 3.03741 3.0878 1.46327 1.14593C1.17645 1.63583 1.02614 2.19365 1.02799 2.76134C1.02799 3.87205 1.59273 4.85143 2.45391 5.42742C1.9464 5.40743 1.45078 5.26794 1.00736 5.02029V5.05969C1.00736 6.61506 2.10681 7.90401 3.57212 8.20045C3.29699 8.27191 3.01397 8.30847 2.72971 8.30927C2.52145 8.30927 2.32445 8.28863 2.12557 8.26049C2.53083 9.5288 3.71096 10.45 5.11624 10.48C4.01678 11.3412 2.63965 11.8478 1.14432 11.8478C0.876021 11.8478 0.628362 11.8384 0.371323 11.8084C1.78973 12.7183 3.47268 13.2437 5.2851 13.2437C11.1689 13.2437 14.3884 8.36931 14.3884 4.13847C14.3884 3.99963 14.3884 3.86079 14.379 3.72195C15.0019 3.26604 15.5479 2.7013 15.9832 2.06714Z" fill="#EFF9FC"/>
</svg>
